<svg xmlns="http://www.w3.org/2000/svg" viewBox="0 0 101.31776 44.27699">
  <defs>
    <style>
      .cls-1 {
        fill: #003f8a;
      }
    </style>
  </defs>
  <title>-1Asset 1</title>
  <g id="Layer_2" data-name="Layer 2">
    <g id="Layer_1-2" data-name="Layer 1">
      <g>
        <g>
          <path class="cls-1" d="M8.42894,23.87738H0L23.87752,0V8.4528Z"/>
          <path class="cls-1" d="M47.75543,11.93887a11.70049,11.70049,0,0,1-.93143,4.65618,11.84827,11.84827,0,0,1-2.55464,3.78382,12.27625,12.27625,0,0,1-3.79679,2.55531,11.95469,11.95469,0,0,1-7.8318.51316,12.09774,12.09774,0,0,1-2.85363-1.205,11.97631,11.97631,0,0,1-4.27393-4.27443,12.11075,12.11075,0,0,1-1.20579-2.85364,11.66808,11.66808,0,0,1-.4299-3.17543h5.96936a5.65764,5.65764,0,0,0,.47766,2.3041,6.1141,6.1141,0,0,0,3.18774,3.18774,5.65974,5.65974,0,0,0,2.3041.47749,5.71849,5.71849,0,0,0,2.32783-.47749,6.16177,6.16177,0,0,0,1.89849-1.28943A5.99042,5.99042,0,0,0,41.32035,14.243a5.788,5.788,0,0,0,.46536-2.3041Z"/>
        </g>
        <g>
          <path class="cls-1" d="M3.64565,35.779,7.44748,43.8906H6.55382l-.94494-2.04184H1.84412L.94734,43.8906h-.894Zm1.618,5.2973L3.65777,37.63351,2.16648,41.07628Z"/>
          <path class="cls-1" d="M10.98755,35.779,14.7897,43.8906h-.894l-.9449-2.04184H9.186L8.28956,43.8906H7.39518Zm1.618,5.2973L11,37.63351,9.50871,41.07628Z"/>
          <path class="cls-1" d="M15.477,36.16542h2.68171a2.85016,2.85016,0,0,1,1.03181.17657,2.27394,2.27394,0,0,1,.77247.4799,2.11716,2.11716,0,0,1,.48579.71192,2.23445,2.23445,0,0,1,.17107.87182,2.29111,2.29111,0,0,1-.14335.81127,1.99679,1.99679,0,0,1-.41933.67313,2.30675,2.30675,0,0,1-.66757.48543,2.65088,2.65088,0,0,1-.88778.24826l2.22848,3.26688H19.72584l-2.20735-3.25582H16.30455V43.8906H15.477Zm2.62665,3.69688a2.13155,2.13155,0,0,0,.72816-.11562,1.50571,1.50571,0,0,0,.52975-.31474,1.34515,1.34515,0,0,0,.3203-.46362,1.44925,1.44925,0,0,0,.1101-.56269,1.49379,1.49379,0,0,0-.1101-.56853,1.33278,1.33278,0,0,0-.3203-.4688,1.50469,1.50469,0,0,0-.52975-.31475,2.1308,2.1308,0,0,0-.72816-.11565H16.30455v2.9244Z"/>
          <path class="cls-1" d="M22.02977,36.16542h.82754v3.31084H26.941V36.16542h.82754V43.8906H26.941V40.24874H22.85731V43.8906h-.82754Z"/>
          <path class="cls-1" d="M29.308,36.16542h.8386v4.933a2.67825,2.67825,0,0,0,.17657,1.03733,1.85778,1.85778,0,0,0,.4581.67314,1.68148,1.68148,0,0,0,.64022.36423,2.42031,2.42031,0,0,0,1.44561,0,1.684,1.684,0,0,0,.6402-.36423,1.85676,1.85676,0,0,0,.45773-.67314,2.67746,2.67746,0,0,0,.17661-1.03733v-4.933h.839V41.22a2.94063,2.94063,0,0,1-.24273,1.23578,2.64083,2.64083,0,0,1-1.55638,1.42377,3.13512,3.13512,0,0,1-2.07474,0,2.67688,2.67688,0,0,1-.91029-.53532,2.64357,2.64357,0,0,1-.64576-.88845A2.93553,2.93553,0,0,1,29.308,41.22Z"/>
          <path class="cls-1" d="M36.93548,41.62819a1.82553,1.82553,0,0,0,.11562.6565,1.557,1.557,0,0,0,.32584.52422,1.50689,1.50689,0,0,0,.50206.34764,1.62939,1.62939,0,0,0,.6565.127,1.85885,1.85885,0,0,0,.66788-.116,1.56079,1.56079,0,0,0,.52426-.32548,1.47467,1.47467,0,0,0,.34207-.491,1.53511,1.53511,0,0,0,.12119-.61254,1.07112,1.07112,0,0,0-.13225-.54084,1.3615,1.3615,0,0,0-.35317-.40268,2.74735,2.74735,0,0,0-.51316-.30921q-.29239-.13764-.60144-.25932-.43058-.16568-.82789-.33655a3.044,3.044,0,0,1-.70079-.41377,1.94935,1.94935,0,0,1-.491-.57963,1.73868,1.73868,0,0,1-.18767-.85524,2.03328,2.03328,0,0,1,.16-.80573,1.95443,1.95443,0,0,1,1.12013-1.08134,2.38307,2.38307,0,0,1,.87186-.15441,2.31489,2.31489,0,0,1,.88846.16551,2.07536,2.07536,0,0,1,.68972.4522,1.97309,1.97309,0,0,1,.44146.679,2.30516,2.30516,0,0,1,.15445.85523h-.8497a1.3692,1.3692,0,0,0-.36981-1.00447,1.28216,1.28216,0,0,0-.95458-.375,1.33648,1.33648,0,0,0-.95462.34764,1.20509,1.20509,0,0,0-.36945.92136.92381.92381,0,0,0,.14335.52422,1.39661,1.39661,0,0,0,.37534.37534,2.93351,2.93351,0,0,0,.53528.28705q.30336.12673.63434.25932.41967.1652.80017.34212a2.9512,2.9512,0,0,1,.67313.42483,1.8857,1.8857,0,0,1,.46915.60144,1.96567,1.96567,0,0,1,.17661.88292,2.22294,2.22294,0,0,1-.723,1.67725,2.34051,2.34051,0,0,1-.78911.47472,2.80259,2.80259,0,0,1-.97121.1655,2.49059,2.49059,0,0,1-.96018-.18213,2.32213,2.32213,0,0,1-.76691-.50763,2.39357,2.39357,0,0,1-.51316-.76691,2.45993,2.45993,0,0,1-.18767-.97124Z"/>
          <path class="cls-1" d="M44.75933,36.16542h.839v4.933a2.67825,2.67825,0,0,0,.17657,1.03733,1.857,1.857,0,0,0,.45774.67314,1.68148,1.68148,0,0,0,.64022.36423,2.42136,2.42136,0,0,0,1.44593,0,1.68254,1.68254,0,0,0,.63988-.36423,1.85752,1.85752,0,0,0,.45809-.67314,2.67822,2.67822,0,0,0,.1766-1.03733v-4.933h.83861V41.22a2.94063,2.94063,0,0,1-.24273,1.23578,2.64819,2.64819,0,0,1-.64576.88845,2.67626,2.67626,0,0,1-.9103.53532,3.135,3.135,0,0,1-2.0747,0,2.67806,2.67806,0,0,1-.91065-.53532,2.64286,2.64286,0,0,1-.64541-.88845A2.93564,2.93564,0,0,1,44.75933,41.22Z"/>
          <path class="cls-1" d="M51.94678,35.88947l5.39664,6.19128V36.16542h.82751v8.00113l-5.39664-6.16912V43.8906h-.82751Z"/>
          <path class="cls-1" d="M59.8925,36.16542H60.72V43.8906H59.8925Z"/>
          <path class="cls-1" d="M61.63657,36.16542h.90473l2.56606,6.08084,2.38912-6.08084h.88293l-3.261,8.11157Z"/>
          <path class="cls-1" d="M69.26375,36.16542h4.63487v.77248H70.09129v2.53836H73.5676v.77248H70.09129v2.86938h3.80733v.77248H69.26375Z"/>
          <path class="cls-1" d="M75.23031,36.16542h2.68206a2.85154,2.85154,0,0,1,1.03181.17657,2.26895,2.26895,0,0,1,.77212.4799,2.1181,2.1181,0,0,1,.48614.71192,2.241,2.241,0,0,1,.17107.87182,2.28349,2.28349,0,0,1-.14406.81127,2.00128,2.00128,0,0,1-.41894.67313,2.30284,2.30284,0,0,1-.66757.48543,2.65132,2.65132,0,0,1-.88781.24826L80.4836,43.8906H79.47949l-2.2077-3.25582H76.05785V43.8906h-.82754ZM77.857,39.8623a2.13362,2.13362,0,0,0,.72851-.11562,1.50571,1.50571,0,0,0,.52975-.31474,1.349,1.349,0,0,0,.32-.46362,1.44942,1.44942,0,0,0,.11009-.56269,1.494,1.494,0,0,0-.11009-.56853,1.33651,1.33651,0,0,0-.32-.4688,1.50469,1.50469,0,0,0-.52975-.31475,2.13287,2.13287,0,0,0-.72851-.11565H76.05785v2.9244Z"/>
          <path class="cls-1" d="M82.07948,41.62819a1.8249,1.8249,0,0,0,.11565.6565,1.55607,1.55607,0,0,0,.32545.52422,1.50876,1.50876,0,0,0,.50241.34764,1.62825,1.62825,0,0,0,.65651.127,1.86057,1.86057,0,0,0,.66791-.116,1.56051,1.56051,0,0,0,.52422-.32548,1.47993,1.47993,0,0,0,.34208-.491,1.53459,1.53459,0,0,0,.12119-.61254,1.07122,1.07122,0,0,0-.13225-.54084,1.36111,1.36111,0,0,0-.35318-.40268,2.76955,2.76955,0,0,0-.51315-.30921q-.29293-.13764-.60144-.25932-.43053-.16568-.82786-.33655a3.03621,3.03621,0,0,1-.70083-.41377,1.94439,1.94439,0,0,1-.491-.57963,1.73868,1.73868,0,0,1-.18767-.85524,2.03329,2.03329,0,0,1,.16-.80573,1.95437,1.95437,0,0,1,1.12012-1.08134,2.38194,2.38194,0,0,1,.87187-.15441,2.31466,2.31466,0,0,1,.88845.16551,2.08224,2.08224,0,0,1,.68973.4522,1.979,1.979,0,0,1,.44149.679,2.31326,2.31326,0,0,1,.15441.85523h-.8497a1.3693,1.3693,0,0,0-.36977-1.00447,1.28229,1.28229,0,0,0-.95461-.375,1.33651,1.33651,0,0,0-.95462.34764,1.20531,1.20531,0,0,0-.36981.92136.92147.92147,0,0,0,.14371.52422,1.40061,1.40061,0,0,0,.375.37534,2.95752,2.95752,0,0,0,.53531.28705q.30331.12673.63466.25932.41915.1652.80021.34212a2.95186,2.95186,0,0,1,.6731.42483,1.886,1.886,0,0,1,.46915.60144,1.97014,1.97014,0,0,1,.1766.88292,2.22257,2.22257,0,0,1-.723,1.67725,2.34041,2.34041,0,0,1-.78911.47472,2.80237,2.80237,0,0,1-.9712.1655,2.4903,2.4903,0,0,1-.96015-.18213,2.32209,2.32209,0,0,1-.767-.50763,2.394,2.394,0,0,1-.51315-.76691,2.45359,2.45359,0,0,1-.18767-.97124Z"/>
          <path class="cls-1" d="M87.44183,36.16542h.82754V43.8906h-.82754Z"/>
          <path class="cls-1" d="M89.18587,36.16542h5.35236v.77248h-2.2624v6.9527h-.82755V36.9379H89.18587Z"/>
          <path class="cls-1" d="M98.6468,43.8906h-.82751v-3.609l-2.64881-4.11622h.97121l2.10244,3.3548,2.10242-3.3548h.97121l-2.671,4.13838Z"/>
        </g>
      </g>
    </g>
  </g>
</svg>
