<svg xmlns="http://www.w3.org/2000/svg" viewBox="0 0 58.015 47.7809"><defs><style>.cls-1{fill:#e6e6e6;}.cls-2{fill:#999;}.cls-3{fill:#666;}.cls-4{fill:#b3b3b3;}.cls-5{fill:#1a1a1a;}.cls-6,.cls-7,.cls-8{fill:none;stroke-miterlimit:10;}.cls-6,.cls-7{stroke:#1a1a1a;}.cls-7{stroke-width:0.75px;}.cls-8{stroke:gray;stroke-width:0.4px;}</style></defs><title>-1Asset 14</title><g id="Layer_2" data-name="Layer 2"><g id="Layer_1-2" data-name="Layer 1"><ellipse class="cls-1" cx="29.0075" cy="36.24843" rx="29.03078" ry="11.47249" transform="translate(-1.55546 1.30148) rotate(-2.50318)"/><polyline class="cls-2" points="31.869 0.592 40.773 5.97 42.075 13.219 45.917 16.707 46.288 20.449 48.637 22.082 51.092 22.822 46.292 28.756 42.079 41.845 36.423 41.459 24.362 33.717"/><polyline class="cls-3" points="26.372 33.404 33.362 36.994 33.935 31.094 35.751 25.444 40.033 27.652 39.067 32.197 38.09 33.59 37.553 39.124 36.423 41.459 34.3 40.905 31.336 41.166 29.068 40.243 21.334 41.899 18.174 41.593 20.895 36.461"/><polygon class="cls-4" points="22.58 25.971 18.939 24.213 13.611 23.294 11.149 23.858 7.958 26.758 7.611 30.335 6.8 31.46 6.153 38.118 9.675 40.065 13.98 41.185 18.176 33.568 22.58 25.971"/><polygon class="cls-3" points="51.092 22.822 45.633 27.671 45.345 30.632 39.939 40.334 43.203 37.412 42.768 41.891 52.668 35.313 53.373 28.059 51.981 26.834 51.092 22.822"/><polygon class="cls-3" points="33.434 1.018 32.123 14.509 27.147 18.879 28.589 4.029 30.702 0.478 33.434 1.018"/><polygon class="cls-4" points="25.14 38.859 26.217 34.997 26.569 31.374 28.2 24.912 28.485 16.814 30.595 14.712 31.87 5.708 31.42 0.548 23.791 1.836 22.94 2.634 17.769 4.238 17.566 6.325 16.48 6.457 13.534 13.757 13.013 19.123 10.449 26.297 21.861 38.54 25.14 38.859"/><polygon class="cls-3" points="22.58 25.971 17.656 26.997 13.693 36.807 13.98 41.185 18.174 41.593 22.025 36.851 21.982 32.132 22.58 25.971"/><polyline class="cls-3" points="41.341 19.145 43.054 23.601 45.341 23.824 46.964 21.836 44.778 21.199 44.019 18.15 42.596 18.011"/><polygon class="cls-5" points="27.434 27.946 26.725 31.413 26.729 31.389 26.473 36.38 26.471 36.413 26.449 36.479 25.617 39.038 25.529 39.311 25.202 39.365 23.197 39.693 22.804 39.758 22.591 39.364 21.398 37.157 22.554 37.306 20.519 39.903 19.703 38.521 22.948 37.687 23.357 39.644 20.05 40.18 17.55 40.585 19.233 38.798 21.495 36.396 22.24 35.605 22.652 36.544 23.659 38.843 23.054 38.514 25.078 38.352 24.663 38.679 25.724 36.206 25.701 36.305 26.409 31.358 26.412 31.339 26.413 31.334 27.434 27.946"/><polygon class="cls-5" points="32.416 0.461 32.709 5.634 32.716 5.758 32.704 5.826 31.103 14.784 31.07 14.971 30.957 15.076 28.771 17.102 28.89 16.829 28.313 24.915 28.312 24.932 28.309 24.939 27.434 27.946 28.09 24.884 28.087 24.908 28.079 16.8 28.079 16.654 28.198 16.527 30.232 14.348 30.086 14.64 31.037 5.59 31.031 5.781 30.424 0.635 32.416 0.461"/><polygon class="cls-6" points="45.799 16.189 42.075 13.219 40.773 5.97 32.959 0.697 30.971 0.504 23.515 1.887 22.94 2.634 17.769 4.238 17.566 6.325 16.573 6.228 13.534 13.757 13.283 16.341 12.984 19.422 11.149 23.858 7.958 26.758 7.611 30.335 6.8 31.46 6.375 35.832 6.153 38.118 9.675 40.065 13.98 41.185 17.26 41.504 21.334 41.899 24.928 41.045 28.531 40.091 29.629 40.197 31.336 41.166 33.977 40.82 36.423 41.459 40.01 41.707 43.299 41.926 48.465 38.315 52.668 35.313 53.373 28.059 51.828 26.404 51.893 24.705 51.32 22.342 48.637 22.082 46.288 20.449 46.151 17.727 45.799 16.189"/><polygon class="cls-5" points="41.139 6.31 39.28 8.181 39.331 8.114 36.89 11.873 36.867 11.909 36.848 11.926 34.77 13.791 34.787 13.771 31.839 17.441 34.53 13.578 34.534 13.572 34.547 13.558 36.493 11.556 36.451 11.609 38.629 7.692 38.643 7.667 38.68 7.624 40.406 5.63 41.139 6.31"/><path class="cls-5" d="M18.03318,6.14532l.85711,2.57956c.2666.868.65711,1.692.97956,2.5401l1.72912,5.1814-2.19012-4.98789c-.4-.81766-.86505-1.60367-1.21173-2.44729L17.0997,6.504Z"/><polyline class="cls-7" points="11.149 23.858 13.611 23.294 18.939 24.213 22.58 25.971 21.982 32.132 22.102 36.056 19.876 39.35 17.26 41.504"/><path class="cls-5" d="M45.06357,21.30572l-.806-1.56128c-.24969-.49646-.51959-.95978-.7265-1.42651l.257.29342-1.137-.43878.36254.06189c-1.345.27982-2.69494.52045-4.04754.74l.65515-.4581c-.5622,1.121-1.0968,2.25617-1.701,3.3555l-.13049-1.00039c.43731.50421.89026.99432,1.31482,1.5101l.21032.25555.00684.25516.0282,1.06012-.91095-.74008c1.36639-.14456,2.74859-.17493,4.12219-.268l-.25671.11548c.40173-.29251.85876-.54645,1.31231-.841Zm.0965.02628L42.672,23.48965l-.014.01218-.0191.00271-4.07831.58414-.08691.01245-.00647-.08832-.07691-1.05676.02216.05216-1.35-1.47815-.04474-.049.03064-.05909,1.73157-3.33972.02148-.04147.04584-.00562,4.07813-.49811.02154-.00262.0188.00952,1.08246.54764.024.01215.00836.02478Z"/><polygon class="cls-5" points="40.033 27.652 39.224 32.23 39.219 32.257 39.198 32.289 38.27 33.716 38.308 33.611 37.983 38.831 37.98 38.88 37.951 38.952 36.882 41.659 35.965 41.259 37.219 38.633 37.187 38.754 37.872 33.569 37.881 33.504 37.911 33.464 38.935 32.105 38.91 32.164 40.033 27.652"/><polygon class="cls-5" points="41.773 41.794 42.712 37.365 43.532 37.78 39.939 40.334 42.874 37.045 43.674 36.149 43.694 37.46 43.764 41.987 41.773 41.794"/><polygon class="cls-5" points="51.424 23.195 45.815 27.876 45.906 27.698 45.584 30.204 45.579 30.246 45.564 30.273 44.063 33.068 44.06 33.074 44.059 33.075 42.31 35.75 43.891 32.972 43.887 32.98 45.213 30.098 45.193 30.166 45.359 27.645 45.366 27.545 45.45 27.466 50.76 22.448 51.424 23.195"/><polygon class="cls-5" points="41.923 24.945 40.181 26.499 40.163 26.515 40.138 26.51 35.718 25.584 35.887 25.491 34.226 30.698 34.239 30.639 33.753 37.032 33.698 36.791 36.431 41.09 35.577 41.609 33.026 37.198 32.956 37.078 32.971 36.956 33.724 30.589 33.729 30.554 33.737 30.53 35.615 25.398 35.66 25.273 35.783 25.304 40.16 26.414 40.117 26.425 41.923 24.945"/><polyline class="cls-6" points="29.629 40.197 30.791 38.467 33.362 36.994"/><polygon class="cls-5" points="22.349 2.679 25.546 8.119 25.564 8.15 25.569 8.164 27.992 14.966 25.073 8.362 25.096 8.406 21.506 3.217 22.349 2.679"/><polygon class="cls-5" points="24.688 1.394 26.406 5.792 26.446 5.893 26.447 5.899 27.729 12.881 25.288 6.215 25.329 6.322 22.893 2.277 24.688 1.394"/><polygon class="cls-5" points="7.828 30.402 9.169 33.323 9.205 33.401 9.202 33.449 9.081 35.669 9.077 35.64 9.394 37.166 8.863 35.701 8.86 35.695 8.858 35.672 8.662 33.458 8.695 33.583 6.951 30.883 7.828 30.402"/><polygon class="cls-5" points="10.888 24.153 14.409 26.796 14.428 26.811 16.353 28.672 14.185 27.1 14.204 27.114 10.346 24.993 10.888 24.153"/><polyline class="cls-8" points="15.038 19.219 15.607 16.458 15.965 17.402 16.603 16.827 16.034 19.587"/><polyline class="cls-8" points="17.598 17.383 16.831 18.005 17.14 18.827"/><polyline class="cls-8" points="17.466 18.183 17.781 19.007 17.003 19.653"/><polyline class="cls-8" points="18.034 20.327 18.604 17.566 18.943 18.437 19.614 17.892 19.035 20.697"/><polyline class="cls-8" points="20.625 18.744 20.196 17.953 19.618 20.758"/><polyline class="cls-8" points="20.551 21.103 22.184 19.731 21.729 18.52 20.862 19.242 21.768 21.458"/><polyline class="cls-8" points="22.245 21.625 23.868 20.301 23.418 19.211 22.573 19.874 23.438 22.066"/><polyline class="cls-8" points="25.46 19.966 24.899 20.428 24.509 19.614 23.97 22.225 24.588 21.709 24.939 22.49"/></g></g></svg>