<svg xmlns="http://www.w3.org/2000/svg" xmlns:xlink="http://www.w3.org/1999/xlink" viewBox="0 0 559.84198 218.88901">
  <defs>
    <style>
      .cls-1 {
        fill: none;
      }

      .cls-2 {
        fill: #004783;
      }

      .cls-3 {
        fill: #111617;
      }

      .cls-4 {
        clip-path: url(#clip-path);
      }

      .cls-5 {
        clip-path: url(#clip-path-2);
      }

      .cls-6 {
        fill: url(#linear-gradient);
      }

      .cls-7 {
        fill: #fff;
      }
    </style>
    <clipPath id="clip-path">
      <rect class="cls-1" x="0.06" width="559.78198" height="218.88901"/>
    </clipPath>
    <clipPath id="clip-path-2">
      <rect class="cls-1" x="409.41599" y="45.46701" width="2.79501" height="108.119"/>
    </clipPath>
    <linearGradient id="linear-gradient" y1="218.889" x2="1" y2="218.889" gradientTransform="matrix(0, 108.119, 108.119, 0, -23255.24734, 45.46681)" gradientUnits="userSpaceOnUse">
      <stop offset="0" stop-color="#fff"/>
      <stop offset="0.02849" stop-color="#eff3f7"/>
      <stop offset="0.13447" stop-color="#bbcadc"/>
      <stop offset="0.24477" stop-color="#8ca6c4"/>
      <stop offset="0.35717" stop-color="#6588b0"/>
      <stop offset="0.47221" stop-color="#446fa0"/>
      <stop offset="0.59079" stop-color="#2c5c93"/>
      <stop offset="0.71431" stop-color="#1a4f8a"/>
      <stop offset="0.84601" stop-color="#0f4785"/>
      <stop offset="1" stop-color="#0c4483"/>
    </linearGradient>
  </defs>
  <title>-1Asset 1</title>
  <g id="Layer_2" data-name="Layer 2">
    <g id="Layer_1-2" data-name="Layer 1">
      <path class="cls-2" d="M6.547,192.816H1.542V179.15H6.433c4.735,0,7.981,2.028,7.981,6.784,0,4.738-2.937,6.882-7.867,6.882m-.173-11.095H4.808v8.525H6.76c3.152,0,4.369-1.432,4.369-4.119,0-2.936-1.469-4.406-4.755-4.406"/>
      <path class="cls-2" d="M26.159,192.893c-1.43.078-3.324,0-3.672-1.1a5.20335,5.20335,0,0,1-3.034,1.178c-2.319,0-3.634-1.024-3.634-3.131,0-2.668,2.435-3.111,4.523-3.111h1.836v-.911c0-.927-.599-1.082-1.913-1.082a14.37274,14.37274,0,0,0-3.151.465l-.638-2.34a11.75232,11.75232,0,0,1,4.272-.849c2.222,0,4.58.134,4.58,3.189v4.813c0,.347.348.424.947.443l-.116,2.436m-3.981-4.291-1.585.039c-1.662.041-1.623.56-1.623,1.025,0,.543.271.791.869.791a10.32843,10.32843,0,0,0,2.339-.328Z"/>
      <path class="cls-2" d="M35.288,192.816v-6.361c0-1.449-.329-1.699-1.412-1.699a5.65154,5.65154,0,0,0-2.357.578v7.482H28.29V182.262h3.229v1.064a6.27353,6.27353,0,0,1,3.44-1.373c3.305,0,3.537,1.838,3.537,4.235v6.628H35.288"/>
      <path class="cls-2" d="M42.572,181.219l-2.224-2.242,2.224-2.223,2.222,2.223-2.222,2.242m-1.566,1.043h3.209v10.554H41.006Z"/>
      <path class="cls-2" d="M50.014,193.01a14.017,14.017,0,0,1-3.845-.408l.348-2.434a23.33055,23.33055,0,0,0,3.19.252c1.623,0,1.815-.387,1.815-.695,0-1.141-5.315-.6-5.315-4.391,0-2.279,2.147-3.303,4.445-3.303a10.608,10.608,0,0,1,3.558.559l-.542,2.34a12.12131,12.12131,0,0,0-2.918-.348c-1.102,0-1.315.367-1.315.598,0,1.201,5.275.873,5.275,4.408,0,2.783-2.917,3.422-4.696,3.422"/>
      <path class="cls-2" d="M63.59,192.816v-6.361c0-1.449-.329-1.699-1.412-1.699a5.64737,5.64737,0,0,0-2.357.578v7.482H56.592V178.244h3.229v5.082a6.27679,6.27679,0,0,1,3.44-1.373c3.306,0,3.537,1.838,3.537,4.235v6.628H63.59"/>
      <path class="cls-2" d="M88.71,193.068c-2.668-.138-4.118-1.527-5.547-3.189l-1.547-1.799c-.232.022-.484.022-.735.022H79.877v4.712H76.571V179.152h5.315c3.074,0,5.278,1.409,5.278,4.465a4.1086,4.1086,0,0,1-2.204,3.69l1.393,1.507a5.82446,5.82446,0,0,0,3.09,1.741l-.733,2.513m-7.249-11.326H79.877v4.057h1.121c1.951,0,2.782-.811,2.782-2.106,0-1.373-.56-1.951-2.319-1.951"/>
      <path class="cls-2" d="M93.644,188.525c-.02,1.664,1.294,1.836,2.976,1.836a18.53789,18.53789,0,0,0,3.015-.252l.483,2.455a14.9292,14.9292,0,0,1-3.963.426c-3.478,0-5.721-1.084-5.721-5.297,0-4.308,2.262-5.681,5.451-5.681,3.325,0,4.6,2.166,4.6,5.353v1.16H93.644m2.009-4.058a1.83541,1.83541,0,0,0-1.913,1.855h3.44a1.62029,1.62029,0,0,0-1.527-1.855"/>
      <path class="cls-2" d="M105.81,193.01a14.01246,14.01246,0,0,1-3.845-.408l.348-2.434a23.32832,23.32832,0,0,0,3.188.252c1.624,0,1.816-.387,1.816-.695,0-1.141-5.316-.6-5.316-4.391,0-2.279,2.147-3.303,4.448-3.303a10.60021,10.60021,0,0,1,3.556.559l-.541,2.34a12.13557,12.13557,0,0,0-2.919-.348c-1.102,0-1.315.367-1.315.598,0,1.201,5.277.873,5.277,4.408,0,2.783-2.919,3.422-4.697,3.422"/>
      <path class="cls-2" d="M115.074,188.525c-.022,1.664,1.293,1.836,2.975,1.836a18.54386,18.54386,0,0,0,3.014-.252l.484,2.455a14.92319,14.92319,0,0,1-3.964.426c-3.479,0-5.72-1.084-5.72-5.297,0-4.308,2.262-5.681,5.45-5.681,3.325,0,4.601,2.166,4.601,5.353v1.16h-6.84m2.008-4.058a1.83643,1.83643,0,0,0-1.915,1.855h3.442a1.62029,1.62029,0,0,0-1.527-1.855"/>
      <path class="cls-2" d="M133.598,192.893c-1.431.078-3.325,0-3.673-1.1a5.20076,5.20076,0,0,1-3.034,1.178c-2.32,0-3.634-1.024-3.634-3.131,0-2.668,2.436-3.111,4.524-3.111h1.836v-.911c0-.927-.599-1.082-1.915-1.082a14.36368,14.36368,0,0,0-3.149.465l-.638-2.34a11.75112,11.75112,0,0,1,4.271-.849c2.223,0,4.581.134,4.581,3.189v4.813c0,.347.348.424.947.443l-.116,2.436m-3.981-4.291-1.586.039c-1.662.041-1.624.56-1.624,1.025,0,.543.271.791.871.791a10.33612,10.33612,0,0,0,2.339-.328Z"/>
      <path class="cls-2" d="M142.706,184.873a5.91087,5.91087,0,0,0-1.411-.117,3.46945,3.46945,0,0,0-2.339.908v7.152H135.73V182.262h3.226v1.414a3.739,3.739,0,0,1,2.726-1.625,4.61619,4.61619,0,0,1,1.449.176l-.425,2.646"/>
      <path class="cls-2" d="M151.986,185.064a5.48771,5.48771,0,0,0-2.397-.443c-1.333,0-2.61.598-2.61,2.861,0,2.028.504,2.938,3.035,2.938a14.18632,14.18632,0,0,0,2.223-.231l.445,2.452a10.772,10.772,0,0,1-2.842.351c-4.465,0-6.165-1.605-6.165-5.549,0-3.285,2.204-5.451,5.779-5.451a6.73713,6.73713,0,0,1,3.364.735l-.832,2.337"/>
      <path class="cls-2" d="M161.495,192.816v-6.361c0-1.449-.33-1.699-1.412-1.699a5.66067,5.66067,0,0,0-2.358.578v7.482h-3.228V178.244h3.228v5.082a6.28328,6.28328,0,0,1,3.44-1.373c3.306,0,3.537,1.838,3.537,4.235v6.628h-3.207"/>
      <rect class="cls-2" x="174.476" y="179.17201" width="3.286" height="13.642"/>
      <path class="cls-2" d="M187.457,192.816v-6.361c0-1.449-.33-1.699-1.412-1.699a5.6515,5.6515,0,0,0-2.357.578v7.482H180.46V182.262h3.228v1.064a6.27978,6.27978,0,0,1,3.439-1.373c3.307,0,3.539,1.838,3.539,4.235v6.628h-3.209"/>
      <path class="cls-2" d="M196.498,193.01a14.02019,14.02019,0,0,1-3.846-.408l.348-2.434a23.36275,23.36275,0,0,0,3.189.252c1.624,0,1.815-.387,1.815-.695,0-1.141-5.315-.6-5.315-4.391,0-2.279,2.146-3.303,4.447-3.303a10.59208,10.59208,0,0,1,3.556.559l-.541,2.34a12.13553,12.13553,0,0,0-2.919-.348c-1.101,0-1.314.367-1.314.598,0,1.201,5.276.873,5.276,4.408,0,2.783-2.919,3.422-4.696,3.422"/>
      <path class="cls-2" d="M208.001,193.029c-2.031,0-4.408.096-4.408-3.5v-4.888h-1.545v-2.379h1.545v-2.164h3.209v2.164h3.266v2.379h-3.266v4.869c0,.773.29.832,1.16.832.715,0,2.281-.213,2.281-.213l.308,2.531a10.40334,10.40334,0,0,1-2.55.369"/>
      <path class="cls-2" d="M213.729,181.219l-2.224-2.242,2.224-2.223,2.222,2.223-2.222,2.242m-1.566,1.043h3.208v10.554h-3.208Z"/>
      <path class="cls-2" d="M222.724,193.029c-2.03,0-4.407.096-4.407-3.5v-4.888h-1.546v-2.379h1.546v-2.164h3.208v2.164h3.267v2.379h-3.267v4.869c0,.773.29.832,1.16.832.716,0,2.281-.213,2.281-.213l.308,2.531a10.39666,10.39666,0,0,1-2.55.369"/>
      <path class="cls-2" d="M233.815,192.816v-1.082a6.284,6.284,0,0,1-3.439,1.373c-3.306,0-3.537-1.836-3.537-4.234v-6.611h3.208v6.342c0,1.447.329,1.701,1.412,1.701a5.6177,5.6177,0,0,0,2.356-.58v-7.463h3.228v10.554h-3.228"/>
      <path class="cls-2" d="M244.511,193.029c-2.03,0-4.407.096-4.407-3.5v-4.888h-1.547v-2.379h1.547v-2.164h3.208v2.164h3.267v2.379h-3.267v4.869c0,.773.29.832,1.16.832.716,0,2.282-.213,2.282-.213l.308,2.531a10.41143,10.41143,0,0,1-2.551.369"/>
      <path class="cls-2" d="M251.253,188.525c-.021,1.664,1.293,1.836,2.976,1.836a18.54414,18.54414,0,0,0,3.014-.252l.484,2.455a14.9291,14.9291,0,0,1-3.963.426c-3.479,0-5.722-1.084-5.722-5.297,0-4.308,2.262-5.681,5.451-5.681,3.325,0,4.6,2.166,4.6,5.353v1.16h-6.84m2.009-4.058a1.83459,1.83459,0,0,0-1.914,1.855h3.441a1.62028,1.62028,0,0,0-1.527-1.855"/>
      <path class="cls-2" d="M271.868,193.047c-3.478,0-5.352-2.108-5.352-5.41,0-3.5,2.183-5.645,5.527-5.645,3.749,0,5.429,2.106,5.429,5.547,0,3.596-2.356,5.508-5.604,5.508m.116-8.502c-1.739,0-2.222,1.295-2.222,3.014,0,1.816.541,2.92,2.261,2.92,1.739,0,2.165-1.141,2.165-2.94,0-1.699-.426-2.994-2.204-2.994"/>
      <path class="cls-2" d="M286.078,180.795a11.47577,11.47577,0,0,0-1.78-.156c-.792,0-1.14.445-1.14,1.275v.348h2.262v2.359h-2.262v12.447H279.93V184.621h-1.546v-2.359h1.546v-.541c0-3.264,2.07-3.826,4.274-3.826a8.59883,8.59883,0,0,1,2.491.406l-.617,2.494"/>
      <polyline class="cls-2" points="300.413 181.721 300.413 192.816 297.126 192.816 297.126 181.721 292.837 181.721 292.837 179.15 304.703 179.15 304.703 181.721 300.413 181.721"/>
      <path class="cls-2" d="M311.584,184.873a5.903,5.903,0,0,0-1.41-.117,3.47694,3.47694,0,0,0-2.341.908v7.152h-3.225V182.262h3.225v1.414a3.74679,3.74679,0,0,1,2.727-1.625,4.61515,4.61515,0,0,1,1.45.176l-.426,2.646"/>
      <path class="cls-2" d="M322.945,192.893c-1.432.078-3.328,0-3.675-1.1a5.19769,5.19769,0,0,1-3.033,1.178c-2.32,0-3.634-1.024-3.634-3.131,0-2.668,2.434-3.111,4.522-3.111h1.838v-.911c0-.927-.601-1.082-1.915-1.082a14.38162,14.38162,0,0,0-3.151.465l-.638-2.34a11.75677,11.75677,0,0,1,4.272-.849c2.222,0,4.581.134,4.581,3.189v4.813c0,.347.346.424.946.443l-.113,2.436m-3.982-4.291-1.587.039c-1.662.041-1.623.56-1.623,1.025,0,.543.271.791.869.791a10.353,10.353,0,0,0,2.341-.328Z"/>
      <path class="cls-2" d="M332.07,192.816v-6.361c0-1.449-.329-1.699-1.41-1.699a5.63891,5.63891,0,0,0-2.357.578v7.482h-3.23V182.262h3.23v1.064a6.27292,6.27292,0,0,1,3.438-1.373c3.307,0,3.538,1.838,3.538,4.235v6.628H332.07"/>
      <path class="cls-2" d="M341.113,193.01a14.03843,14.03843,0,0,1-3.849-.408l.35-2.434a23.37388,23.37388,0,0,0,3.189.252c1.622,0,1.817-.387,1.817-.695,0-1.141-5.317-.6-5.317-4.391,0-2.279,2.147-3.303,4.447-3.303a10.588,10.588,0,0,1,3.556.559l-.541,2.34a12.1335,12.1335,0,0,0-2.918-.348c-1.102,0-1.315.367-1.315.598,0,1.201,5.276.873,5.276,4.408,0,2.783-2.918,3.422-4.695,3.422"/>
      <rect class="cls-2" x="347.71201" y="178.24401" width="3.229" height="14.57"/>
      <path class="cls-2" d="M363.196,192.893c-1.429.078-3.322,0-3.673-1.1a5.20034,5.20034,0,0,1-3.033,1.178c-2.318,0-3.635-1.024-3.635-3.131,0-2.668,2.437-3.111,4.523-3.111h1.836v-.911c0-.927-.599-1.082-1.912-1.082a14.38153,14.38153,0,0,0-3.151.465l-.637-2.34a11.74462,11.74462,0,0,1,4.273-.849c2.219,0,4.578.134,4.578,3.189v4.813c0,.347.349.424.949.443l-.118,2.436m-3.982-4.291-1.585.039c-1.661.041-1.622.56-1.622,1.025,0,.543.27.791.869.791a10.28931,10.28931,0,0,0,2.338-.328Z"/>
      <path class="cls-2" d="M370.082,193.029c-2.029,0-4.406.096-4.406-3.5v-4.888h-1.547v-2.379h1.547v-2.164h3.209v2.164h3.265v2.379h-3.265v4.869c0,.773.289.832,1.158.832.715,0,2.281-.213,2.281-.213l.308,2.531a10.39638,10.39638,0,0,1-2.55.369"/>
      <path class="cls-2" d="M375.81,181.219l-2.223-2.242,2.223-2.223,2.223,2.223-2.223,2.242m-1.565,1.043h3.209v10.554h-3.209Z"/>
      <path class="cls-2" d="M384.696,193.047c-3.48,0-5.355-2.108-5.355-5.41,0-3.5,2.185-5.645,5.528-5.645,3.751,0,5.432,2.106,5.432,5.547,0,3.596-2.358,5.508-5.605,5.508m.116-8.502c-1.741,0-2.225,1.295-2.225,3.014,0,1.816.543,2.92,2.263,2.92,1.74,0,2.165-1.141,2.165-2.94,0-1.699-.425-2.994-2.203-2.994"/>
      <path class="cls-2" d="M399.282,192.816v-6.361c0-1.449-.329-1.699-1.411-1.699a5.6566,5.6566,0,0,0-2.358.578v7.482h-3.229V182.262h3.229v1.064a6.27346,6.27346,0,0,1,3.44-1.373c3.304,0,3.537,1.838,3.537,4.235v6.628h-3.208"/>
      <path class="cls-2" d="M414.713,192.893c-1.429.078-3.325,0-3.673-1.1a5.19815,5.19815,0,0,1-3.034,1.178c-2.317,0-3.633-1.024-3.633-3.131,0-2.668,2.435-3.111,4.524-3.111h1.836v-.911c0-.927-.6-1.082-1.915-1.082a14.38144,14.38144,0,0,0-3.15.465l-.637-2.34a11.74422,11.74422,0,0,1,4.269-.849c2.225,0,4.581.134,4.581,3.189v4.813c0,.347.348.424.949.443l-.117,2.436m-3.98-4.291-1.585.039c-1.665.041-1.625.56-1.625,1.025,0,.543.27.791.869.791a10.35273,10.35273,0,0,0,2.341-.328Z"/>
      <rect class="cls-2" x="416.867" y="178.24401" width="3.229" height="14.57"/>
      <polyline class="cls-2" points="438.317 192.816 433.077 183.676 433.155 185.49 433.155 192.816 429.87 192.816 429.87 179.15 433.678 179.15 439.052 188.525 438.954 186.998 438.954 179.15 442.24 179.15 442.24 192.816 438.317 192.816"/>
      <path class="cls-2" d="M447.685,188.525c-.018,1.664,1.295,1.836,2.977,1.836a18.535,18.535,0,0,0,3.014-.252l.486,2.455a14.95462,14.95462,0,0,1-3.964.426c-3.48,0-5.721-1.084-5.721-5.297,0-4.308,2.263-5.681,5.449-5.681,3.324,0,4.602,2.166,4.602,5.353v1.16h-6.843m2.01-4.058a1.83359,1.83359,0,0,0-1.912,1.855h3.438a1.61751,1.61751,0,0,0-1.526-1.855"/>
      <path class="cls-2" d="M463.511,192.816v-1.082a6.27765,6.27765,0,0,1-3.44,1.373c-3.303,0-3.536-1.836-3.536-4.234v-6.611h3.209v6.342c0,1.447.327,1.701,1.41,1.701a5.61859,5.61859,0,0,0,2.357-.58v-7.463h3.229v10.554h-3.229"/>
      <path class="cls-2" d="M476.238,184.873a5.92765,5.92765,0,0,0-1.411-.117,3.47625,3.47625,0,0,0-2.34.908v7.152h-3.225V182.262h3.225v1.414a3.741,3.741,0,0,1,2.727-1.625,4.61348,4.61348,0,0,1,1.448.176l-.424,2.646"/>
      <path class="cls-2" d="M482.556,193.047c-3.48,0-5.355-2.108-5.355-5.41,0-3.5,2.185-5.645,5.529-5.645,3.748,0,5.428,2.106,5.428,5.547,0,3.596-2.356,5.508-5.602,5.508m.114-8.502c-1.74,0-2.222,1.295-2.222,3.014,0,1.816.541,2.92,2.261,2.92,1.739,0,2.166-1.141,2.166-2.94,0-1.699-.427-2.994-2.205-2.994"/>
      <path class="cls-2" d="M493.363,193.01a14.00654,14.00654,0,0,1-3.846-.408l.347-2.434a23.38806,23.38806,0,0,0,3.192.252c1.622,0,1.814-.387,1.814-.695,0-1.141-5.314-.6-5.314-4.391,0-2.279,2.144-3.303,4.444-3.303a10.608,10.608,0,0,1,3.558.559l-.542,2.34a12.11511,12.11511,0,0,0-2.918-.348c-1.101,0-1.316.367-1.316.598,0,1.201,5.277.873,5.277,4.408,0,2.783-2.918,3.422-4.696,3.422"/>
      <path class="cls-2" d="M507.717,185.064a5.49181,5.49181,0,0,0-2.396-.443c-1.335,0-2.611.598-2.611,2.861,0,2.028.503,2.938,3.036,2.938a14.24849,14.24849,0,0,0,2.223-.231l.445,2.452a10.78678,10.78678,0,0,1-2.844.351c-4.464,0-6.163-1.605-6.163-5.549,0-3.285,2.202-5.451,5.778-5.451a6.73725,6.73725,0,0,1,3.364.735l-.832,2.337"/>
      <path class="cls-2" d="M511.799,181.219l-2.223-2.242,2.223-2.223,2.223,2.223-2.223,2.242m-1.565,1.043h3.209v10.554h-3.209Z"/>
      <path class="cls-2" d="M518.586,188.525c-.019,1.664,1.295,1.836,2.977,1.836a18.5967,18.5967,0,0,0,3.018-.252l.481,2.455a14.92334,14.92334,0,0,1-3.964.426c-3.477,0-5.721-1.084-5.721-5.297,0-4.308,2.262-5.681,5.451-5.681,3.326,0,4.6,2.166,4.6,5.353v1.16h-6.842m2.012-4.058a1.83617,1.83617,0,0,0-1.914,1.855h3.441a1.62081,1.62081,0,0,0-1.527-1.855"/>
      <path class="cls-2" d="M534.488,192.816v-6.361c0-1.449-.329-1.699-1.413-1.699a5.6683,5.6683,0,0,0-2.357.578v7.482h-3.23V182.262h3.23v1.064a6.28009,6.28009,0,0,1,3.441-1.373c3.304,0,3.537,1.838,3.537,4.235v6.628h-3.208"/>
      <path class="cls-2" d="M547.958,185.064a5.48059,5.48059,0,0,0-2.396-.443c-1.333,0-2.611.598-2.611,2.861,0,2.028.505,2.938,3.036,2.938a14.23708,14.23708,0,0,0,2.223-.231l.446,2.452a10.78226,10.78226,0,0,1-2.842.351c-4.465,0-6.165-1.605-6.165-5.549,0-3.285,2.204-5.451,5.775-5.451a6.73044,6.73044,0,0,1,3.365.735l-.831,2.337"/>
      <path class="cls-2" d="M553,188.525c-.018,1.664,1.295,1.836,2.977,1.836a18.56357,18.56357,0,0,0,3.015-.252l.483,2.455a14.92757,14.92757,0,0,1-3.964.426c-3.477,0-5.72-1.084-5.72-5.297,0-4.308,2.261-5.681,5.45-5.681,3.327,0,4.601,2.166,4.601,5.353v1.16H553m2.009-4.058a1.83227,1.83227,0,0,0-1.91095,1.855h3.44a1.6216,1.6216,0,0,0-1.529-1.855"/>
      <polyline class="cls-3" points="10.613 214.652 3.413 201.775 3.491 203.064 3.491 214.652 2.355 214.652 2.355 201.041 4.223 201.041 11.594 214.094 11.536 212.344 11.536 201.041 12.709 201.041 12.709 214.652 10.613 214.652"/>
      <path class="cls-3" d="M20.955,214.803c-2.772,0-4.523-1.807-4.523-5.289,0-3.676,1.983-5.602,4.638-5.602,2.965,0,4.467,1.943,4.467,5.486,0,3.717-1.963,5.405-4.582,5.405m.057-9.987c-2.751,0-3.483,2.541-3.483,4.604,0,2.289.827,4.482,3.523,4.482,2.733,0,3.406-2.33,3.406-4.504,0-2.002-.635-4.582-3.446-4.582"/>
      <path class="cls-3" d="M34.023,205.01a4.55893,4.55893,0,0,0-1.193-.137,3.48732,3.48732,0,0,0-2.848,1.889v7.89H28.923V204.143h1.059v1.406a3.73273,3.73273,0,0,1,3.079-1.598,4.16444,4.16444,0,0,1,1.175.137l-.213.922"/>
      <path class="cls-3" d="M42.677,214.652v-1.08a4.159,4.159,0,0,1-2.751,1.231c-1.829,0-4.313-.633-4.313-5.309,0-3.695,2.196-5.582,4.794-5.582a6.29718,6.29718,0,0,1,2.27.309v-4.082h1.059v14.513H42.677m0-9.453a6.07624,6.07624,0,0,0-2.29-.383c-2.693,0-3.676,2.424-3.676,4.735,0,2.984,1.272,4.332,3.195,4.332a4.94385,4.94385,0,0,0,2.771-1.348Z"/>
      <path class="cls-3" d="M48.279,201.932l-1.019-1.061,1.019-1.041,1.059,1.041-1.059,1.061m-.538,2.211h1.097V214.65H47.741Z"/>
      <path class="cls-3" d="M57.307,214.824c-3.542,0-5.139-1.595-5.139-5.404,0-3.447,1.849-5.508,4.697-5.508a5.73076,5.73076,0,0,1,2.732.559l-.365.902a5.67312,5.67312,0,0,0-2.444-.535c-2.176,0-3.524,1.713-3.524,4.502,0,3.078,1.022,4.502,4.196,4.502a11.05332,11.05332,0,0,0,1.965-.27l.193.907a8.2687,8.2687,0,0,1-2.311.345"/>
      <polyline class="cls-3" points="69.441 214.652 69.441 201.041 76.717 201.041 76.717 201.988 70.578 201.988 70.578 207.318 76.295 207.318 76.295 208.32 70.578 208.32 70.578 213.67 77.161 213.67 77.161 214.652 69.441 214.652"/>
      <polyline class="cls-3" points="92.833 214.652 92.833 203.66 92.891 201.854 87.884 214.652 85.962 214.652 81.457 201.912 81.553 203.721 81.553 214.652 80.418 214.652 80.418 201.041 82.284 201.041 86.962 214.23 92.14 201.041 93.967 201.041 93.967 214.652 92.833 214.652"/>
      <path class="cls-3" d="M102.665,214.652H98.622V201.041h3.466c3.002,0,4.215,1.426,4.215,3.258,0,2.691-2.155,3.213-1.983,3.115v.057a3.27175,3.27175,0,0,1,2.966,3.39c0,2.196-1.272,3.791-4.621,3.791m-.981-12.705H99.777v5.199h2.272c2.291,0,3.081-.869,3.081-2.599,0-2.02-1.252-2.6-3.446-2.6m-.038,6.199H99.777v5.524h2.561c1.944,0,3.771-.404,3.771-2.752,0-2.441-1.731-2.772-4.463-2.772"/>
      <polyline class="cls-3" points="111.063 214.652 111.063 201.041 112.197 201.041 112.197 213.613 118.107 213.613 118.107 214.652 111.063 214.652"/>
      <path class="cls-3" d="M130.377,209.455h-.441v-1h.558c2.154,0,3.849-.828,3.849-3.213,0-2.273-1.137-3.254-3.388-3.254h-2.637v12.664h-1.155V201.043h4.215c2.619,0,4.177,1.424,4.177,4.1,0,2.367-1.541,4.312-5.178,4.312"/>
      <path class="cls-3" d="M145.838,214.768a1.67276,1.67276,0,0,1-1.887-1.389,5.68676,5.68676,0,0,1-3.83,1.424,2.61266,2.61266,0,0,1-2.81-2.92c0-2.543,2.29-3.119,3.908-3.16l2.675-.053v-1.602c0-1.869-.886-2.211-2.907-2.211a9.57,9.57,0,0,0-2.464.479l-.23-.885a8.76551,8.76551,0,0,1,3.118-.558c2.098,0,3.523.711,3.523,2.693v6.162a1.03605,1.03605,0,0,0,1,1.154l-.096.866m-1.944-5.254-2.772.115c-1.828.076-2.772.982-2.772,2.117,0,1.615.789,2.156,2.099,2.156a7.10162,7.10162,0,0,0,3.445-1.365Z"/>
      <path class="cls-3" d="M154.243,205.01a4.5719,4.5719,0,0,0-1.193-.137,3.48734,3.48734,0,0,0-2.848,1.889v7.89h-1.059V204.143h1.059v1.406a3.727,3.727,0,0,1,3.079-1.598,4.14142,4.14142,0,0,1,1.174.137l-.212.922"/>
      <path class="cls-3" d="M161.339,214.803c-1.943,0-3.332-.035-3.332-2.981v-6.677H156.47v-1.004h1.537v-2.153h1.022v2.153h3.312v1.004h-3.292v6.656c0,1.754.462,2.023,2.231,2.023a5.26523,5.26523,0,0,0,1.483-.25l.269.944a6.10066,6.10066,0,0,1-1.693.285"/>
      <path class="cls-3" d="M172.803,214.652v-6.525c0-1.924-.231-3.254-2.387-3.254a8.20032,8.20032,0,0,0-3.523,1.461v8.318h-1.058V204.143h1.058v1.23a6.42475,6.42475,0,0,1,3.737-1.461c3.04,0,3.195,2.252,3.195,3.906v6.834h-1.022"/>
      <path class="cls-3" d="M178.233,209.494c.077,3.811,1.809,4.348,4.139,4.348a11.39779,11.39779,0,0,0,2.482-.381l.211.922a9.3935,9.3935,0,0,1-3.157.441c-2.945,0-4.773-1.25-4.773-5.232,0-4.235,2.002-5.699,4.503-5.699,2.407,0,3.562,1.656,3.562,5.216v.385h-6.967m3.176-4.773c-1.714,0-2.965,1.289-3.176,3.888h5.831c0-2.349-.827-3.888-2.655-3.888"/>
      <path class="cls-3" d="M193.562,205.01a4.56538,4.56538,0,0,0-1.193-.137,3.48734,3.48734,0,0,0-2.848,1.889v7.89h-1.059V204.143h1.059v1.406a3.72841,3.72841,0,0,1,3.079-1.598,4.16425,4.16425,0,0,1,1.175.137l-.213.922"/>
      <path class="cls-3" d="M198.357,214.787a9.74815,9.74815,0,0,1-2.867-.404l.231-.944a9.39223,9.39223,0,0,0,2.559.403c1.636,0,2.888-.613,2.888-1.787,0-2.772-5.255-1.756-5.255-5.45,0-1.789,1.309-2.677,3.292-2.677a8.44657,8.44657,0,0,1,2.29.349l-.212.907a7.703,7.703,0,0,0-2.291-.327c-1.386,0-2.137.692-2.137,1.668,0,2.758,5.257,1.985,5.257,5.375,0,2.311-2.043,2.887-3.755,2.887"/>
      <path class="cls-3" d="M212.169,214.652v-6.525c0-1.924-.228-3.254-2.385-3.254a8.20032,8.20032,0,0,0-3.523,1.461v8.318h-1.059V200.139h1.059v5.234a6.03994,6.03994,0,0,1,3.734-1.461c3.041,0,3.158,2.252,3.158,3.906v6.834h-.984"/>
      <path class="cls-3" d="M217.566,201.932l-1.02-1.061,1.02-1.041,1.058,1.041-1.058,1.061m-.538,2.211h1.098V214.65h-1.098Z"/>
      <path class="cls-3" d="M225.532,214.803a14.59652,14.59652,0,0,1-2.367-.133v4.219h-1.06V204.143h1.06v.884a5.58356,5.58356,0,0,1,3.021-1.037c2.675,0,4.177,1.983,4.177,5.137,0,4.391-2.309,5.676-4.831,5.676m.5-9.871a5.77061,5.77061,0,0,0-2.867,1.115v7.623a12.19052,12.19052,0,0,0,2.425.193c2.464,0,3.674-1.83,3.674-4.273,0-2.287-.481-4.658-3.232-4.658"/>
      <path class="cls-3" d="M246.002,200.949a9.96009,9.96009,0,0,0-1.962-.252c-1.791,0-2.792.5-2.792,2.405v1.041H243.5v.982h-2.252v13.764h-1.059V205.125h-1.54v-.982h1.54v-1.018c0-2.773,1.945-3.389,3.851-3.389a9.43812,9.43812,0,0,1,2.155.287l-.193.926"/>
      <path class="cls-3" d="M250.131,214.803c-2.77,0-4.522-1.807-4.522-5.289,0-3.676,1.983-5.602,4.64-5.602,2.961,0,4.464,1.943,4.464,5.486,0,3.717-1.963,5.405-4.582,5.405m.06-9.987c-2.753,0-3.484,2.541-3.484,4.604,0,2.289.826,4.482,3.522,4.482,2.733,0,3.404-2.33,3.404-4.504,0-2.002-.633-4.582-3.442-4.582"/>
      <path class="cls-3" d="M263.2,205.01a4.55624,4.55624,0,0,0-1.192-.137,3.489,3.489,0,0,0-2.849,1.889v7.89h-1.058V204.143h1.058v1.406a3.73373,3.73373,0,0,1,3.081-1.598,4.1547,4.1547,0,0,1,1.174.137l-.214.922"/>
      <polyline class="cls-3" points="284.882 214.652 284.882 203.66 284.941 201.854 279.935 214.652 278.012 214.652 273.506 201.912 273.604 203.721 273.604 214.652 272.469 214.652 272.469 201.041 274.334 201.041 279.013 214.23 284.189 201.041 286.019 201.041 286.019 214.652 284.882 214.652"/>
      <path class="cls-3" d="M294.274,214.803c-2.773,0-4.525-1.807-4.525-5.289,0-3.676,1.985-5.602,4.641-5.602,2.962,0,4.462,1.943,4.462,5.486,0,3.717-1.961,5.405-4.578,5.405m.057-9.987c-2.753,0-3.482,2.541-3.482,4.604,0,2.289.826,4.482,3.52,4.482,2.735,0,3.406-2.33,3.406-4.504,0-2.002-.632-4.582-3.444-4.582"/>
      <rect class="cls-3" x="302.263" y="200.13901" width="1.056" height="14.513"/>
      <path class="cls-3" d="M307.847,209.494c.078,3.811,1.809,4.348,4.14,4.348a11.33372,11.33372,0,0,0,2.477-.381l.216.922a9.41163,9.41163,0,0,1-3.157.441c-2.947,0-4.773-1.25-4.773-5.232,0-4.235,2-5.699,4.5-5.699,2.41,0,3.566,1.656,3.566,5.216v.385h-6.969m3.174-4.773c-1.713,0-2.963,1.289-3.174,3.888h5.83c0-2.349-.827-3.888-2.656-3.888"/>
      <path class="cls-3" d="M322.65,214.824c-3.544,0-5.138-1.595-5.138-5.404,0-3.447,1.85-5.508,4.697-5.508a5.77046,5.77046,0,0,1,2.736.559l-.368.902a5.67711,5.67711,0,0,0-2.444-.535c-2.179,0-3.524,1.713-3.524,4.502,0,3.078,1.021,4.502,4.194,4.502a11.06862,11.06862,0,0,0,1.965-.27l.192.907a8.25139,8.25139,0,0,1-2.31.345"/>
      <path class="cls-3" d="M334.779,214.652v-1.273a6.87861,6.87861,0,0,1-3.829,1.484c-2.868,0-3.06-2.326-3.06-3.965v-6.755h1.058v6.429c0,1.713.057,3.27,2.197,3.27a8.15881,8.15881,0,0,0,3.634-1.479v-8.22h1.003v10.509h-1.003"/>
      <rect class="cls-3" x="339.74399" y="200.13901" width="1.06201" height="14.513"/>
      <path class="cls-3" d="M352.354,214.768a1.67434,1.67434,0,0,1-1.887-1.389,5.693,5.693,0,0,1-3.831,1.424,2.61094,2.61094,0,0,1-2.807-2.92c0-2.543,2.287-3.119,3.908-3.16l2.674-.053v-1.602c0-1.869-.887-2.211-2.908-2.211a9.55065,9.55065,0,0,0-2.462.479l-.23-.885a8.756,8.756,0,0,1,3.116-.558c2.1,0,3.523.711,3.523,2.693v6.162a1.03593,1.03593,0,0,0,.999,1.154l-.095.866m-1.943-5.254-2.773.115c-1.827.076-2.772.982-2.772,2.117,0,1.615.79,2.156,2.096,2.156a7.12171,7.12171,0,0,0,3.449-1.365Z"/>
      <path class="cls-3" d="M360.757,205.01a4.54287,4.54287,0,0,0-1.192-.137,3.48569,3.48569,0,0,0-2.847,1.889v7.89h-1.059V204.143h1.059v1.406a3.72654,3.72654,0,0,1,3.081-1.598,4.132,4.132,0,0,1,1.171.137l-.213.922"/>
      <polyline class="cls-3" points="382.438 214.652 382.438 203.66 382.497 201.854 377.493 214.652 375.568 214.652 371.065 201.912 371.162 203.721 371.162 214.652 370.024 214.652 370.024 201.041 371.892 201.041 376.567 214.23 381.743 201.041 383.577 201.041 383.577 214.652 382.438 214.652"/>
      <path class="cls-3" d="M388.432,209.494c.078,3.811,1.809,4.348,4.138,4.348a11.37723,11.37723,0,0,0,2.482-.381l.215.922a9.39352,9.39352,0,0,1-3.157.441c-2.945,0-4.775-1.25-4.775-5.232,0-4.235,2.004-5.699,4.504-5.699,2.408,0,3.56,1.656,3.56,5.216v.385h-6.967m3.174-4.773c-1.709,0-2.959,1.289-3.174,3.888h5.834c0-2.349-.827-3.888-2.66-3.888"/>
      <path class="cls-3" d="M405.166,214.652v-1.08a4.16987,4.16987,0,0,1-2.751,1.231c-1.832,0-4.317-.633-4.317-5.309,0-3.695,2.194-5.582,4.793-5.582a6.355,6.355,0,0,1,2.275.309v-4.082h1.056v14.513h-1.056m0-9.453a6.09886,6.09886,0,0,0-2.291-.383c-2.697,0-3.675,2.424-3.675,4.735,0,2.984,1.266,4.332,3.191,4.332a4.99518,4.99518,0,0,0,2.775-1.348Z"/>
      <path class="cls-3" d="M410.764,201.932l-1.021-1.061,1.021-1.041,1.06,1.041-1.06,1.061m-.537,2.211h1.096V214.65h-1.096Z"/>
      <path class="cls-3" d="M419.794,214.824c-3.544,0-5.139-1.595-5.139-5.404,0-3.447,1.845-5.508,4.696-5.508a5.74068,5.74068,0,0,1,2.732.559l-.365.902a5.68494,5.68494,0,0,0-2.444-.535c-2.177,0-3.523,1.713-3.523,4.502,0,3.078,1.017,4.502,4.192,4.502a11.14334,11.14334,0,0,0,1.971-.27l.192.907a8.27072,8.27072,0,0,1-2.312.345"/>
      <path class="cls-3" d="M425.616,201.932l-1.017-1.061,1.017-1.041,1.062,1.041-1.062,1.061m-.537,2.211h1.1V214.65h-1.1Z"/>
      <path class="cls-3" d="M437.125,214.652v-6.525c0-1.924-.231-3.254-2.387-3.254a8.1747,8.1747,0,0,0-3.52,1.461v8.318h-1.06V204.143h1.06v1.23a6.39211,6.39211,0,0,1,3.735-1.461c3.037,0,3.193,2.252,3.193,3.906v6.834h-1.021"/>
      <path class="cls-3" d="M442.553,209.494c.083,3.811,1.813,4.348,4.142,4.348a11.38646,11.38646,0,0,0,2.479-.381l.211.922a9.3577,9.3577,0,0,1-3.153.441c-2.946,0-4.774-1.25-4.774-5.232,0-4.235,2.002-5.699,4.503-5.699,2.411,0,3.562,1.656,3.562,5.216v.385h-6.97m3.177-4.773c-1.716,0-2.962,1.289-3.177,3.888h5.833c0-2.349-.829-3.888-2.656-3.888"/>
      <polyline class="cls-2" points="472.598 85.699 472.598 158.482 451.256 158.482 451.256 85.699 430.778 85.699 430.778 68.057 493.077 68.057 493.077 85.699 472.598 85.699"/>
      <polyline class="cls-2" points="502.337 158.48 502.337 68.057 558.097 68.057 558.097 85.697 523.556 85.697 523.556 104.078 555.876 104.078 555.876 121.596 523.556 121.596 523.556 140.963 558.59 140.963 559.824 158.48 502.337 158.48"/>
      <path class="cls-2" d="M388.929,158.482a59.60847,59.60847,0,0,1-7.771.616c-9.005,0-13.077-2.838-17.641-12.088l-10.733-22.084h-9.128v33.556H323.055V68.059h33.43c18.012,0,30.101,7.4,30.101,26.769,0,12.211-5.304,20.354-14.433,24.67l9.376,17.643c1.357,2.589,1.971,3.084,4.687,3.084a18.23,18.23,0,0,0,2.713-.248v18.505m-33.802-74.14H343.656v24.672h10.608c7.403,0,11.228-4.194,11.228-13.201,0-7.399-2.961-11.471-10.365-11.471"/>
      <g class="cls-4">
        <path class="cls-2" d="M272.612,67.75H240.907v90.424h32.074c25.534,0,39.846-15.668,39.846-47.002,0-32.32-16.779-43.422-40.215-43.422m-.049,73.215H261.83V84.959h10.855c11.47,0,17.763,3.578,17.763,26.77C290.448,135.783,285.882,140.965,272.563,140.965Z"/>
        <path class="cls-2" d="M32.074,158.172H0V67.75H31.705c23.437,0,40.216,11.105,40.216,43.424,0,31.332-14.311,46.998-39.847,46.998m-.247-73.274H20.972v56.004H31.705c13.322,0,17.887-5.181,17.887-29.236,0-23.191-6.293-26.768-17.765-26.768"/>
      </g>
      <path class="cls-2" d="M129.462,158.174l-5.305-21.465H99.238l-5.427,21.465H72.715L98.005,67.75h28.62l24.548,90.424H129.462m-8.882-37.748-6.29-24.549a54.14991,54.14991,0,0,1-1.604-11.965h-1.233a53.97941,53.97941,0,0,1-1.728,11.842l-6.539,24.672Z"/>
      <path class="cls-2" d="M208.152,158.172l-25.29-48.479a42.93708,42.93708,0,0,1-3.823-10.732h-1.234c.246,3.453.491,7.277.491,10.732v48.479H159.053V67.75h22.206l23.192,44.408a51.70848,51.70848,0,0,1,4.07,10.488h1.234a101.65376,101.65376,0,0,1-.617-10.488V67.75H228.26v90.422H208.152"/>
      <rect class="cls-2" x="400.32001" y="68.05501" width="21.21899" height="90.425"/>
      <polyline class="cls-2" points="439.372 21.344 437.406 20.644 436.708 22.609 438.674 23.309 439.372 21.344"/>
      <polyline class="cls-2" points="438.125 18.68 440.091 19.377 440.79 17.412 438.824 16.713 438.125 18.68"/>
      <polyline class="cls-2" points="421.011 60.125 421.795 61.256 422.927 60.475 422.145 59.344 421.011 60.125"/>
      <polyline class="cls-2" points="415.246 6.191 412.503 5.391 411.705 8.135 414.446 8.936 415.246 6.191"/>
      <polyline class="cls-2" points="416.842 0.801 414.1 0 413.301 2.744 416.042 3.545 416.842 0.801"/>
      <path class="cls-2" d="M440.206,40.086l-.36-1.221-.072-.24-.359-1.221-1.222.36c-4.096,1.207-9.576.531-14.155-1.414,1.2-.846,2.524-1.666,3.878-2.485,4.072-2.474,8.36-4.941,9.965-8.424v-.193l-.134-.135-1.527-.535a.23944.23944,0,0,0-.295.127c-1.261,2.764-4.384,4.537-8.097,5.607a42.20839,42.20839,0,0,1-10.462,1.424c-4.545-5.185-5.741-13.271-4.129-18.922l.351-1.22-1.222-.352-.247-.072-1.222-.344-.353,1.221c-1.328,4.662-1.521,11.543-4.121,16.666a35.33276,35.33276,0,0,1-4.302-3.455c-3.867-3.611-7.301-8.211-8.842-12.34a.23944.23944,0,0,0-.303-.143.24406.24406,0,0,0-.152.303l1.889,5.5-4.317-3.08a.24432.24432,0,0,0-.327.049.23348.23348,0,0,0,.016.318c.011.01.022.02.033.032h-.001l.006.003c3.577,3.561,6.742,6.34,8.994,9.069a13.911,13.911,0,0,1,3.525,7.564c-5.414-.236-11.547-3.465-16.694-6.029a.2347.2347,0,0,0-.312.094.24028.24028,0,0,0,.065.32l2.975,2.193-.021.051-3.567-.902h-.003l-.032-.008a.24228.24228,0,0,0-.287.16.233.233,0,0,0,.152.295c4.523,1.678,10.775,3.584,14.349,6.488-5.263,2.291-12.024,2.782-16.497,3.608l-1.246.23.231,1.254.039.24.233,1.252,1.254-.23c5.05-.93,12.583-.557,17.966,2.547a14.47,14.47,0,0,1-4.222,5.765c-3.179,2.764-8.233,5.512-16.172,8.602a.23864.23864,0,1,0,.167.447s8.947-3.326,12.648-4.793a82.542,82.542,0,0,0-9.546,13.018l-.027.041h.002l-.01.017a.23208.23208,0,0,0,.08.319.23539.23539,0,0,0,.328-.073l.005-.009.002.002s.017-.03.023-.039c4.027-6.172,7.295-10.559,11.206-13.713a28.71254,28.71254,0,0,1,10.197-5.176c2.864,4.676,3.14,11.805,3.14,18.281v1.27h3.817v-1.27c0-5.621.281-11.23,1.84-15.611a9.81984,9.81984,0,0,1,.955.869c1.445,1.525,2.579,3.617,4.424,6.74l.16.111.184-.031.734-.511a.23831.23831,0,0,0,.072-.319c-2.292-3.865-3.202-6.43-3.202-9.305,0-.134.019-.277.023-.412a50.02474,50.02474,0,0,1,7.086,3.143A58.67746,58.67746,0,0,1,435.613,58.4a.23463.23463,0,0,0,.32,0,.22713.22713,0,0,0,.04-.312,39.60953,39.60953,0,0,0-5.247-5.25v-.004l-.032-.065-.064-.232c-.013-.06-.024-.123-.035-.185,2.768,1.421,4.631,2.267,5.873,2.757a7.14021,7.14021,0,0,0,2.277.631.63177.63177,0,0,0,.366-.088.32106.32106,0,0,0,.144-.224.25026.25026,0,0,0-.152-.246c-9.311-3.77-14.022-6.852-16.562-9.817a12.98348,12.98348,0,0,1-1.183-1.633c5.227-2.195,12.655-1.826,17.626-3.285l1.222-.361"/>
      <polyline class="cls-2" points="376.13 40.094 376.683 42.822 379.41 42.269 378.856 39.543 376.13 40.094"/>
      <polyline class="cls-2" points="370.725 41.186 371.278 43.912 374.003 43.361 373.451 40.633 370.725 41.186"/>
      <polyline class="cls-2" points="444.707 35.859 442.041 36.65 442.832 39.318 445.5 38.529 444.707 35.859"/>
      <g class="cls-5">
        <rect class="cls-6" x="409.41595" y="45.46703" width="2.79504" height="108.11899"/>
      </g>
      <path class="cls-2" d="M410.813,153.813v.482a1.79728,1.79728,0,0,1-1.397-.709,2.52,2.52,0,0,1-.53-1.578v-3.889a2.55336,2.55336,0,0,1,.458-1.484l.391.281-.392.281a2.56163,2.56163,0,0,1-.457-1.486V131.273a2.55336,2.55336,0,0,1,.458-1.484l.391.281-.392.28a2.55465,2.55465,0,0,1-.457-1.483V114.428a2.55479,2.55479,0,0,1,.458-1.483l.391.28-.392.281a2.55613,2.55613,0,0,1-.457-1.485V97.582a2.553,2.553,0,0,1,.457-1.484l.392.279-.391.281a2.54247,2.54247,0,0,1-.458-1.482V80.734a2.54251,2.54251,0,0,1,.458-1.482l.391.281-.392.279a2.55131,2.55131,0,0,1-.457-1.482V63.891a2.563,2.563,0,0,1,.457-1.485l.392.281-.391.28a2.54112,2.54112,0,0,1-.458-1.483V47.045a2.518,2.518,0,0,1,.53-1.578,1.73181,1.73181,0,0,1,2.795,0,2.51725,2.51725,0,0,1,.529,1.578V61.484a2.541,2.541,0,0,1-.458,1.483l-.392-.28.393-.281a2.5628,2.5628,0,0,1,.457,1.485V78.33a2.55109,2.55109,0,0,1-.457,1.482l-.393-.279.392-.281a2.54242,2.54242,0,0,1,.458,1.482V95.176a2.54239,2.54239,0,0,1-.458,1.482l-.392-.281.393-.279a2.55279,2.55279,0,0,1,.457,1.484v14.439a2.55591,2.55591,0,0,1-.457,1.485l-.393-.281.392-.28a2.55012,2.55012,0,0,1,.458,1.483v14.439a2.55465,2.55465,0,0,1-.457,1.483l-.393-.28.392-.281a2.55327,2.55327,0,0,1,.458,1.484v14.438a2.56142,2.56142,0,0,1-.457,1.486l-.393-.281.392-.281a2.55327,2.55327,0,0,1,.458,1.484v3.889a2.51931,2.51931,0,0,1-.529,1.578,1.80079,1.80079,0,0,1-1.398.709v-.965a.83264.83264,0,0,0,.646-.348,1.564,1.564,0,0,0,.318-.974v-3.889a1.59989,1.59989,0,0,0-.277-.922l-.202-.281.201-.279a1.60129,1.60129,0,0,0,.278-.926V131.273a1.62049,1.62049,0,0,0-.277-.923l-.202-.278.201-.281a1.6018,1.6018,0,0,0,.278-.924V114.428a1.6,1.6,0,0,0-.277-.922l-.202-.281.201-.28a1.59473,1.59473,0,0,0,.278-.924V97.582a1.61074,1.61074,0,0,0-.278-.926l-.201-.279.202-.279a1.60466,1.60466,0,0,0,.277-.922V80.734a1.60463,1.60463,0,0,0-.277-.922l-.202-.279.201-.279a1.6089,1.6089,0,0,0,.278-.924V63.891a1.59473,1.59473,0,0,0-.278-.924l-.201-.282.202-.279a1.5905,1.5905,0,0,0,.277-.922V47.045a1.56706,1.56706,0,0,0-.318-.975.77239.77239,0,0,0-1.292,0,1.56705,1.56705,0,0,0-.318.975V61.484a1.59069,1.59069,0,0,0,.278.922l.201.279-.2.282a1.59515,1.59515,0,0,0-.279.924V78.33a1.60936,1.60936,0,0,0,.279.924l.2.279-.201.279a1.60486,1.60486,0,0,0-.278.922V95.176a1.60489,1.60489,0,0,0,.278.922l.201.279-.2.279a1.61118,1.61118,0,0,0-.279.926v14.439a1.59515,1.59515,0,0,0,.279.924l.2.28-.201.281a1.60019,1.60019,0,0,0-.278.922v14.439a1.59484,1.59484,0,0,0,.279.924l.2.281-.201.278a1.61333,1.61333,0,0,0-.278.923v14.438a1.60171,1.60171,0,0,0,.279.926l.2.279-.201.281a1.60011,1.60011,0,0,0-.278.922v3.889a1.564,1.564,0,0,0,.318.974.83415.83415,0,0,0,.646.348v.483"/>
      <path class="cls-7" d="M417.832,39.541a7.0195,7.0195,0,1,1-7.017-7.018,7.01856,7.01856,0,0,1,7.017,7.018"/>
    </g>
  </g>
</svg>
