<svg xmlns="http://www.w3.org/2000/svg" xmlns:xlink="http://www.w3.org/1999/xlink" viewBox="0 0 79.59222 52.6251"><defs><style>.cls-1{fill:url(#radial-gradient);}.cls-2{fill:url(#radial-gradient-2);}.cls-3{fill:url(#radial-gradient-3);}.cls-4{fill:url(#radial-gradient-4);}.cls-16,.cls-19,.cls-20,.cls-22,.cls-23,.cls-5{fill:none;}.cls-14,.cls-16,.cls-17,.cls-18,.cls-19,.cls-20,.cls-23,.cls-5,.cls-7{stroke:#000;}.cls-14,.cls-16,.cls-17,.cls-18,.cls-19,.cls-20,.cls-22,.cls-23,.cls-5,.cls-7{stroke-miterlimit:10;}.cls-5{stroke-width:3px;}.cls-14,.cls-6{fill:#333;}.cls-18,.cls-7{fill:#fff;}.cls-20,.cls-7{stroke-width:2px;}.cls-8{fill:#666;}.cls-9{fill:url(#radial-gradient-5);}.cls-10{fill:url(#radial-gradient-6);}.cls-11{fill:url(#radial-gradient-7);}.cls-12{fill:url(#radial-gradient-8);}.cls-13{fill:url(#radial-gradient-9);}.cls-14{stroke-width:0.25px;}.cls-15{fill:url(#radial-gradient-10);}.cls-16{stroke-width:4px;}.cls-17{fill:#e6e6e6;}.cls-17,.cls-22,.cls-23{stroke-width:0.75px;}.cls-18{stroke-width:1.5px;}.cls-19,.cls-20{stroke-linecap:round;}.cls-21{fill:#be1e2d;}.cls-22{stroke:#be1e2d;}</style><radialGradient id="radial-gradient" cx="68.5453" cy="32.33925" r="4.89238" gradientUnits="userSpaceOnUse"><stop offset="0.5" stop-color="#e6e6e6"/><stop offset="0.5" stop-color="gray"/></radialGradient><radialGradient id="radial-gradient-2" cx="65.16269" cy="24.92723" r="7.63442" xlink:href="#radial-gradient"/><radialGradient id="radial-gradient-3" cx="41.95719" cy="7.94529" r="10.18635" xlink:href="#radial-gradient"/><radialGradient id="radial-gradient-4" cx="30.92292" cy="6.68925" r="15.84452" xlink:href="#radial-gradient"/><radialGradient id="radial-gradient-5" cx="28.42733" cy="22.88901" r="29.19024" gradientTransform="matrix(0.8434, -0.53729, 0.3331, 0.52288, -3.17254, 26.19472)" xlink:href="#radial-gradient"/><radialGradient id="radial-gradient-6" cx="42.73204" cy="27.1461" r="12.9609" gradientUnits="userSpaceOnUse"><stop offset="0.49576" stop-color="#f2f2f2"/><stop offset="0.5" stop-color="#b3b3b3"/></radialGradient><radialGradient id="radial-gradient-7" cx="53.70617" cy="34.21026" r="6.78999" xlink:href="#radial-gradient-6"/><radialGradient id="radial-gradient-8" cx="22.75203" cy="46.02783" r="19.38634" gradientTransform="translate(55.29204 27.12644) rotate(97.04948) scale(1 0.65122)" xlink:href="#radial-gradient"/><radialGradient id="radial-gradient-9" cx="31.81312" cy="31.22163" r="9.23681" xlink:href="#radial-gradient-6"/><radialGradient id="radial-gradient-10" cx="24.95234" cy="19.22922" r="7.81544" gradientUnits="userSpaceOnUse"><stop offset="0.5" stop-color="#4d4d4d"/><stop offset="0.5" stop-color="#1a1a1a"/></radialGradient></defs><title>-1Asset 15</title><g id="Layer_2" data-name="Layer 2"><g id="Layer_1-2" data-name="Layer 1"><path class="cls-1" d="M58.02826,40.08743l6.99219-6.50781H60.44379v-1.7373h6.811a.8681.8681,0,0,1,.47852,1.59277l-8.521,7.92432Z"/><path d="M67.2549,32.21716a.493.493,0,0,1,.27128.90506l-.05146.03409-.0452.04208L59.23122,40.829l-.67269-.72275,6.01958-5.60275,1.39563-1.299h-5.155v-.98734H67.2549m0-.75H60.06876V33.9545h3.99836l-6.56856,6.11374L59.19319,41.889l8.74732-8.1416a1.243,1.243,0,0,0-.68561-2.28022Z"/><path class="cls-2" d="M58.02826,31.50833l6.99219-6.50781H60.44379V23.26321h6.811a.86811.86811,0,0,1,.47852,1.59278l-8.521,7.92431Z"/><path d="M67.2549,23.63821a.493.493,0,0,1,.2713.905l-.05147.03412-.04521.04207-8.1983,7.63061-.67269-.72275,6.01958-5.60276,1.39563-1.299h-5.155v-.98734H67.2549m0-.75H60.06876v2.48734h3.99836l-6.56856,6.11374L59.19319,33.31l8.74732-8.14159a1.243,1.243,0,0,0-.68561-2.28023Z"/><path class="cls-3" d="M39.33783,17.7095V5A1.15259,1.15259,0,1,1,41.643,5V17.7095Z"/><path d="M40.49029,4.22243A.77848.77848,0,0,1,41.26788,5V17.33434H39.71271V5a.77847.77847,0,0,1,.77758-.77759m0-.75A1.52758,1.52758,0,0,0,38.96271,5V18.08434h3.05517V5a1.5276,1.5276,0,0,0-1.52759-1.52759Z"/><path class="cls-4" d="M34.55463,18.71976V1.52737a1.15259,1.15259,0,0,1,2.30517,0V18.71976Z"/><path d="M35.70735.75a.77847.77847,0,0,1,.77759.77759V18.34486H34.92975V1.52759A.77848.77848,0,0,1,35.70735.75m0-.75h0a1.5276,1.5276,0,0,0-1.52759,1.52759V19.09486h3.05519V1.52759A1.5276,1.5276,0,0,0,35.70735,0Z"/><path class="cls-5" d="M23.32,31.43713c-.23854-.009-3.867-.0921-5.15875,2.53662-1.34435,2.7359.04572,7.99542,4.49,10.60779"/><path class="cls-6" d="M24.66351,37.76614a2.917,2.917,0,0,1-2.91357-2.91357V34.48H27.5766v.37256A2.91659,2.91659,0,0,1,24.66351,37.76614Z"/><path d="M27.20167,34.855a2.53833,2.53833,0,0,1-5.07666,0h5.07666m.75-.75H21.375v.74765A3.28834,3.28834,0,0,0,24.66333,38.141h0a3.28835,3.28835,0,0,0,3.28833-3.28833V34.105Z"/><path class="cls-6" d="M31.24017,48.70511a2.917,2.917,0,0,1-2.91357-2.91358V34.48h5.82666V45.79153A2.91659,2.91659,0,0,1,31.24017,48.70511Z"/><path d="M33.77833,34.855V45.79169a2.53833,2.53833,0,1,1-5.07666,0V34.855h5.07666m.75-.75H27.95167V45.79169a3.28833,3.28833,0,1,0,6.57666,0V34.105Z"/><path class="cls-7" d="M53.80165,22.16257a5.37343,5.37343,0,0,0-2.09253-3.348,5.29588,5.29588,0,0,0-3.20849-.9765"/><rect class="cls-8" x="40.0141" y="20.31155" width="20.34912" height="29.76611"/><path d="M59.9881,20.68677V49.70245h-19.599V20.68677h19.599m.75-.75h-21.099V50.45245h21.099V19.93677Z"/><path class="cls-9" d="M20.19281,34.064v-.94629a17.54894,17.54894,0,0,1,17.52881-17.5293h11.334V34.064Z"/><path d="M48.68062,15.9635V33.689h-28.113v-.57141a17.17347,17.17347,0,0,1,17.154-17.15405h10.959m.75-.75h-11.709a17.90407,17.90407,0,0,0-17.904,17.90405V34.439h29.613V15.2135Z"/><path class="cls-10" d="M45.71429,39.125l-.84912-3.57275-.16992-.0752a5.85912,5.85912,0,0,1-1.13623-.668l-.15137-.11279-3.49853,1.04443-1.36084-2.35644,2.68115-2.53321-.01807-.18359c-.01855-.19043-.02929-.3833-.02929-.57861,0-.15625.01172-.30957.02392-.4624l.01367-.17872-2.67138-2.52441,1.36084-2.35644L43.289,25.5762l.15283-.12011a5.85062,5.85062,0,0,1,1.29346-.77491l.17236-.0747.80664-3.39258h2.72119l.80713,3.39258.17237.0747a5.88026,5.88026,0,0,1,1.23486.731l.15186.11621,3.43945-1.02685L55.602,26.85892l-2.67578,2.52783.01562.18018c.01465.17236.02637.3457.02637.522,0,.17578-.01172.34912-.02637.52148l-.01562.18018L55.602,33.31888l-1.36084,2.35693-3.439-1.02685-.15185.11621a5.88616,5.88616,0,0,1-1.19531.71191l-.16993.0752L48.43548,39.125Zm1.36084-11.686a2.73047,2.73047,0,1,0,2.73047,2.73046A2.73383,2.73383,0,0,0,47.07513,27.439Z"/><path d="M48.13945,21.5891l.6947,2.9214.08688.36534.34456.14931a5.52081,5.52081,0,0,1,1.15657.68486l.30382.2326.36666-.10946,2.97221-.88736,1.06444,1.84367L52.80008,28.9899l-.26383.24924.03174.36157c.01416.16113.02507.3233.02507.4881s-.011.32687-.02507.48791l-.03166.36142.2637.24918,2.32921,2.2008-1.06447,1.84369L51.093,34.34424l-.36675-.10956-.30388.23273a5.51818,5.51818,0,0,1-1.11876.66647l-.34008.15051-.08605.36182-.738,3.10361H46.01054l-.73773-3.10355-.086-.36188-.34017-.15051a5.51506,5.51506,0,0,1-1.06381-.62546l-.30206-.22546-.36118.10788-3.0341.90613L39.021,33.45328l2.3323-2.20374.267-.25226-.03561-.3656c-.01739-.17871-.02754-.35959-.02754-.54287,0-.14631.01135-.28989.02252-.43332l.02786-.35733L41.347,29.052,39.021,26.8546l1.06447-1.84369,2.91.86879.37232.11116.30555-.24a5.51589,5.51589,0,0,1,1.21138-.72569l.34459-.14933.08687-.36538.69444-2.92134h2.12891M47.07513,33.2749a3.10547,3.10547,0,1,0-3.10551-3.10547,3.109,3.109,0,0,0,3.10551,3.10547M48.732,20.8391H45.41792l-.8315,3.49789a6.25772,6.25772,0,0,0-1.37648.82407l-3.47776-1.03832-1.65706,2.87009,2.75683,2.6044c-.01268.16272-.02479.32562-.02479.49158,0,.20782.01134.41293.03108.6156l-2.763,2.61068,1.657,2.87009,3.602-1.07571a6.25043,6.25043,0,0,0,1.20894.71026l.87477,3.68009H48.732l.87511-3.68009a6.25594,6.25594,0,0,0,1.27124-.75686L54.418,36.12,56.075,33.24994l-2.75992-2.60776c.016-.18265.02794-.36655.02794-.55337s-.01188-.37091-.02794-.55371l2.76-2.60741-1.657-2.87009-3.54,1.05689a6.25667,6.25667,0,0,0-1.31426-.7775L48.732,20.8391ZM47.07513,32.5249a2.35547,2.35547,0,1,1,2.35547-2.35547,2.35549,2.35549,0,0,1-2.35547,2.35547Z"/><path class="cls-11" d="M56.24017,42.54788l-.17871-.05176a4.12088,4.12088,0,0,1-.856-.35839l-.165-.0918L52.665,43.12161,51.56341,41.6973,53.21673,39.648l-.043-.1792c-.03125-.13135-.05664-.26465-.0752-.40088-.01465-.10937-.021-.21777-.02734-.32568l-.01075-.1792-2.13037-1.52734.68262-1.66651,2.48926.38916.13525-.13965a4.13131,4.13131,0,0,1,.82959-.66357l.16016-.09717.24512-2.47607,1.78418-.2417.896,2.3208.18067.05078a4.15607,4.15607,0,0,1,.93164.39355l.166.09522,2.33545-1.05762,1.102,1.42432-1.64941,2.04492.04.17725c.02685.11865.05127.23779.06787.36084s.0249.24511.03076.3667l.00879.18115,2.13476,1.53076-.68212,1.6665-2.53174-.396-.13477.13525a4.16639,4.16639,0,0,1-.76709.61035l-.15869.09717-.25781,2.60938-1.78467.24169Zm.98242-6.05762a2.10926,2.10926,0,0,0-.28125.01905,2.07632,2.07632,0,0,0,.27686,4.13379,2.10926,2.10926,0,0,0,.28125-.01905,2.07632,2.07632,0,0,0-.27686-4.13379Z"/><path d="M57.01315,32.5513l.72179,1.86963.13524.35034.36154.10159a3.77778,3.77778,0,0,1,.84733.3581l.33237.18963.34859-.1578,1.89091-.856.73948.95566-1.34972,1.673-.22791.28247.08013.354c.02444.108.04692.21707.06212.32894s.02255.22284.02781.33344l.01726.3624.29483.21142,1.747,1.25275-.45787,1.11822-2.0504-.32092-.37814-.05917-.26979.27145a3.77762,3.77762,0,0,1-.69728.55508l-.31679.19489-.03656.37012-.21039,2.129-1.19734.16259-.77025-1.99582-.13394-.347-.35736-.10336a3.774,3.774,0,0,1-.779-.3263l-.32966-.18277-.34336.15549-1.93338.8754-.73946-.9556,1.35164-1.67566.23063-.28595-.08451-.35748c-.02829-.11969-.05187-.24149-.06876-.36591-.01349-.0993-.0188-.19778-.02444-.29617l-.02048-.35779-.29128-.20883-1.7444-1.25067.45787-1.11823,2.00434.31354.38386.06.27046-.2789a3.77387,3.77387,0,0,1,.75467-.60382l.3214-.19434.0369-.37375.19693-1.99435,1.19732-.16257m.205,8.46677a2.45129,2.45129,0,1,0-2.42674-2.12156,2.4675,2.4675,0,0,0,2.42674,2.12156m.28124-9.28968-2.37174.322-.25515,2.5841a4.51951,4.51951,0,0,0-.905.72348l-2.58976-.40509-.907,2.215,2.226,1.596c.00675.11767.0139.23541.03.35418.02019.14875.04823.29444.08206.43753L51.0852,41.69247,52.55,43.58542l2.47322-1.11984a4.51335,4.51335,0,0,0,.93422.3908l.98364,2.54868,2.37174-.322.26866-2.71872a4.51726,4.51726,0,0,0,.83623-.66516l2.63588.41256.907-2.215L61.732,38.29861c-.0063-.13226-.01563-.265-.03378-.39871s-.04456-.26431-.07381-.39355l1.72183-2.13422-1.46477-1.893-2.43074,1.10037a4.51888,4.51888,0,0,0-1.01609-.42871l-.9352-2.42243Zm-.28124,8.53968a1.70271,1.70271,0,1,1,.23107-.01569,1.71928,1.71928,0,0,1-.23107.01569Z"/><rect class="cls-12" x="20.81048" y="37.05325" width="20.85938" height="13.02441"/><path d="M41.29469,37.42807V49.70245H21.18532V37.42807H41.29469m.75-.75H20.43532V50.45245H42.04469V36.67807Z"/><path class="cls-13" d="M33.851,39.0347l-.17871-.04346c-.13086-.03174-.26172-.06982-.3916-.11523-.104-.03614-.20264-.08008-.30176-.12354l-.16357-.07178-2.32959,1.20362L29.311,38.51956,30.78851,36.479l-.0625-.18359a4.17133,4.17133,0,0,1-.21435-1.0415l-.01368-.187-2.09472-1.34278.59472-1.69971,2.4751.25586.12744-.13769a4.16866,4.16866,0,0,1,.77393-.65088l.16016-.105.11914-2.56055,1.76953-.335,1.07178,2.39893.17578.04443c.11767.03027.23584.0625.35254.10352.11767.0415.22949.08886.34082.13916l.16552.0747,2.334-1.20654L40.038,31.41068l-1.50341,2.07568.05957.18164a4.13318,4.13318,0,0,1,.19482.96045l.01514.18506,2.207,1.415-.59473,1.70019L37.809,37.65823l-.12744.13526a4.14558,4.14558,0,0,1-.709.60058l-.15576.10547-.12109,2.604-1.77.335Zm.85645-6.13477a2.07616,2.07616,0,1,0,.686.1167A2.07924,2.07924,0,0,0,34.70746,32.89993Z"/><path d="M34.20174,28.915l.87715,1.96243.14813.33142.35181.08945c.10731.02725.21461.05676.32122.09408s.20877.08115.30968.12671l.33066.14923.32226-.16656,1.90972-.98712.78811.91592-1.21743,1.68073-.22451.31.11924.36368a3.77722,3.77722,0,0,1,.17772.87342l.02972.37069.31308.20075,1.801,1.15469-.39914,1.14047-2.12787-.22055-.37-.03836-.25444.27136a3.774,3.774,0,0,1-.64454.54566l-.31264.21063-.0175.37656-.09853,2.12005-1.18726.22458-.87866-1.96536-.14992-.33533L33.762,38.627c-.11949-.02917-.23876-.06353-.35718-.105-.09462-.03314-.18481-.07315-.275-.11285l-.328-.14426-.31834.16458-1.90666.98581-.78814-.91595,1.18993-1.6431.22791-.3147-.12562-.36767a3.77447,3.77447,0,0,1-.195-.94663l-.02713-.37457L30.54249,34.65l-1.68716-1.08151.39916-1.1405,1.99346.20645.37352.0387.25477-.27591a3.77711,3.77711,0,0,1,.704-.59217l.3199-.20993.0178-.38223.09653-2.07339,1.18726-.22455m.50563,8.51306a2.45337,2.45337,0,1,0-.80974-.138,2.45411,2.45411,0,0,0,.80974.138m-.06273-9.36014-2.35179.44483L32.16876,31.178a4.51836,4.51836,0,0,0-.84355.71042L28.74232,31.621l-.79065,2.25916,2.18607,1.4013a4.51956,4.51956,0,0,0,.23335,1.13492l-1.53749,2.123,1.56116,1.81433,2.43309-1.258c.10789.04746.216.09458.32918.13419.14166.04956.28418.09079.427.12567l1.1205,2.50632,2.35179-.44483.126-2.712a4.51259,4.51259,0,0,0,.7726-.65467l2.71733.28165.79065-2.25912L39.1631,34.59839a4.51862,4.51862,0,0,0-.21265-1.04715l1.56508-2.16068-1.56114-1.8143-2.43611,1.25922c-.12068-.05447-.24318-.10648-.37055-.151s-.25569-.08042-.38412-.11307l-1.119-2.50348Zm.06273,8.61014A1.70146,1.70146,0,1,1,36.313,35.53833,1.69791,1.69791,0,0,1,34.70737,36.678Z"/><circle class="cls-14" cx="22.31472" cy="48.5429" r="0.53712"/><circle class="cls-14" cx="22.31472" cy="38.31759" r="0.53712"/><circle class="cls-14" cx="40.17623" cy="48.5429" r="0.53712"/><circle class="cls-14" cx="58.92173" cy="48.5429" r="0.53712"/><circle class="cls-14" cx="58.92173" cy="21.62545" r="0.53712"/><path class="cls-15" d="M25.58978,21.58255a2.91346,2.91346,0,0,1,4.49365-3.70947l2.74366,3.32373-4.49366,3.70947Z"/><path d="M27.83507,17.18945h0a2.53206,2.53206,0,0,1,1.95923.92252l2.50488,3.03442-3.91505,3.23184-2.5049-3.03445a2.53844,2.53844,0,0,1,1.95586-4.15433m-.00017-.75a3.28844,3.28844,0,0,0-2.53407,5.38179l2.98234,3.61284L33.355,21.24733l-2.98235-3.61282a3.28137,3.28137,0,0,0-2.53776-1.19506Z"/><path class="cls-16" d="M28.26679,32.97973c1.16553-7.52313,11.09992-13.24261,19.3769-12.14062,11.95379,1.59149,19.30236,17.25818,16.199,22.51178C62.60444,45.4472,59.124,46.864,56.49958,46.256c-1.62024-.37537-1.85858-1.27783-5.06-3.48963-2.94274-2.03308-4.41406-3.04962-6.02166-3.26654-3.7425-.505-5.2002,2.63623-9.33283,2.74311a10.66735,10.66735,0,0,1-6.63037-2.44281A11.70376,11.70376,0,0,1,28.26679,32.97973Z"/><circle class="cls-17" cx="34.70734" cy="34.96491" r="1"/><circle class="cls-17" cx="47.07511" cy="30.16946" r="1.25"/><circle class="cls-17" cx="57.21565" cy="38.56672" r="1"/><line class="cls-18" x1="57.99856" y1="39.19648" x2="58.76781" y2="39.79834"/><line class="cls-18" x1="56.42339" y1="37.96407" x2="55.61949" y2="37.3351"/><line class="cls-18" x1="47.67127" y1="29.07078" x2="48.19852" y2="28.09913"/><line class="cls-18" x1="46.47894" y1="31.26813" x2="45.95174" y2="32.23977"/><path class="cls-19" d="M23.4286,32.18676a11.04,11.04,0,0,0,1.108,6.89393"/><path class="cls-20" d="M34.06559,18.00506a5.42378,5.42378,0,0,0-2.44888.464A6.319,6.319,0,0,0,29.543,19.98964"/><path class="cls-21" d="M48.50063,8.97891V6.11563h2.07031v.33789H48.87953v.87695h1.584v.33594h-1.584V8.641h1.75782v.33789Z"/><path class="cls-21" d="M51.11586,8.97891V6.90469h.31641v.29492a.74544.74544,0,0,1,.66015-.3418.86647.86647,0,0,1,.34473.06739.54344.54344,0,0,1,.23535.17675.67853.67853,0,0,1,.10938.25977,1.99611,1.99611,0,0,1,.01953.3418V8.97891h-.35156V7.71719a.94718.94718,0,0,0-.041-.32129.33845.33845,0,0,0-.14551-.16992.46176.46176,0,0,0-.24512-.06348.56878.56878,0,0,0-.38769.14258.70293.70293,0,0,0-.16309.541V8.97891Z"/><path class="cls-21" d="M53.276,9.15078l.34179.05078A.32605.32605,0,0,0,53.737,9.432a.5871.5871,0,0,0,.35743.09766.62886.62886,0,0,0,.377-.09766.48084.48084,0,0,0,.17969-.27344,2.24832,2.24832,0,0,0,.02539-.45117.7231.7231,0,0,1-.57422.27149.78326.78326,0,0,1-.66211-.3086,1.18834,1.18834,0,0,1-.23438-.74023,1.376,1.376,0,0,1,.10743-.54785.85941.85941,0,0,1,.31152-.3877.84028.84028,0,0,1,.47949-.13672.744.744,0,0,1,.60547.29688v-.25h.32422v1.793a1.69831,1.69831,0,0,1-.09863.68652.72226.72226,0,0,1-.3125.31934,1.08264,1.08264,0,0,1-.52637.11718.99224.99224,0,0,1-.59961-.167A.56413.56413,0,0,1,53.276,9.15078Zm.291-1.24609a.90105.90105,0,0,0,.16211.5957.53476.53476,0,0,0,.8125.001.87085.87085,0,0,0,.16406-.585.84969.84969,0,0,0-.16894-.57422.52288.52288,0,0,0-.40723-.19336.50742.50742,0,0,0-.39843.19043A.84565.84565,0,0,0,53.567,7.90469Z"/><path class="cls-21" d="M55.567,6.51992V6.11563h.35157v.40429Zm0,2.459V6.90469h.35157V8.97891Z"/><path class="cls-21" d="M56.45375,8.97891V6.90469h.31641v.29492a.74544.74544,0,0,1,.66015-.3418.86647.86647,0,0,1,.34473.06739.54344.54344,0,0,1,.23535.17675.67853.67853,0,0,1,.10938.25977,1.99611,1.99611,0,0,1,.01953.3418V8.97891h-.35156V7.71719a.94718.94718,0,0,0-.041-.32129.33845.33845,0,0,0-.14551-.16992.46172.46172,0,0,0-.24511-.06348.56878.56878,0,0,0-.3877.14258.70293.70293,0,0,0-.16309.541V8.97891Z"/><path class="cls-21" d="M60.09828,8.31094l.36328.04492A.88573.88573,0,0,1,60.1432,8.85a1.07853,1.07853,0,0,1-1.31542-.10449,1.09511,1.09511,0,0,1-.26661-.78613,1.14615,1.14615,0,0,1,.26953-.8125.91153.91153,0,0,1,.69922-.28907.88618.88618,0,0,1,.67969.28321,1.12577,1.12577,0,0,1,.26367.79687c0,.021-.00049.05225-.002.09375H58.92445a.79849.79849,0,0,0,.19336.52344.575.575,0,0,0,.4336.18164.53727.53727,0,0,0,.33008-.10156A.67274.67274,0,0,0,60.09828,8.31094ZM58.944,7.74258h1.1582A.70492.70492,0,0,0,59.96938,7.35a.5393.5393,0,0,0-.43555-.20312.55863.55863,0,0,0-.40723.1621A.64168.64168,0,0,0,58.944,7.74258Z"/><line class="cls-21" x1="50.95882" y1="10.60941" x2="45.72357" y2="17.17646"/><line class="cls-22" x1="50.95881" y1="10.60938" x2="46.29133" y2="16.46424"/><circle class="cls-21" cx="46.32122" cy="16.42679" r="0.95874" transform="translate(-0.41763 1.22894) rotate(-1.5132)"/><polyline class="cls-23" points="79.592 50.452 0.375 50.452 0.375 52.625"/></g></g></svg>