<svg xmlns="http://www.w3.org/2000/svg" xmlns:xlink="http://www.w3.org/1999/xlink" viewBox="0 0 141.95417 72.89389"><defs><style>.cls-1{fill:url(#radial-gradient);}.cls-2{fill:#f7931e;}.cls-11,.cls-22,.cls-25,.cls-3,.cls-32,.cls-33,.cls-4,.cls-46,.cls-47,.cls-55,.cls-59,.cls-60,.cls-61,.cls-62,.cls-63,.cls-64{fill:none;}.cls-11,.cls-13,.cls-20,.cls-22,.cls-23,.cls-24,.cls-25,.cls-3,.cls-32,.cls-33,.cls-34,.cls-35,.cls-36,.cls-37,.cls-38,.cls-39,.cls-4,.cls-40,.cls-41,.cls-42,.cls-43,.cls-44,.cls-45,.cls-46,.cls-47,.cls-48,.cls-50,.cls-51,.cls-54{stroke:#000;}.cls-3,.cls-32,.cls-33{stroke-linecap:round;}.cls-11,.cls-13,.cls-20,.cls-22,.cls-23,.cls-24,.cls-25,.cls-3,.cls-32,.cls-33,.cls-34,.cls-35,.cls-36,.cls-37,.cls-38,.cls-39,.cls-4,.cls-40,.cls-41,.cls-42,.cls-43,.cls-44,.cls-45,.cls-46,.cls-47,.cls-48,.cls-50,.cls-51,.cls-52,.cls-53,.cls-54,.cls-55,.cls-56,.cls-59,.cls-60,.cls-61,.cls-62,.cls-63,.cls-64{stroke-miterlimit:10;}.cls-3{stroke-width:1.8px;}.cls-13,.cls-33,.cls-4{stroke-width:2px;}.cls-5{fill:url(#radial-gradient-2);}.cls-6{fill:url(#radial-gradient-3);}.cls-7{fill:url(#radial-gradient-4);}.cls-8{fill:url(#radial-gradient-5);}.cls-9{fill:url(#radial-gradient-6);}.cls-10{fill:url(#radial-gradient-7);}.cls-11{stroke-width:3px;}.cls-12,.cls-20{fill:#333;}.cls-13,.cls-24,.cls-44,.cls-45,.cls-53,.cls-56{fill:#fff;}.cls-14{fill:#666;}.cls-15{fill:url(#radial-gradient-8);}.cls-16{fill:url(#radial-gradient-9);}.cls-17{fill:url(#radial-gradient-10);}.cls-18{fill:url(#radial-gradient-11);}.cls-19{fill:url(#radial-gradient-12);}.cls-20,.cls-42,.cls-53{stroke-width:0.25px;}.cls-21{fill:url(#radial-gradient-13);}.cls-22{stroke-width:4px;}.cls-23{fill:#e6e6e6;}.cls-23,.cls-25,.cls-34,.cls-35,.cls-36,.cls-37,.cls-38,.cls-39,.cls-40,.cls-43,.cls-45,.cls-48,.cls-50,.cls-64{stroke-width:0.75px;}.cls-24,.cls-46{stroke-width:1.5px;}.cls-26{fill:url(#radial-gradient-14);}.cls-27{fill:url(#radial-gradient-15);}.cls-28{fill:url(#radial-gradient-16);}.cls-29{fill:url(#radial-gradient-17);}.cls-30{fill:url(#radial-gradient-18);}.cls-31{fill:url(#radial-gradient-19);}.cls-34{fill:url(#radial-gradient-20);}.cls-35{fill:url(#radial-gradient-21);}.cls-36{fill:url(#linear-gradient);}.cls-37{fill:#58595b;}.cls-38{fill:url(#linear-gradient-2);}.cls-39{fill:#808184;}.cls-40,.cls-42{fill:#404041;}.cls-41{fill:#3b3a3c;stroke-width:0;}.cls-43{fill:url(#linear-gradient-3);}.cls-44,.cls-51,.cls-52,.cls-55,.cls-59,.cls-60,.cls-61,.cls-62,.cls-63{stroke-width:0.5px;}.cls-49{fill:#a67c52;}.cls-50{fill:url(#radial-gradient-22);}.cls-51{fill:#736357;}.cls-52,.cls-55,.cls-64{stroke:#be1e2d;}.cls-53{stroke:#00a551;}.cls-54{stroke-width:0.94192px;fill:url(#radial-gradient-23);}.cls-56{stroke:#c1272d;stroke-dasharray:2;}.cls-57{fill:#be1e2d;}.cls-58{fill:#999;}.cls-59,.cls-60,.cls-61,.cls-62,.cls-63{stroke:#999;}.cls-60{stroke-dasharray:2.68697 2.68697;}.cls-61{stroke-dasharray:2.85569 2.85569;}.cls-62{stroke-dasharray:2.60214 2.60214;}.cls-63{stroke-dasharray:3.22294 3.22294;}</style><radialGradient id="radial-gradient" cx="69.9876" cy="56.48087" r="28.62803" gradientTransform="matrix(0.53156, -0.73139, 0.3984, 0.47659, 7.58654, 80.7507)" gradientUnits="userSpaceOnUse"><stop offset="0.5" stop-color="#4d4d4d"/><stop offset="0.5" stop-color="#1a1a1a"/></radialGradient><radialGradient id="radial-gradient-2" cx="139.55692" cy="52.60801" r="4.89238" gradientUnits="userSpaceOnUse"><stop offset="0.5" stop-color="#e6e6e6"/><stop offset="0.5" stop-color="gray"/></radialGradient><radialGradient id="radial-gradient-3" cx="136.17431" cy="45.19599" r="7.63442" xlink:href="#radial-gradient-2"/><radialGradient id="radial-gradient-4" cx="106.18881" cy="20.85645" r="2.73878" gradientUnits="userSpaceOnUse"><stop offset="0.5" stop-color="#333"/><stop offset="0.5" stop-color="#030303"/></radialGradient><radialGradient id="radial-gradient-5" cx="111.29964" cy="23.18982" r="2.67644" xlink:href="#radial-gradient-4"/><radialGradient id="radial-gradient-6" cx="112.96881" cy="28.2144" r="10.18599" xlink:href="#radial-gradient-2"/><radialGradient id="radial-gradient-7" cx="101.93454" cy="26.95801" r="15.84452" xlink:href="#radial-gradient-2"/><radialGradient id="radial-gradient-8" cx="99.43895" cy="43.15777" r="29.19024" gradientTransform="matrix(0.8434, -0.53729, 0.3331, 0.52288, 1.19661, 74.01949)" xlink:href="#radial-gradient-2"/><radialGradient id="radial-gradient-9" cx="113.74366" cy="47.41486" r="12.9609" gradientUnits="userSpaceOnUse"><stop offset="0.49576" stop-color="#f2f2f2"/><stop offset="0.5" stop-color="#b3b3b3"/></radialGradient><radialGradient id="radial-gradient-10" cx="124.71779" cy="54.4791" r="6.79013" xlink:href="#radial-gradient-9"/><radialGradient id="radial-gradient-11" cx="93.76365" cy="66.29659" r="19.38634" gradientTransform="translate(148.11833 -21.45969) rotate(97.04948) scale(1 0.65122)" xlink:href="#radial-gradient-2"/><radialGradient id="radial-gradient-12" cx="102.82474" cy="51.49039" r="9.23681" xlink:href="#radial-gradient-9"/><radialGradient id="radial-gradient-13" cx="95.96396" cy="39.49798" r="7.81544" gradientTransform="matrix(1, 0, 0, 1, 0, 0)" xlink:href="#radial-gradient"/><radialGradient id="radial-gradient-14" cx="102.1039" cy="14.75077" r="10.39037" xlink:href="#radial-gradient-4"/><radialGradient id="radial-gradient-15" cx="106.88172" cy="9.41153" r="10.74141" xlink:href="#radial-gradient-4"/><radialGradient id="radial-gradient-16" cx="112.64055" cy="7.88759" r="9.39947" xlink:href="#radial-gradient-4"/><radialGradient id="radial-gradient-17" cx="108.76874" cy="17.42164" r="8.52577" xlink:href="#radial-gradient-4"/><radialGradient id="radial-gradient-18" cx="110.90946" cy="20.79459" r="3.6726" xlink:href="#radial-gradient-4"/><radialGradient id="radial-gradient-19" cx="105.96478" cy="4.0445" r="5.84146" xlink:href="#radial-gradient-4"/><radialGradient id="radial-gradient-20" cx="26.3319" cy="26.65874" r="5.08136" gradientTransform="matrix(0.64388, -0.64388, 0.64388, 0.64388, -7.06345, 29.8692)" gradientUnits="userSpaceOnUse"><stop offset="0.5" stop-color="#404041"/><stop offset="0.5" stop-color="#0d0d0d"/></radialGradient><radialGradient id="radial-gradient-21" cx="60.36633" cy="44.86461" r="4.28683" gradientTransform="matrix(0.12927, -0.90136, 0.63842, 0.09156, 21.68604, 96.80531)" gradientUnits="userSpaceOnUse"><stop offset="0.5" stop-color="#404041"/><stop offset="0.50145" stop-color="#6d6e70"/></radialGradient><linearGradient id="linear-gradient" x1="55.98223" y1="57.21662" x2="55.98223" y2="35.48749" gradientUnits="userSpaceOnUse"><stop offset="0.28" stop-color="#fff"/><stop offset="0.28" stop-color="#999"/><stop offset="0.6771" stop-color="#999"/><stop offset="0.6771" stop-color="#fff"/></linearGradient><linearGradient id="linear-gradient-2" x1="37.09994" y1="46.65166" x2="60.0138" y2="46.65166" gradientUnits="userSpaceOnUse"><stop offset="0.5013" stop-color="#404041"/><stop offset="0.50409" stop-color="#3b3a3c"/></linearGradient><linearGradient id="linear-gradient-3" x1="45.91875" y1="45.96595" x2="58.38041" y2="45.96595" gradientUnits="userSpaceOnUse"><stop offset="0.5" stop-color="#fff"/><stop offset="0.5" stop-color="#999"/></linearGradient><radialGradient id="radial-gradient-22" cx="-337.46046" cy="-37.94623" r="9.85472" gradientTransform="matrix(-0.55341, 0.06913, -0.05237, -0.47327, -178.90485, 50.67581)" gradientUnits="userSpaceOnUse"><stop offset="0.5" stop-color="#fff"/><stop offset="0.5" stop-color="#f17aa9"/></radialGradient><radialGradient id="radial-gradient-23" cx="36.27299" cy="-87.66995" r="2.06405" gradientTransform="matrix(-0.87779, 0.19227, -0.12077, -0.55136, 34.40436, -4.66219)" xlink:href="#radial-gradient-22"/></defs><title>-1Asset 11</title><g id="Layer_2" data-name="Layer 2"><g id="Layer_1-2" data-name="Layer 1"><rect class="cls-1" x="64.27962" y="49.19408" width="11.72119" height="21.25"/><path d="M75.626,49.56911v20.5H64.65469v-20.5H75.626m.75-.75H63.90469v22H76.376v-22Z"/><rect x="66.24306" y="54.81911" width="7.79453" height="1"/><rect x="66.24306" y="57.81911" width="7.79453" height="1"/><rect class="cls-2" x="72.23243" y="51.15705" width="1.67226" height="1.66206"/><path class="cls-3" d="M72.2263,62.31912a13.08552,13.08552,0,0,0,4.96051,5.56134,12.27678,12.27678,0,0,0,4.84088,1.96228c4.25421.69485,6.15589-1.52661,10.63343-1.88211A16.69411,16.69411,0,0,1,100.85417,69.51"/><path d="M70.72887,62.94824a1.62423,1.62423,0,1,1,2.12658.86829A1.62439,1.62439,0,0,1,70.72887,62.94824Z"/><path d="M67.83561,61.116h1.46755a.60153.60153,0,0,1,.60153.60153v0a.60153.60153,0,0,1-.60153.60153H67.83561a.43091.43091,0,0,1-.43091-.43091V61.547a.43091.43091,0,0,1,.43091-.43091Z"/><path class="cls-4" d="M96.51351,45.46005c-2.71692-1.86584-6.11469-.82306-7.12073,1.30786a4.72885,4.72885,0,0,0,1.69934,5.477"/><path class="cls-5" d="M129.03988,60.35619l6.99219-6.50781h-4.57666v-1.7373h6.811a.8681.8681,0,0,1,.47852,1.59277l-8.521,7.92432Z"/><path d="M138.26653,52.48594a.493.493,0,0,1,.27129.90506l-.05147.0341-.04519.04207-8.19831,7.6306-.67268-.72273,6.01958-5.60277,1.39564-1.299h-5.155v-.98733h6.43613m0-.75H131.0804v2.48733h3.99837L128.5102,60.337l1.69463,1.82074,8.74731-8.14158a1.243,1.243,0,0,0-.68561-2.28023Z"/><path class="cls-6" d="M129.03988,51.77709l6.99219-6.50781h-4.57666V43.532h6.811a.86811.86811,0,0,1,.47852,1.59278l-8.521,7.92431Z"/><path d="M138.26653,43.907a.493.493,0,0,1,.27129.90506l-.05147.03411-.04519.04207-8.19831,7.6306-.67268-.72274,6.01958-5.60276,1.39564-1.299h-5.155V43.907h6.43613m0-.75H131.0804v2.48734h3.99837l-6.56857,6.11374,1.69463,1.82074,8.74731-8.14159a1.243,1.243,0,0,0-.68561-2.28023Z"/><ellipse class="cls-7" cx="106.71899" cy="18.68004" rx="1.5" ry="2.22011"/><ellipse class="cls-8" cx="111.725" cy="22.94622" rx="1.5" ry="1.90015"/><path class="cls-9" d="M110.34945,37.97826V25.26879a1.15259,1.15259,0,0,1,2.30517,0V37.97826Z"/><path d="M111.50193,24.49122a.77848.77848,0,0,1,.77759.77759V37.60313h-1.55518V25.26881a.77848.77848,0,0,1,.77759-.77759m0-.75a1.52758,1.52758,0,0,0-1.52759,1.52759V38.35313h3.05518V25.26881a1.52758,1.52758,0,0,0-1.52759-1.52759Z"/><path class="cls-10" d="M105.56625,38.98852V21.79613a1.15259,1.15259,0,0,1,2.30517,0V38.98852Z"/><path d="M106.719,21.01879a.77847.77847,0,0,1,.77758.77759V38.61365H105.9414V21.79638a.77848.77848,0,0,1,.77759-.77759m0-.75a1.52757,1.52757,0,0,0-1.52759,1.52759V39.36365h3.05517V21.79638a1.52757,1.52757,0,0,0-1.52758-1.52759Z"/><path class="cls-11" d="M94.3316,51.70592c-.23854-.009-3.867-.09211-5.15875,2.53662-1.34435,2.7359.04572,7.99542,4.49,10.60779"/><path class="cls-12" d="M95.67513,58.0349a2.917,2.917,0,0,1-2.91357-2.91357v-.37256h5.82666v.37256A2.91659,2.91659,0,0,1,95.67513,58.0349Z"/><path d="M98.21331,55.12377a2.53833,2.53833,0,0,1-5.07666,0h5.07666m.75-.75H92.38665v.74764A3.28834,3.28834,0,0,0,95.675,58.40974h0a3.28833,3.28833,0,0,0,3.28832-3.28833v-.74764Z"/><path class="cls-12" d="M102.25179,68.97387a2.917,2.917,0,0,1-2.91357-2.91358V54.74877h5.82666V66.06029A2.91659,2.91659,0,0,1,102.25179,68.97387Z"/><path d="M104.79,55.12377V66.06048a2.53834,2.53834,0,0,1-5.07667,0V55.12377H104.79m.75-.75H98.96331V66.06048a3.28833,3.28833,0,0,0,3.28833,3.28833h0A3.28833,3.28833,0,0,0,105.54,66.06048V54.37377Z"/><path class="cls-13" d="M124.81329,42.43136a5.37342,5.37342,0,0,0-2.09252-3.348,5.296,5.296,0,0,0-3.2085-.97651"/><rect class="cls-14" x="111.02572" y="40.58031" width="20.34912" height="29.76611"/><path d="M130.99974,40.95554V69.97123h-19.599V40.95554h19.599m.75-.75h-21.099V70.72123h21.099V40.20554Z"/><path class="cls-15" d="M91.20443,54.33276v-.94629a17.54894,17.54894,0,0,1,17.52881-17.5293h11.334V54.33276Z"/><path d="M119.69225,36.23228V53.95774h-28.113v-.57141a17.17346,17.17346,0,0,1,17.154-17.154h10.959m.75-.75h-11.709a17.90407,17.90407,0,0,0-17.904,17.904v1.32141h29.613V35.48228Z"/><path class="cls-16" d="M116.72591,59.39379l-.84912-3.57275-.16992-.0752a5.85912,5.85912,0,0,1-1.13623-.668l-.15137-.11279-3.49853,1.04443-1.36084-2.35644,2.68115-2.53321-.01807-.18359c-.01855-.19043-.02929-.3833-.02929-.57861,0-.15625.01172-.30957.02392-.4624l.01367-.17872-2.67138-2.52441,1.36084-2.35644,3.37939,1.00927.15283-.12011a5.895,5.895,0,0,1,1.29395-.77491l.17236-.0747.80664-3.39258h2.72119l.80713,3.39258.17237.0747a5.88026,5.88026,0,0,1,1.23486.731l.15186.11621,3.43945-1.02685,1.36084,2.35742-2.67578,2.52783.01562.18018c.01465.17236.02637.3457.02637.522s-.01172.34912-.02637.52148l-.01562.18018,2.67578,2.52832-1.36084,2.35693-3.439-1.02685-.15185.11621a5.90012,5.90012,0,0,1-1.19483.71191l-.16992.0752-.8501,3.57275Zm1.36084-11.686a2.73047,2.73047,0,1,0,2.73047,2.73046A2.73383,2.73383,0,0,0,118.08675,47.70776Z"/><path d="M119.15109,41.85789l.69471,2.9214.08689.36537.34458.14929a5.51915,5.51915,0,0,1,1.15651.68483l.30382.23262.36666-.10946,2.97223-.88736,1.06444,1.84367-2.32921,2.20044-.2638.24922.03172.36153c.01414.16116.02507.32335.02507.48816s-.011.32686-.02508.48791l-.03166.36142.26371.24916,2.3292,2.20081-1.06447,1.84369-2.97177-.88756-.36675-.10954-.30388.23271a5.519,5.519,0,0,1-1.11876.66649l-.3401.15051-.086.36182-.738,3.10359h-2.1289l-.73773-3.10353-.086-.36188-.34016-.15053a5.51726,5.51726,0,0,1-1.06384-.62546l-.302-.22546-.36117.10786-3.03411.90613-1.06445-1.84369,2.33231-2.20373.267-.25226-.03561-.36559c-.01741-.17872-.02753-.3596-.02753-.54287,0-.1463.01134-.28989.02251-.43334l.02783-.3573-.26053-.24612-2.32605-2.19744,1.06447-1.84368,2.91.86877.3723.11116.30554-.24a5.51628,5.51628,0,0,1,1.2114-.72568l.3446-.14932.08687-.3654.69444-2.92134h2.12891m-1.06431,11.6858a3.10547,3.10547,0,1,0-3.1055-3.10547,3.109,3.109,0,0,0,3.1055,3.10547m1.65687-12.4358h-3.31409l-.8315,3.49789a6.25834,6.25834,0,0,0-1.37648.824l-3.47776-1.0383-1.65707,2.87009L111.8436,49.866c-.01268.16271-.02478.32561-.02478.49157,0,.20781.01133.41293.03106.61558l-2.763,2.6107,1.657,2.87008,3.60194-1.0757a6.25212,6.25212,0,0,0,1.209.71026l.87477,3.68009h3.31409l.87512-3.68009a6.25621,6.25621,0,0,0,1.27124-.75686l3.5396,1.05716,1.65707-2.87009L124.32677,50.911c.016-.18265.02794-.36653.02794-.55336s-.0119-.37093-.02794-.55373l2.76-2.60741-1.657-2.87007-3.54,1.05689a6.25506,6.25506,0,0,0-1.31425-.7775l-.8318-3.49789Zm-1.65687,11.6858a2.35547,2.35547,0,1,1,2.35546-2.35547,2.35547,2.35547,0,0,1-2.35546,2.35547Z"/><path class="cls-17" d="M127.25179,62.81664l-.17871-.05176a4.12088,4.12088,0,0,1-.856-.35839l-.165-.0918-2.375,1.07568L122.575,61.96606l1.65332-2.04932-.043-.1792c-.03125-.13135-.05664-.26465-.0752-.40088-.01465-.10937-.021-.21777-.02734-.32568l-.01075-.1792-2.13037-1.52734.68262-1.66651,2.48926.38916.13525-.13965a4.13131,4.13131,0,0,1,.82959-.66357l.16016-.09717.24512-2.47607,1.78418-.2417.896,2.3208.18067.05078a4.16778,4.16778,0,0,1,.93164.39355l.1665.09473,2.335-1.05713,1.102,1.42432-1.64941,2.04492.04.17725c.02685.11865.05127.23779.06787.36084s.0249.24511.03076.3667l.00879.18115,2.13476,1.53076-.68212,1.6665-2.53174-.396-.13477.13525a4.16639,4.16639,0,0,1-.76709.61035l-.15869.09717-.25781,2.60938-1.78467.24218Zm.98242-6.05761a2.10923,2.10923,0,0,0-.28125.019,2.07632,2.07632,0,0,0,.27686,4.13379,2.10926,2.10926,0,0,0,.28125-.01905,2.07632,2.07632,0,0,0-.27686-4.13378Z"/><path d="M128.02481,52.82008l.72178,1.86964.13524.35033.36152.10159a3.77789,3.77789,0,0,1,.84736.35812l.33237.18962.34859-.1578,1.8909-.856.73946.95563-1.34972,1.673-.22789.28247.08012.354c.02444.108.04693.21707.06212.329s.02254.22283.02781.33342l.01723.36242.29486.21144,1.747,1.25276-.45788,1.11821-2.0504-.32094-.37815-.05919-.26979.27149a3.77711,3.77711,0,0,1-.69729.55511l-.31675.1949-.03657.37012-.21039,2.129-1.19733.16258-.77027-1.99579-.13393-.347-.35732-.10337a3.7774,3.7774,0,0,1-.779-.32631l-.32966-.18277-.34336.15547-1.93338.8754-.73946-.95563,1.35162-1.67565.23062-.28588-.08448-.35747c-.02829-.11971-.05188-.24153-.06877-.36595-.01349-.09929-.0188-.19782-.02443-.29619l-.0205-.3578-.29127-.20884L122.401,57.17248l.45787-1.11823,2.00435.31355.3839.06.27049-.279a3.77434,3.77434,0,0,1,.75464-.60382l.32135-.19435.03691-.37372.19691-1.99434,1.19736-.16258m.205,8.46678a2.46934,2.46934,0,0,0,.33194-.02249,2.45129,2.45129,0,0,0-.32765-4.88027,2.45138,2.45138,0,0,0-.00429,4.90276m.28121-9.28969-2.37175.32205-.25515,2.58408a4.51881,4.51881,0,0,0-.905.72351l-2.58979-.40512-.907,2.215,2.226,1.596c.00675.11768.01391.23544.03.35422.0202.14871.04824.2944.08206.43751l-1.72367,2.13686,1.46476,1.893,2.47324-1.11984a4.515,4.515,0,0,0,.9342.39082l.98365,2.54866,2.37174-.32205.26865-2.71871a4.517,4.517,0,0,0,.83622-.66519l2.63589.41259.907-2.215-2.22856-1.59806c-.00628-.13227-.01561-.265-.03377-.39873s-.04455-.2643-.0738-.39356l1.72182-2.13421-1.46476-1.893-2.43074,1.10037a4.518,4.518,0,0,0-1.0161-.42871l-.93519-2.42244Zm-.28122,8.53969a1.70257,1.70257,0,1,1,.231-.01567,1.72017,1.72017,0,0,1-.231.01567Z"/><rect class="cls-18" x="91.8221" y="57.32201" width="20.85938" height="13.02441"/><path d="M112.30633,57.69685V69.97123H92.197V57.69685h20.10937m.75-.75H91.447V70.72123h21.60937V56.94685Z"/><path class="cls-19" d="M104.86263,59.30346l-.17871-.04346c-.13086-.03174-.26172-.06982-.3916-.11523-.104-.03614-.20264-.08008-.30176-.12354l-.16357-.07178-2.32959,1.20362-1.17481-1.36475,1.47754-2.04053-.0625-.18359a4.17133,4.17133,0,0,1-.21435-1.0415l-.01368-.187-2.09472-1.34278.59472-1.69971,2.47559.25684.12744-.13867a4.15223,4.15223,0,0,1,.77344-.65088l.16016-.105.11914-2.56055,1.76953-.335,1.07177,2.39893.17579.04443c.11767.03027.23584.0625.35254.10352.11767.0415.22949.08886.34082.13916l.16552.0747,2.334-1.20654,1.17431,1.36524-1.50341,2.07568.05957.18164a4.13318,4.13318,0,0,1,.19482.96045l.01514.18506,2.207,1.415-.59473,1.70019-2.60742-.27051-.12744.13526a4.14558,4.14558,0,0,1-.709.60058l-.15576.10547-.12109,2.604-1.77.335Zm.85694-6.13477a2.07643,2.07643,0,1,0,.68554.1167A2.07939,2.07939,0,0,0,105.71957,53.16869Z"/><path d="M105.21338,49.18374l.87714,1.96246.1481.33135.35174.08946c.10738.02731.21472.05682.32128.09411s.20881.08118.30976.12674l.33065.14924.32226-.16657,1.90972-.98714.78812.91591-1.21745,1.68076-.22454.31.11927.36368a3.77745,3.77745,0,0,1,.17772.87337l.02971.37072.31308.20075,1.801,1.15468-.39915,1.1405-2.12787-.22055-.37-.03835-.25444.27135a3.7754,3.7754,0,0,1-.6446.54568l-.31259.21065-.01749.37651-.09853,2.12-1.18727.22458-.87865-1.96536-.1499-.33531-.35679-.08716c-.1195-.02921-.23877-.06354-.35724-.105-.09461-.03311-.18482-.07315-.275-.11282l-.32805-.14428-.31835.1646-1.90664.98576-.78814-.91592,1.18994-1.6431.2279-.31471-.12564-.36769a3.77479,3.77479,0,0,1-.195-.94658l-.02711-.37457-.31617-.20267L99.867,53.83732l.39914-1.1405,1.99349.20643.37352.03868.25474-.27589a3.77862,3.77862,0,0,1,.704-.59218l.3199-.20993.0178-.38222.09652-2.07339,1.18727-.22458m.50563,8.51311a2.45364,2.45364,0,1,0-.80973-.13807,2.45412,2.45412,0,0,0,.80973.13807m-.06274-9.36017-2.35178.44484-.12409,2.66531a4.51831,4.51831,0,0,0-.84356.7104L99.754,51.88976l-.79066,2.25916,2.18608,1.40132a4.51925,4.51925,0,0,0,.23336,1.1349l-1.53749,2.123,1.56115,1.81431,2.43308-1.258c.10789.04746.21605.09458.32918.13417.14166.04958.2842.09079.427.12569l1.12049,2.50633,2.3518-.44485.126-2.712a4.51446,4.51446,0,0,0,.77261-.65466l2.71732.28165.79066-2.25916-2.29987-1.4745a4.51737,4.51737,0,0,0-.21265-1.04715l1.56509-2.16069L109.966,49.845l-2.43611,1.25923c-.12069-.05447-.24319-.10648-.37054-.151s-.25569-.08039-.38414-.11306l-1.119-2.50348Zm.06274,8.61017a1.70148,1.70148,0,1,1,1.60566-1.13971,1.69784,1.69784,0,0,1-1.60566,1.13971Z"/><circle class="cls-20" cx="93.32636" cy="68.81169" r="0.53712"/><circle class="cls-20" cx="93.32636" cy="58.58637" r="0.53712"/><circle class="cls-20" cx="111.18787" cy="68.81169" r="0.53712"/><circle class="cls-20" cx="129.93337" cy="68.81169" r="0.53712"/><circle class="cls-20" cx="129.93337" cy="41.89424" r="0.53712"/><path class="cls-21" d="M96.6014,41.85131a2.91346,2.91346,0,0,1,4.49365-3.70947l2.74366,3.32422-4.49366,3.709Z"/><path d="M98.84669,37.45824h0a2.53218,2.53218,0,0,1,1.95927.9225l2.50489,3.03443L99.39575,44.647l-2.5049-3.03444a2.53845,2.53845,0,0,1,1.95584-4.15433m-.00014-.75A3.28844,3.28844,0,0,0,96.31247,42.09l2.98234,3.61283,5.07185-4.18675-2.98235-3.61283a3.28145,3.28145,0,0,0-2.53776-1.195Z"/><path class="cls-22" d="M99.27844,53.24852c1.16552-7.52313,11.09991-13.24262,19.37689-12.14063,11.9538,1.5915,19.30237,17.25818,16.199,22.51178-1.23828,2.09632-4.71868,3.51306-7.34314,2.90509-1.62023-.37536-1.85858-1.27783-5.06-3.48962-2.94275-2.03308-4.41407-3.04962-6.02167-3.26654-3.74249-.505-5.2002,2.63623-9.33282,2.7431a10.66724,10.66724,0,0,1-6.63038-2.44281A11.70365,11.70365,0,0,1,99.27844,53.24852Z"/><circle class="cls-23" cx="105.71899" cy="55.23369" r="1"/><circle class="cls-23" cx="118.08676" cy="50.43825" r="1.25"/><circle class="cls-23" cx="128.22729" cy="58.83551" r="1"/><line class="cls-24" x1="129.0102" y1="59.46527" x2="129.77945" y2="60.06713"/><line class="cls-24" x1="127.43503" y1="58.23285" x2="126.63113" y2="57.60388"/><line class="cls-24" x1="118.68291" y1="49.33956" x2="119.21017" y2="48.36791"/><line class="cls-24" x1="117.49059" y1="51.53692" x2="116.96338" y2="52.50855"/><polyline class="cls-25" points="141.954 70.721 22.251 70.721 22.251 72.894"/><circle class="cls-26" cx="104.65075" cy="14.75077" r="4.75077"/><circle class="cls-27" cx="110.65075" cy="10" r="7"/><circle class="cls-28" cx="113.50193" cy="6.4597" r="4.75077"/><circle class="cls-29" cx="111.50193" cy="17" r="4"/><circle class="cls-30" cx="111.725" cy="20.87061" r="2"/><circle class="cls-31" cx="106.71899" cy="3" r="3"/><path class="cls-32" d="M94.44024,52.45555a11.03994,11.03994,0,0,0,1.108,6.89392"/><path class="cls-33" d="M105.07723,38.27385a5.4238,5.4238,0,0,0-2.44888.464,6.319,6.319,0,0,0-2.07374,1.52059"/><path class="cls-34" d="M27.25521,28.70429h.06359A2.06641,2.06641,0,0,1,29.3852,30.7707v.73321a0,0,0,0,1,0,0H25.1888a0,0,0,0,1,0,0V30.7707A2.06641,2.06641,0,0,1,27.25521,28.70429Z" transform="translate(29.27899 -10.47753) rotate(45)"/><path class="cls-35" d="M59.385,49.42664a7.11026,7.11026,0,0,1-.32058-.653,11.4132,11.4132,0,0,1-.50958-1.59249,2.87029,2.87029,0,0,0-1.24338-1.59672l-.33547-.29781a2.25055,2.25055,0,0,1,2.453-.22712,2.32075,2.32075,0,0,1,.7022.813c.60844,1.11663.57053,3.03127.01291,3.52545C60.03938,49.49081,59.8145,49.6238,59.385,49.42664Z"/><path class="cls-36" d="M57.68135,37.94861H54.27718c-.03143.03477-.06414.06845-.09716.1019V70.57124h3.60441V38.06842Q57.73136,38.00962,57.68135,37.94861Z"/><rect class="cls-37" x="53.61528" y="48.25381" width="4.7339" height="2.03892" rx="1.00401"/><polygon class="cls-38" points="49.987 58.908 27.073 61.495 27.073 31.809 49.987 34.39 49.987 58.908"/><polygon class="cls-39" points="29.264 61.323 27.073 61.495 27.073 31.809 29.264 32.009 29.264 61.323"/><polygon class="cls-40" points="44.391 42.02 39.353 41.464 36.804 45.878 39.353 50.293 44.391 49.692 46.408 45.878 44.391 42.02"/><path class="cls-41" d="M44.94751,47.19565l-2.64959.39234a.79674.79674,0,0,1-.77681-.81529v-1.593a.79675.79675,0,0,1,.77681-.81529l1.674.31493Z"/><circle class="cls-42" cx="40.08473" cy="42.73887" r="0.34174"/><circle class="cls-42" cx="43.84502" cy="43.08061" r="0.25486"/><circle class="cls-42" cx="40.08473" cy="49.35035" r="0.34174"/><circle class="cls-42" cx="43.84502" cy="48.75375" r="0.25486"/><circle class="cls-42" cx="38.55604" cy="45.87834" r="0.34174"/><path class="cls-43" d="M42.717,44.78452h10.42a.93042.93042,0,0,1,.93042.93042v.502a.93042.93042,0,0,1-.93042.93042H42.717a1.11119,1.11119,0,0,1-1.11119-1.11119v-.14047A1.11119,1.11119,0,0,1,42.717,44.78452Z"/><rect class="cls-37" x="52.89492" y="43.45816" width="6.17462" height="4.83118" rx="2.16128"/><path class="cls-44" d="M41.93277,47.39929a2.35179,2.35179,0,0,1-.41166-1.07835"/><path class="cls-44" d="M41.57416,45.61186a2.35188,2.35188,0,0,1,.30556-1.11308"/><rect class="cls-45" x="36.51175" y="25.32662" width="1.71269" height="28.27943"/><rect class="cls-40" x="35.02469" y="29.71598" width="4.46245" height="2.60025" transform="translate(6.23981 68.27203) rotate(-90)"/><rect class="cls-45" x="34.45701" y="20.77122" width="1.71269" height="16.14861" transform="translate(-9.68268 36.22482) rotate(-48.55702)"/><rect class="cls-40" x="29.48789" y="24.37186" width="4.46245" height="2.60025" transform="translate(38.50461 65.91015) rotate(-138.55702)"/><rect class="cls-45" x="30.49412" y="21.50664" width="1.71269" height="9.06799" transform="translate(27.59586 -14.541) rotate(45.00002)"/><rect class="cls-40" x="34.94262" y="29.18812" width="4.46245" height="2.60025" transform="matrix(-0.74961, -0.66187, 0.66187, -0.74961, 44.86052, 77.9471)"/><rect class="cls-40" x="29.48789" y="24.37186" width="4.46245" height="2.60025" transform="translate(72.30076 21.39601) rotate(135)"/><path class="cls-25" d="M28.55687,30.60009c1.002-.07684,2.853.21744,3.45331-.7976,2.6474-4.47586,3.30316-2.93289,3.94561-1.9596,1.29462,1.96137,4.64966,1.80448,4.57636,4.00952-.06622,1.9899-2.37531,1.98484-4.08008,4.61585-2.88769,4.4566-.6167,11.19134,1.11273,16.32022.46619,1.38245.923,2.49231,1.23639,3.21457"/><path d="M28.67918,31.10254a.50757.50757,0,1,1,.40406-.5933A.5076.5076,0,0,1,28.67918,31.10254Z"/><path class="cls-45" d="M39.06722,53.60606H35.66305c-.03143.01808-.06414.03559-.09716.053V70.57124H39.1703V53.66836Q39.11723,53.63779,39.06722,53.60606Z"/><path class="cls-45" d="M35.04624,68.76209H39.69a.73652.73652,0,0,1,.73652.73652v1.26205a0,0,0,0,1,0,0H34.30972a0,0,0,0,1,0,0V69.4986A.73652.73652,0,0,1,35.04624,68.76209Z"/><path class="cls-46" d="M44.68584,56.2189c.87915,1.3718,1.86322,3.41135,1.23767,5.34131-.615,1.89728-2.30384,2.2026-2.47528,3.90826-.18793,1.86978,1.61554,3.75015,3.25689,4.55963.3786.18674,1.36475.62033,4.9505.456.29071-.01334.4361-.01993.57294-.02857a27.27324,27.27324,0,0,0,8.39191-1.8265,19.81963,19.81963,0,0,0,8.03424-6.91144"/><path class="cls-47" d="M47.61706,56.34918a8.6495,8.6495,0,0,1,.78165,5.8624c-.48838,1.82772-1.47813,2.40024-1.30275,3.778.30115,2.36566,3.603,3.69349,4.29909,3.9734a10.12245,10.12245,0,0,0,6.44864.26056"/><path class="cls-48" d="M43.833,56.00305H45.5155a0,0,0,0,1,0,0v.8161a0,0,0,0,1,0,0H43.833a.40187.40187,0,0,1-.40187-.40187v-.01237A.40187.40187,0,0,1,43.833,56.00305Z"/><path class="cls-48" d="M47.34291,56.00305h.7743a0,0,0,0,1,0,0v.8161a0,0,0,0,1,0,0h-.7743a.40187.40187,0,0,1-.40187-.40187v-.01237A.40187.40187,0,0,1,47.34291,56.00305Z"/><path class="cls-45" d="M53.66037,68.76209h4.64371a.73652.73652,0,0,1,.73652.73652v1.26205a0,0,0,0,1,0,0H52.92386a0,0,0,0,1,0,0V69.4986A.73652.73652,0,0,1,53.66037,68.76209Z"/><path class="cls-49" d="M15.34758,42.51382a8.33379,8.33379,0,0,0-.3216-2.34273,7.963,7.963,0,0,0-.82433-1.92858c-1.22529-1.904-7.8435-2.56212-11.57105.94469-4.14736,3.9018-2.80382,11.1604,0,14.74673a7.21869,7.21869,0,0,0,4.64489,3.067,6.70688,6.70688,0,0,0,3.52959-.69572c.90228-.385,3.41128-1.45563,3.81169-3.44151.2423-1.20171-.48177-1.77507.04256-2.79086.51267-.99329,1.49723-1.0112,1.56246-1.72965.06978-.7683-1.04226-.9002-1.44294-2.02014C14.36921,45.17814,15.3262,44.74224,15.34758,42.51382Z"/><path class="cls-25" d="M14.20163,38.2425a7.169,7.169,0,0,1,1.01007,5.19466c-.257,1.0584-.81815,1.88289-.43288,2.8859.41525,1.081,1.45858,1.32814,1.44294,2.02014-.01385.61464-.98292.58645-1.44294,1.44294-.42492.79118.06111,1.342,0,2.30874-.14325,2.2662-3.1014,3.78115-3.6074,4.04027a8.1131,8.1131,0,0,1-3.896.86579"/><path class="cls-50" d="M12.90222,45.2448c-.03148-1.23054-1.55962-2.37979-3.03611-2.38373-1.76149-.00471-3.34861,1.621-3.154,2.64213.27151,1.42464,4.16391,2.47422,5.6237,1.06577A1.91712,1.91712,0,0,0,12.90222,45.2448Z"/><path class="cls-51" d="M12.01572,44.94a1.22025,1.22025,0,0,1-1.03853,1.37385,1.27637,1.27637,0,0,1-.23665-2.53143A1.2203,1.2203,0,0,1,12.01572,44.94Z"/><ellipse class="cls-52" cx="10.97477" cy="45.15338" rx="0.52814" ry="0.57783" transform="translate(-4.15505 1.2175) rotate(-5.34058)"/><ellipse class="cls-53" cx="10.627" cy="44.83768" rx="0.21126" ry="0.23113" transform="translate(-4.12717 1.18376) rotate(-5.34058)"/><path d="M12.7914,42.299c-.75085-.01226-1.34729-.07077-1.90991-.0863a12.224,12.224,0,0,0-1.52966.027,5.77922,5.77922,0,0,0-2.98346,1.08182,2.47781,2.47781,0,0,1,.69025-2.09314,3.3102,3.3102,0,0,1,2.12072-.98063,3.81888,3.81888,0,0,1,2.17371.47037A3.25018,3.25018,0,0,1,12.7914,42.299Z"/><path class="cls-54" d="M14.27726,50.85281a2.53918,2.53918,0,0,1-2.29507-.50417"/><rect class="cls-55" x="8.48287" y="42.66148" width="4.9838" height="4.9838"/><line class="cls-56" x1="16.28176" y1="44.43426" x2="25" y2="43.2422"/><path class="cls-57" d="M62.721,41.53539V38.67211h2.07031V39.01h-1.6914v.877h1.584v.33594h-1.584v.97461h1.75781v.33789Z"/><path class="cls-57" d="M65.10189,41.53539l.75781-1.07812-.70117-.9961H65.598l.31836.48633c.06006.09229.10791.16992.14453.23242q.0857-.1289.15821-.22851l.34961-.49024h.41992l-.7168.97657.77149,1.09765h-.43164l-.42579-.64453-.11328-.17383-.54492.81836Z"/><path class="cls-57" d="M68.10384,41.22094l.05078.31055a1.29431,1.29431,0,0,1-.26562.03125.6.6,0,0,1-.29688-.06055.33984.33984,0,0,1-.14843-.15918,1.25478,1.25478,0,0,1-.043-.415V39.73461h-.25781v-.27344h.25781V38.9475l.34961-.21094v.72461h.35351v.27344h-.35351V40.9475a.61923.61923,0,0,0,.01855.19336.14645.14645,0,0,0,.06055.06836.23143.23143,0,0,0,.12012.02539A1.11888,1.11888,0,0,0,68.10384,41.22094Z"/><path class="cls-57" d="M68.44369,41.53539V39.46117h.3164v.31446a.85778.85778,0,0,1,.22364-.291.39039.39039,0,0,1,.22558-.07031.68433.68433,0,0,1,.36133.11328l-.12109.32617a.50305.50305,0,0,0-.25782-.07617.3338.3338,0,0,0-.207.06934.37627.37627,0,0,0-.13086.19238,1.36946,1.36946,0,0,0-.05859.41015v1.08594Z"/><path class="cls-57" d="M71.13314,41.27953a1.30193,1.30193,0,0,1-.376.23438,1.09,1.09,0,0,1-.38769.06836.75414.75414,0,0,1-.52539-.167.55041.55041,0,0,1-.1836-.42676.56575.56575,0,0,1,.06934-.27832.577.577,0,0,1,.18164-.20215.84827.84827,0,0,1,.25293-.11524,2.57714,2.57714,0,0,1,.3125-.05273,3.2064,3.2064,0,0,0,.627-.12109c.00147-.04834.002-.07862.002-.0918a.38841.38841,0,0,0-.09961-.30274.58726.58726,0,0,0-.40039-.11914.61892.61892,0,0,0-.36621.08692.53209.53209,0,0,0-.17481.30762L69.721,40.053a.84963.84963,0,0,1,.1543-.35644.6792.6792,0,0,1,.31054-.209,1.38513,1.38513,0,0,1,.47071-.07324,1.24962,1.24962,0,0,1,.43164.0625.56871.56871,0,0,1,.24414.15723.5529.5529,0,0,1,.10937.23925,1.98066,1.98066,0,0,1,.01758.32422v.46875a4.943,4.943,0,0,0,.02246.62012.78537.78537,0,0,0,.08887.249h-.36719A.73711.73711,0,0,1,71.13314,41.27953Zm-.0293-.78515a2.5749,2.5749,0,0,1-.57422.13281,1.34825,1.34825,0,0,0-.30664.07031.30372.30372,0,0,0-.13867.11426.31074.31074,0,0,0,.05762.40137.45769.45769,0,0,0,.31152.09375.72718.72718,0,0,0,.36133-.08887.54469.54469,0,0,0,.23242-.24316.853.853,0,0,0,.05664-.35157Z"/><path class="cls-57" d="M73.35775,40.77563l.3457.04492a.895.895,0,0,1-.29.55957.84526.84526,0,0,1-.57324.20215.89059.89059,0,0,1-.68457-.27832,1.13028,1.13028,0,0,1-.25879-.79785,1.44326,1.44326,0,0,1,.11133-.5879.77542.77542,0,0,1,.33887-.37792,1.00622,1.00622,0,0,1,.49511-.126.86166.86166,0,0,1,.55274.1709.7852.7852,0,0,1,.27539.48535l-.3418.05273a.57006.57006,0,0,0-.17285-.31445.447.447,0,0,0-.2998-.10547.54569.54569,0,0,0-.43164.19043.90282.90282,0,0,0-.166.60254.93346.93346,0,0,0,.16016.60742.52089.52089,0,0,0,.418.18945.4928.4928,0,0,0,.34571-.127A.63134.63134,0,0,0,73.35775,40.77563Z"/><path class="cls-57" d="M74.77181,41.22094l.05078.31055a1.29431,1.29431,0,0,1-.26562.03125.6.6,0,0,1-.29688-.06055.33979.33979,0,0,1-.14843-.15918,1.25478,1.25478,0,0,1-.043-.415V39.73461h-.25782v-.27344h.25782V38.9475l.34961-.21094v.72461h.35351v.27344H74.4183V40.9475a.61923.61923,0,0,0,.01855.19336.14645.14645,0,0,0,.06055.06836.23141.23141,0,0,0,.12011.02539A1.11888,1.11888,0,0,0,74.77181,41.22094Z"/><path class="cls-57" d="M74.9847,40.49828a1.06969,1.06969,0,0,1,.32031-.85351.96439.96439,0,0,1,.65235-.23047.93029.93029,0,0,1,.69922.28027,1.06562,1.06562,0,0,1,.27148.77442,1.37121,1.37121,0,0,1-.12012.62988.85117.85117,0,0,1-.3496.35644,1.01868,1.01868,0,0,1-.501.127.93294.93294,0,0,1-.7041-.2793A1.11489,1.11489,0,0,1,74.9847,40.49828Zm.36133,0a.88464.88464,0,0,0,.17383.59668.5788.5788,0,0,0,.87305-.001.90562.90562,0,0,0,.17382-.60743.8567.8567,0,0,0-.1748-.583.57958.57958,0,0,0-.87207-.001A.8801.8801,0,0,0,75.346,40.49828Z"/><path class="cls-57" d="M77.33626,41.53539V39.46117h.31641v.31446a.85778.85778,0,0,1,.22363-.291.39042.39042,0,0,1,.22559-.07031.68433.68433,0,0,1,.36133.11328l-.1211.32617a.503.503,0,0,0-.25781-.07617.3338.3338,0,0,0-.207.06934.37627.37627,0,0,0-.13086.19238,1.36946,1.36946,0,0,0-.05859.41015v1.08594Z"/><path class="cls-57" d="M86.85677,30.72631V27.863h2.07032v.33789H87.23568v.877h1.584v.33594h-1.584v.97461h1.75781v.33789Z"/><path class="cls-57" d="M89.472,30.72631V28.65209h.3164V28.947a.74547.74547,0,0,1,.66016-.34179.86664.86664,0,0,1,.34473.06738.54344.54344,0,0,1,.23535.17676.67847.67847,0,0,1,.10937.25976,1.99506,1.99506,0,0,1,.01953.3418v1.27539H90.806V29.46459a.94726.94726,0,0,0-.041-.32129.33854.33854,0,0,0-.14551-.16992.46178.46178,0,0,0-.24512-.06348.56881.56881,0,0,0-.38769.14258.703.703,0,0,0-.16309.541v1.13281Z"/><path class="cls-57" d="M91.63216,30.89819l.3418.05078a.32605.32605,0,0,0,.11914.23047.587.587,0,0,0,.35742.09765.62887.62887,0,0,0,.377-.09765.48091.48091,0,0,0,.17968-.27344,2.24688,2.24688,0,0,0,.02539-.45117.72305.72305,0,0,1-.57421.27148.78328.78328,0,0,1-.66211-.30859,1.18839,1.18839,0,0,1-.23438-.74024,1.37616,1.37616,0,0,1,.10742-.54785.85941.85941,0,0,1,.31153-.38769.84026.84026,0,0,1,.47949-.13672.744.744,0,0,1,.60547.29687v-.25H93.39v1.793a1.69806,1.69806,0,0,1-.09864.68652.72226.72226,0,0,1-.3125.31934,1.08262,1.08262,0,0,1-.52636.11719.99224.99224,0,0,1-.59961-.167A.56408.56408,0,0,1,91.63216,30.89819Zm.291-1.2461a.90105.90105,0,0,0,.16211.5957.53476.53476,0,0,0,.8125.001.87089.87089,0,0,0,.16406-.585.84971.84971,0,0,0-.16894-.57422.52293.52293,0,0,0-.40723-.19336.50749.50749,0,0,0-.39844.19043A.8457.8457,0,0,0,91.92318,29.65209Z"/><path class="cls-57" d="M93.92318,28.26733V27.863h.35156v.4043Zm0,2.459V28.65209h.35156v2.07422Z"/><path class="cls-57" d="M94.8099,30.72631V28.65209h.3164V28.947a.74547.74547,0,0,1,.66016-.34179.86664.86664,0,0,1,.34473.06738.54344.54344,0,0,1,.23535.17676.67847.67847,0,0,1,.10937.25976,1.99506,1.99506,0,0,1,.01953.3418v1.27539h-.35156V29.46459a.94726.94726,0,0,0-.041-.32129.33854.33854,0,0,0-.14551-.16992.46178.46178,0,0,0-.24512-.06348.56881.56881,0,0,0-.38769.14258.703.703,0,0,0-.16309.541v1.13281Z"/><path class="cls-57" d="M98.45443,30.05834l.36328.04492a.88571.88571,0,0,1-.31836.49414,1.0785,1.0785,0,0,1-1.31543-.10449,1.09515,1.09515,0,0,1-.2666-.78613,1.14612,1.14612,0,0,1,.26953-.8125.91155.91155,0,0,1,.69922-.28906.88619.88619,0,0,1,.67969.2832,1.12577,1.12577,0,0,1,.26367.79687c0,.021-.00049.05225-.002.09375H97.2806a.79842.79842,0,0,0,.19336.52344.575.575,0,0,0,.43359.18164.53725.53725,0,0,0,.33008-.10156A.67269.67269,0,0,0,98.45443,30.05834ZM97.30013,29.49h1.15821a.7049.7049,0,0,0-.13282-.39258.53927.53927,0,0,0-.43554-.20312.5586.5586,0,0,0-.40723.16211A.64171.64171,0,0,0,97.30013,29.49Z"/><path class="cls-57" d="M44.02474,25.85619l.35742-.03125a.78993.78993,0,0,0,.11817.35254.645.645,0,0,0,.28808.22266,1.09214,1.09214,0,0,0,.43946.085,1.05382,1.05382,0,0,0,.38281-.06445.53213.53213,0,0,0,.24707-.17676.40891.40891,0,0,0,.081-.24512.37137.37137,0,0,0-.07812-.23535.58063.58063,0,0,0-.25781-.16895,5.0131,5.0131,0,0,0-.50977-.13964,2.582,2.582,0,0,1-.55273-.17872.77638.77638,0,0,1-.30567-.2666.65476.65476,0,0,1-.10058-.35644.72736.72736,0,0,1,.123-.40528.76114.76114,0,0,1,.35938-.28613,1.36643,1.36643,0,0,1,.52539-.09765,1.4349,1.4349,0,0,1,.56152.10253.81076.81076,0,0,1,.374.30176.86379.86379,0,0,1,.14062.45117l-.36328.02735a.58489.58489,0,0,0-.19824-.41016.77265.77265,0,0,0-.499-.13867.80141.80141,0,0,0-.501.126.37713.37713,0,0,0-.15723.30371.32535.32535,0,0,0,.11133.2539,1.509,1.509,0,0,0,.57129.20411,3.77945,3.77945,0,0,1,.63379.18261.87011.87011,0,0,1,.36914.292.70941.70941,0,0,1,.11914.40723.77758.77758,0,0,1-.13086.43067.86056.86056,0,0,1-.376.31445,1.3123,1.3123,0,0,1-.55176.1123,1.64445,1.64445,0,0,1-.65136-.11328.91131.91131,0,0,1-.41211-.34082A.96816.96816,0,0,1,44.02474,25.85619Z"/><path class="cls-57" d="M47.54427,26.46166l.05078.31055a1.29431,1.29431,0,0,1-.26562.03125.6.6,0,0,1-.29688-.06055.33979.33979,0,0,1-.14843-.15918,1.25478,1.25478,0,0,1-.043-.415V24.97533h-.25781V24.7019h.25781v-.51368l.34961-.21093v.72461h.35351v.27343h-.35351v1.21289a.61918.61918,0,0,0,.01855.19336.14645.14645,0,0,0,.06055.06836.23143.23143,0,0,0,.12012.02539A1.11888,1.11888,0,0,0,47.54427,26.46166Z"/><path class="cls-57" d="M47.89,24.31713v-.4043h.35156v.4043Zm0,2.459V24.7019h.35156v2.07421Z"/><path class="cls-57" d="M48.77669,26.77611V24.7019h.31446v.291a.74084.74084,0,0,1,.25976-.24512.72734.72734,0,0,1,.36914-.09277.68025.68025,0,0,1,.37793.0957.51385.51385,0,0,1,.208.26758.74448.74448,0,0,1,.64063-.36328.63256.63256,0,0,1,.47461.1709.72965.72965,0,0,1,.166.52637v1.42382h-.34961V25.46947a.95791.95791,0,0,0-.03418-.30371.29288.29288,0,0,0-.124-.14941.38931.38931,0,0,0-.21094-.05664.48976.48976,0,0,0-.36328.14551.64209.64209,0,0,0-.14453.46582v1.20507h-.35156V25.42846a.59412.59412,0,0,0-.08594-.35156.325.325,0,0,0-.28125-.11719.50915.50915,0,0,0-.27442.07812.44369.44369,0,0,0-.18261.22852,1.28915,1.28915,0,0,0-.05664.43359v1.07617Z"/><path class="cls-57" d="M53.4681,26.77611v-.30468a.7594.7594,0,0,1-.6582.35156.83778.83778,0,0,1-.34278-.07031.566.566,0,0,1-.23632-.17676.66512.66512,0,0,1-.1084-.26074,1.79758,1.79758,0,0,1-.02149-.32813V24.7019h.35157v1.15039a2.06712,2.06712,0,0,0,.02148.37109.36561.36561,0,0,0,.14063.21777.436.436,0,0,0,.26562.07911.57664.57664,0,0,0,.29688-.08106.45224.45224,0,0,0,.19628-.2207,1.10386,1.10386,0,0,0,.05762-.40528V24.7019h.35156v2.07421Z"/><path class="cls-57" d="M54.32552,26.77611V23.91283h.35157v2.86328Z"/><path class="cls-57" d="M56.58138,26.77611v-.30468a.7594.7594,0,0,1-.6582.35156.83769.83769,0,0,1-.34277-.07031.566.566,0,0,1-.23633-.17676.66512.66512,0,0,1-.1084-.26074,1.79758,1.79758,0,0,1-.02149-.32813V24.7019h.35157v1.15039a2.06712,2.06712,0,0,0,.02148.37109.36561.36561,0,0,0,.14063.21777.436.436,0,0,0,.26562.07911.57664.57664,0,0,0,.29688-.08106.45231.45231,0,0,0,.19629-.2207,1.10411,1.10411,0,0,0,.05761-.40528V24.7019h.35157v2.07421Z"/><path class="cls-57" d="M57.306,26.157l.34766-.05468a.48559.48559,0,0,0,.16308.32031.56873.56873,0,0,0,.374.11133.54822.54822,0,0,0,.35937-.09864.2954.2954,0,0,0,.11719-.23144.21349.21349,0,0,0-.10352-.1875,1.5356,1.5356,0,0,0-.35937-.11914,3.27851,3.27851,0,0,1-.53613-.169.51743.51743,0,0,1-.22657-.19726.524.524,0,0,1-.07714-.27832.53237.53237,0,0,1,.06347-.25684.57562.57562,0,0,1,.17285-.19629.71938.71938,0,0,1,.22364-.10254,1.06922,1.06922,0,0,1,.30371-.042,1.20129,1.20129,0,0,1,.42871.07031.5832.5832,0,0,1,.27246.19043.74132.74132,0,0,1,.12109.32129l-.34375.04688a.3766.3766,0,0,0-.13574-.25.4952.4952,0,0,0-.31738-.08985.57531.57531,0,0,0-.34571.08008.23312.23312,0,0,0-.10351.1875.19378.19378,0,0,0,.043.12305.31473.31473,0,0,0,.13476.09375q.05274.01977.31055.08984a4.29365,4.29365,0,0,1,.52051.16309.53221.53221,0,0,1,.23144.18457.514.514,0,0,1,.084.30078.5902.5902,0,0,1-.10254.331.66271.66271,0,0,1-.2959.24024,1.07763,1.07763,0,0,1-.4375.085.97528.97528,0,0,1-.61621-.168A.781.781,0,0,1,57.306,26.157Z"/><path class="cls-58" d="M59.44271,10.00024V7.137h.37891v2.86329Z"/><path class="cls-58" d="M60.44466,10.00024V7.926h.31446v.291a.74072.74072,0,0,1,.25976-.24511.72724.72724,0,0,1,.36914-.09278.68017.68017,0,0,1,.37793.09571.51378.51378,0,0,1,.208.26757.7445.7445,0,0,1,.64063-.36328.63254.63254,0,0,1,.4746.1709.72965.72965,0,0,1,.166.52637v1.42383H62.9056V8.6936a.95794.95794,0,0,0-.03418-.30372.29288.29288,0,0,0-.124-.14941.38931.38931,0,0,0-.21094-.05664.48975.48975,0,0,0-.36328.14551.64211.64211,0,0,0-.14453.46582v1.20508h-.35156V8.65258a.59412.59412,0,0,0-.08594-.35156.325.325,0,0,0-.28125-.11719.50915.50915,0,0,0-.27442.07812.44364.44364,0,0,0-.18261.22852,1.28915,1.28915,0,0,0-.05664.43359v1.07618Z"/><path class="cls-58" d="M63.77669,10.79516V7.926H64.097v.26953a.78952.78952,0,0,1,.25586-.23731.70392.70392,0,0,1,.3457-.0791.81763.81763,0,0,1,.46875.13672.84.84,0,0,1,.30664.38574,1.412,1.412,0,0,1,.10352.5459,1.386,1.386,0,0,1-.11426.57324.86854.86854,0,0,1-.79.52637.6639.6639,0,0,1-.31543-.07422.71392.71392,0,0,1-.22949-.1875v1.00977Zm.31836-1.82031a.90256.90256,0,0,0,.16211.59179.49716.49716,0,0,0,.39258.19141.50776.50776,0,0,0,.40137-.19824.94086.94086,0,0,0,.167-.61426A.91543.91543,0,0,0,65.055,8.3518a.49188.49188,0,0,0-.38964-.19727.50555.50555,0,0,0-.39746.21A.93938.93938,0,0,0,64.09505,8.97485Z"/><path class="cls-58" d="M65.87044,8.96313a1.06967,1.06967,0,0,1,.32032-.85352.96434.96434,0,0,1,.65234-.23047.93023.93023,0,0,1,.69922.28028,1.0656,1.0656,0,0,1,.27148.77441,1.37136,1.37136,0,0,1-.12011.62988.85127.85127,0,0,1-.34961.35645,1.01875,1.01875,0,0,1-.501.127.93294.93294,0,0,1-.7041-.2793A1.11488,1.11488,0,0,1,65.87044,8.96313Zm.36133,0a.88467.88467,0,0,0,.17383.59668.57879.57879,0,0,0,.873-.001.90559.90559,0,0,0,.17383-.60742.85672.85672,0,0,0-.17481-.583.57959.57959,0,0,0-.87207-.001A.88011.88011,0,0,0,66.23177,8.96313Z"/><path class="cls-58" d="M68.222,10.00024V7.926h.3164v.31445a.85788.85788,0,0,1,.22364-.291.39039.39039,0,0,1,.22558-.07031.68433.68433,0,0,1,.36133.11328l-.12109.32618a.503.503,0,0,0-.25782-.07618.3338.3338,0,0,0-.207.06934.37631.37631,0,0,0-.13086.19238,1.36948,1.36948,0,0,0-.05859.41016v1.08594Z"/><path class="cls-58" d="M70.32552,9.68578l.05078.31055a1.29361,1.29361,0,0,1-.26562.03125A.6.6,0,0,1,69.8138,9.967a.33974.33974,0,0,1-.14843-.15918,1.25474,1.25474,0,0,1-.043-.415V8.19945h-.25781V7.926h.25781V7.41235l.34961-.21094V7.926h.35351v.27343H69.972v1.2129a.61915.61915,0,0,0,.01855.19335.14645.14645,0,0,0,.06055.06836.23143.23143,0,0,0,.12012.02539A1.11888,1.11888,0,0,0,70.32552,9.68578Z"/><path class="cls-58" d="M72.08919,9.33227l.36329.04492a.88583.88583,0,0,1-.31836.49414,1.07854,1.07854,0,0,1-1.31543-.10449,1.09512,1.09512,0,0,1-.2666-.78614,1.14614,1.14614,0,0,1,.26953-.8125.91152.91152,0,0,1,.69922-.28906.88618.88618,0,0,1,.67968.28321,1.12577,1.12577,0,0,1,.26367.79687c0,.021-.00048.05225-.002.09375H70.91537a.79839.79839,0,0,0,.19336.52344.575.575,0,0,0,.43359.18164.53725.53725,0,0,0,.33008-.10156A.67277.67277,0,0,0,72.08919,9.33227ZM70.9349,8.76391h1.1582a.70485.70485,0,0,0-.13281-.39258.53931.53931,0,0,0-.43555-.20313.55864.55864,0,0,0-.40723.16211A.64172.64172,0,0,0,70.9349,8.76391Z"/><path class="cls-58" d="M72.89,10.00024V7.926h.3164v.31445a.858.858,0,0,1,.22363-.291.39042.39042,0,0,1,.22559-.07031.68433.68433,0,0,1,.36133.11328l-.12109.32618a.503.503,0,0,0-.25782-.07618.3338.3338,0,0,0-.207.06934.37631.37631,0,0,0-.13086.19238,1.36948,1.36948,0,0,0-.05859.41016v1.08594Z"/><rect class="cls-59" x="56.97601" y="5.43592" width="19.39994" height="6.608"/><line class="cls-59" x1="8.48287" y1="31.80877" x2="8.48287" y2="30.30877"/><line class="cls-60" x1="8.48287" y1="27.62179" x2="8.48287" y2="12.8435"/><polyline class="cls-59" points="8.483 11.5 8.483 10 9.983 10"/><line class="cls-61" x1="12.83858" y1="9.99999" x2="51.39034" y2="9.99999"/><line class="cls-59" x1="52.8182" y1="9.99999" x2="54.3182" y2="9.99999"/><polygon class="cls-58" points="53.724 10.872 56.976 10 53.724 9.128 53.724 10.872"/><line class="cls-59" x1="76.37594" y1="10.00021" x2="77.87594" y2="10.00017"/><line class="cls-62" x1="80.47811" y1="10.00014" x2="89.58559" y2="10.00002"/><polyline class="cls-59" points="90.887 10 92.387 10 92.387 11.5"/><line class="cls-63" x1="92.38668" y1="14.72292" x2="92.38668" y2="19.55733"/><line class="cls-59" x1="92.38668" y1="21.16882" x2="92.38668" y2="22.66882"/><polygon class="cls-58" points="91.515 22.074 92.387 25.327 93.258 22.074 91.515 22.074"/><line class="cls-57" x1="47.58925" y1="28.44653" x2="44.48519" y2="36.2503"/><line class="cls-64" x1="47.58926" y1="28.44653" x2="44.8218" y2="35.40398"/><path class="cls-57" d="M43.94869,35.00509a.95873.95873,0,1,0,1.24518-.5365A.95883.95883,0,0,0,43.94869,35.00509Z"/><line class="cls-57" x1="69.96336" y1="43.14118" x2="70.31729" y2="51.53217"/><line class="cls-64" x1="69.96334" y1="43.14117" x2="70.27889" y2="50.62215"/><path class="cls-57" d="M69.319,50.61468a.95874.95874,0,1,0,.91748-.99829A.95884.95884,0,0,0,69.319,50.61468Z"/><line class="cls-57" x1="94.55858" y1="32.56893" x2="99.36804" y2="39.45393"/><line class="cls-64" x1="94.55855" y1="32.56893" x2="98.84646" y2="38.70724"/><path class="cls-57" d="M98.033,39.217A.95872.95872,0,1,0,98.27,37.882.95885.95885,0,0,0,98.033,39.217Z"/><path class="cls-64" d="M83.08034,30.18838a16.83808,16.83808,0,0,1-8.05316,3.92331,17.27281,17.27281,0,0,1-11.61566-2.2359"/><polygon class="cls-57" points="64.921 31.253 60.16 29.569 63.441 33.409 64.921 31.253"/></g></g></svg>