<svg xmlns="http://www.w3.org/2000/svg" viewBox="0 0 222.66863 60.2906"><defs><style>.cls-1,.cls-2,.cls-3,.cls-4,.cls-5{fill:none;stroke:#000;stroke-miterlimit:10;}.cls-2{stroke-dasharray:4.53595 4.53595;}.cls-3{stroke-dasharray:4.5825 4.5825;}.cls-4{stroke-dasharray:5.0613 5.0613;}.cls-5{stroke-dasharray:4.25446 4.25446;}</style></defs><title>-1Asset 21</title><g id="Layer_2" data-name="Layer 2"><g id="Layer_1-2" data-name="Layer 1"><path d="M9.62847,9.03339h4.8623v1.29249H11.07964v1.72656h3.14648v1.29248H11.07964v1.811h3.46387v1.29248h-4.915Z"/><path d="M15.36968,11.152h1.85351l.15918.69922h.043a2.09357,2.09357,0,0,1,.69824-.59327,2.20906,2.20906,0,0,1,1.0918-.25439,2.50858,2.50858,0,0,1,.73633.106,1.409,1.409,0,0,1,.58789.34961,1.69168,1.69168,0,0,1,.38574.66211A3.21088,3.21088,0,0,1,21.0689,13.154v3.29443h-1.377v-3.0083A1.26476,1.26476,0,0,0,19.4,12.508a1.00462,1.00462,0,0,0-.73535-.28613,1.21867,1.21867,0,0,0-.71582.22754,1.14718,1.14718,0,0,0-.43945.56689v3.43213h-1.377V12.31709h-.76269Z"/><path d="M27.21245,16.44843a2.34744,2.34744,0,0,1-.19629.99561,1.94969,1.94969,0,0,1-.54.70459,2.22591,2.22591,0,0,1-.81543.41308,3.81119,3.81119,0,0,1-1.0332.13233,4.18743,4.18743,0,0,1-.71484-.05811,4.11917,4.11917,0,0,1-.61426-.1538,3.38205,3.38205,0,0,1-.49219-.20655,1.98188,1.98188,0,0,1-.33984-.21679l.53027-.97461a3.81459,3.81459,0,0,0,.60938.32275,2.25589,2.25589,0,0,0,.89453.15381,1.49443,1.49443,0,0,0,1.0166-.30713,1.10782,1.10782,0,0,0,.34961-.8794v-.33886h-.042a1.10831,1.10831,0,0,1-.56153.376,2.75434,2.75434,0,0,1-.8584.12207,2.67044,2.67044,0,0,1-.93652-.15918,2.01849,2.01849,0,0,1-.74707-.48193,2.1861,2.1861,0,0,1-.49316-.8208,3.527,3.527,0,0,1-.17481-1.16553,3.45578,3.45578,0,0,1,.207-1.23925,2.47372,2.47372,0,0,1,.583-.90577,2.4329,2.4329,0,0,1,.90039-.55078,3.48854,3.48854,0,0,1,1.16992-.18506c.22559,0,.45215.00879.67774.02637q.33984.02637.6416.06885t.55566.10058a3.489,3.489,0,0,1,.42383.12159Zm-2.542-1.01709a1.46705,1.46705,0,0,0,.72559-.17968.92361.92361,0,0,0,.43945-.54053v-2.3833a1.69589,1.69589,0,0,0-.41895-.10059,3.7417,3.7417,0,0,0-.51367-.03711,1.60056,1.60056,0,0,0-.55566.09522,1.18757,1.18757,0,0,0-.45606.30176,1.46094,1.46094,0,0,0-.30664.519,2.23355,2.23355,0,0,0-.11133.74707,2.18209,2.18209,0,0,0,.09571.67773,1.44826,1.44826,0,0,0,.26465.498,1.12069,1.12069,0,0,0,.38086.30176A1.04536,1.04536,0,0,0,24.67046,15.43134Z"/><path d="M28.57964,15.28339H30.4439v-2.9663H28.57964V11.152h3.24121v4.13134h1.96v1.165H28.57964ZM30.19,9.71113a.74894.74894,0,0,1,.24317-.561.94109.94109,0,0,1,.67773-.23339,1.03688,1.03688,0,0,1,.71.23339.72089.72089,0,0,1,.26465.561.68546.68546,0,0,1-.26465.55615,1.08441,1.08441,0,0,1-.71.21729.982.982,0,0,1-.67773-.21729A.711.711,0,0,1,30.19,9.71113Z"/><path d="M34.43706,11.152h1.85352l.15918.69922h.043A2.09347,2.09347,0,0,1,37.191,11.258a2.209,2.209,0,0,1,1.09179-.25439,2.50853,2.50853,0,0,1,.73633.106,1.409,1.409,0,0,1,.58789.34961,1.69182,1.69182,0,0,1,.38575.66211,3.21118,3.21118,0,0,1,.14355,1.03271v3.29443h-1.377v-3.0083a1.26476,1.26476,0,0,0-.292-.93213,1.0046,1.0046,0,0,0-.73535-.28613,1.21867,1.21867,0,0,0-.71582.22754,1.14718,1.14718,0,0,0-.43945.56689v3.43213h-1.377V12.31709h-.7627Z"/><path d="M46.32183,15.88691a1.86363,1.86363,0,0,1-.3545.249,3.4301,3.4301,0,0,1-.50878.22754,3.91883,3.91883,0,0,1-.64063.16992,4.18145,4.18145,0,0,1-.74121.06348,3.58878,3.58878,0,0,1-1.21289-.19092,2.37393,2.37393,0,0,1-1.47266-1.43506A3.26522,3.26522,0,0,1,41.19487,13.8a3.11071,3.11071,0,0,1,.22266-1.22315,2.44654,2.44654,0,0,1,.60938-.874,2.54963,2.54963,0,0,1,.90527-.52442,3.52623,3.52623,0,0,1,1.95508-.06884,2.27371,2.27371,0,0,1,.78906.36572,1.96994,1.96994,0,0,1,.58789.69385,2.36627,2.36627,0,0,1,.22754,1.10156,4.991,4.991,0,0,1-.10645.98486H42.57183a1.224,1.224,0,0,0,.14355.57227,1.13452,1.13452,0,0,0,.34961.38135,1.51366,1.51366,0,0,0,.498.21728,2.50306,2.50306,0,0,0,.59863.06885,3.09061,3.09061,0,0,0,1.043-.14844,2.21194,2.21194,0,0,0,.66211-.36035Zm-2.28809-3.78174a1.7405,1.7405,0,0,0-.51855.07569,1.4418,1.4418,0,0,0-.43946.22119,1.21082,1.21082,0,0,0-.32324.36181,1.107,1.107,0,0,0-.14844.48535h2.60547a1.04657,1.04657,0,0,0-1.17578-1.144Z"/><rect class="cls-1" x="0.5" y="0.51435" width="55.21405" height="24.49502"/><line class="cls-1" x1="111.12139" y1="12.77302" x2="108.62139" y2="12.77186"/><line class="cls-2" x1="104.08538" y1="12.76984" x2="60.99395" y2="12.75031"/><line class="cls-1" x1="58.726" y1="12.74928" x2="56.226" y2="12.74818"/><polygon points="109.537 10.448 118.209 12.776 109.535 15.097 109.537 10.448"/><line class="cls-1" x1="39.10357" y1="31.87806" x2="39.10357" y2="34.37806"/><line class="cls-3" x1="39.10357" y1="38.96058" x2="39.10357" y2="54.99934"/><polyline class="cls-1" points="39.104 57.291 39.104 59.791 41.604 59.791"/><line class="cls-4" x1="46.66484" y1="59.7906" x2="165.6054" y2="59.7906"/><polyline class="cls-1" points="168.136 59.791 170.636 59.791 170.636 57.291"/><line class="cls-5" x1="170.63604" y1="53.03614" x2="170.63604" y2="29.63661"/><line class="cls-1" x1="170.63604" y1="27.50935" x2="170.63604" y2="25.00935"/><polygon points="36.779 33.463 39.104 24.791 41.428 33.463 36.779 33.463"/><rect class="cls-1" x="119.10356" y="0.5" width="103.06506" height="24.49502"/><path d="M129.20562,16.24578v-.74944H130.537V11.40378h-1.33142v-.74943H130.537v-.31307a1.89965,1.89965,0,0,1,.54786-1.52071,2.33458,2.33458,0,0,1,1.56531-.47005,4.34393,4.34393,0,0,1,.6598.045,2.85614,2.85614,0,0,1,.62612.17882l-.20021.72669a2.28345,2.28345,0,0,0-.557-.162A3.42353,3.42353,0,0,0,132.68934,9.1a1.17394,1.17394,0,0,0-1.002.36357,2.04718,2.04718,0,0,0-.26756,1.19082H133.735v.74943H131.4198v4.09256H133.735v.74944Z"/><path d="M140.84716,15.54139a2.77824,2.77824,0,0,1-.47506.33536,3.51425,3.51425,0,0,1-.59791.26847,4.39268,4.39268,0,0,1-.67709.17337,4.12376,4.12376,0,0,1-.70985.06142,3.16143,3.16143,0,0,1-1.18581-.207,2.28874,2.28874,0,0,1-.86092-.59246,2.582,2.582,0,0,1-.52511-.9228,3.80764,3.80764,0,0,1-.17928-1.20766,3.7225,3.7225,0,0,1,.19566-1.2527,2.4232,2.4232,0,0,1,.56515-.91689,2.46279,2.46279,0,0,1,.8946-.5647,3.35124,3.35124,0,0,1,1.174-.19566,3.57276,3.57276,0,0,1,.92827.12286,1.839,1.839,0,0,1,.81086.46413,2.21928,2.21928,0,0,1,.5424.93964,4.376,4.376,0,0,1,.13378,1.54848H136.5644a1.94671,1.94671,0,0,0,.54057,1.50433,2.053,2.053,0,0,0,1.44519.49781,2.47388,2.47388,0,0,0,.59609-.07281,5.03278,5.03278,0,0,0,.56333-.17336,2.95094,2.95094,0,0,0,.47414-.22388,2.03812,2.03812,0,0,0,.31761-.22342Zm-2.35434-4.28322a3.01111,3.01111,0,0,0-.6962.07827,1.5779,1.5779,0,0,0-.57971.263,1.45309,1.45309,0,0,0-.41317.48051,1.94838,1.94838,0,0,0-.20567.7326h3.46643a1.71752,1.71752,0,0,0-.47414-1.14622A1.50328,1.50328,0,0,0,138.49282,11.25817Z"/><path d="M141.98747,10.65435H143.318V9.54725l.88367-.24617v1.35327h2.98593v.74943h-2.98593V14.043a1.63415,1.63415,0,0,0,.39588,1.20766,1.54134,1.54134,0,0,0,1.13121.39132,1.89988,1.89988,0,0,0,.87457-.1902,4.63131,4.63131,0,0,0,.67436-.41362l.29031.65979a3.15475,3.15475,0,0,1-.93372.50327,3.35,3.35,0,0,1-1.113.18975,2.72983,2.72983,0,0,1-.84454-.12832,1.928,1.928,0,0,1-.69893-.39725,1.90164,1.90164,0,0,1-.48052-.68755,2.5411,2.5411,0,0,1-.17928-1.00107v-2.773h-1.33051Z"/><path d="M153.25952,11.51527a4.3969,4.3969,0,0,0-.55332-.15062,2.88576,2.88576,0,0,0-.587-.06188,2.27627,2.27627,0,0,0-1.63265.516,2.1847,2.1847,0,0,0-.53694,1.63675,2.32614,2.32614,0,0,0,.15653.88049,1.80206,1.80206,0,0,0,.44775.6557,2.001,2.001,0,0,0,.69893.415,2.65239,2.65239,0,0,0,.90006.14561,2.95949,2.95949,0,0,0,1.02291-.18156,2.58736,2.58736,0,0,0,.83362-.47824l.39132.64888a3.21791,3.21791,0,0,1-.39132.27939,3.85685,3.85685,0,0,1-.5424.27393,3.75879,3.75879,0,0,1-.68255.207,3.98087,3.98087,0,0,1-.81087.07826,3.65114,3.65114,0,0,1-1.28046-.207,2.43073,2.43073,0,0,1-.92189-.59246,2.528,2.528,0,0,1-.55969-.92826,3.62114,3.62114,0,0,1-.19021-1.2022,3.7225,3.7225,0,0,1,.19567-1.2527,2.36472,2.36472,0,0,1,1.45974-1.48159,3.35128,3.35128,0,0,1,1.174-.19566,5.13958,5.13958,0,0,1,1.34781.14561,4.97286,4.97286,0,0,1,.8773.324l-.01092.03368v1.55439h-.80541Z"/><path d="M155.10513,8.41786h1.7446v2.93h.05642a2.49194,2.49194,0,0,1,.8045-.60974,2.65466,2.65466,0,0,1,1.14122-.218,3.46284,3.46284,0,0,1,.93372.11194,1.34094,1.34094,0,0,1,.648.39133,1.77151,1.77151,0,0,1,.375.76582,5.17148,5.17148,0,0,1,.12286,1.23586v3.22072h-.88368V13.193a5.49834,5.49834,0,0,0-.05551-.83862,1.45606,1.45606,0,0,0-.21751-.59837,1.0047,1.0047,0,0,0-.43956-.36357,1.78078,1.78078,0,0,0-.71349-.12286,1.71073,1.71073,0,0,0-.59063.106,1.99882,1.99882,0,0,0-.52966.29077,1.83766,1.83766,0,0,0-.41226.44729,1.68552,1.68552,0,0,0-.23934.57607v3.55608h-.86092V9.16685h-.88368Z"/><path d="M166.60016,18.6165a5.57585,5.57585,0,0,1-1.40332-.5647,4.02528,4.02528,0,0,1-1.14031-.97832,4.62106,4.62106,0,0,1-.77174-1.47612,6.68354,6.68354,0,0,1-.28485-2.069,6.68727,6.68727,0,0,1,.29031-2.07449,4.82849,4.82849,0,0,1,.78266-1.5098,3.99443,3.99443,0,0,1,1.14668-.99515,4.78859,4.78859,0,0,1,1.38057-.531l.2803.70439a5.65918,5.65918,0,0,0-1.21221.49781,3.14771,3.14771,0,0,0-.9492.81633A3.68586,3.68586,0,0,0,164.102,11.7a6.60934,6.60934,0,0,0-.21933,1.82832,5.7201,5.7201,0,0,0,.26392,1.85061,3.90523,3.90523,0,0,0,.6962,1.275,3.33086,3.33086,0,0,0,.96558.794,3.97912,3.97912,0,0,0,1.07206.39678Z"/><path d="M169.67617,8.41786H174.272v.82725h-3.66756V11.806h3.38817v.82771h-3.38817v2.78434h3.724v.8277h-4.65225Z"/><path d="M176.22955,12.61144c0-.06735-.00182-.15471-.00546-.263-.00456-.10784-.01-.21978-.0173-.33536s-.01638-.22933-.02821-.34127c-.01092-.11149-.02366-.20841-.03913-.29077h-.749v-.72668h1.49887l.10011.906h.05642a1.89928,1.89928,0,0,1,.29577-.37494A2.33492,2.33492,0,0,1,177.773,10.85a2.266,2.266,0,0,1,.54786-.24026,2.22906,2.22906,0,0,1,.637-.08964,3.3703,3.3703,0,0,1,.91188.11194,1.39735,1.39735,0,0,1,.6598.39679,1.85381,1.85381,0,0,1,.39679.77173,4.76416,4.76416,0,0,1,.13378,1.23587v3.20934h-.88368V13.21117a2.61241,2.61241,0,0,0-.30032-1.39467,1.19808,1.19808,0,0,0-1.09207-.46869,1.41757,1.41757,0,0,0-.56242.11695,1.94244,1.94244,0,0,0-.496.30714,2.10649,2.10649,0,0,0-.39042.44048,1.85857,1.85857,0,0,0-.2448.53011v3.50329h-.86092Z"/><path d="M187.75915,16.52517a2.0209,2.0209,0,0,1-.20112.92281,1.81386,1.81386,0,0,1-.55423.65433,2.49992,2.49992,0,0,1-.82179.38541,3.83165,3.83165,0,0,1-1.01745.12878,4.40278,4.40278,0,0,1-1.15215-.13424,3.41921,3.41921,0,0,1-.84909-.34673l.42318-.794a1.25684,1.25684,0,0,0,.2621.17336,2.70449,2.70449,0,0,0,.37313.15654,3.127,3.127,0,0,0,.4523.11739,2.55351,2.55351,0,0,0,.47323.045,3.17958,3.17958,0,0,0,.82-.08964,1.22663,1.22663,0,0,0,.52966-.27939,1.08213,1.08213,0,0,0,.2894-.49234,2.64684,2.64684,0,0,0,.08919-.73807v-.62612h-.0446a1.73871,1.73871,0,0,1-.658.57061,2.79869,2.79869,0,0,1-2.90493-.50918,3.38465,3.38465,0,0,1-.597-2.20827,2.87047,2.87047,0,0,1,.7599-2.16413,3.13918,3.13918,0,0,1,2.25969-.73261,6.2693,6.2693,0,0,1,1.17945.09511,6.07369,6.07369,0,0,1,.88913.24071Zm-2.49449-.89459a1.52944,1.52944,0,0,0,1.0666-.3522,1.96614,1.96614,0,0,0,.54422-1.07888V11.54894a3.21953,3.21953,0,0,0-1.366-.2348,1.86132,1.86132,0,0,0-1.39968.52556,2.23319,2.23319,0,0,0-.51054,1.61036,4.02682,4.02682,0,0,0,.08827.87776,2.00666,2.00666,0,0,0,.28394.688,1.33006,1.33006,0,0,0,.51055.45276A1.70339,1.70339,0,0,0,185.26466,15.63058Z"/><path d="M189.78222,16.24578v-.74944h1.94572V11.40378h-1.94572v-.74943h2.82939v4.842h1.90113v.74944Zm1.63266-7.1795a.743.743,0,0,1,.20112-.5201.67106.67106,0,0,1,.5151-.218.73833.73833,0,0,1,.5424.218.71287.71287,0,0,1,.2175.5201.64659.64659,0,0,1-.2175.49235.77233.77233,0,0,1-.5424.20112.69958.69958,0,0,1-.5151-.20112A.67151.67151,0,0,1,191.41488,9.06628Z"/><path d="M196.35835,12.61144c0-.06735-.00182-.15471-.00546-.263-.00455-.10784-.01-.21978-.0173-.33536s-.01638-.22933-.02821-.34127c-.01092-.11149-.02366-.20841-.03913-.29077h-.749v-.72668h1.49887l.10011.906h.05642a1.89928,1.89928,0,0,1,.29577-.37494,2.33467,2.33467,0,0,1,.43138-.33536,2.26571,2.26571,0,0,1,.54785-.24026,2.22906,2.22906,0,0,1,.63705-.08964,3.3703,3.3703,0,0,1,.91188.11194,1.39735,1.39735,0,0,1,.6598.39679,1.85381,1.85381,0,0,1,.39679.77173,4.76416,4.76416,0,0,1,.13378,1.23587v3.20934h-.88368V13.21117a2.61241,2.61241,0,0,0-.30032-1.39467,1.19808,1.19808,0,0,0-1.09207-.46869,1.41757,1.41757,0,0,0-.56242.11695,1.94244,1.94244,0,0,0-.496.30714,2.10649,2.10649,0,0,0-.39042.44048,1.85857,1.85857,0,0,0-.2448.53011v3.50329h-.86092Z"/><path d="M207.94346,15.54139a2.77853,2.77853,0,0,1-.475.33536,3.5146,3.5146,0,0,1-.59791.26847,4.393,4.393,0,0,1-.67709.17337,4.12384,4.12384,0,0,1-.70985.06142,3.16143,3.16143,0,0,1-1.18581-.207,2.28859,2.28859,0,0,1-.86092-.59246,2.582,2.582,0,0,1-.52511-.9228,3.80764,3.80764,0,0,1-.17928-1.20766,3.7225,3.7225,0,0,1,.19566-1.2527,2.42307,2.42307,0,0,1,.56515-.91689,2.46283,2.46283,0,0,1,.89459-.5647,3.35134,3.35134,0,0,1,1.174-.19566,3.57263,3.57263,0,0,1,.92826.12286,1.8391,1.8391,0,0,1,.81087.46413,2.21928,2.21928,0,0,1,.5424.93964,4.376,4.376,0,0,1,.13378,1.54848H203.6607a1.94668,1.94668,0,0,0,.54058,1.50433,2.053,2.053,0,0,0,1.44518.49781,2.47375,2.47375,0,0,0,.59609-.07281,5.03149,5.03149,0,0,0,.56333-.17336,2.95066,2.95066,0,0,0,.47415-.22388,2.03861,2.03861,0,0,0,.31761-.22342Zm-2.35433-4.28322a3.011,3.011,0,0,0-.6962.07827,1.57783,1.57783,0,0,0-.57971.263,1.45309,1.45309,0,0,0-.41317.48051,1.94856,1.94856,0,0,0-.20568.7326h3.46644a1.71752,1.71752,0,0,0-.47414-1.14622A1.50328,1.50328,0,0,0,205.58913,11.25817Z"/><path d="M210.3251,17.84476a3.99048,3.99048,0,0,0,1.07206-.39678,3.32768,3.32768,0,0,0,.96467-.794,3.90542,3.90542,0,0,0,.6962-1.275,5.72012,5.72012,0,0,0,.26391-1.85061A6.647,6.647,0,0,0,213.10353,11.7a3.70329,3.70329,0,0,0-.61794-1.26362,3.14433,3.14433,0,0,0-.94828-.81633,5.69822,5.69822,0,0,0-1.21221-.49781l.27939-.70439a4.794,4.794,0,0,1,1.38148.531,3.97907,3.97907,0,0,1,1.14577.99515,4.80973,4.80973,0,0,1,.78266,1.5098,6.68592,6.68592,0,0,1,.29122,2.07449,6.68191,6.68191,0,0,1-.28576,2.069,4.60192,4.60192,0,0,1-.77083,1.47612,4.04128,4.04128,0,0,1-1.14122.97832,5.56219,5.56219,0,0,1-1.40332.5647Z"/></g></g></svg>