<svg xmlns="http://www.w3.org/2000/svg" xmlns:xlink="http://www.w3.org/1999/xlink" viewBox="0 0 126.28546 72.62613"><defs><style>.cls-1{fill:url(#radial-gradient);}.cls-12,.cls-19,.cls-2,.cls-30,.cls-39,.cls-4,.cls-40,.cls-48,.cls-6,.cls-7{fill:none;}.cls-10,.cls-11,.cls-12,.cls-19,.cls-2,.cls-21,.cls-28,.cls-30,.cls-31,.cls-32,.cls-39,.cls-4,.cls-40,.cls-43,.cls-44,.cls-47,.cls-7,.cls-8,.cls-9{stroke:#000;}.cls-10,.cls-11,.cls-12,.cls-19,.cls-2,.cls-21,.cls-28,.cls-30,.cls-31,.cls-32,.cls-39,.cls-4,.cls-40,.cls-43,.cls-44,.cls-45,.cls-46,.cls-47,.cls-48,.cls-6,.cls-7,.cls-8,.cls-9{stroke-miterlimit:10;}.cls-10,.cls-11,.cls-2,.cls-31,.cls-43,.cls-6,.cls-9{stroke-width:0.75px;}.cls-3{fill:url(#radial-gradient-2);}.cls-32,.cls-4{stroke-width:1.5px;}.cls-5{fill:#be1e2d;}.cls-45,.cls-48,.cls-6{stroke:#be1e2d;}.cls-21,.cls-32,.cls-46,.cls-8,.cls-9{fill:#fff;}.cls-44,.cls-45,.cls-48,.cls-8{stroke-width:0.5px;}.cls-10{fill:url(#linear-gradient);}.cls-11{fill:#404041;}.cls-12,.cls-21,.cls-40{stroke-width:2px;}.cls-13{fill:url(#radial-gradient-3);}.cls-14{fill:url(#radial-gradient-4);}.cls-15{fill:url(#radial-gradient-5);}.cls-16{fill:url(#radial-gradient-6);}.cls-17{fill:url(#radial-gradient-7);}.cls-18{fill:url(#radial-gradient-8);}.cls-19{stroke-width:3px;}.cls-20,.cls-28{fill:#333;}.cls-22{fill:#666;}.cls-23{fill:url(#radial-gradient-9);}.cls-24{fill:url(#radial-gradient-10);}.cls-25{fill:url(#radial-gradient-11);}.cls-26{fill:url(#radial-gradient-12);}.cls-27{fill:url(#radial-gradient-13);}.cls-28,.cls-46{stroke-width:0.25px;}.cls-29{fill:url(#radial-gradient-14);}.cls-30{stroke-width:4px;}.cls-31{fill:#e6e6e6;}.cls-33{fill:url(#radial-gradient-15);}.cls-34{fill:url(#radial-gradient-16);}.cls-35{fill:url(#radial-gradient-17);}.cls-36{fill:url(#radial-gradient-18);}.cls-37{fill:url(#radial-gradient-19);}.cls-38{fill:url(#radial-gradient-20);}.cls-39,.cls-40{stroke-linecap:round;}.cls-41{fill:#6664bd;}.cls-42{fill:#a67c52;}.cls-43{fill:url(#radial-gradient-21);}.cls-44{fill:#736357;}.cls-46{stroke:#00a551;}.cls-47{stroke-width:0.94192px;fill:url(#radial-gradient-22);}</style><radialGradient id="radial-gradient" cx="69.28824" cy="67.13182" r="5.73356" gradientTransform="matrix(1.1159, -0.73139, 0.83636, 0.47659, -64.16282, 85.81403)" gradientUnits="userSpaceOnUse"><stop offset="0.5" stop-color="#4d4d4d"/><stop offset="0.5" stop-color="#1a1a1a"/></radialGradient><radialGradient id="radial-gradient-2" cx="89.45521" cy="56.23813" r="28.49615" gradientTransform="matrix(0.53156, -0.60224, 0.3984, 0.39243, -2.56604, 86.68442)" xlink:href="#radial-gradient"/><linearGradient id="linear-gradient" x1="80.8987" y1="42.98656" x2="80.8987" y2="29.67772" gradientTransform="matrix(1, 0, 0, -1, 8.58622, 77.54053)" gradientUnits="userSpaceOnUse"><stop offset="0.27141" stop-color="#960c3c"/><stop offset="0.28158" stop-color="#404041"/><stop offset="0.49756" stop-color="#404041"/><stop offset="0.49864" stop-color="#960c3c"/><stop offset="0.77621" stop-color="#960c3c"/><stop offset="0.77761" stop-color="#3a3a3b"/></linearGradient><radialGradient id="radial-gradient-3" cx="53.01666" cy="52.60761" r="4.89213" gradientUnits="userSpaceOnUse"><stop offset="0.5" stop-color="#e6e6e6"/><stop offset="0.5" stop-color="gray"/></radialGradient><radialGradient id="radial-gradient-4" cx="49.63405" cy="45.19552" r="7.63408" xlink:href="#radial-gradient-3"/><radialGradient id="radial-gradient-5" cx="19.64842" cy="20.85645" r="2.73878" gradientUnits="userSpaceOnUse"><stop offset="0.5" stop-color="#333"/><stop offset="0.5" stop-color="#030303"/></radialGradient><radialGradient id="radial-gradient-6" cx="24.75926" cy="23.18982" r="2.67644" xlink:href="#radial-gradient-5"/><radialGradient id="radial-gradient-7" cx="26.42854" cy="28.21437" r="10.18564" xlink:href="#radial-gradient-3"/><radialGradient id="radial-gradient-8" cx="15.39428" cy="26.95812" r="15.84452" xlink:href="#radial-gradient-3"/><radialGradient id="radial-gradient-9" cx="12.89834" cy="43.15798" r="29.19027" gradientTransform="matrix(0.8434, -0.53729, 0.3331, 0.52288, -12.35609, 27.52193)" xlink:href="#radial-gradient-3"/><radialGradient id="radial-gradient-10" cx="27.20351" cy="47.41497" r="12.9611" gradientUnits="userSpaceOnUse"><stop offset="0.49576" stop-color="#f2f2f2"/><stop offset="0.5" stop-color="#b3b3b3"/></radialGradient><radialGradient id="radial-gradient-11" cx="38.17752" cy="54.47888" r="6.79041" xlink:href="#radial-gradient-10"/><radialGradient id="radial-gradient-12" cx="7.2229" cy="66.29622" r="19.38634" gradientTransform="translate(50.9565 64.42645) rotate(97.04948) scale(1 0.65122)" xlink:href="#radial-gradient-3"/><radialGradient id="radial-gradient-13" cx="16.28447" cy="51.4903" r="9.23642" xlink:href="#radial-gradient-10"/><radialGradient id="radial-gradient-14" cx="9.42511" cy="39.4978" r="7.8142" gradientTransform="matrix(1, 0, 0, 1, 0, 0)" xlink:href="#radial-gradient"/><radialGradient id="radial-gradient-15" cx="15.56351" cy="14.75077" r="10.39037" xlink:href="#radial-gradient-5"/><radialGradient id="radial-gradient-16" cx="20.34134" cy="9.41153" r="10.74141" xlink:href="#radial-gradient-5"/><radialGradient id="radial-gradient-17" cx="26.10016" cy="7.88759" r="9.39947" xlink:href="#radial-gradient-5"/><radialGradient id="radial-gradient-18" cx="22.22836" cy="17.42164" r="8.52577" xlink:href="#radial-gradient-5"/><radialGradient id="radial-gradient-19" cx="24.36907" cy="20.79459" r="3.6726" xlink:href="#radial-gradient-5"/><radialGradient id="radial-gradient-20" cx="19.42439" cy="4.0445" r="5.84146" xlink:href="#radial-gradient-5"/><radialGradient id="radial-gradient-21" cx="-341.49965" cy="28.35676" r="9.85472" gradientTransform="matrix(0.55341, 0.06913, 0.05237, -0.47327, 303.95365, 81.56896)" gradientUnits="userSpaceOnUse"><stop offset="0.5" stop-color="#fff"/><stop offset="0.5" stop-color="#f17aa9"/></radialGradient><radialGradient id="radial-gradient-22" cx="-13.66509" cy="-59.6099" r="2.06405" gradientTransform="matrix(0.87779, 0.19227, 0.12077, -0.55136, 132.32736, 19.64553)" xlink:href="#radial-gradient-21"/></defs><title>-1Asset 10</title><g id="Layer_2" data-name="Layer 2"><g id="Layer_1-2" data-name="Layer 1"><rect class="cls-1" x="68.15" y="65.5941" width="4.48389" height="4.48438"/><path d="M72.25878,65.96956v3.734h-3.734v-3.734h3.734m.75-.75h-5.234v5.234h5.234v-5.234Z"/><path class="cls-2" d="M86.7086,42.43145c-3.43872-.00962-5.10986.74671-6,1.433-2.8346,2.18545-.30444,5.63115-3,10.74732a14.69384,14.69384,0,0,1-2,2.866"/><path class="cls-3" d="M70.23887,66.29136A5.86694,5.86694,0,0,1,64.37852,60.431V52.11949a3.19667,3.19667,0,0,1,3.19287-3.19336h5.335a3.19709,3.19709,0,0,1,3.19336,3.19336V60.431A5.86735,5.86735,0,0,1,70.23887,66.29136Z"/><path d="M72.90621,49.3014a2.82151,2.82151,0,0,1,2.81833,2.81833V60.431a5.48563,5.48563,0,1,1-10.97125,0V52.11973a2.82152,2.82152,0,0,1,2.81834-2.81833h5.33458m0-.75H67.57163a3.56834,3.56834,0,0,0-3.56834,3.56833V60.431a6.23563,6.23563,0,0,0,6.23562,6.23563h0A6.23561,6.23561,0,0,0,76.47454,60.431V52.11973a3.56833,3.56833,0,0,0-3.56833-3.56833Z"/><path d="M71.93421,60.53685h1.46755a.60153.60153,0,0,1,.60153.60153v.31148a.60153.60153,0,0,1-.60153.60153H71.93421a.43091.43091,0,0,1-.43091-.43091v-.65271A.43091.43091,0,0,1,71.93421,60.53685Z"/><path class="cls-4" d="M43.393,68.27458a15.15457,15.15457,0,0,1,8.49615-1.457c4.61.65814,6.29291,3.47259,9.21124,3.14532,2.01068-.22546,4.55432-1.93634,7.12336-8.16479"/><path d="M69.58293,62.43705a1.5227,1.5227,0,1,0-1.98719.82966A1.52284,1.52284,0,0,0,69.58293,62.43705Z"/><line class="cls-5" x1="71.33478" y1="43.01525" x2="69.14306" y2="51.12267"/><line class="cls-6" x1="71.33476" y1="43.01524" x2="69.38072" y2="50.24345"/><path class="cls-5" d="M68.46775,49.94694a.95874.95874,0,1,0,1.17572-.67529A.95883.95883,0,0,0,68.46775,49.94694Z"/><path class="cls-7" d="M86.7086,43.86443c-1.81991.39913-4.08875,1.18108-5.25,2.86595-1.23138,1.78663-.32855,3.2988,0,7.16489.30815,3.626.68861,8.10291-1.75,9.31435-.51921.25792-2.41565.98854-7-1.433"/><rect class="cls-8" x="83.63064" y="42.76046" width="5.09043" height="0.60583" transform="translate(43.11248 129.23924) rotate(-90)"/><rect class="cls-9" x="87.49707" y="47.30891" width="2.53479" height="1.39538" transform="translate(41.02437 136.91469) rotate(-90.17189)"/><rect class="cls-10" x="86.56904" y="40.1475" width="5.83177" height="5.83176" transform="translate(46.42154 132.5483) rotate(-90)"/><rect class="cls-11" x="95.72889" y="38.24673" width="3.47984" height="9.63331" transform="translate(54.40543 140.53219) rotate(-90)"/><rect class="cls-11" x="90.65563" y="42.54916" width="4.65365" height="1.21318" transform="translate(49.8267 136.1382) rotate(-90)"/><path class="cls-11" d="M88.54348,48.621h.19683a3.43384,3.43384,0,0,1,3.43384,3.43384v2.6775a0,0,0,0,1,0,0H85.10964a0,0,0,0,1,0,0v-2.6775A3.43384,3.43384,0,0,1,88.54348,48.621Z"/><rect class="cls-9" x="85.64151" y="54.98575" width="5.91892" height="1.41812"/><rect class="cls-9" x="88.23889" y="45.31613" width="1.04484" height="3.27618" transform="translate(42.07359 135.85599) rotate(-90.17189)"/><path class="cls-9" d="M91.08924,56.20882H86.22087c-.045.01444-.09173.02843-.13894.04232v13.507h5.15472V56.25858Q91.16075,56.23416,91.08924,56.20882Z"/><path class="cls-9" d="M85.022,67.1708H92.2966a.73652.73652,0,0,1,.73652.73652V70.029a0,0,0,0,1,0,0H84.28546a0,0,0,0,1,0,0V67.90732A.73652.73652,0,0,1,85.022,67.1708Z"/><path class="cls-12" d="M9.97313,45.46005C7.25621,43.59421,3.85844,44.637,2.8524,46.76791a4.72885,4.72885,0,0,0,1.69934,5.477"/><path class="cls-13" d="M42.49961,60.35582l6.9917-6.50782H44.91514V52.1107h6.811a.8681.8681,0,0,1,.47851,1.59277l-8.521,7.92383Z"/><path d="M51.72615,52.48594a.493.493,0,0,1,.27128.90506l-.05147.03409-.04518.04209-8.19832,7.63061-.67267-.72275,6.01958-5.60275,1.39563-1.299H45.29v-.98734h6.43614m0-.75H44.54v2.48734h3.99838L41.96981,60.337l1.69464,1.82074,8.7473-8.1416a1.243,1.243,0,0,0-.6856-2.28022Z"/><path class="cls-14" d="M42.49961,51.77672l6.9917-6.50782H44.91514V43.5316h6.811a.8681.8681,0,0,1,.47851,1.59277l-8.521,7.92383Z"/><path d="M51.72615,43.907a.493.493,0,0,1,.27128.9051l-.05147.03408-.04518.04209-8.19832,7.63058-.67267-.72275,6.01958-5.60275,1.39563-1.299H45.29V43.907h6.43614m0-.75H44.54v2.48734h3.99838l-6.56858,6.11374,1.69464,1.82074,8.7473-8.14157a1.243,1.243,0,0,0-.6856-2.28025Z"/><ellipse class="cls-15" cx="20.1786" cy="18.68004" rx="1.5" ry="2.22011"/><ellipse class="cls-16" cx="25.18461" cy="22.94622" rx="1.5" ry="1.90015"/><path class="cls-17" d="M23.80918,37.97789V25.2689a1.15259,1.15259,0,0,1,2.30518,0v12.709Z"/><path d="M24.96155,24.49122a.77847.77847,0,0,1,.7776.77759V37.60313H24.184V25.26881a.77847.77847,0,0,1,.77759-.77759m0-.75h0A1.52757,1.52757,0,0,0,23.434,25.26881V38.35313h3.05519V25.26881a1.52758,1.52758,0,0,0-1.5276-1.52759Z"/><path class="cls-18" d="M19.026,38.98863V21.79625a1.15259,1.15259,0,0,1,2.30518,0V38.98863Z"/><path d="M20.1786,21.01878a.77847.77847,0,0,1,.77759.77759V38.61366H19.401V21.79637a.77847.77847,0,0,1,.77759-.77759m0-.75A1.52759,1.52759,0,0,0,18.651,21.79637V39.36366h3.05518V21.79637a1.52759,1.52759,0,0,0-1.52759-1.52759Z"/><path class="cls-19" d="M7.79121,51.70592c-.23853-.009-3.867-.09211-5.15874,2.53662-1.34435,2.7359.04571,7.99542,4.49,10.60779"/><path class="cls-20" d="M9.13438,58.03453a2.91617,2.91617,0,0,1-2.91309-2.91309v-.373H12.048v.373A2.91659,2.91659,0,0,1,9.13438,58.03453Z"/><path d="M11.67292,55.12376a2.53833,2.53833,0,0,1-5.07665,0h5.07665m.75-.75H5.84627v.74765a3.28833,3.28833,0,1,0,6.57666,0v-.74765Z"/><path class="cls-20" d="M15.711,68.974A2.91617,2.91617,0,0,1,12.798,66.06089V54.74839h5.82666v11.3125A2.91659,2.91659,0,0,1,15.711,68.974Z"/><path d="M18.24959,55.12376V66.0605a2.53833,2.53833,0,0,1-5.07666,0V55.12376h5.07666m.75-.75H12.42293V66.0605a3.28833,3.28833,0,0,0,6.57666,0V54.37376Z"/><path class="cls-21" d="M38.27291,42.43136a5.3734,5.3734,0,0,0-2.09253-3.348,5.296,5.296,0,0,0-3.20849-.97651"/><rect class="cls-22" x="24.48545" y="40.58043" width="20.34912" height="29.76563"/><path d="M44.45935,40.95555V69.97123h-19.599V40.95555h19.599m.75-.75h-21.099V70.72123h21.099V40.20555Z"/><path class="cls-23" d="M4.66368,54.33238v-.94629A17.54883,17.54883,0,0,1,22.193,35.85777H33.527V54.33238Z"/><path d="M33.15187,36.23228V53.95775H5.03884v-.57142a17.17347,17.17347,0,0,1,17.154-17.154h10.959m.75-.75h-11.709a17.90407,17.90407,0,0,0-17.904,17.904v1.32142h29.613V35.48228Z"/><path class="cls-24" d="M30.18565,59.3939,29.336,55.82066l-.17041-.07519a5.8732,5.8732,0,0,1-1.13574-.668l-.15137-.11231-3.49805,1.044-1.36084-2.35547,2.68116-2.53418-.01807-.1836c-.01856-.18945-.0293-.38281-.0293-.57812,0-.15625.01172-.30957.02393-.46289l.01367-.17871-2.67139-2.52344L24.38,44.83629l3.38037,1.00878.15283-.12011a5.87118,5.87118,0,0,1,1.29346-.77539l.17236-.07422.80664-3.39258h2.72119l.80713,3.39258.17236.07422a5.88582,5.88582,0,0,1,1.23487.73144l.15185.11621,3.43945-1.02636,1.36084,2.35644-2.67675,2.5293.01611.18066c.01514.17188.02686.34375.02686.52051,0,.17578-.01172.34766-.02686.51953l-.01611.18067,2.67724,2.53027L38.7125,55.94468l-3.439-1.02734-.15186.11621a5.85981,5.85981,0,0,1-1.19482.71192l-.17041.07519-.84961,3.57324Zm1.36084-11.68652A2.73047,2.73047,0,1,0,34.277,50.43785,2.73353,2.73353,0,0,0,31.54649,47.70738Z"/><path d="M32.61071,41.85789l.69471,2.92142.08687.36533.34457.14932a5.51842,5.51842,0,0,1,1.15652.68484l.30384.23261.36666-.10947,2.97223-.88736,1.06444,1.84366-2.32922,2.20047-.26381.24921.03174.36157c.01414.16113.02505.3233.02505.4881s-.011.32684-.02507.48788l-.03168.36145.26374.24918,2.32919,2.2008L38.536,55.50059l-2.97178-.88754-.36671-.10953-.30387.23267a5.51836,5.51836,0,0,1-1.11879.66647l-.34011.15051-.086.36182-.738,3.10361H30.4818l-.73772-3.10355-.086-.36188-.34015-.15051a5.51547,5.51547,0,0,1-1.06382-.62546l-.30207-.22546-.36116.10788-3.03412.90613-1.06445-1.84369,2.33231-2.20374.267-.25226-.03561-.3656c-.01741-.17871-.02754-.35958-.02754-.54287,0-.1463.01135-.28986.02252-.43326l.02785-.35733-.26053-.24616-2.326-2.19745,1.06446-1.84368,2.91.86877.3723.11115.30555-.24a5.516,5.516,0,0,1,1.21138-.72564l.34461-.14932.08685-.36539.69445-2.92136h2.12892M31.5464,53.54371a3.10548,3.10548,0,1,0-3.10552-3.1055,3.109,3.109,0,0,0,3.10552,3.1055m1.65687-12.43582h-3.3141l-.8315,3.4979a6.25719,6.25719,0,0,0-1.37647.824l-3.47777-1.0383-1.65706,2.87009L25.30322,49.866c-.01268.16269-.0248.32559-.0248.49155,0,.20782.01133.41293.03108.6156l-2.763,2.61068,1.657,2.87009,3.60194-1.07571a6.2508,6.2508,0,0,0,1.209.71026l.87476,3.68009h3.3141l.8751-3.68009a6.25691,6.25691,0,0,0,1.27124-.75683l3.53962,1.05713,1.65707-2.87006L37.78639,50.911c.016-.18265.02792-.36651.02792-.55337s-.01188-.37091-.02792-.55371l2.76-2.60743-1.657-2.87-3.54,1.05688a6.25641,6.25641,0,0,0-1.31424-.77749l-.8318-3.4979ZM31.5464,52.79371a2.35548,2.35548,0,1,1,2.35545-2.3555,2.35551,2.35551,0,0,1-2.35545,2.3555Z"/><path class="cls-25" d="M40.71153,62.81675l-.17871-.05175a4.15767,4.15767,0,0,1-.85694-.3584l-.165-.09082L37.13633,63.39l-1.102-1.42383,1.65332-2.04981-.04248-.17871c-.03125-.13183-.05713-.26562-.07568-.40234-.01465-.1084-.02051-.21582-.02686-.32422l-.01025-.17871L35.40147,57.305l.68262-1.667,2.48828.38868.13525-.13868a4.13069,4.13069,0,0,1,.83057-.66308l.16064-.09766.24414-2.47558,1.78467-.24317.896,2.32129.18066.05078a4.15059,4.15059,0,0,1,.93213.39356l.166.09472,2.335-1.05664,1.10205,1.42383L45.69,57.68l.04.17773c.02686.11914.05127.23828.06787.36035.01661.123.02491.24512.03077.36719l.00878.18164,2.13477,1.53027-.68213,1.667-2.53223-.39649-.13525.13574a4.16781,4.16781,0,0,1-.7666.61035l-.1582.09766L43.44,65.01988l-1.78466.24316Zm.98144-6.05761a2.10785,2.10785,0,0,0-.28076.01855,2.07634,2.07634,0,0,0,.27637,4.13379,1.98483,1.98483,0,0,0,.28271-.01953A2.07465,2.07465,0,0,0,43.74913,58.556,2.083,2.083,0,0,0,41.693,56.75914Z"/><path d="M41.48442,52.82008l.72178,1.86963.13525.35034.36152.10159a3.77836,3.77836,0,0,1,.84737.35813l.33236.1896.34858-.1578,1.8909-.856.73947.95563-1.34972,1.673-.2279.28247.08012.354c.02445.108.04694.217.06212.329s.02255.2228.02781.33337l.01723.36243.29486.21145,1.747,1.25278-.45788,1.11819-2.05039-.32092-.37814-.0592-.2698.27148a3.77769,3.77769,0,0,1-.69733.55515l-.31672.19488-.03657.37009-.21038,2.129-1.19734.16259-.77027-1.99578-.13393-.347-.35729-.10336a3.77745,3.77745,0,0,1-.779-.32633l-.32967-.1828-.34339.15549-1.93337.87543-.73947-.95563,1.35164-1.67566.23064-.28595L38.01,59.65184c-.02829-.11969-.05187-.24149-.06876-.36588-.01348-.09927-.0188-.19778-.02442-.29611l-.02047-.35788-.2913-.20883-1.74442-1.25067.45787-1.1182,2.00435.31354.38389.06.27048-.279a3.7751,3.7751,0,0,1,.75464-.60379l.32137-.19434.0369-.37375.19692-1.99432,1.19735-.1626m.20507,8.46677A2.45129,2.45129,0,1,0,39.2627,59.1653a2.46953,2.46953,0,0,0,2.42679,2.12155m.28119-9.28968-2.37174.32206-.25516,2.58407a4.519,4.519,0,0,0-.905.72351L35.849,55.22169l-.907,2.215,2.226,1.596c.00673.11767.01389.23544.03.35421.02019.14872.04823.29441.08206.4375l-1.72367,2.13688,1.46476,1.893,2.47323-1.11987a4.51549,4.51549,0,0,0,.9342.39084l.98365,2.54864,2.37174-.32205.26866-2.71869a4.51893,4.51893,0,0,0,.83622-.66519l2.63588.4126.907-2.215L46.20323,58.5674c-.00629-.13227-.01562-.265-.03378-.39872s-.04455-.26431-.0738-.39355l1.72182-2.13422-1.46476-1.893L43.922,54.84831a4.519,4.519,0,0,0-1.01611-.42871l-.93519-2.42243Zm-.28119,8.53968a1.70249,1.70249,0,1,1,.231-.01566,1.7015,1.7015,0,0,1-.231.01566Z"/><rect class="cls-26" x="5.28135" y="57.32164" width="20.85938" height="13.02441"/><path d="M25.766,57.69685V69.97123H5.65657V57.69685H25.766m.75-.75H4.90657V70.72123H26.516V56.94685Z"/><path class="cls-27" d="M18.32286,59.30406l-.17774-.044c-.13086-.03222-.26221-.06933-.39209-.11523-.10547-.03613-.2041-.0791-.30224-.123l-.16407-.07324-2.33007,1.20508-1.17432-1.36524,1.47754-2.041-.0625-.1836a4.16318,4.16318,0,0,1-.21436-1.041l-.01367-.1875-2.09473-1.34277.59473-1.69922,2.47559.25683.12744-.13867a4.13682,4.13682,0,0,1,.77344-.65137l.16015-.10449.11914-2.56055,1.76953-.335,1.07227,2.39942.17676.04394c.11718.03028.23388.0625.35058.10352.11914.041.23194.08984.34278.13965l.16455.07324,2.333-1.20606,1.17481,1.36524-1.50391,2.07519.05957.18262a4.12268,4.12268,0,0,1,.19532.96094l.01513.18457,2.207,1.416-.59472,1.69922-2.60791-.27148-.127.13574a4.19484,4.19484,0,0,1-.709.60156l-.15625.1045-.12109,2.60449-1.76954.334Zm.856-6.13574a2.08038,2.08038,0,1,0,.68555.11718A2.07924,2.07924,0,0,0,19.17881,53.16832Z"/><path d="M18.673,49.18376l.87715,1.96243.1481.33133.35167.08948c.10737.02731.21473.05679.3214.09415.1065.03726.20876.08114.30968.1267l.33066.14924.32227-.16657,1.90971-.98712.78813.91592-1.21744,1.68073-.22453.31.11924.36368a3.77649,3.77649,0,0,1,.17773.87339l.02971.37072.31309.20075,1.801,1.15469-.39915,1.1405-2.12786-.22055-.37-.03836-.25444.27133a3.77715,3.77715,0,0,1-.64463.54572l-.31259.21063-.01749.37653-.09853,2.12-1.18727.22458L18.74,59.31828l-.14992-.33536-.35684-.08713c-.11945-.02917-.23867-.06347-.35731-.105-.09457-.03308-.18472-.07312-.2749-.11279L17.273,58.5337l-.31834.16459-1.90667.9858-.78812-.91592,1.18993-1.6431.2279-.31469-.12561-.36768a3.77551,3.77551,0,0,1-.19505-.94662l-.02712-.37458-.31617-.20266-1.68716-1.08152.39914-1.1405,1.99349.20642.37352.0387.25475-.27591a3.7775,3.7775,0,0,1,.704-.59217l.3199-.20993.0178-.38223.09653-2.07339,1.18725-.22455m.50564,8.51306a2.45338,2.45338,0,1,0-.80973-.138,2.45409,2.45409,0,0,0,.80973.138m-.06274-9.36014-2.35178.44483L16.64,51.44682a4.51836,4.51836,0,0,0-.84355.71042l-2.58289-.26746-.79065,2.25913L14.609,55.55024a4.51915,4.51915,0,0,0,.23336,1.13492l-1.53749,2.123,1.56115,1.8143,2.43309-1.258c.10789.04746.216.09461.32918.13419.14166.04959.28418.09079.427.12567l1.12048,2.50635,2.3518-.44486.126-2.712a4.51613,4.51613,0,0,0,.77261-.65466l2.71732.28164.79066-2.25915-2.29987-1.47452A4.51862,4.51862,0,0,0,23.42171,53.82l1.56509-2.16068L23.42565,49.845l-2.43611,1.25922c-.12069-.05447-.24319-.10648-.37056-.151s-.25568-.08038-.38411-.11307l-1.119-2.50348Zm.06274,8.61014a1.70146,1.70146,0,1,1,1.60566-1.13968,1.69781,1.69781,0,0,1-1.60566,1.13968Z"/><circle class="cls-28" cx="6.78598" cy="68.81169" r="0.53712"/><circle class="cls-28" cx="6.78598" cy="58.58637" r="0.53712"/><circle class="cls-28" cx="24.64749" cy="68.81169" r="0.53712"/><circle class="cls-28" cx="43.39299" cy="68.81169" r="0.53712"/><circle class="cls-28" cx="43.39299" cy="41.89424" r="0.53712"/><path class="cls-29" d="M10.06114,41.85191a2.91362,2.91362,0,0,1,4.49365-3.71l2.74365,3.32324-4.49365,3.709Z"/><path d="M12.30631,37.45823h0a2.5321,2.5321,0,0,1,1.95926.92252l2.50489,3.03442L12.85537,44.647l-2.5049-3.03446a2.53844,2.53844,0,0,1,1.95584-4.15433m-.00014-.75A3.28845,3.28845,0,0,0,9.77208,42.09l2.98235,3.61282,5.07184-4.18676-2.98235-3.61283a3.28141,3.28141,0,0,0-2.53775-1.195Z"/><path class="cls-30" d="M12.73805,53.24852C13.90358,45.72539,23.838,40.0059,32.11494,41.10789c11.9538,1.5915,19.30237,17.25818,16.199,22.51178-1.23828,2.09632-4.71869,3.51306-7.34314,2.90509-1.62024-.37536-1.85858-1.27783-5.06-3.48962-2.94275-2.03308-4.41406-3.04962-6.02166-3.26654-3.7425-.505-5.2002,2.63623-9.33283,2.7431A10.66719,10.66719,0,0,1,13.926,60.06889,11.70373,11.70373,0,0,1,12.73805,53.24852Z"/><circle class="cls-31" cx="19.1786" cy="55.23369" r="1"/><circle class="cls-31" cx="31.54637" cy="50.43825" r="1.25"/><circle class="cls-31" cx="41.6869" cy="58.83551" r="1"/><line class="cls-32" x1="42.46982" y1="59.46527" x2="43.23907" y2="60.06713"/><line class="cls-32" x1="40.89465" y1="58.23285" x2="40.09075" y2="57.60388"/><line class="cls-32" x1="32.14253" y1="49.33956" x2="32.66978" y2="48.36791"/><line class="cls-32" x1="30.9502" y1="51.53692" x2="30.423" y2="52.50855"/><circle class="cls-33" cx="18.11037" cy="14.75077" r="4.75077"/><circle class="cls-34" cx="24.11037" cy="10" r="7"/><circle class="cls-35" cx="26.96155" cy="6.4597" r="4.75077"/><circle class="cls-36" cx="24.96155" cy="17" r="4"/><circle class="cls-37" cx="25.18461" cy="20.87061" r="2"/><circle class="cls-38" cx="20.1786" cy="3" r="3"/><path class="cls-39" d="M7.89986,52.45555a11.03994,11.03994,0,0,0,1.108,6.89392"/><path class="cls-40" d="M18.53685,38.27385a5.42378,5.42378,0,0,0-2.44888.464,6.319,6.319,0,0,0-2.07374,1.52059"/><path class="cls-5" d="M32.26768,31.90464V29.04136H34.338v.33789h-1.6914v.877h1.584v.33593h-1.584v.97461H34.4044v.33789Z"/><path class="cls-5" d="M34.88291,31.90464V29.83043h.31641v.29492a.74651.74651,0,0,1,.66016-.3418.86659.86659,0,0,1,.34472.06738.54741.54741,0,0,1,.23536.17676.68518.68518,0,0,1,.10937.25977,2.00381,2.00381,0,0,1,.01953.34179v1.27539H36.2169V30.64293a.9508.9508,0,0,0-.041-.32129.34243.34243,0,0,0-.1455-.16992.46619.46619,0,0,0-.24512-.06348.57116.57116,0,0,0-.3877.14258.7037.7037,0,0,0-.16308.541v1.13281Z"/><path class="cls-5" d="M37.04307,32.07652l.3418.05078a.32505.32505,0,0,0,.11914.23047.58378.58378,0,0,0,.35742.09766.62541.62541,0,0,0,.377-.09766.47923.47923,0,0,0,.17969-.27344,2.24053,2.24053,0,0,0,.02539-.45117.7216.7216,0,0,1-.57422.27148.782.782,0,0,1-.66211-.30859,1.18641,1.18641,0,0,1-.23437-.74023,1.37933,1.37933,0,0,1,.10742-.54785.86466.86466,0,0,1,.31152-.3877.844.844,0,0,1,.4795-.13672.74537.74537,0,0,1,.60546.29688v-.25h.32422v1.793a1.69655,1.69655,0,0,1-.09863.68653.72224.72224,0,0,1-.3125.31933,1.08253,1.08253,0,0,1-.52637.11719.99226.99226,0,0,1-.59961-.167A.56359.56359,0,0,1,37.04307,32.07652Zm.291-1.24609a.90016.90016,0,0,0,.16211.5957.53476.53476,0,0,0,.8125.001.87006.87006,0,0,0,.16406-.585.84963.84963,0,0,0-.169-.57421.52287.52287,0,0,0-.40722-.19336.50744.50744,0,0,0-.39844.19043A.84565.84565,0,0,0,37.33409,30.83043Z"/><path class="cls-5" d="M39.33409,29.44566v-.4043h.35156v.4043Zm0,2.459V29.83043h.35156v2.07421Z"/><path class="cls-5" d="M40.22081,31.90464V29.83043h.3164v.29492a.74652.74652,0,0,1,.66016-.3418.86659.86659,0,0,1,.34472.06738.54741.54741,0,0,1,.23536.17676.68518.68518,0,0,1,.10937.25977,2.00381,2.00381,0,0,1,.01953.34179v1.27539h-.35156V30.64293a.9508.9508,0,0,0-.041-.32129.34243.34243,0,0,0-.1455-.16992.46619.46619,0,0,0-.24512-.06348.57116.57116,0,0,0-.3877.14258.7037.7037,0,0,0-.16308.541v1.13281Z"/><path class="cls-5" d="M43.86534,31.23668l.36328.04492a.88415.88415,0,0,1-.31836.49414.95707.95707,0,0,1-.59375.17578.94668.94668,0,0,1-.72168-.28027,1.09355,1.09355,0,0,1-.2666-.78614,1.14775,1.14775,0,0,1,.26953-.8125.91326.91326,0,0,1,.69922-.28906.88791.88791,0,0,1,.67968.2832,1.12739,1.12739,0,0,1,.26368.79688c0,.02148-.00049.05273-.002.09375H42.69151a.79743.79743,0,0,0,.19336.52344.575.575,0,0,0,.43359.18164.53415.53415,0,0,0,.33008-.10157A.6704.6704,0,0,0,43.86534,31.23668Zm-1.1543-.56836h1.1582a.7077.7077,0,0,0-.13281-.39258.54069.54069,0,0,0-.43555-.20313.56056.56056,0,0,0-.40722.16211A.64366.64366,0,0,0,42.711,30.66832Z"/><line class="cls-5" x1="38.10083" y1="33.99985" x2="38.64776" y2="42.38048"/><line class="cls-6" x1="38.10081" y1="33.99986" x2="38.58842" y2="41.4716"/><path class="cls-5" d="M37.62864,41.48619a.95873.95873,0,1,0,.89423-1.01911A.9588.9588,0,0,0,37.62864,41.48619Z"/><polyline class="cls-2" points="0 70.453 106.29 70.453 106.29 72.626"/><path class="cls-5" d="M65.30332,40.10777V37.24449h.37891v2.86328Z"/><path class="cls-5" d="M66.30528,40.10777V38.03355h.31445v.291a.74511.74511,0,0,1,.25977-.24512.73228.73228,0,0,1,.36914-.09277.68429.68429,0,0,1,.37793.0957.5176.5176,0,0,1,.208.26758.7445.7445,0,0,1,.64063-.36328.63445.63445,0,0,1,.47461.17089.73124.73124,0,0,1,.166.52637v1.42383h-.3496V38.80113a.9599.9599,0,0,0-.03418-.30371.29682.29682,0,0,0-.124-.14942.3936.3936,0,0,0-.21094-.05664.49166.49166,0,0,0-.36328.14551.64368.64368,0,0,0-.14453.46582v1.20508H67.5377V38.76011a.59414.59414,0,0,0-.08594-.35156.32506.32506,0,0,0-.28125-.11719.51329.51329,0,0,0-.27441.07813.44754.44754,0,0,0-.18262.22851,1.2931,1.2931,0,0,0-.05664.4336v1.07617Z"/><path class="cls-5" d="M69.63731,40.90269V38.03355h.32031v.26953a.78958.78958,0,0,1,.25586-.2373.70384.70384,0,0,1,.3457-.0791.82133.82133,0,0,1,.46875.13671.84235.84235,0,0,1,.30664.38575,1.41368,1.41368,0,0,1,.10352.5459,1.38441,1.38441,0,0,1-.11426.57324.85888.85888,0,0,1-.332.39062.84931.84931,0,0,1-.458.13574.65838.65838,0,0,1-.31543-.07421.70166.70166,0,0,1-.22949-.1875v1.00976Zm.31836-1.82031a.9008.9008,0,0,0,.16211.5918.49568.49568,0,0,0,.39258.1914.50628.50628,0,0,0,.40136-.19824.93994.93994,0,0,0,.167-.61426.91727.91727,0,0,0-.16309-.59375.49334.49334,0,0,0-.38965-.19726.507.507,0,0,0-.39746.21A.94122.94122,0,0,0,69.95567,39.08238Z"/><path class="cls-5" d="M71.73106,39.07066a1.071,1.071,0,0,1,.32031-.85352.96679.96679,0,0,1,.65235-.23046.93207.93207,0,0,1,.69921.28027,1.06713,1.06713,0,0,1,.27149.77441,1.36851,1.36851,0,0,1-.12012.62989.8457.8457,0,0,1-.34961.35644,1.01347,1.01347,0,0,1-.501.127.93119.93119,0,0,1-.70411-.27929A1.11332,1.11332,0,0,1,71.73106,39.07066Zm.36133,0a.88373.88373,0,0,0,.17383.59668.57878.57878,0,0,0,.873-.001.90466.90466,0,0,0,.17383-.60742.85845.85845,0,0,0-.1748-.583.57958.57958,0,0,0-.87207-.001A.88089.88089,0,0,0,72.09239,39.07066Z"/><path class="cls-5" d="M74.08262,40.10777V38.03355H74.399V38.348a.86273.86273,0,0,1,.22363-.291.39035.39035,0,0,1,.22559-.07031.68856.68856,0,0,1,.36132.11328l-.12109.32617a.503.503,0,0,0-.25781-.07617.33679.33679,0,0,0-.207.06933.37829.37829,0,0,0-.13086.19239,1.36941,1.36941,0,0,0-.0586.41015v1.08594Z"/><path class="cls-5" d="M76.18614,39.79332l.05078.31054a1.26046,1.26046,0,0,1-.26563.03125.59467.59467,0,0,1-.29687-.06054.3355.3355,0,0,1-.14844-.15918,1.25276,1.25276,0,0,1-.043-.415V38.307H75.2252v-.27344H75.483v-.51367l.34961-.21094v.72461h.35352V38.307h-.35352v1.21289a.61478.61478,0,0,0,.01856.19336.1419.1419,0,0,0,.06054.06836.22668.22668,0,0,0,.12012.02539A1.04813,1.04813,0,0,0,76.18614,39.79332Z"/><path class="cls-5" d="M77.94981,39.4398l.36328.04492a.88406.88406,0,0,1-.31836.49414.95705.95705,0,0,1-.59375.17578.9467.9467,0,0,1-.72168-.28027,1.09355,1.09355,0,0,1-.2666-.78613,1.14775,1.14775,0,0,1,.26953-.8125.91326.91326,0,0,1,.69922-.28906.8879.8879,0,0,1,.67969.2832,1.12741,1.12741,0,0,1,.26367.79687c0,.02149-.00049.05274-.00195.09375H76.776a.79739.79739,0,0,0,.19336.52344.575.575,0,0,0,.43359.18164A.53414.53414,0,0,0,77.733,39.764.67031.67031,0,0,0,77.94981,39.4398Zm-1.1543-.56836h1.15821a.70769.70769,0,0,0-.13282-.39258.5407.5407,0,0,0-.43554-.20312.56058.56058,0,0,0-.40723.16211A.6437.6437,0,0,0,76.79551,38.87144Z"/><path class="cls-5" d="M78.75059,40.10777V38.03355H79.067V38.348a.86273.86273,0,0,1,.22363-.291.39032.39032,0,0,1,.22559-.07031.68856.68856,0,0,1,.36132.11328l-.12109.32617a.503.503,0,0,0-.25781-.07617.33679.33679,0,0,0-.207.06933.37829.37829,0,0,0-.13086.19239,1.36909,1.36909,0,0,0-.0586.41015v1.08594Z"/><rect class="cls-41" x="67.01167" y="52.58824" width="6.99163" height="4.54586"/><path class="cls-42" d="M110.93788,41.74872a8.33387,8.33387,0,0,1,.3216-2.34273,7.963,7.963,0,0,1,.82433-1.92858c1.22529-1.904,7.8435-2.56212,11.57105.94469,4.14736,3.90181,2.80382,11.16041,0,14.74674a7.21872,7.21872,0,0,1-4.64489,3.067,6.70679,6.70679,0,0,1-3.52959-.69572c-.90228-.385-3.41128-1.45562-3.81169-3.44151-.2423-1.20171.48177-1.77506-.04256-2.79085-.51267-.9933-1.49723-1.01121-1.56246-1.72966-.06978-.7683,1.04226-.9002,1.44294-2.02014C111.91626,44.413,110.95927,43.97714,110.93788,41.74872Z"/><path class="cls-2" d="M112.08383,37.4774a7.16893,7.16893,0,0,0-1.01006,5.19466c.257,1.0584.81814,1.88289.43287,2.88591-.41525,1.081-1.45857,1.32813-1.44294,2.02013.01385.61464.98292.58645,1.44294,1.443.42492.79118-.06111,1.342,0,2.30873.14325,2.2662,3.10141,3.78115,3.6074,4.04027a8.11312,8.11312,0,0,0,3.896.86579"/><path class="cls-43" d="M113.38324,44.4797c.03148-1.23054,1.55962-2.37979,3.03611-2.38373,1.76149-.00471,3.34861,1.621,3.154,2.64213-.2715,1.42464-4.16391,2.47422-5.62369,1.06577A1.91707,1.91707,0,0,1,113.38324,44.4797Z"/><path class="cls-44" d="M114.26974,44.17491a1.16662,1.16662,0,1,0,1.27518-1.15758A1.22026,1.22026,0,0,0,114.26974,44.17491Z"/><ellipse class="cls-45" cx="115.31069" cy="44.38828" rx="0.57783" ry="0.52814" transform="translate(60.38246 155.06693) rotate(-84.65942)"/><ellipse class="cls-46" cx="115.65847" cy="44.07258" rx="0.23113" ry="0.21126" transform="translate(61.01219 155.12688) rotate(-84.65942)"/><path d="M113.494,41.53392a3.25017,3.25017,0,0,1,1.43841-1.58087,3.819,3.819,0,0,1,2.17365-.4704,3.31044,3.31044,0,0,1,2.12079.98066,2.47748,2.47748,0,0,1,.69018,2.09307,5.77913,5.77913,0,0,0-2.9834-1.08178,12.2186,12.2186,0,0,0-1.52966-.027C114.84136,41.46312,114.24492,41.52165,113.494,41.53392Z"/><path class="cls-47" d="M112.0082,50.08771a2.53918,2.53918,0,0,0,2.29507-.50417"/><rect class="cls-48" x="112.81879" y="41.89638" width="4.9838" height="4.9838" transform="translate(230.62137 88.77656) rotate(-180)"/><path class="cls-6" d="M62.01774,39.94389a13.15861,13.15861,0,0,1-6.60083.34741,13.79693,13.79693,0,0,1-6.85754-3.73706"/><polygon class="cls-5" points="50.186 36.379 46.084 33.431 48.162 38.035 50.186 36.379"/></g></g></svg>