<svg xmlns="http://www.w3.org/2000/svg" xmlns:xlink="http://www.w3.org/1999/xlink" viewBox="0 0 367 113.08927"><defs><style>.cls-1{fill:#1a1a1a;}.cls-2{fill:#fff;}.cls-3{fill:url(#radial-gradient);}.cls-4,.cls-5{fill:none;}.cls-4,.cls-5,.cls-6{stroke:red;stroke-miterlimit:10;}.cls-4,.cls-6{stroke-width:1.53333px;}.cls-5{stroke-width:0.75px;}.cls-6{fill:url(#radial-gradient-2);}</style><radialGradient id="radial-gradient" cx="222.44974" cy="53.56708" r="39.17209" gradientUnits="userSpaceOnUse"><stop offset="0.5" stop-color="#fff"/><stop offset="0.5" stop-color="#ccc"/></radialGradient><radialGradient id="radial-gradient-2" cx="226.15621" cy="54.00335" r="19.50985" gradientTransform="translate(0 -26.23367) scale(1 1.48578)" gradientUnits="userSpaceOnUse"><stop offset="0.5" stop-color="#1a1a1a"/><stop offset="0.5"/></radialGradient></defs><title>-1Asset 19</title><g id="Layer_2" data-name="Layer 2"><g id="Layer_1-2" data-name="Layer 1"><rect class="cls-1" width="367" height="113.08927"/><path class="cls-2" d="M33.825,26.07319H67.90848v9.05792H43.99775v12.1034H66.05037v9.05792H43.99775V68.991H68.2801V78.049H33.825Z"/><path class="cls-2" d="M95.52636,67.58008h2.82191L105.5511,40.923h9.94921L104.95892,74.41129q-1.414,4.16036-2.7494,7.6107a27.63239,27.63239,0,0,1-3.118,5.97617,13.05452,13.05452,0,0,1-4.19662,3.90052,11.75668,11.75668,0,0,1-5.90063,1.37168,11.46,11.46,0,0,1-3.22979-.44413,16.65363,16.65363,0,0,1-2.78566-1.07559,15.43892,15.43892,0,0,1-2.22671-1.33845,13.56127,13.56127,0,0,1-1.559-1.29916L84.1662,82.5054a12.8925,12.8925,0,0,0,2.30224,1.52275,5.44974,5.44974,0,0,0,2.52583.704,4.35115,4.35115,0,0,0,3.52588-1.559A16.31136,16.31136,0,0,0,95.00669,78.049h-5.2722l-15.442-37.126H84.7614Z"/><path class="cls-2" d="M157.38184,74.1152a13.29271,13.29271,0,0,1-2.48957,1.7433,24.17394,24.17394,0,0,1-3.56213,1.59828,27.54516,27.54516,0,0,1-4.49271,1.18737,29.16245,29.16245,0,0,1-5.19969.44414,25.20329,25.20329,0,0,1-8.499-1.33543,16.6471,16.6471,0,0,1-10.32385-10.061,22.91931,22.91931,0,0,1-1.37168-8.2059,21.82615,21.82615,0,0,1,1.559-8.57451,17.15806,17.15806,0,0,1,4.26913-6.12724,17.83107,17.83107,0,0,1,6.34779-3.67392,24.68611,24.68611,0,0,1,13.70168-.48341,15.92839,15.92839,0,0,1,5.529,2.56208,13.702,13.702,0,0,1,4.12108,4.86432,16.51015,16.51015,0,0,1,1.59828,7.71947,35.31112,35.31112,0,0,1-.74325,6.90674H131.09636a8.52986,8.52986,0,0,0,1,4.00929,7.91711,7.91711,0,0,0,2.4503,2.67387,10.65829,10.65829,0,0,0,3.49264,1.52274,17.61755,17.61755,0,0,0,4.19359.48039,21.67813,21.67813,0,0,0,7.31462-1.03933,15.419,15.419,0,0,0,4.64074-2.5228ZM141.34165,47.60614a12.20189,12.20189,0,0,0-3.63767.53175,10.12291,10.12291,0,0,0-3.08174,1.54994,8.49451,8.49451,0,0,0-2.266,2.53488,7.849,7.849,0,0,0-1.03934,3.402h18.2669a8.16986,8.16986,0,0,0-2.04241-5.86136Q145.49748,47.60613,141.34165,47.60614Z"/><path class="cls-2" d="M193.01831,56.88763h9.209V78.049h-34.156V26.07319H178.244V68.991h14.77426Z"/><path class="cls-3" d="M209.43012,59.486a22.8962,22.8962,0,0,1,1.411-8.31468,16.72059,16.72059,0,0,1,10.209-9.98848,23.67734,23.67734,0,0,1,8.05786-1.29917,23.20682,23.20682,0,0,1,8.35395,1.411,17.27783,17.27783,0,0,1,6.19975,3.973,16.69293,16.69293,0,0,1,3.822,6.19975A23.68267,23.68267,0,0,1,248.7828,59.486a22.84885,22.84885,0,0,1-1.411,8.31769,16.70564,16.70564,0,0,1-10.209,9.98546,23.58622,23.58622,0,0,1-8.05484,1.29917,23.20682,23.20682,0,0,1-8.35395-1.411,17.23118,17.23118,0,0,1-6.19975-3.97,16.73571,16.73571,0,0,1-3.825-6.20277A23.65774,23.65774,0,0,1,209.43012,59.486Zm9.9492,0a14.66183,14.66183,0,0,0,.67073,4.529,11.08045,11.08045,0,0,0,1.93063,3.64069,8.69329,8.69329,0,0,0,3.04247,2.411,9.31744,9.31744,0,0,0,4.08482.855,9.42511,9.42511,0,0,0,7.01551-2.74638q2.71011-2.74638,2.71012-8.68931a12.87778,12.87778,0,0,0-2.5228-8.27842,8.69589,8.69589,0,0,0-7.20283-3.15426,11.50084,11.50084,0,0,0-3.86125.62844,7.5926,7.5926,0,0,0-3.08174,2.04241,10.00725,10.00725,0,0,0-2.04241,3.56516A16.01545,16.01545,0,0,0,219.37932,59.486Z"/><path class="cls-2" d="M295.9305,40.923h12.62307l1.11487,4.45644h.29609q3.86124-5.49276,12.475-5.49578a17.63927,17.63927,0,0,1,6.27226,1.07861,12.179,12.179,0,0,1,4.90058,3.37784,15.86153,15.86153,0,0,1,3.15728,5.79187,27.7544,27.7544,0,0,1,1.11184,8.3902,27.30692,27.30692,0,0,1-1.25989,8.57451,18.2469,18.2469,0,0,1-3.64069,6.49886,15.56614,15.56614,0,0,1-5.79187,4.0818,20.27368,20.27368,0,0,1-7.795,1.411,30.76572,30.76572,0,0,1-4.529-.33235,12.48016,12.48016,0,0,1-3.7132-1.07861V92.89874h-9.65312V49.09263H295.9305Zm23.61161,7.13031a9.80345,9.80345,0,0,0-5.16041,1.40794,7.32845,7.32845,0,0,0-3.22979,4.23287v15.445a7.872,7.872,0,0,0,3.00621,1.29917,16.54922,16.54922,0,0,0,3.973.48341,10.37133,10.37133,0,0,0,3.86124-.707,7.89518,7.89518,0,0,0,3.118-2.263,10.9528,10.9528,0,0,0,2.07866-3.93678,19.28646,19.28646,0,0,0,.74325-5.71633q0-4.89908-2.37476-7.57445A7.69881,7.69881,0,0,0,319.54211,48.05329Z"/><path class="cls-2" d="M290.72759,48.72676l-.47964.148,3.0842-1.39434-12.96127-8.6253L278.41,54.22707l3.36009-1.51916a13.65649,13.65649,0,0,1,1.61282,6.778q0,5.94143-2.71013,8.68931a9.42509,9.42509,0,0,1-7.0155,2.74638,9.31752,9.31752,0,0,1-4.08483-.855,8.69347,8.69347,0,0,1-3.04247-2.411,11.08063,11.08063,0,0,1-1.93062-3.64069,14.66194,14.66194,0,0,1-.67073-4.529,16.01574,16.01574,0,0,1,.74324-5.19667,10.00755,10.00755,0,0,1,2.04241-3.56516,7.59257,7.59257,0,0,1,3.08175-2.04241,11.50084,11.50084,0,0,1,3.86125-.62844c.19034,0,.35311.04022.538.04816L275.88271,39.97c-.72229-.05627-1.46326-.08648-2.22539-.08648a23.67759,23.67759,0,0,0-8.05786,1.29916,16.72057,16.72057,0,0,0-10.209,9.98849,22.89618,22.89618,0,0,0-1.411,8.31467,23.65774,23.65774,0,0,0,1.29917,8.01858,16.73571,16.73571,0,0,0,3.825,6.20277,17.231,17.231,0,0,0,6.19975,3.97,23.20682,23.20682,0,0,0,8.354,1.411,23.58626,23.58626,0,0,0,8.05484-1.29917,16.70571,16.70571,0,0,0,10.209-9.98546,22.84885,22.84885,0,0,0,1.411-8.31769,23.68267,23.68267,0,0,0-1.29917-8.01859A17.67477,17.67477,0,0,0,290.72759,48.72676Z"/><rect class="cls-4" x="206.10646" y="36.48748" width="46" height="46"/><line class="cls-5" x1="228.10646" y1="58.48748" x2="230.10646" y2="60.48748"/><line class="cls-5" x1="230.10646" y1="58.48748" x2="228.10646" y2="60.48748"/><path class="cls-6" d="M219.37932,59.486a14.66183,14.66183,0,0,0,.67073,4.529,11.08045,11.08045,0,0,0,1.93063,3.64069,8.69329,8.69329,0,0,0,3.04247,2.411,9.31744,9.31744,0,0,0,4.08482.855,9.42511,9.42511,0,0,0,7.01551-2.74638q2.71011-2.74638,2.71012-8.68931a12.87778,12.87778,0,0,0-2.5228-8.27842,8.69589,8.69589,0,0,0-7.20283-3.15426,11.50084,11.50084,0,0,0-3.86125.62844,7.5926,7.5926,0,0,0-3.08174,2.04241,10.00725,10.00725,0,0,0-2.04241,3.56516A16.01545,16.01545,0,0,0,219.37932,59.486Z"/><line class="cls-5" x1="228.10646" y1="57.97168" x2="230.10646" y2="59.97168"/><line class="cls-5" x1="230.10646" y1="57.97168" x2="228.10646" y2="59.97168"/></g></g></svg>