<svg xmlns="http://www.w3.org/2000/svg" viewBox="0 0 305 93.98427"><defs><style>.cls-1{fill:#fff;}</style></defs><title>-1Asset 16</title><g id="Layer_2" data-name="Layer 2"><g id="Layer_1-2" data-name="Layer 1"><rect width="305" height="93.98427"/><path class="cls-1" d="M28.94173,20.49952H57.26726v7.52769H37.396V38.0859H55.72306v7.5277H37.396V56.16694H57.5761v7.52769H28.94173Z"/><path class="cls-1" d="M80.21945,54.99435h2.34519l5.986-22.15373h8.26841L88.0585,60.6715q-1.1751,3.45753-2.28492,6.325a22.96433,22.96433,0,0,1-2.59126,4.96657,10.84926,10.84926,0,0,1-3.48764,3.24158,9.77064,9.77064,0,0,1-4.9038,1.13995,9.52392,9.52392,0,0,1-2.68416-.3691,13.83954,13.83954,0,0,1-2.31506-.89389,12.83084,12.83084,0,0,1-1.85054-1.11233,11.27059,11.27059,0,0,1-1.29562-1.07969l4.133-5.49135a10.71439,10.71439,0,0,0,1.91331,1.2655,4.529,4.529,0,0,0,2.09912.585,3.61609,3.61609,0,0,0,2.93022-1.29563,13.5559,13.5559,0,0,0,2.06648-4.2585H75.406l-12.83324-30.854H71.2731Z"/><path class="cls-1" d="M131.62523,60.42544a11.04718,11.04718,0,0,1-2.069,1.44879,20.09032,20.09032,0,0,1-2.96036,1.32827,22.89116,22.89116,0,0,1-3.73372.98678,24.2358,24.2358,0,0,1-4.32127.36911,20.94573,20.94573,0,0,1-7.06318-1.10982,13.83477,13.83477,0,0,1-8.57976-8.36132,19.04727,19.04727,0,0,1-1.13995-6.81962,18.13884,18.13884,0,0,1,1.29562-7.12595,14.25939,14.25939,0,0,1,3.54791-5.09212A14.81866,14.81866,0,0,1,111.877,32.9963a20.51585,20.51585,0,0,1,11.387-.40175,13.2378,13.2378,0,0,1,4.595,2.12925,11.38733,11.38733,0,0,1,3.42487,4.04256,13.721,13.721,0,0,1,1.32827,6.41536,29.346,29.346,0,0,1-.61768,5.73994h-22.214a7.089,7.089,0,0,0,.83111,3.332,6.5796,6.5796,0,0,0,2.03635,2.22215,8.85769,8.85769,0,0,0,2.9026,1.2655,14.64173,14.64173,0,0,0,3.48514.39923,18.0158,18.0158,0,0,0,6.07891-.86375,12.81433,12.81433,0,0,0,3.85675-2.09661Zm-13.3304-22.03069a10.14091,10.14091,0,0,0-3.02313.44191,8.413,8.413,0,0,0-2.56112,1.2881,7.05949,7.05949,0,0,0-1.88318,2.10665,6.52289,6.52289,0,0,0-.86375,2.82728h15.18094a6.78968,6.78968,0,0,0-1.69738-4.87116A6.77768,6.77768,0,0,0,118.29483,38.39475Z"/><path class="cls-1" d="M161.24137,46.10825h7.65324V63.69463H140.50882V20.49952H148.963V56.16694h12.27833Z"/><path class="cls-1" d="M174.88061,48.26763a19.028,19.028,0,0,1,1.1726-6.91,13.89588,13.89588,0,0,1,8.48435-8.30105,19.67736,19.67736,0,0,1,6.69658-1.07969,19.28638,19.28638,0,0,1,6.94266,1.17259,14.35909,14.35909,0,0,1,5.15238,3.30184,13.873,13.873,0,0,1,3.1763,5.15238,19.68182,19.68182,0,0,1,1.07968,6.664,18.98887,18.98887,0,0,1-1.17259,6.91252,13.88344,13.88344,0,0,1-8.48435,8.29855,19.60164,19.60164,0,0,1-6.69408,1.07969,19.2861,19.2861,0,0,1-6.94265-1.1726,14.32,14.32,0,0,1-5.15238-3.29933,13.90836,13.90836,0,0,1-3.17881-5.15489A19.661,19.661,0,0,1,174.88061,48.26763Zm8.26842,0a12.18468,12.18468,0,0,0,.55742,3.76385,9.20839,9.20839,0,0,0,1.60447,3.02564,7.2247,7.2247,0,0,0,2.52848,2.0037,7.74343,7.74343,0,0,0,3.39474.71059,7.83284,7.83284,0,0,0,5.83033-2.28242q2.25228-2.28242,2.25228-7.22136a10.70217,10.70217,0,0,0-2.09661-6.87988,7.22678,7.22678,0,0,0-5.986-2.62139,9.5579,9.5579,0,0,0-3.20893.52227,6.30987,6.30987,0,0,0-2.56113,1.69737,8.31677,8.31677,0,0,0-1.69737,2.96287A13.30994,13.30994,0,0,0,183.149,48.26763Z"/><path class="cls-1" d="M211.90392,48.26763a19.028,19.028,0,0,1,1.1726-6.91,13.89588,13.89588,0,0,1,8.48435-8.30105,19.67736,19.67736,0,0,1,6.69658-1.07969,19.28638,19.28638,0,0,1,6.94266,1.17259,14.35909,14.35909,0,0,1,5.15238,3.30184,13.87282,13.87282,0,0,1,3.17629,5.15238,19.68181,19.68181,0,0,1,1.07969,6.664,18.98887,18.98887,0,0,1-1.17259,6.91252,13.88344,13.88344,0,0,1-8.48435,8.29855,19.60168,19.60168,0,0,1-6.69408,1.07969,19.2861,19.2861,0,0,1-6.94265-1.1726,14.32,14.32,0,0,1-5.15238-3.29933,13.90836,13.90836,0,0,1-3.17881-5.15489A19.661,19.661,0,0,1,211.90392,48.26763Zm8.26842,0a12.18468,12.18468,0,0,0,.55742,3.76385,9.20839,9.20839,0,0,0,1.60447,3.02564,7.2247,7.2247,0,0,0,2.52848,2.0037,7.74343,7.74343,0,0,0,3.39474.71059,7.83284,7.83284,0,0,0,5.83033-2.28242q2.25228-2.28242,2.25228-7.22136a10.70217,10.70217,0,0,0-2.09661-6.87988,7.22678,7.22678,0,0,0-5.986-2.62139,9.5579,9.5579,0,0,0-3.20893.52227,6.30987,6.30987,0,0,0-2.56113,1.69737A8.31677,8.31677,0,0,0,220.79,43.94887,13.30994,13.30994,0,0,0,220.17234,48.26763Z"/><path class="cls-1" d="M246.76785,32.84062h10.49057l.92652,3.70359h.24607q3.20893-4.56483,10.36753-4.56734a14.65934,14.65934,0,0,1,5.21264.89639,10.12142,10.12142,0,0,1,4.07269,2.8072,13.1818,13.1818,0,0,1,2.6239,4.8134,23.06564,23.06564,0,0,1,.924,6.97279,22.69388,22.69388,0,0,1-1.047,7.12595,15.16453,15.16453,0,0,1-3.02565,5.401,12.93649,12.93649,0,0,1-4.8134,3.39223,16.84854,16.84854,0,0,1-6.47814,1.1726,25.56954,25.56954,0,0,1-3.76385-.2762,10.37219,10.37219,0,0,1-3.0859-.8964v12.65h-8.02235V39.63011h-4.6276Zm19.62273,5.92574a8.14726,8.14726,0,0,0-4.28862,1.17008,6.09043,6.09043,0,0,0-2.68416,3.51778V56.29a6.542,6.542,0,0,0,2.49835,1.07969,13.75323,13.75323,0,0,0,3.30184.40175,8.61933,8.61933,0,0,0,3.20894-.58755,6.56148,6.56148,0,0,0,2.59125-1.88067,9.10253,9.10253,0,0,0,1.72751-3.27171,16.02842,16.02842,0,0,0,.61768-4.75064A9.16966,9.16966,0,0,0,271.3898,40.986,6.39822,6.39822,0,0,0,266.39058,38.76636Z"/></g></g></svg>