<svg xmlns="http://www.w3.org/2000/svg" viewBox="0 0 98.27832 21.71973">
  <title>-1Asset 80</title>
  <g id="Layer_2" data-name="Layer 2">
    <g id="Layer_1-2" data-name="Layer 1">
      <g>
        <path d="M0,0H11.0166V2.92773H3.28809V6.83984H10.416V9.76758H3.28809v4.10449h7.84863V16.7998H0Z"/>
        <path d="M19.94336,13.416h.91211L23.18359,4.7998h3.21582L22.99219,15.624q-.457,1.34474-.88867,2.46a8.93148,8.93148,0,0,1-1.00782,1.93164,4.21957,4.21957,0,0,1-1.35644,1.26075,3.8,3.8,0,0,1-1.90723.44336,3.70385,3.70385,0,0,1-1.04394-.14356,5.38235,5.38235,0,0,1-.90039-.34765,4.99017,4.99017,0,0,1-.71973-.43262,4.384,4.384,0,0,1-.50391-.41992l1.60742-2.13575a4.16679,4.16679,0,0,0,.74414.49219A1.76148,1.76148,0,0,0,17.832,18.96a1.4064,1.4064,0,0,0,1.13965-.50391,5.27223,5.27223,0,0,0,.80371-1.65625h-1.7041l-4.99121-12h3.38379Z"/>
        <path d="M39.93652,15.52832a4.29651,4.29651,0,0,1-.80468.56348,7.81437,7.81437,0,0,1-1.15137.5166,8.90447,8.90447,0,0,1-1.45215.38379,9.42634,9.42634,0,0,1-1.68066.14355,8.14617,8.14617,0,0,1-2.74707-.43164,5.38069,5.38069,0,0,1-3.33692-3.252,7.40807,7.40807,0,0,1-.44336-2.65235,7.05464,7.05464,0,0,1,.50391-2.77148A5.546,5.546,0,0,1,30.2041,6.04785a5.76348,5.76348,0,0,1,2.05176-1.1875,7.97929,7.97929,0,0,1,4.42871-.15625,5.14847,5.14847,0,0,1,1.78711.82813,4.42887,4.42887,0,0,1,1.332,1.57226,5.33646,5.33646,0,0,1,.5166,2.49512,11.41384,11.41384,0,0,1-.24023,2.23242H31.44043a2.757,2.757,0,0,0,.32324,1.2959,2.55915,2.55915,0,0,0,.792.86426,3.44535,3.44535,0,0,0,1.12891.49219,5.69473,5.69473,0,0,0,1.35547.15527,7.00683,7.00683,0,0,0,2.36426-.33594,4.9839,4.9839,0,0,0,1.5-.81543ZM34.752,6.96a3.944,3.944,0,0,0-1.17578.17188,3.27214,3.27214,0,0,0-.99609.501,2.74568,2.74568,0,0,0-.73242.81934,2.53694,2.53694,0,0,0-.33594,1.09961H37.416a2.64069,2.64069,0,0,0-.66016-1.89453A2.636,2.636,0,0,0,34.752,6.96Z"/>
        <path d="M51.45508,9.96h2.97656V16.7998h-11.04V0h3.28809V13.87207h4.77539Z"/>
        <path d="M56.75977,10.7998a7.40062,7.40062,0,0,1,.456-2.6875,5.40454,5.40454,0,0,1,3.2998-3.22851,7.65309,7.65309,0,0,1,2.6045-.41992,7.501,7.501,0,0,1,2.70019.45605A5.58466,5.58466,0,0,1,67.82422,6.2041,5.39557,5.39557,0,0,1,69.05957,8.208a7.65489,7.65489,0,0,1,.41992,2.59179,7.38544,7.38544,0,0,1-.45605,2.68848,5.39965,5.39965,0,0,1-3.29981,3.22754,7.62366,7.62366,0,0,1-2.60351.41992,7.501,7.501,0,0,1-2.7002-.456,5.56941,5.56941,0,0,1-2.0039-1.28321,5.4092,5.4092,0,0,1-1.23633-2.00488A7.64658,7.64658,0,0,1,56.75977,10.7998Zm3.21582,0a4.73905,4.73905,0,0,0,.21679,1.46387,3.58165,3.58165,0,0,0,.624,1.17676,2.81,2.81,0,0,0,.98339.7793,3.01166,3.01166,0,0,0,1.32032.27636,3.04642,3.04642,0,0,0,2.26758-.88769,3.87368,3.87368,0,0,0,.876-2.8086A4.16241,4.16241,0,0,0,65.44824,8.124a2.81073,2.81073,0,0,0-2.32812-1.01953,3.71748,3.71748,0,0,0-1.248.20313,2.45405,2.45405,0,0,0-.99609.66015,3.23462,3.23462,0,0,0-.66016,1.15235A5.17647,5.17647,0,0,0,59.97559,10.7998Z"/>
        <path d="M71.15918,10.7998a7.40062,7.40062,0,0,1,.456-2.6875A5.40452,5.40452,0,0,1,74.915,4.88379a7.653,7.653,0,0,1,2.60449-.41992,7.50108,7.50108,0,0,1,2.7002.45605,5.58453,5.58453,0,0,1,2.0039,1.28418A5.39544,5.39544,0,0,1,83.459,8.208a7.65464,7.65464,0,0,1,.41993,2.59179,7.38522,7.38522,0,0,1-.45606,2.68848,5.39967,5.39967,0,0,1-3.2998,3.22754,7.62376,7.62376,0,0,1-2.60352.41992,7.501,7.501,0,0,1-2.70019-.456,5.56945,5.56945,0,0,1-2.00391-1.28321A5.40933,5.40933,0,0,1,71.5791,13.3916,7.64682,7.64682,0,0,1,71.15918,10.7998Zm3.21582,0a4.73905,4.73905,0,0,0,.2168,1.46387,3.58144,3.58144,0,0,0,.624,1.17676,2.80992,2.80992,0,0,0,.9834.7793,3.01164,3.01164,0,0,0,1.32031.27636,3.0464,3.0464,0,0,0,2.26758-.88769,3.87368,3.87368,0,0,0,.876-2.8086A4.16247,4.16247,0,0,0,79.84766,8.124a2.81076,2.81076,0,0,0-2.32813-1.01953,3.71748,3.71748,0,0,0-1.24805.20313,2.45419,2.45419,0,0,0-.99609.66015,3.23477,3.23477,0,0,0-.66016,1.15235A5.17674,5.17674,0,0,0,74.375,10.7998Z"/>
        <path d="M84.71875,4.7998h4.08008l.36035,1.44043h.0957a4.58265,4.58265,0,0,1,4.03223-1.77636,5.70142,5.70142,0,0,1,2.02734.34863,3.93659,3.93659,0,0,1,1.584,1.0918A5.12678,5.12678,0,0,1,97.919,7.77637a8.97094,8.97094,0,0,1,.35937,2.71191,8.82617,8.82617,0,0,1-.40723,2.77149,5.898,5.898,0,0,1-1.17675,2.10058,5.03147,5.03147,0,0,1-1.87207,1.31934,6.553,6.553,0,0,1-2.51954.456,9.94415,9.94415,0,0,1-1.46386-.10742,4.03432,4.03432,0,0,1-1.2002-.34863v4.91992H86.51855V7.44043h-1.7998Zm7.63184,2.30469a3.1687,3.1687,0,0,0-1.668.45508,2.36873,2.36873,0,0,0-1.04395,1.36816v4.99219a2.54427,2.54427,0,0,0,.97168.41992,5.34872,5.34872,0,0,0,1.28418.15625,3.35239,3.35239,0,0,0,1.248-.22851,2.552,2.552,0,0,0,1.00781-.73145,3.54006,3.54006,0,0,0,.67188-1.27246A6.23411,6.23411,0,0,0,95.0625,10.416a3.56635,3.56635,0,0,0-.76758-2.44825A2.48842,2.48842,0,0,0,92.35059,7.10449Z"/>
      </g>
    </g>
  </g>
</svg>
