<svg xmlns="http://www.w3.org/2000/svg" xmlns:xlink="http://www.w3.org/1999/xlink" viewBox="0 0 94.174 55.59459"><defs><style>.cls-1{fill:#fff;}.cls-2{fill:#c78c65;}.cls-3{fill:#cbbeb6;}.cls-4{fill:#fccdac;}.cls-5,.cls-6,.cls-7{stroke:#000;}.cls-10,.cls-11,.cls-12,.cls-13,.cls-5,.cls-6,.cls-7,.cls-9{stroke-miterlimit:10;}.cls-5{fill:url(#radial-gradient);}.cls-6{fill:#998675;stroke-width:0.94642px;}.cls-12,.cls-13,.cls-7{fill:none;}.cls-8,.cls-9{fill:#e6e7e8;}.cls-10,.cls-11,.cls-12,.cls-13,.cls-9{stroke:#221f1f;}.cls-10,.cls-12{stroke-width:0.75px;}.cls-10{fill:url(#radial-gradient-2);}.cls-11{fill:#302d2f;stroke-width:0.5px;}.cls-13{stroke-width:0.25px;}</style><radialGradient id="radial-gradient" cx="226.37459" cy="25.03989" r="24.16043" gradientTransform="matrix(0.46229, -0.01438, -0.02618, -0.47666, -27.15609, 34.69008)" gradientUnits="userSpaceOnUse"><stop offset="0.5" stop-color="#e8e0e6"/><stop offset="0.5" stop-color="#6e304b"/></radialGradient><radialGradient id="radial-gradient-2" cx="82.0384" cy="23.58525" r="9.64089" gradientTransform="matrix(-0.86379, -0.04546, 0.02944, -0.55942, 88.90465, 42.80087)" gradientUnits="userSpaceOnUse"><stop offset="0.5" stop-color="#808083"/><stop offset="0.50612" stop-color="#59595c"/></radialGradient></defs><title>-1Asset 80</title><g id="Layer_2" data-name="Layer 2"><g id="Layer_1-2" data-name="Layer 1"><rect class="cls-1" width="94.174" height="55.59459"/><path class="cls-2" d="M65.149,21.31053c-.39655,1.87332-2.08484,2.94735-1.54657,4.13522.32452.71616,1.073.62329,1.21545,1.184.32209,1.26792-3.3504,2.17136-4.15887,4.59665-.77747,2.33212,1.30029,5.46448,3.5271,7.00644.57727.39975,2.79388,1.81973,9.13244,1.05435,5.09369-.615,9.39252-1.13412,12.71058-3.98,7.10491-6.0939,7.82971-21.24115-.2403-27.87463A17.03864,17.03864,0,0,0,70.89032,4.549,10.66649,10.66649,0,0,0,64.6369,8.4871,9.18452,9.18452,0,0,0,62.98639,14.784C63.46967,18.17112,65.65131,18.93769,65.149,21.31053Z"/><path class="cls-3" d="M67.46876,20.42812c0,5.50659,3.53239,7.97645,9,7.97645s10.8-2.46986,10.8-7.97645a9.90029,9.90029,0,1,0-19.80008,0Z"/><path class="cls-4" d="M61.28263,33.04417c0,4.27061,3.035,6.18612,7.73266,6.18612s9.27919-1.91551,9.27919-6.18612-3.80828-7.73266-8.50593-7.73266S61.28263,28.77356,61.28263,33.04417Z"/><path class="cls-5" d="M70.17926,19.77484a7.00052,7.00052,0,0,1,5.68907-5.647c3.17019-.45059,6.8963,1.55951,7.27476,4.75308.37653,3.17765-2.73147,6.09084-6.02075,6.31966A6.81375,6.81375,0,0,1,70.17926,19.77484Z"/><ellipse class="cls-6" cx="75.50763" cy="19.72437" rx="2.96599" ry="3.31048" transform="translate(-1.17804 5.24122) rotate(-3.94474)"/><circle cx="75.46569" cy="20.1024" r="1.48726"/><ellipse class="cls-1" cx="75.62963" cy="18.48354" rx="0.87146" ry="0.82539" transform="translate(-1.09239 5.24669) rotate(-3.94475)"/><path class="cls-7" d="M65.149,7.5264c-2.73966,4.87749-2.44761,7.82079-1.54653,9.64889.66046,1.33992,1.81876,2.427,1.54653,4.13523-.30187,1.89393-2.10874,2.96072-1.54653,4.13524.38521.80463,1.44232.74078,1.54653,1.37841.14574.8915-1.87266,1.31-3.09306,2.75682a5.69639,5.69639,0,0,0,0,6.89206c2.0705,2.76962,5.90464,2.76162,6.18612,2.75683"/><path class="cls-7" d="M61.28263,33.04417a4.06512,4.06512,0,0,0,2.3198,0,5.09605,5.09605,0,0,0,2.31979-1.54653"/><path class="cls-8" d="M24.05214,28.03478c4.26682,6.99657,7.49932,8.121,6.779,9.68195-1.33065,2.88343-14.25318,3.14647-19.99969-4.34068-5.06554-6.59993-3.40053-17.71788.29263-19.16448,1.32947-.52078,2.768.272,4.07061.98983C19.74478,17.70889,20.28063,21.85038,24.05214,28.03478Z"/><path class="cls-9" d="M30.83111,37.71673A9.46676,9.46676,0,0,0,32.543,31.86864c0-5.46788-5.35669-4.74645-8.55022-9.30712A21.83407,21.83407,0,0,0,12.9662,14.3762c.00024.05823.00466.11371.00266.17337"/><path class="cls-10" d="M23.23471,26.93271c-.21363,1.67968-3.00458,2.67265-5.20381,2.36293S14.222,27.37319,14.43567,25.6935s2.16964-2.79025,4.36886-2.48051S23.44834,25.253,23.23471,26.93271Z"/><circle class="cls-11" cx="18.83221" cy="26.25656" r="2.23009"/><path class="cls-1" d="M19.58016,25.04769a.77764.77764,0,0,0,0,1.55526A.77764.77764,0,0,0,19.58016,25.04769Z"/><polyline class="cls-12" points="31.437 28.486 30.259 28.982 31.437 30.275 32.373 30.275"/><path class="cls-12" d="M32.653,31.741a3.90661,3.90661,0,0,1-1.63743.31016A2.93669,2.93669,0,0,1,29.332,31.631"/><path class="cls-13" d="M27.61023,30.99655a3.88673,3.88673,0,0,1-3.63237-.309"/><path class="cls-13" d="M27.46722,31.722a3.88669,3.88669,0,0,1-3.64536-.03008"/><path class="cls-13" d="M27.53952,30.45628A3.88668,3.88668,0,0,1,24.135,29.153"/><path d="M9.78274,49.30617H7.48249v2.133H10.046v.64067H6.71917V46.1637H9.914v.64067H7.48249v1.86971H9.78274Z"/><path d="M11.01349,45.84765h.77275v6.2322h-.77275Z"/><path d="M13.08646,45.84765h.77275v6.2322h-.77275Z"/><path d="M16.0188,46.63756a.47816.47816,0,0,1-.95629,0,.47015.47015,0,0,1,.482-.48244A.45845.45845,0,0,1,16.0188,46.63756Zm-.86023,5.44229V47.83142h.77275v4.24843Z"/><path d="M17.21353,49.21826c0-.54418-.01716-.98288-.03517-1.38684h.69385l.03517.72859h.01715a1.67047,1.67047,0,0,1,1.50949-.82507,1.92414,1.92414,0,0,1,1.79937,2.15916,2.01019,2.01019,0,0,1-1.9306,2.28224,1.49039,1.49039,0,0,1-1.30793-.66683h-.018v2.3084h-.76332Zm.76332,1.13255a1.78091,1.78091,0,0,0,.03516.316,1.19285,1.19285,0,0,0,1.1587.904c.8165,0,1.29078-.66726,1.29078-1.64156,0-.85123-.44769-1.57982-1.26419-1.57982a1.3409,1.3409,0,0,0-1.22045,1.27277Z"/><path d="M22.10563,51.29a2.02423,2.02423,0,0,0,1.018.307c.56177,0,.82593-.28088.82593-.6321,0-.36836-.21956-.57034-.79077-.7809-.76332-.27231-1.12353-.69342-1.12353-1.20244a1.31068,1.31068,0,0,1,1.4666-1.24661,2.11994,2.11994,0,0,1,1.04377.2633l-.193.56177a1.64893,1.64893,0,0,0-.86881-.24572c-.45628,0-.711.2633-.711.57935,0,.35121.25472.509.80791.71958.73673.28088,1.11411.64968,1.11411,1.28177,0,.74617-.57893,1.27277-1.58839,1.27277a2.4213,2.4213,0,0,1-1.19387-.28989Z"/><path d="M29.53385,49.92069A2.07618,2.07618,0,0,1,27.418,52.17634a2.01992,2.01992,0,0,1-2.03609-2.18575,2.07429,2.07429,0,0,1,2.10642-2.25565A2.01183,2.01183,0,0,1,29.53385,49.92069Zm-3.37062.04374c0,.93056.53519,1.63256,1.28993,1.63256.73759,0,1.29078-.69342,1.29078-1.65014,0-.71958-.36022-1.63256-1.27277-1.63256C26.55776,48.31429,26.16323,49.15694,26.16323,49.96443Z"/><path d="M31.3701,46.63756a.47816.47816,0,0,1-.95629,0,.47015.47015,0,0,1,.482-.48244A.45845.45845,0,0,1,31.3701,46.63756Zm-.86023,5.44229V47.83142h.77275v4.24843Z"/><path d="M36.23391,45.84765v5.13483c0,.3778.00857.80791.03516,1.09737h-.693l-.03517-.73716h-.018a1.5712,1.5712,0,0,1-1.44859.83365,1.93655,1.93655,0,0,1-1.81653-2.15916,2.03218,2.03218,0,0,1,1.90487-2.28224,1.41975,1.41975,0,0,1,1.28135.64968h.01715v-2.537Zm-.77276,3.71282a1.39279,1.39279,0,0,0-.0343-.32462,1.13745,1.13745,0,0,0-1.115-.8954c-.79934,0-1.27277.70242-1.27277,1.64156,0,.86024.42112,1.57124,1.25476,1.57124a1.16183,1.16183,0,0,0,1.133-.92156,1.37465,1.37465,0,0,0,.0343-.33363Z"/><path d="M65.79557,51.88688a3.7915,3.7915,0,0,1-1.56266.28088A2.76512,2.76512,0,0,1,61.31,49.17452a2.94443,2.94443,0,0,1,3.09015-3.10731,3.16442,3.16442,0,0,1,1.404.2633l-.18354.6231a2.78645,2.78645,0,0,0-1.19387-.24572,2.1999,2.1999,0,0,0-2.30882,2.44,2.1503,2.1503,0,0,0,2.27366,2.37872,3.05591,3.05591,0,0,0,1.24618-.24572Z"/><path d="M67.56236,46.63756a.47816.47816,0,0,1-.9563,0,.47015.47015,0,0,1,.482-.48244A.45845.45845,0,0,1,67.56236,46.63756Zm-.86024,5.44229V47.83142h.77275v4.24843Z"/><path d="M68.75794,49.15694c0-.50044-.00858-.93056-.03517-1.32552h.67584l.02659.83408h.03516a1.27383,1.27383,0,0,1,1.17586-.93056.8329.8329,0,0,1,.21956.02616v.72858a1.15791,1.15791,0,0,0-.2633-.02616,1.08428,1.08428,0,0,0-1.03606.99189,2.21969,2.21969,0,0,0-.03431.35979v2.26465h-.76417Z"/><path d="M74.57032,51.922a2.84759,2.84759,0,0,1-1.22046.24572,2.0183,2.0183,0,0,1-2.115-2.16817,2.15881,2.15881,0,0,1,2.28224-2.25608,2.582,2.582,0,0,1,1.07036.21956l-.175.59694a1.79058,1.79058,0,0,0-.8954-.202,1.60173,1.60173,0,0,0-.02659,3.19522,2.19052,2.19052,0,0,0,.94772-.21056Z"/><path d="M79.031,50.92115c0,.43913.00857.82507.03516,1.1587h-.68441l-.04374-.69342H78.32a1.59757,1.59757,0,0,1-1.404.78991c-.66726,0-1.4666-.36879-1.4666-1.8607V47.83142h.77275V50.184c0,.80749.24615,1.35168.94772,1.35168a1.11747,1.11747,0,0,0,1.0189-.70243,1.13172,1.13172,0,0,0,.06947-.395V47.83142H79.031Z"/><path d="M80.31494,45.84765h.77275v6.2322h-.77275Z"/><path d="M84.74048,52.07985l-.06176-.53561H84.653a1.58381,1.58381,0,0,1-1.29935.6321,1.2105,1.2105,0,0,1-1.29936-1.22c0-1.027.91341-1.58882,2.55412-1.57982v-.08791a.87544.87544,0,0,0-.96487-.98331,2.11849,2.11849,0,0,0-1.10639.316l-.17582-.509a2.63948,2.63948,0,0,1,1.39627-.37737c1.29851,0,1.615.88639,1.615,1.73805v1.58882a5.92842,5.92842,0,0,0,.07033,1.018Zm-.11407-2.16817c-.84309-.01758-1.79938.13166-1.79938.95673a.68364.68364,0,0,0,.72816.73759,1.05821,1.05821,0,0,0,1.02748-.711.82422.82422,0,0,0,.04374-.24572Z"/><path d="M86.62133,49.15694c0-.50044-.00858-.93056-.03517-1.32552H87.262l.02659.83408h.03516a1.27383,1.27383,0,0,1,1.17586-.93056.8329.8329,0,0,1,.21956.02616v.72858a1.15785,1.15785,0,0,0-.2633-.02616,1.08429,1.08429,0,0,0-1.03606.99189,2.21975,2.21975,0,0,0-.0343.35979v2.26465h-.76418Z"/></g></g></svg>