<svg xmlns="http://www.w3.org/2000/svg" viewBox="0 0 378.23099 79.05958">
  <defs>
    <style>
      .cls-1, .cls-2 {
        fill: #005d98;
      }

      .cls-2 {
        fill-rule: evenodd;
      }
    </style>
  </defs>
  <title>-1Asset 1</title>
  <g id="Layer_2" data-name="Layer 2">
    <g id="Layer_1-2" data-name="Layer 1">
      <g>
        <path class="cls-1" d="M167.793,26.8809l-7.7617-11.6026-.87989-1.3603-.04011.0195.02011,1.6211V26.8809h-1.20021V11.877h1.2998l7.5019,11.3232.8799,1.3604.0401-.0205-.0401-1.6006-.02-11.0625h1.1807V26.8809Z"/>
        <path class="cls-1" d="M178.17189,27.1611c-4.3208,0-5.981-2.2207-5.981-7.7822s1.6402-7.7412,5.981-7.7412c4.3613,0,5.9814,2.1797,5.9814,7.7412C184.15329,24.96,182.53319,27.1611,178.17189,27.1611Zm0-14.2636c-3.3003,0-4.6206,1.4209-4.6206,6.4814,0,5.041,1.3203,6.502,4.6406,6.502,3.3008,0,4.6011-1.461,4.6011-6.502C182.793,14.3184,181.49269,12.8975,178.17189,12.8975Z"/>
        <path class="cls-1" d="M193.61179,19.8994l4.1812,6.9815H196.1924l-3.84081-6.7412h-3.481v6.7412h-1.3198V11.877h4.8608c3.021,0,4.4009,1.3203,4.4009,4.0615C196.81249,18.3789,195.6924,19.6592,193.61179,19.8994Zm-1.2002-6.8418h-3.541v6.001h3.4209c2.1807,0,3.1607-.8799,3.1607-3.0605C195.45219,13.8975,194.51219,13.0576,192.41159,13.0576Z"/>
        <path class="cls-1" d="M205.31149,26.8809h-4.9209V11.877h4.9014c4.4199,0,6.3008,2.1211,6.3008,7.4424C211.59279,24.7998,209.57229,26.8809,205.31149,26.8809Zm-.0605-13.7237H201.71V25.6201h3.5615c3.3008,0,4.9404-1.3398,4.9404-6.3007C210.21189,14.5781,208.73149,13.1572,205.251,13.1572Z"/>
        <path class="cls-1" d="M215.27049,11.877h1.3203V26.8809h-1.3203Z"/>
        <path class="cls-1" d="M229.93259,13.5781a8.11159,8.11159,0,0,0-3.2617-.6806c-3.4199,0-5.02049,1.5605-5.02049,6.3213,0,5.081,1.62009,6.6816,5.08109,6.6816a6.80138,6.80138,0,0,0,3.2402-.7803l.22071,1.1407a8.20013,8.20013,0,0,1-3.62111.9003c-4.3613,0-6.2812-2.4209-6.2812-7.9423,0-5.2608,1.9609-7.5811,6.3212-7.5811a9.11049,9.11049,0,0,1,3.501.7197Z"/>
        <path class="cls-1" d="M248.73149,24.4199l-.0596,2.461h-9.9023V11.877h9.6025l.0391,2.5009h-6.8809V17.999h5.8418v2.2598h-5.8418v4.1611Z"/>
        <path class="cls-1" d="M254.07029,11.877l3.8409,9.5625.58,1.5h.0606l.5595-1.5,3.8809-9.5625h3.0606V26.8809h-2.5206V18.2188l.0401-1.6202-.0596-.0205-.5801,1.5205-3.5214,8.7823h-1.8809l-3.5-8.7823-.5801-1.5205-.04.0205.0205,1.6202v8.6621h-2.4414V11.877Z"/>
        <path class="cls-1" d="M275.1514,26.8809H269.169V11.877h5.8222c3.1407,0,4.70121,1.3808,4.70121,3.8017a3.15933,3.15933,0,0,1-2.02151,3.2403v.04a3.35454,3.35454,0,0,1,2.5811,3.6006C280.252,25.2402,278.77149,26.8809,275.1514,26.8809Zm-.26081-12.6231h-3.0605v3.8809h3.1807c1.4004,0,2.041-.6201,2.041-1.96C277.05179,14.7783,276.39159,14.2578,274.89059,14.2578Zm.21981,5.9815h-3.28031v4.3213h3.3408c1.541,0,2.3203-.5411,2.3203-2.2207C277.49119,20.8789,276.792,20.2393,275.1104,20.2393Z"/>
        <path class="cls-1" d="M292.07129,24.3399l-.0605,2.541H282.749V11.877h2.7813V24.3399Z"/>
        <path class="cls-1" d="M162.71189,41.8194H159.251v6.0615h-1.3198V32.877h4.7807c3.4009,0,4.8809,1.3203,4.8809,4.4609C167.59279,40.3594,166.15289,41.8194,162.71189,41.8194Zm0-7.7618H159.251v6.6211h3.4609c2.3404,0,3.5411-.7998,3.5411-3.3408C166.253,34.9375,165.11229,34.0576,162.71189,34.0576Z"/>
        <path class="cls-1" d="M178.43309,43.9199H171.2114l-1.42041,3.961h-1.4204l5.7012-15.0039h1.5605l5.7012,15.0039H179.853Zm-4.1211-8.5214-2.66059,7.3408h6.36129l-2.6206-7.3408-.5-1.5411h-.06Z"/>
        <path class="cls-1" d="M189.91209,40.8994l4.1812,6.9815h-1.6006l-3.8408-6.7412h-3.481v6.7412h-1.3198V32.877h4.8608c3.02051,0,4.4009,1.3203,4.4009,4.0615C193.11279,39.3789,191.99269,40.6592,189.91209,40.8994Zm-1.2002-6.8418h-3.541v6.001h3.4209c2.1807,0,3.1607-.8799,3.1607-3.0605C191.75249,34.8975,190.81249,34.0576,188.71189,34.0576Z"/>
        <path class="cls-1" d="M200.83109,34.1572V47.8809h-1.3203V34.1572h-4.7007l.04-1.2802h10.6821l.0206,1.2802Z"/>
        <path class="cls-1" d="M217.81249,47.8809l-7.7617-11.6026-.8799-1.3603-.04.0195.02051,1.6211V47.8809h-1.20121V32.877h1.3008l7.502,11.3232.8789,1.3604.041-.0205-.041-1.6006-.0196-11.0625h1.1807V47.8809Z"/>
        <path class="cls-1" d="M232.292,46.6406l-.05959,1.2403h-9.20211V32.877h8.8418l.0605,1.2412h-7.6015V39.459h6.581v1.1201h-6.581v6.0615Z"/>
        <path class="cls-1" d="M241.41119,40.8994l4.1816,6.9815h-1.6006l-3.84079-6.7412h-3.48051v6.7412h-1.3203V32.877h4.8613c3.0196,0,4.4004,1.3203,4.4004,4.0615C244.61229,39.3789,243.49219,40.6592,241.41119,40.8994Zm-1.1993-6.8418h-3.541v6.001h3.4199c2.1817,0,3.1612-.8799,3.1612-3.0605C243.252,34.8975,242.31149,34.0576,240.21189,34.0576Z"/>
        <path class="cls-1" d="M251.39159,48.1611A7.9783,7.9783,0,0,1,247.12989,47l.2402-1.2402a7.04152,7.04152,0,0,0,4.0215,1.1611c2.3799,0,3.5996-1.1611,3.5996-3.1015,0-4.0206-7.7011-2.2598-7.7011-7.2012,0-2.2608,1.4404-3.9805,4.6611-3.9805a9.0662,9.0662,0,0,1,3.8408.7998l-.2402,1.1807a8.779,8.779,0,0,0-3.541-.7608c-2.4805,0-3.461,1.2608-3.461,2.6807,0,3.8213,7.7227,2.0205,7.7227,7.2012C256.27249,46.4805,254.59179,48.1611,251.39159,48.1611Z"/>
        <path class="cls-1" d="M268.67189,47.8809V40.6592H260.5694v7.2217H259.25V32.877h1.31941v6.542h8.10249V32.877h1.3203V47.8809Z"/>
        <path class="cls-1" d="M274.50979,32.877h1.3203V47.8809h-1.3203Z"/>
        <path class="cls-1" d="M285.12989,41.8194H281.669v6.0615h-1.3194V32.877h4.7803c3.4014,0,4.8809,1.3203,4.8809,4.4609C290.01079,40.3594,288.57129,41.8194,285.12989,41.8194Zm0-7.7618H281.669v6.6211h3.4609c2.3408,0,3.541-.7998,3.541-3.3408C288.67089,34.9375,287.53029,34.0576,285.12989,34.0576Z"/>
        <path class="cls-1" d="M300.58889,34.1572v5.4219h6.3623v1.2002h-6.3623v7.1016h-1.3193V32.877h8.8417l.04011,1.2802Z"/>
        <path class="cls-1" d="M315.95019,48.1611c-4.3203,0-5.9805-2.2207-5.9805-7.7822s1.63971-7.7412,5.9805-7.7412c4.3613,0,5.9824,2.1797,5.9824,7.7412C321.93259,45.96,320.31149,48.1611,315.95019,48.1611Zm0-14.2636c-3.30079,0-4.6211,1.4209-4.6211,6.4814,0,5.041,1.32031,6.502,4.6406,6.502,3.3008,0,4.6016-1.461,4.6016-6.502C320.57129,35.3184,319.27049,33.8975,315.95019,33.8975Z"/>
        <path class="cls-1" d="M331.39109,40.8994l4.1797,6.9815h-1.5996l-3.84179-6.7412h-3.48051v6.7412h-1.3203V32.877H330.19c3.02141,0,4.40041,1.3203,4.40041,4.0615C334.5904,39.3789,333.47119,40.6592,331.39109,40.8994ZM330.19,34.0576h-3.5411v6.001h3.4219c2.1797,0,3.1602-.8799,3.1602-3.0605C333.231,34.8975,332.28959,34.0576,330.19,34.0576Z"/>
        <path class="cls-1" d="M159.49119,53.877l4.74121,11.6631.58009,1.5h.0601l.56-1.5L170.1734,53.877h1.54049V68.8809h-1.1802V57.6582l.0401-1.6201-.0601-.0205-.5801,1.5205-4.6211,11.3428h-1L159.6914,57.5986l-.58011-1.5205-.04.0196.02,1.6201V68.8809h-1.1601V53.877Z"/>
        <path class="cls-1" d="M181.11179,69.1611c-4.3208,0-5.9809-2.2207-5.9809-7.7822s1.6401-7.7412,5.9809-7.7412c4.3614,0,5.9815,2.1797,5.9815,7.7412C187.09329,66.96,185.47319,69.1611,181.11179,69.1611Zm0-14.2636c-3.3003,0-4.6206,1.4209-4.6206,6.4814,0,5.041,1.3203,6.502,4.6407,6.502,3.3007,0,4.601-1.461,4.601-6.502C185.73289,56.3184,184.43259,54.8975,181.11179,54.8975Z"/>
        <path class="cls-1" d="M199.253,67.6006l-.06059,1.2803h-8.70121V53.877h1.3199V67.6006Z"/>
        <path class="cls-1" d="M211.07329,67.6406l-.0606,1.2403h-9.2012V53.877h8.8418l.0596,1.2412H203.1104V60.459h6.582v1.1201h-6.582v6.0615Z"/>
        <path class="cls-1" d="M222.753,55.5781a8.11247,8.11247,0,0,0-3.2618-.6806c-3.4199,0-5.0205,1.5605-5.0205,6.3213,0,5.081,1.6201,6.6816,5.0811,6.6816a6.80138,6.80138,0,0,0,3.2402-.7803l.2207,1.1407a8.2,8.2,0,0,1-3.6211.9003c-4.3613,0-6.28119-2.4209-6.28119-7.9423,0-5.2608,1.96089-7.5811,6.32129-7.5811a9.11028,9.11028,0,0,1,3.5009.7197Z"/>
        <path class="cls-1" d="M236.67289,63.459c0,4.0215-2.041,5.7021-5.52149,5.7021-3.5,0-5.541-1.6806-5.541-5.7021V53.877h1.32029v9.582c0,3.0811,1.4004,4.4219,4.22071,4.4219,2.80079,0,4.20119-1.3809,4.20119-4.4219V53.877h1.3203Z"/>
        <path class="cls-1" d="M249.333,67.6006l-.0605,1.2803h-8.7012V53.877h1.3193V67.6006Z"/>
        <path class="cls-1" d="M260.23149,64.9199h-7.2207l-1.4209,3.961H250.169l5.7011-15.0039h1.5606l5.7012,15.0039H261.6514Zm-4.12109-8.5214-2.66021,7.3408h6.3613l-2.621-7.3408-.5-1.5411h-.0596Z"/>
        <path class="cls-1" d="M271.71189,61.8994l4.1807,6.9815H274.292l-3.8408-6.7412h-3.4815v6.7412H265.6504V53.877h4.86039c3.0214,0,4.4013,1.3203,4.4013,4.0615C274.91209,60.3789,273.792,61.6592,271.71189,61.8994Zm-1.2011-6.8418h-3.5411v6.001h3.4219c2.1797,0,3.1602-.8799,3.1602-3.0605C273.55179,55.8975,272.61229,55.0576,270.51079,55.0576Z"/>
        <path class="cls-1" d="M286.25,53.877l4.7412,11.6631.5801,1.5h.0606l.55951-1.5,4.74119-11.6631h1.5401V68.8809H297.292V57.6582l.041-1.6201-.0605-.0205-.58009,1.5205-4.62111,11.3428h-1l-4.6211-11.2823-.5801-1.5205-.04.0196.0205,1.6201V68.8809h-1.1601V53.877Z"/>
        <path class="cls-1" d="M311.97169,67.6406l-.0605,1.2403H302.71V53.877h8.8418l.0605,1.2412h-7.6015V60.459h6.58v1.1201h-6.58v6.0615Z"/>
        <path class="cls-1" d="M319.95019,68.8809h-4.9199V53.877h4.9004c4.4194,0,6.3003,2.1211,6.3003,7.4424C326.231,66.7998,324.2114,68.8809,319.95019,68.8809Zm-.0605-13.7237h-3.5391V67.6201h3.5606c3.30021,0,4.9409-1.3398,4.9409-6.3007C324.85209,56.5781,323.37159,55.1572,319.88969,55.1572Z"/>
        <path class="cls-1" d="M329.90869,53.877h1.3203V68.8809h-1.3203Z"/>
        <path class="cls-1" d="M344.57079,55.5781a8.112,8.112,0,0,0-3.2617-.6806c-3.4199,0-5.0195,1.5605-5.0195,6.3213,0,5.081,1.6191,6.6816,5.0801,6.6816a6.79572,6.79572,0,0,0,3.2402-.7803l.2207,1.1407a8.20041,8.20041,0,0,1-3.6211.9003c-4.3613,0-6.2813-2.4209-6.2813-7.9423,0-5.2608,1.961-7.5811,6.3223-7.5811a9.10551,9.10551,0,0,1,3.5.7197Z"/>
        <path class="cls-1" d="M348.04929,53.877h1.3204V68.8809h-1.3204Z"/>
        <path class="cls-1" d="M363.75049,68.8809l-7.7617-11.6026-.8809-1.3603-.039.0195.01951,1.6211V68.8809h-1.19921V53.877h1.2988l7.502,11.3232.8808,1.3604.0391-.0205-.0391-1.6006-.0195-11.0625h1.1797V68.8809Z"/>
        <path class="cls-1" d="M378.231,67.6406l-.06059,1.2403h-9.20111V53.877h8.8418l.0586,1.2412h-7.6016V60.459h6.582v1.1201h-6.582v6.0615Z"/>
      </g>
      <g>
        <path class="cls-2" d="M10.3086,60.9707c.1724-.0859.1694.0362.1939.1621-.231.0244-.4463.0469-.7149.0752.1084.1319.1738.2119.2578.3135-.1132.0498-.209.0977-.3081.1338-.541.1982-1.0879.3818-1.6245.5918-.4346.1699-.8594.3662-1.2847.5596a2.9116,2.9116,0,0,1-.7685.3125.8289.8289,0,0,0-.7007.6367c-.019-.0957-.0376-.1934-.0703-.3633a2.12743,2.12743,0,0,0-.1289.2266,1.00555,1.00555,0,0,1-.8086.6347c-.2236.043-.4531.0537-.6792.0869-.293.044-.5938.0752-.7481.4327a2.41886,2.41886,0,0,0-1.0253-.627c-.1202-.0508-.2403-.1035-.3555-.1641a.6252.6252,0,0,1-.3901-.5507c-.1045.0644-.1895.1152-.2872.1767-.0317-.1875.0874-.2764.1954-.3613.1367-.1065.2861-.1983.4292-.2979a.78524.78524,0,0,0,.4296-.5898c.4629-.082.9102-.1641,1.3931-.251-.0688-.1797-.1279-.3359-.1948-.5117.0498-.0967.2881-.1397.1255-.3467.2763-.0762.5263-.1426.7763-.2129a13.11319,13.11319,0,0,0,3.2442-1.5078c.7524-.457,1.5068-.9141,2.2749-1.3447a10.07209,10.07209,0,0,1,2.1919-.919c.2329-.0664.2314-.0722.2055-.3281.252-.0098.3462-.166.355-.4043a1.98326,1.98326,0,0,1,.0767-.3467c.3896.0948.7529.1827,1.1123.2696.2031-.2393-.0068-.3701-.1294-.5508a2.70309,2.70309,0,0,1,.3457-.1885c.5508-.2021,1.1011-.4043,1.6582-.5898a8.49947,8.49947,0,0,0,1.6392-.6348c.122-.0703.2421-.1445.3598-.2246.2495-.167.3257-.1504.4717.1289.0557.1074.0928.2266.2642.1934-.0386-.0918-.1255-.1993-.1016-.2676a.61843.61843,0,0,1,.2319-.2578c.1578-.1133.3365-.2002.4976-.3106.123-.084.2334-.1855.3809-.3056a2.02419,2.02419,0,0,0,1.0141-.0557c.0318-.0078.064-.0147.0957-.0195.4927-.0821.6099-.0196.8101.4277.3886-.0479.4594-.2461.2114-.6328.0908-.0381.1792-.0762.2681-.1133.0874-.0352.1748-.0713.3178-.1309a8.42867,8.42867,0,0,1-2.0092-1.5546c.0844.0507.1679.1015.2524.1533l.0386-.0459c-.2696-.2539-.5503-.4981-.8057-.7647a7.92089,7.92089,0,0,1-.6919-.8447,14.50842,14.50842,0,0,0,3.5171,2.2734,1.60637,1.60637,0,0,0,.2261.0528.86712.86712,0,0,0-.1089-.0977,11.957,11.957,0,0,1-2.5112-1.9668c-.1646-.1572-.3477-.2949-.521-.4433-.6192-.5313-1.2495-1.0489-1.8526-1.5977a2.29533,2.29533,0,0,1-.6049-1.2422.62645.62645,0,0,1,.0371-.2109l.2983.1269c.0039-.0195.0186-.0459.0107-.0586a2.80422,2.80422,0,0,1-.3037-1.2861c-.0527-.7373-.1308-1.4736-.2153-2.208a16.00228,16.00228,0,0,1,.019-2.7358,7.10732,7.10732,0,0,1,1.1841-3.2681,1.29959,1.29959,0,0,1,.856-.689c.0757-.0146.1372-.1255.1958-.1997.4878-.623.9731-1.2485,1.4658-1.8808.0874.0796.1655.1513.2544.2329a3.11213,3.11213,0,0,0,.6538-1.1656c.0117-.0415.0352-.0918.0225-.1264-.0972-.2647.0761-.4458.1899-.6465a9.73753,9.73753,0,0,0,.981-2.7554,2.17742,2.17742,0,0,0,.0034-.415c-.2324.1299-.2046.3657-.335.5088-.0283-.7857-.0561-1.564-.0854-2.3789.0815.2202.1469.4126.2241.601.041.1001.104.2305.2295.1744.0952-.0415.1611-.1592.2275-.2515.02-.0283.0039-.085-.0014-.1279a4.85174,4.85174,0,0,0-.4063-1.5391,2.89007,2.89007,0,0,0-1.0234-1.0762c-.2603-.1787-.5357-.3354-.7886-.5234-.4702-.3491-.9287-.7144-1.3921-1.0723l.0327-.0649c.1114.0283.2232.0576.4004.103-.0952-.1016-.1484-.1582-.2021-.2143a7.31321,7.31321,0,0,1-2.1509-5.1695,6.71245,6.71245,0,0,1,.7969-3.1001c.0297-.0581.06-.1157.0932-.1723a6.17519,6.17519,0,0,1,1.0855-1.4937c.4863-.4502.9145-.9619,1.3774-1.437a6.62,6.62,0,0,1,.6089-.542c.5532-.4409,1.1128-.8745,1.6714-1.3081.1372-.1064.2803-.2051.4355-.3184.0337.0386.0616.0718.0992.1158a6.97461,6.97461,0,0,1,4.4047-.8379c.2701.0302.5415.1718.8238.0259.0425-.0215.1264.0205.1845.0478.4122.1953.8282.3838,1.231.5977a2.74088,2.74088,0,0,1,.3931.3305,1.89145,1.89145,0,0,0,.2378.1675,13.84565,13.84565,0,0,1,2.8457,2.2266c.0703.0717.1772.1245.1806.2944a2.79965,2.79965,0,0,1-.5508-.502c-.1967-.1718-.3803-.3579-.5771-.5292-.189-.1636-.3843-.3218-.582-.4747-.1983-.1523-.4019-.2988-.6075-.4419-.205-.1425-.4145-.2792-.625-.415q-.3288-.2124-.6626-.418a3.46538,3.46538,0,0,0-.665-.3413c.0405.0943.0806.1885.1294.3023-.0879.0151-.1636.0283-.2744.0469.0771.0454.1221.0751.1694.0986a15.51221,15.51221,0,0,1,5.232,4.2432,7.79311,7.79311,0,0,1,1.1059,1.8784,5.07542,5.07542,0,0,1,.3374,2.4956,8.5886,8.5886,0,0,1-.7153,2.5981,2.19011,2.19011,0,0,1-.6211.877c-.0078.0073-.0191.0141-.023.0234-.2358.5859-.7885.9507-1.0698,1.5464-.0703-.2583.0781-.4248.1558-.6064a3.13559,3.13559,0,0,0,.2285-.5967.86153.86153,0,0,0-.1558.1567A11.78948,11.78948,0,0,1,32.19,25.2608c-.0767.0805-.1968.1479-.1475.3002.0078.024-.0347.0743-.0654.0987a3.041,3.041,0,0,0-1.0235,2.3457,8.8253,8.8253,0,0,0,.5435,4.0185l-.2393-.1372a2.24563,2.24563,0,0,0,.1045.3018c.3023.5654.5869,1.1426.9234,1.6875a7.57164,7.57164,0,0,0,.7563.9375c.2632.3037.565.5771.8096.895a7.03634,7.03634,0,0,1,.583.939,1.6715,1.6715,0,0,0,.5566.664.96612.96612,0,0,0,.9541.1265,2.32036,2.32036,0,0,1,.5381-.0781,2.37864,2.37864,0,0,0,.3169-.0606c.2197-.062.4365-.1357.6553-.1997a.61417.61417,0,0,1,.4409-.0229.54929.54929,0,0,0,.4907-.1148,3.44223,3.44223,0,0,0,1.0498-1.0571,5.78765,5.78765,0,0,0,.6421-1.4243c.4414-1.4224.8731-2.8477,1.3076-4.2725a.2027.2027,0,0,0-.0258-.1753q-.15015.24255-.3003.4829a2.02752,2.02752,0,0,1,.3491-.9184c.5669-.731,1.1401-1.4561,1.7021-2.19.1582-.2075.2793-.4414.4312-.6533.3154-.4414.6396-.876.9722-1.3291.0737.0518.1128.0796.1513.1074.0225.022.0445.044.0664.0664a1.98249,1.98249,0,0,1,.106-.2011c.2856-.4234.5757-.8438.8618-1.2676.1333-.1978.2637-.3975.3882-.6006a1.06235,1.06235,0,0,0,.1001-.2378,10.53445,10.53445,0,0,0,.4673-3.0859,2.10229,2.10229,0,0,0-.2427-1.0987,2.07114,2.07114,0,0,1-.1563-.663,1.9493,1.9493,0,0,0-.8017-1.2574,3.73834,3.73834,0,0,1-1.2217-1.3437c.2598.2441.5127.4961.7817.7305.274.2392.563.4614.8457.6909.0186-.0181.0372-.0357.0552-.0537a.63413.63413,0,0,0-.1177-.1612,19.0622,19.0622,0,0,1-1.9951-1.9155c-.0942-.0898-.1787-.1909-.271-.2837a7.313,7.313,0,0,1-1.9033-3.9643,10.03824,10.03824,0,0,1,.2007-2.979,3.51138,3.51138,0,0,1,.2012-.4048,13.64938,13.64938,0,0,1,1.146-1.9737c.3872-.5786.7758-1.1567,1.1606-1.7368a4.50214,4.50214,0,0,1,1.106-1.1889c.2719-.1963.5781-.3443.8603-.5274a2.59271,2.59271,0,0,0,.3101-.2783c.1523-.1387.2954-.2905.4604-.4136A6.92767,6.92767,0,0,1,50.3374.0694,2.63676,2.63676,0,0,0,50.6167,0h1.1104c.2441.0459.4912.0801.7319.1406.1792.0454.3755.0293.5171.2193.0762.1015.2612.1211.3838.2187q-.24465-.05925-.4873-.1191l-.0127.0381c.0923.0346.185.0678.2764.1035a16.329,16.329,0,0,1,4.7539,2.8037,2.651,2.651,0,0,1,.2739.2788c.0405.0469.0996.1304.0825.167-.0923.2065.0513.3296.1523.46a19.49451,19.49451,0,0,1,1.5972,2.3828c.0308.0547.0713.103.1372.1963.0562-.2603-.1025-.4361-.0405-.6543a4.66364,4.66364,0,0,1,.3247.6972c.1338.4693.229.9493.3311,1.4268.0498.2339.0771.4717.1196.707a6.26692,6.26692,0,0,1-.4907,3.7573,8.18842,8.18842,0,0,1-.96,1.6265,13.4872,13.4872,0,0,1-2.0684,2.2568,4.08883,4.08883,0,0,0-.4643.5401.30851.30851,0,0,1-.0298.0454,2.206,2.206,0,0,0-.269.271,3.71467,3.71467,0,0,0-.6143,2,10.595,10.595,0,0,0,.4097,3.4189c.0732.2603.1191.5288.1963.7881a3.3945,3.3945,0,0,0,.9443,1.6109c.2666.2407.5156.4995.771.7524.0581.0571.1103.1206.2124.2334-.1792-.0762-.2915-.1235-.4043-.1709l-.0254.0366c.0508.063.0981.1294.1533.188.2617.2769.5269.5503.7871.8281a.66629.66629,0,0,1,.2598.4278c.0049.0903.1108.1821.1846.2607a8.62852,8.62852,0,0,1,1.5117,2.4243,38.55254,38.55254,0,0,1,1.3686,3.938.61327.61327,0,0,1,.0157.1006,1.18891,1.18891,0,0,1-.3316-.5937q-.1728-.594-.3672-1.1832a1.572,1.572,0,0,0-.2485-.4667c.0127.0615.0225.123.0381.184.0854.334.167.6661.2275,1.0078a5.76591,5.76591,0,0,0,.7578,1.9332,1.31893,1.31893,0,0,0,.3057.2675c.04.0347.082.0655.1187.1026a.54293.54293,0,0,1,.0556.08,2.85324,2.85324,0,0,0,2.3482,1.3736c.313.0097.6235.0693.9487.1074-.021.0552-.0327.0889-.0537.147.2617.0229.5171.0459.7895.0703-.0874.0493-.1733.0976-.2895.1626a.45254.45254,0,0,0,.5776-.2188c.1162-.2089.2168-.4262.3321-.6357a5.65223,5.65223,0,0,1,.4868-.8403c.3335-.4141.7114-.7925,1.0761-1.1807.085-.0908.1612-.1982.3287-.166.0532.0107.1386-.0889.1948-.1514a3.79589,3.79589,0,0,0,.6753-1.1094c.1928-.4614.3847-.9233.5713-1.3872a.64451.64451,0,0,0,.042-.3515q-.1143.22695-.2286.4546l-.0473-.0157c.1045-.4384.1958-.8803.3159-1.3139a6.82569,6.82569,0,0,0,.1997-2.4263c-.0117-.1392-.0127-.3589-.0908-.3984-.2324-.1187-.1997-.3286-.2398-.5054a3.852,3.852,0,0,0-.9189-1.7734c-.5552-.6138-1.0943-1.2408-1.6343-1.8672-.1982-.23-.3789-.4756-.5688-.7154-.1079.1514-.1905.1709-.2754.0625a1.76357,1.76357,0,0,1-.1338-.2241,10.52641,10.52641,0,0,1-1.0122-2.6543c.0454-.0483.1142-.0908.1098-.1221-.0356-.2363-.0966-.4687-.1269-.705-.0308-.2417-.1641-.4922.0434-.7261.0254-.0278-.0048-.1045-.0068-.1587a5.48981,5.48981,0,0,1,1.0059-3.3794c-.0362.0855-.0743.1699-.107.2564a.58924.58924,0,0,0-.0478.2915q.4944-.78375.9902-1.5664c.02.0112.041.0219.0615.0327-.1015.1841-.2036.3691-.3047.5537a32.56956,32.56956,0,0,1,3.2505-3.4776.76673.76673,0,0,0-.4184.2417c-.1118.086-.2158.1831-.3213.2764-.1099.0967-.2183.1948-.3267.2925l-.0605-.0498c.0376-.0684.0752-.1362.1118-.2036.0742-.0645.1494-.1309.2241-.1973.3975-.3193.7915-.6431,1.1939-.957a3.49876,3.49876,0,0,1,.5366-.3633,8.92435,8.92435,0,0,1,2.5991-.9292,6.378,6.378,0,0,1,3.9253.6328,5.508,5.508,0,0,1,1.4434.9985q1.41645,1.3734,2.8032,2.7779c.2817.2846.5278.6045.8066.9272.0699-.1284-.0112-.1987-.0542-.2695-.1167-.1929-.2412-.3814-.3618-.5713l-.0068.0063c.0278.0132.0644.0186.082.0401a8.84744,8.84744,0,0,1,1.791,3.3389,5.89041,5.89041,0,0,1,.0283,2.8125c-.0229.0976-.0576.1918-.0961.3203-.0254-.0972-.0406-.1553-.0591-.2285a8.45079,8.45079,0,0,0-.6309,1.3334c-.1548.417-.3638.8135-.5434,1.2217a2.49979,2.49979,0,0,1-.6788.9449,1.32385,1.32385,0,0,0-.226.2758,12.12575,12.12575,0,0,1-1.5303,1.9053,2.28253,2.28253,0,0,0-.4893.6855c-.2255.502-.4057,1.0259-.5957,1.5435a5.14741,5.14741,0,0,0-.0048,2.9502,9.4859,9.4859,0,0,0,.7309,2.1577,7.3566,7.3566,0,0,0,1.251,1.7822c.623.668,1.1889,1.3887,1.8193,2.0494a7.5053,7.5053,0,0,1,1.6988,3.3911,7.73139,7.73139,0,0,0,.9106,2.1557,4.62155,4.62155,0,0,0,1.4961,1.5244,2.69542,2.69542,0,0,0,1.5561.3907,5.46116,5.46116,0,0,0,4.0635-1.9981,2.05152,2.05152,0,0,0,.5362-1.3301c.0156-.684.0346-1.3681.0507-1.9936-.0009-.0034.0171.0625.0493.1821a2.05574,2.05574,0,0,0,.0035-1.0542,1.72159,1.72159,0,0,0-.4146-1.0102.52867.52867,0,0,1-.1011-.2354,1.02066,1.02066,0,0,0-.3989-.542c-.0464-.0361-.1269-.0259-.1909-.0429a.34244.34244,0,0,1-.1387-.0533,3.27421,3.27421,0,0,1-.4272-.4018c-.482-.603-.9639-1.208-1.4219-1.8291a9.02538,9.02538,0,0,1-1.5439-3.0733,6.04774,6.04774,0,0,1-.19-2.2954.48255.48255,0,0,0,.0103-.1621,2.33417,2.33417,0,0,1,.4028-1.6279c.1563-.3184.3657-.6094.5488-.9146a.41154.41154,0,0,0,.0576-.228q-.1749.18015-.3505.3599l-.0533-.0352a.93771.93771,0,0,1,.0601-.167,12.5124,12.5124,0,0,1,6.1841-5.5781,6.491,6.491,0,0,1,4.9668-.0332,5.99465,5.99465,0,0,1,1.0674.5547c.7241.4624,1.4301.9526,2.1425,1.4341a.36654.36654,0,0,1,.168.2177c.0278.0982.1528.1734.2441.2466a8.71177,8.71177,0,0,1,2.9439,4.334,7.94588,7.94588,0,0,1,.1938,3.4595.56211.56211,0,0,1-.0659.2119c-.3442.5659-.7021,1.123-1.0395,1.6929a12.7295,12.7295,0,0,1-1.6704,2.3296,5.39081,5.39081,0,0,1-.6719.6176,4.2593,4.2593,0,0,0-1.7041,2.8355,9.32057,9.32057,0,0,0,.3852,4.7934,8.3498,8.3498,0,0,0,1.2115,2.1543,1.40076,1.40076,0,0,0,.207.2061,4.77239,4.77239,0,0,1,1.6299,3.001,5.85981,5.85981,0,0,1-.6968,3.5586c-.0518.1064-.1094.2109-.1787.3427.0859.0528.1641.1065.2466.1494.0859.045.1767.0811.2812.129-.0581.3173.1446.4443.3994.5234.2066.0644.4146.1289.6265.1758.0776.0156.188.0761.2402-.0801.0127-.0371.1841-.0508.2686-.0274a2.26039,2.26039,0,0,1,.3696.1729c-.0073.0225-.0141.0439-.0215.0654-.1494-.0195-.2993-.041-.5019-.0703a1.79091,1.79091,0,0,0,.1499.2012,3.11415,3.11415,0,0,0,1.4722.7285c.3989.1065.8017.1982,1.1982.3145a1.7879,1.7879,0,0,1,.3618.1992c.0278.0156.0503.0459.0791.0527a9.228,9.228,0,0,0,1.1099.2461,2.4261,2.4261,0,0,1,1.5517.6582,2.9635,2.9635,0,0,0,.5342.3496c-.2295.1367-.2344.1485-.1553.3955.0455.1436.0904.2881.1426.4541.1485-.0097.3032-.0185.5181-.0312-.0972.1084-.1568.1738-.2612.289a4.67723,4.67723,0,0,0,1.6933.1914c-.041-.1318-.0752-.2402-.1147-.3671.0342-.0323.0791-.0743.1201-.1133.144.0771.2617.2715.4404.0898.2964.3242.5928.6485.874.9571.1885.0517.3736.0917.5503.1542.1431.0499.2725.1446.4165.1846a2.24267,2.24267,0,0,0,.4278.0342c.0742.1123.1767.2676.2798.4238l-.0372.0664a3.33,3.33,0,0,0-1.9096-.2343c.0996.205.1816.3769.2637.5468-.3199.17-.4639.1172-.7925-.2949a.67559.67559,0,0,0,.0947-.1474c.0864-.2569.0532-.3409-.186-.4795a2.68141,2.68141,0,0,0-1.4912-.252c-.0342.002-.0948.0371-.0977.0625-.0156.1445-.1338.1182-.2207.1387-.063.0156-.1392.0019-.1919.0322a.9579.9579,0,0,0-.1748.165.95644.95644,0,0,0,.1543.1426,1.57033,1.57033,0,0,0,.2427.0977.22025.22025,0,0,1-.2481.1806c-.147.0039-.2949.083-.438-.038a8.49546,8.49546,0,0,0-1.895-1.0762q-.471-.2271-.9341-.4668c-.1025-.0537-.1948-.125-.3408-.2207.294.0215.5225.0371.8081.0576a3.20991,3.20991,0,0,0,.3325.2549,3.55067,3.55067,0,0,0,.3994.1826c.1329-.1689.2491-.3115.3589-.458a.55662.55662,0,0,0-.1196-.874.97882.97882,0,0,0-.9199-.1924c-.1348.041-.2735.0703-.4111.1015a1.56736,1.56736,0,0,1-1.2447-.2041c.0064-.1162.0611-.2685.0088-.331a.60537.60537,0,0,0-.3599-.1934,3.06489,3.06489,0,0,0-1.8139.2559,1.127,1.127,0,0,0-.6665.7607c-.0825-.1679-.1421-.2959-.2075-.4209a.70725.70725,0,0,0-.3472-.3242c-.3042-.1426-.5972-.3125-.8906-.4785-.4444-.249-.8863-.5039-1.3506-.7695-.0083-.1045-.0196-.2325-.0352-.4082a3.01756,3.01756,0,0,0-.3266.1113c-.293.1426-.5869.2852-.8692.4473a.98512.98512,0,0,0-.3252.3349c-.0195.0069-.0459.0235-.0586.0166a.91078.91078,0,0,0-.6562-.0586,18.72643,18.72643,0,0,1-5.2022.1875,4.442,4.442,0,0,1-1.5581-.456,3.46758,3.46758,0,0,1-1.4321-1.3721,9.80963,9.80963,0,0,0-.7119-.9238,3.52543,3.52543,0,0,0-.2041-.292c-.2305-.2442-.4712-.4795-.7212-.7315-.3931.252-.7422.5567-1.2744.4356.0693.1113.105.168.1684.2715-.3838-.1035-.7163-.1934-1.06-.2852a1.40148,1.40148,0,0,1-.0542-.8867c-.3111.168-.5864.3164-.916.4941.0503-.248.0913-.4472.1386-.6855-.2964.1162-.5586.206-.6333.4766a1.047,1.047,0,0,0-.3095.1689,12.19911,12.19911,0,0,0-.8184,1.0547,12.96976,12.96976,0,0,0-1.1221,2.2803c-.1469.3632-.3056.7226-.435,1.0918a3.25728,3.25728,0,0,0-.1333.6337c-.1045.7647-.2051,1.5303-.2954,2.2979a7.07234,7.07234,0,0,0-.044.8135q-.00735,4.34325-.0083,8.6865a15.72745,15.72745,0,0,1-.2788,3.0176,8.27186,8.27186,0,0,1-1.8325,3.7754,18.13692,18.13692,0,0,1-3.2002,2.9668,2.74291,2.74291,0,0,1-.4033.2763c-.2241.1123-.3428.3604-.6421.3936a3.788,3.788,0,0,0-.7559.2871,2.918,2.918,0,0,1-.7505.2119,20.03,20.03,0,0,1-2.3339.0654,8.06471,8.06471,0,0,1-5.0308-2.2246,13.30158,13.30158,0,0,1-3.5073-4.8926c-.0777-.1914-.1758-.374-.2666-.5605a8.47628,8.47628,0,0,1-.6402-2.1826,9.04993,9.04993,0,0,0-.7446-2.2217,4.21253,4.21253,0,0,0-1.4761-1.707,3.50654,3.50654,0,0,0-1.5468-.4561c-.4952-.0713-.9927-.1279-1.4888-.1904-.0542-.0068-.1094-.0059-.1626-.0137a.9129.9129,0,0,0-.9429.4473,12.89991,12.89991,0,0,1-1.98,2.2939q-.955.8892-1.9682,1.7158a5.39694,5.39694,0,0,1-2.3755,1.0235,9.32488,9.32488,0,0,1-4.4263-.1299,2.36939,2.36939,0,0,0-1.0596-.1201.4083.4083,0,0,1-.2929-.1094c-.8198-.7295-1.6446-1.4551-2.4444-2.207a10.98567,10.98567,0,0,1-2.4546-3.2725,8.33525,8.33525,0,0,1-.7753-3.1787,13.14931,13.14931,0,0,0-.4952-3.5117,1.22157,1.22157,0,0,0-.2685-.583c-.0513-.0469-.0449-.1612-.0581-.2451-.127-.8282-.2486-1.6563-.3819-2.4825a15.78063,15.78063,0,0,0-.6997-1.6953,3.27575,3.27575,0,0,1-.414-1.0859c-.0254-.2637-.2515-.4229-.4356-.5899-.0298-.0273-.1001-.0156-.1513-.0136-.0957.0039-.1924.0156-.3077.0263l-.1264-.3466a.79434.79434,0,0,0-.3521.3437c-.2363.3301-.2353.3301-.6196.2363-.1138.2803.2607.2413.2837.4532a.51172.51172,0,0,1-.5679.1308,4.00886,4.00886,0,0,0-.6699-.1269c-.0938-.0147-.2144-.0391-.2485.0859-.0347.1279.0874.1553.1738.1953a1.25707,1.25707,0,0,0,.1567.0469.87281.87281,0,0,1-.8051-.0547,2.90468,2.90468,0,0,1-.3814-.25.794.794,0,0,0-1.0962.0371c.0742.2266.1455.4434.2232.6797a1.51741,1.51741,0,0,0-1.0298.1074c.0512-.1738.0859-.289.1269-.4277-.208-.0195-.2739.1914-.4409.251-.0317-.0752-.064-.1514-.0962-.2295-.02.0078-.0454.0088-.0571.0215a1.136,1.136,0,0,1-.8135.3593.711.711,0,0,0-.6982.3555c-.1636-.1289-.2847-.0215-.4131.0625a.78962.78962,0,0,1-.5357.2109c.0157-.0488.0274-.0859.0396-.123a.11766.11766,0,0,0-.0532-.0078c-.4204.1426-.8374.2978-1.2622.4238a1.45842,1.45842,0,0,1-.4092-.0156,11.1227,11.1227,0,0,1-1.2149-.0488c.084-.0342.168-.0684.2554-.1036a1.00122,1.00122,0,0,0-1.5205.0665c.0918.0136.1714.0253.2852.0429-.1617.043-.294.0781-.4649.1231.0469.1132.0811.1953.1216.2929.1792-.0517.333-.1015.4897-.1386a1.11622,1.11622,0,0,1,.2891-.0391c.272.0049.3325.1152.2241.4258-.0473-.0244-.0942-.0449-.1382-.0713a.61228.61228,0,0,0-.7045.0459c-.1792.123-.3511.2559-.5318.3789a1.73777,1.73777,0,0,1-1.2056.3135.32712.32712,0,0,0-.1401-.4893c-.0718-.0381-.1045-.1465-.1655-.2402-.3237.0928-.4585.3955-.6221.6914-.0972-.0586-.1777-.1065-.293-.1748a2.03882,2.03882,0,0,0-.2231.4297,1.42065,1.42065,0,0,1-.7158.8799c-.2227-.1192-.4419-.2344-.7041-.3741a2.7173,2.7173,0,0,0-.4448.3116,1.93893,1.93893,0,0,1-1.2193.5546,1.85477,1.85477,0,0,0-1.0976.4727c.0297.0537.059.1064.101.1826a6.26666,6.26666,0,0,1-.5595.3867c-.7256.3946-1.4571.7793-2.19,1.1602-.4438.2305-.8965.4443-1.3428.6689-.1157.0586-.2236.1309-.3676.2168.0898.0284.144.045.2265.0703a2.84391,2.84391,0,0,1-1.1313.6065c.0825-.1182.1367-.1973.1938-.2803a.6626.6626,0,0,0-.7299-.2012c-.0176.0948-.0347.1875-.0538.2891-.1274.0205-.2993-.1504-.396.1016.0459.0713.1016.1582.1587.248-.0488.1289-.1269.1758-.2529.1113a.816.816,0,0,0-.6973-.0185c-.5434.2197-1.0781.4639-1.6137.7021-.0244.0118-.0342.0528-.0518.0801-.2456-.0117-.4917-.0234-.7456-.0351.0713.2148.1108.2421.2891.1894C10.0064,61.0791,10.1568,61.0225,10.3086,60.9707ZM34.9634,21.0982q-.36615.72135-.7314,1.4433A1.84961,1.84961,0,0,0,34.9634,21.0982ZM21.3247,52.375q-.01455.03075-.0293.0645c.2334.1201.4639.25.7027.3593.1113.0508.1943-.0136.25-.1406A6.6144,6.6144,0,0,0,21.3247,52.375Zm18.1797-1.2939.0654-.0616c-.1323-.1757-.2651-.3496-.4194-.5546-.0459.1113-.0742.1777-.1079.2587C39.2017,50.8477,39.353,50.9649,39.5044,51.0811Zm-7.8862,1.2158c.1875-.0088.3442-.0576.3657-.2842Q31.8015,52.15475,31.6182,52.2969ZM71.2085,11.061l.0318.0347c.0502-.0454.1005-.0913.1503-.1362l-.0297-.0318C71.3101,10.9717,71.2593,11.0166,71.2085,11.061Z"/>
        <path class="cls-2" d="M0,63.1563c.1255.08.251.1601.4365.2793-.1948.08-.3154.1289-.4365.1777Z"/>
        <path class="cls-2" d="M138.1348,70.2754c-.1055.0137-.1465.2207-.3018.0967.0191-.1826.1641-.2002.3018-.2276Z"/>
        <path class="cls-2" d="M119.9263,59.8604c.2373-.0342.4443-.0635.6772-.0967a2.333,2.333,0,0,1-.2172,1.4004c-.1084.206-.1812.2451-.4283.2929-.4843-.4824-.6728-.54-1.2002-.3388.0498-.0791.0821-.1299.1299-.2061-.1826-.04-.3559-.0781-.5386-.1172.0054-.1855.1333-.2529.2632-.2968.1328-.045.2764-.0528.4121-.0899.1822-.0488.3614-.1094.5567-.1699a.63228.63228,0,0,0,.4795.5068c.1059.0225.2334.0752.29-.0449a.342.342,0,0,0-.0391-.2685C120.1992,60.2383,120.062,60.0596,119.9263,59.8604Z"/>
        <path class="cls-2" d="M122.6406,60.6807a1.56215,1.56215,0,0,1-.7436-.3662c.3633.125.7837.1269,1.0723.5205-.107-.0127-.1802-.0225-.2676-.0342a.54775.54775,0,0,1-.0459.2148c-.0361.0498-.1231.0625-.207.1016.061.0645.1088.1152.1621.1719a.70162.70162,0,0,1-.6299.083.21437.21437,0,0,1-.0542-.3985,1.33893,1.33893,0,0,1,.2685-.1123C122.3433,60.8018,122.4922,60.7412,122.6406,60.6807Z"/>
        <path class="cls-2" d="M46.2246,18.856c.1079.4409.2168.8818.3223,1.3227a.43825.43825,0,0,1,.0103.1939c-.0997.4087-.2061.8149-.3121,1.2221a.14419.14419,0,0,1-.0629.0782A19.255,19.255,0,0,0,46.2246,18.856Z"/>
        <path class="cls-2" d="M49.4673,70.377c.9497.0175,1.9067.0351,2.8652.0527a7.92743,7.92743,0,0,1-2.0605.1406c-.1406-.0097-.2813-.0273-.4219-.0302A.454.454,0,0,1,49.4673,70.377Z"/>
        <path class="cls-2" d="M131.7095,67.1201a11.30661,11.30661,0,0,0,1.8828.9678c-.1509.0801-.2681.1436-.4097.2197a.87039.87039,0,0,0-.5703-.4873c-.1982-.0859-.4033-.1582-.5971-.2529A.47372.47372,0,0,1,131.7095,67.1201Z"/>
        <path class="cls-2" d="M107.7085,56.5723c-.0503-.1406-.0815-.2305-.1128-.3174.5708-.0674.8853.0645.9405.4092-.4561.082-.9297-.1348-1.3868.0918-.063-.166-.0058-.2373.149-.2305C107.4219,56.5293,107.5435,56.5527,107.7085,56.5723Z"/>
        <path class="cls-2" d="M16.1997,45.459a3.02521,3.02521,0,0,1,.003-2.0889c.0249.7354.0483,1.4073.0712,2.0791C16.249,45.4522,16.2246,45.4551,16.1997,45.459Z"/>
        <path class="cls-2" d="M20.6636,25.563a2.66817,2.66817,0,0,1,1.0024.5112.32023.32023,0,0,1,.1006.1934,2.59144,2.59144,0,0,1,.0039.6157A3.04747,3.04747,0,0,0,20.6636,25.563Z"/>
        <path class="cls-2" d="M92.6885,52.5977c-.1934-.0957-.355-.1153-.4722.0918-.0644.1132-.1855.0752-.292.0312a.21023.21023,0,0,1-.1245-.2383c.0074-.1103.0171-.2334.149-.2588.1845-.0361.3793-.1044.5263.1036a1.31749,1.31749,0,0,0,.2276.1992C92.6973,52.5508,92.6934,52.5742,92.6885,52.5977Z"/>
        <path class="cls-2" d="M83.0147,13.4502a.24023.24023,0,0,1-.0816-.04q-.6357-.6936-1.2661-1.3897c-.0283-.0312-.0498-.0674-.105-.1421a.67771.67771,0,0,1,.4331.2466c.3365.4087.6626.8257.9908,1.2412.0175.022.0151.0601.0224.0904Z"/>
        <path class="cls-2" d="M126.0069,63.7676c.0439.0957.0815.1963.1347.2881.0957.165.1582.3515.3506.4502.0547.0273.085.1445.083.2187-.001.0323-.1123.0615-.1621.0869-.042-.1162-.0488-.2353-.1113-.2841a1.07482,1.07482,0,0,0-.3477-.0967c-.0093-.208-.02-.4326-.0303-.6572Z"/>
        <path class="cls-2" d="M121.4785,60.086c-.2636-.1543-.5273-.3077-.8027-.4678.3174-.2315.5269-.1905.6777.1064.0537.1055.1094.209.1646.3145Z"/>
        <path class="cls-2" d="M124.6983,60.4707c-.0113.1719-.0225.334-.0371.5528-.2461-.2247-.4395-.4004-.6548-.5977A1.15274,1.15274,0,0,1,124.6983,60.4707Z"/>
        <path class="cls-2" d="M117.6822,59.0264a3.15113,3.15113,0,0,1,.4106.0488c.2119.0557.2275.1201.1157.3486C117.835,59.3965,117.7515,59.3418,117.6822,59.0264Z"/>
        <path class="cls-2" d="M123.3096,61.0772c.1787.0361.3247.0654.4717.0966.2592.0528.2734.085.144.3477.0903.0527.1812.1064.273.1602l-.0166.0468a.80913.80913,0,0,1-.2217-.0859c-.188-.1426-.3662-.2969-.5464-.4492A1.068,1.068,0,0,1,123.3096,61.0772Z"/>
        <path class="cls-2" d="M124.1558,62.6641a.19428.19428,0,0,1-.2778.1504c-.0967-.0274-.1934-.0508-.3311-.0879-.0234-.0528-.0669-.1475-.127-.2813A2.063,2.063,0,0,1,124.1558,62.6641Z"/>
        <path class="cls-2" d="M130.2193,64.459c-.4927.0273-.5596-.0488-.5074-.3633C130.0171,63.9893,129.9824,64.0508,130.2193,64.459Z"/>
        <path class="cls-2" d="M130.1641,65.4717c.1391-.1709.1391-.1709.0722-.4092.2984.1524.315.1699.3887.4317C130.479,65.6172,130.3467,65.5,130.1641,65.4717Z"/>
        <path class="cls-2" d="M108.4204,57.2422c.2447-.0127.4698-.1953.7017.0547C108.7173,57.4473,108.6685,57.4444,108.4204,57.2422Z"/>
        <path class="cls-2" d="M114.3989,56.4707a.54681.54681,0,0,1,.6187-.1562c-.0952.0996-.1748.1836-.2681.2812C114.6309,56.5537,114.5152,56.5117,114.3989,56.4707Z"/>
        <path class="cls-2" d="M53.4536,70.4375q.6057-.246,1.2115-.4922A2.48334,2.48334,0,0,1,53.4536,70.4375Z"/>
        <path class="cls-2" d="M127.1304,64.5488c-.104-.1318-.1939-.2539-.0982-.3457a1.03607,1.03607,0,0,1,.3672-.1425c.0166.0234.0328.0449.0494.0683C127.3482,64.2617,127.2466,64.3945,127.1304,64.5488Z"/>
        <path class="cls-2" d="M55.4756,1.2744c-.3052-.1474-.6108-.2954-.959-.4638A1.18643,1.18643,0,0,1,55.4756,1.2744Z"/>
        <path class="cls-2" d="M108.709,55.8076c.2466.0537.4356.0948.6655.1455C109.0283,56.1611,108.8413,56.124,108.709,55.8076Z"/>
        <path class="cls-2" d="M68.4492,13.4795c.1011-.4058.458-.5859.7334-.8408Q68.8157,13.05915,68.4492,13.4795Z"/>
        <path class="cls-2" d="M70.3833,11.5337c-.0747.0664-.1499.1328-.2241.1973-.0581.042-.1162.0844-.1763.1269l-.0444-.0493a1.91354,1.91354,0,0,1,.5503-.4609C70.4541,11.4097,70.4185,11.4717,70.3833,11.5337Z"/>
        <path class="cls-2" d="M108.4654,53.666c.1381.1153.2768.2295.4418.3672-.27.0528-.2783.0469-.4897-.3125C108.4336,53.7031,108.4497,53.6846,108.4654,53.666Z"/>
        <path class="cls-2" d="M58.7285,66.4395c-.0996.1289-.1987.2568-.3056.3965C58.3291,66.6563,58.3291,66.6563,58.7285,66.4395Z"/>
        <path class="cls-2" d="M127.3535,63.1621c.0088-.1279.0157-.2207.0269-.3886.1118.163.186.2705.2915.4257C127.5391,63.1836,127.4624,63.1748,127.3535,63.1621Z"/>
        <path class="cls-2" d="M120.7173,59.1445c-.1538.2227-.1538.2227-.3984.1329C120.4737,59.2246,120.5957,59.1846,120.7173,59.1445Z"/>
        <path class="cls-2" d="M120.6187,61.7139c.1367.0224.2412.039.3774.0615-.0342.0762-.0493.1533-.0723.1553A.25006.25006,0,0,1,120.6187,61.7139Z"/>
        <path class="cls-2" d="M110.6192,57.75c-.0874.0195-.1563.0332-.2793.0596.0595-.1377.1015-.2363.1733-.4033C110.5615,57.5625,110.5874,57.6465,110.6192,57.75Z"/>
        <path class="cls-2" d="M126.6084,63.1836c-.0415.0957-.0683.1602-.1089.2539-.1059-.0918-.1909-.166-.2749-.2392.0064-.0166.0132-.0323.0201-.0489C126.3555,63.1602,126.4663,63.1709,126.6084,63.1836Z"/>
        <path class="cls-2" d="M115.5303,58.9102c-.2051-.001-.3101-.1641-.4175-.3282q.22485.129.4507.2579Z"/>
        <path class="cls-2" d="M48.0855,70.1485c.1621.0478.3237.0957.4858.1425-.0054.0205-.0102.041-.0151.0616-.1704-.0411-.3408-.0811-.5108-.1221C48.0586,70.2031,48.0718,70.1758,48.0855,70.1485Z"/>
        <path class="cls-2" d="M131.6035,67.791c-.269.0586-.2729-.1455-.3667-.2793C131.4234,67.5654,131.4234,67.5654,131.6035,67.791Z"/>
        <path class="cls-2" d="M117.3633,60.0938c-.0503-.0489-.1011-.0977-.1699-.1651.1103-.0732.1782-.1201.3008-.2021-.0191.1465-.0308.2402-.0435.332Z"/>
        <path class="cls-2" d="M58.9146,4.1275q.1626.2124.3247.4243l-.0635.0493q-.16335-.21315-.3252-.4253C58.8716,4.1592,58.8936,4.1436,58.9146,4.1275Z"/>
        <path class="cls-2" d="M126.0659,62.4883c-.226-.0557-.1494-.1836-.1528-.2949l.0654-.0176C126.0073,62.2793,126.0366,62.3848,126.0659,62.4883Z"/>
        <path class="cls-2" d="M119.5547,58.8526c-.0522-.0743-.0859-.1221-.1352-.1934.0952-.0195.1626-.0332.2846-.0576C119.6416,58.7051,119.6045,58.7676,119.5547,58.8526Z"/>
        <path class="cls-2" d="M127.3281,63.1856a.256.256,0,0,1-.395-.0782C127.0454,63.1289,127.1568,63.1514,127.3281,63.1856Z"/>
        <path class="cls-2" d="M130.916,65.0586c.1094.0469.2178.0918.3599.1524a.36987.36987,0,0,1-.3892-.085Z"/>
        <path class="cls-2" d="M.5977,62.5391l.2309-.0293c.0044.0273.0093.0547.0132.082-.0762.0127-.1528.0254-.229.0391C.6079,62.5996.6026,62.5703.5977,62.5391Z"/>
        <path class="cls-2" d="M56.855,17.2925a.30851.30851,0,0,0,.0298-.0454h.126c-.0747.1123-.1338.2007-.1934.289l-.0395-.02C56.8037,17.4419,56.8301,17.3667,56.855,17.2925Z"/>
        <path class="cls-2" d="M83.0083,13.4566q.1296.1647.2603.3295l.0068-.0063-.2607-.3296Z"/>
        <path class="cls-2" d="M134.4014,68.9258c-.0405-.0156-.0825-.0293-.1968-.0703.1196.0117.1611.0146.2026.0195Z"/>
        <path class="cls-2" d="M129.6299,64.711c-.0718.0195-.144.039-.2368.0644a.43391.43391,0,0,1,.0244-.1035c.0688-.0059.1382-.0029.207-.0029C129.626,64.6836,129.6275,64.6973,129.6299,64.711Z"/>
        <path class="cls-2" d="M117.5083,57.5488c.1655.0079.2393.0293.169.1924C117.6211,57.6777,117.5816,57.6328,117.5083,57.5488Z"/>
      </g>
    </g>
  </g>
</svg>
