<svg xmlns="http://www.w3.org/2000/svg" xmlns:xlink="http://www.w3.org/1999/xlink" viewBox="0 0 175.83435 103.8706">
  <defs>
    <style>
      .cls-1, .cls-4, .cls-7 {
        fill: #fff;
      }

      .cls-10, .cls-11, .cls-12, .cls-13, .cls-14, .cls-15, .cls-16, .cls-17, .cls-18, .cls-19, .cls-2, .cls-21, .cls-22, .cls-23, .cls-24, .cls-25, .cls-26, .cls-28, .cls-29, .cls-3, .cls-31, .cls-4, .cls-5, .cls-6, .cls-7, .cls-8, .cls-9 {
        stroke: #231f20;
        stroke-miterlimit: 10;
      }

      .cls-11, .cls-12, .cls-13, .cls-14, .cls-15, .cls-16, .cls-17, .cls-18, .cls-19, .cls-2, .cls-23, .cls-24, .cls-25, .cls-26, .cls-29, .cls-5, .cls-7, .cls-9 {
        stroke-width: 0.75px;
      }

      .cls-2 {
        fill: url(#radial-gradient);
      }

      .cls-10, .cls-3, .cls-31, .cls-9 {
        fill: none;
      }

      .cls-21, .cls-4 {
        stroke-width: 0.5px;
      }

      .cls-5 {
        fill: url(#radial-gradient-2);
      }

      .cls-6 {
        fill: #f8c5db;
      }

      .cls-8 {
        fill: #e6e7e8;
      }

      .cls-10, .cls-28 {
        stroke-width: 0.25px;
      }

      .cls-11, .cls-30 {
        fill: #231f20;
      }

      .cls-12 {
        fill: url(#linear-gradient);
      }

      .cls-13 {
        fill: url(#linear-gradient-2);
      }

      .cls-14 {
        fill: url(#linear-gradient-3);
      }

      .cls-15 {
        fill: url(#linear-gradient-4);
      }

      .cls-16 {
        fill: url(#linear-gradient-5);
      }

      .cls-17, .cls-28 {
        fill: #404041;
      }

      .cls-18 {
        fill: url(#linear-gradient-6);
      }

      .cls-19 {
        fill: url(#linear-gradient-7);
      }

      .cls-20 {
        fill: #a6a8ab;
      }

      .cls-21 {
        fill: #d0d2d3;
      }

      .cls-22 {
        fill: #be1e2d;
      }

      .cls-23 {
        fill: url(#linear-gradient-8);
      }

      .cls-24 {
        fill: #58595b;
      }

      .cls-25 {
        fill: url(#linear-gradient-9);
      }

      .cls-26 {
        fill: #808184;
      }

      .cls-27 {
        fill: #3b3a3c;
      }

      .cls-29 {
        fill: url(#linear-gradient-10);
      }

      .cls-31 {
        stroke-width: 1.5px;
      }
    </style>
    <radialGradient id="radial-gradient" cx="105.09957" cy="19.64653" fx="98.47793264841289" r="8.97319" gradientTransform="translate(16.40569 80.24106) rotate(-45)" gradientUnits="userSpaceOnUse">
      <stop offset="0.5" stop-color="#404041"/>
      <stop offset="0.5" stop-color="#0d0d0d"/>
    </radialGradient>
    <radialGradient id="radial-gradient-2" cx="160.88586" cy="49.99299" r="7.06456" gradientTransform="translate(102.99508 204.22252) rotate(-81.8385) scale(1 0.70829)" gradientUnits="userSpaceOnUse">
      <stop offset="0.5" stop-color="#404041"/>
      <stop offset="0.50145" stop-color="#6d6e70"/>
    </radialGradient>
    <linearGradient id="linear-gradient" x1="8.65101" y1="47.21788" x2="16.46394" y2="47.21788" gradientTransform="translate(-34.43394 60.00181) rotate(-90)" gradientUnits="userSpaceOnUse">
      <stop offset="0.5" stop-color="#fff"/>
      <stop offset="0.5" stop-color="#999"/>
    </linearGradient>
    <linearGradient id="linear-gradient-2" x1="78.28277" y1="51.92534" x2="78.28277" y2="45.7382" gradientUnits="userSpaceOnUse">
      <stop offset="0.5013" stop-color="#a1a4d1"/>
      <stop offset="0.50417" stop-color="#c9c0df"/>
    </linearGradient>
    <linearGradient id="linear-gradient-3" x1="16.02235" y1="56.97373" x2="16.02235" y2="36.28753" gradientUnits="userSpaceOnUse">
      <stop offset="0.28" stop-color="#fff"/>
      <stop offset="0.28118" stop-color="#999"/>
      <stop offset="0.663" stop-color="#999"/>
      <stop offset="0.66802" stop-color="#fff"/>
      <stop offset="0.6687" stop-color="#fff"/>
    </linearGradient>
    <linearGradient id="linear-gradient-4" x1="14.52532" y1="47.13831" x2="21.1617" y2="47.13831" gradientUnits="userSpaceOnUse">
      <stop offset="0.5" stop-color="#0d0d0d"/>
      <stop offset="0.5" stop-color="#080808"/>
    </linearGradient>
    <linearGradient id="linear-gradient-5" x1="-4.34726" y1="47.21788" x2="44.34115" y2="47.21788" gradientTransform="translate(-3.89331 90.54244) rotate(-90)" gradientUnits="userSpaceOnUse">
      <stop offset="0.49868" stop-color="#999"/>
      <stop offset="0.5" stop-color="#fff"/>
    </linearGradient>
    <linearGradient id="linear-gradient-6" x1="78.6357" y1="98.62958" x2="78.6357" y2="81.78734" gradientUnits="userSpaceOnUse">
      <stop offset="0.27141" stop-color="#960c3c"/>
      <stop offset="0.28158" stop-color="#404041"/>
      <stop offset="0.49756" stop-color="#404041"/>
      <stop offset="0.49864" stop-color="#960c3c"/>
      <stop offset="0.77621" stop-color="#960c3c"/>
      <stop offset="0.77761" stop-color="#3a3a3b"/>
    </linearGradient>
    <linearGradient id="linear-gradient-7" x1="70.07655" y1="59.22732" x2="134.68439" y2="59.22732" gradientTransform="matrix(1, 0, 0, 1, 0, 0)" xlink:href="#linear-gradient"/>
    <linearGradient id="linear-gradient-8" x1="156.99503" y1="69.38538" x2="156.99503" y2="30.05997" gradientUnits="userSpaceOnUse">
      <stop offset="0.28" stop-color="#fff"/>
      <stop offset="0.28" stop-color="#999"/>
      <stop offset="0.6771" stop-color="#999"/>
      <stop offset="0.6771" stop-color="#fff"/>
    </linearGradient>
    <linearGradient id="linear-gradient-9" x1="122.82184" y1="50.26489" x2="164.29137" y2="50.26489" gradientUnits="userSpaceOnUse">
      <stop offset="0.5013" stop-color="#404041"/>
      <stop offset="0.50409" stop-color="#3b3a3c"/>
    </linearGradient>
    <linearGradient id="linear-gradient-10" x1="138.78213" y1="49.02389" x2="161.33525" y2="49.02389" gradientTransform="matrix(1, 0, 0, 1, 0, 0)" xlink:href="#linear-gradient"/>
  </defs>
  <title>-1Asset 79</title>
  <g id="Layer_2" data-name="Layer 2">
    <g id="Layer_1-2" data-name="Layer 1">
      <rect class="cls-1" width="175.83435" height="103.8706"/>
      <path class="cls-2" d="M103.72567,17.78373h2.67338a2.46064,2.46064,0,0,1,2.46064,2.46064v2.60611a0,0,0,0,1,0,0H101.265a0,0,0,0,1,0,0V20.24437A2.46064,2.46064,0,0,1,103.72567,17.78373Z" transform="translate(45.13842 -68.33957) rotate(45)"/>
      <path class="cls-3" d="M78.58018,89.53991C80.136,90.626,76.941,92.59265,78.0866,93.6637c.73991.69176,3.05073.64536,4.79.34858,1.45417-.24813,5.94124-.80506,7.68977.19347"/>
      <path class="cls-3" d="M80.526,89.32629c1.61334.99872-1.46845,3.13845-.26555,4.14472.77692.64993,3.08167.47624,4.80191.08406,1.43828-.32791,5.88784-1.1313,7.68875-.23066.87446.43731,2.52273.12609,5.61277.38444,2.87179.2401,5.23.47656,6.843.64718"/>
      <rect class="cls-4" x="75.41476" y="91.66525" width="6.4419" height="0.76667"/>
      <path class="cls-5" d="M163.1534,55.28707a12.87352,12.87352,0,0,1-.58019-1.18187,20.65632,20.65632,0,0,1-.92223-2.88208,5.19461,5.19461,0,0,0-2.25027-2.88975l-.60714-.539c.33736-.23554,2.53427-1.71561,4.43951-.411a4.2,4.2,0,0,1,1.27085,1.47142c1.10116,2.02087,1.03255,5.486.02337,6.38036C164.33767,55.4032,163.93068,55.64389,163.1534,55.28707Z"/>
      <path class="cls-6" d="M64.15446,50.78056c-2.00562-1.05211-4.51841,2.373-8.30569,3.443-3.7022,1.04594-3.61761-1.63819-8.2761-.31141-3.54565,1.00983-4.41883,1.94475-4.72207,2.8393-.45214,1.33381.24771,2.85517.683,2.96338,2.41686.60074.98667-1.33739,1.49406-2.79887.70758-2.03808,4.94976-1.29632,8.38435-1.06931,6.40012.423,11.88652-2.28661,11.79609-3.9803C65.17882,51.31793,64.47618,50.94934,64.15446,50.78056Z"/>
      <rect class="cls-7" x="70.77621" y="87.8898" width="3.20776" height="1.76584" transform="translate(0.26665 -0.21675) rotate(0.17189)"/>
      <rect class="cls-4" x="98.57139" y="41.13345" width="1.75099" height="14.33594"/>
      <g>
        <path class="cls-4" d="M89.14726,43.9444c-.19506,1.05437-.59644,2.89075-1.48174,2.727s-1.91926-2.2657-1.72421-3.32007a1.65514,1.65514,0,1,1,3.206.5931Z"/>
        <path class="cls-8" d="M96.26149,50.88967c0,5.90541-7.43438,5.15766-16.60514,5.15766s-16.60514.74775-16.60514-5.15766S71.62653,37.61688,79.46282,40.5674c1.29024.4858,2.40031,2.36885,2.91568,2.203,5.26551-1.69448,8.83437,2.27416,9.86376,3.74423C93.74346,48.65849,96.26149,48.31935,96.26149,50.88967Z"/>
        <polyline class="cls-9" points="95.274 48.759 94.318 49.162 95.274 50.211 96.034 50.211"/>
        <path class="cls-9" d="M96.26149,51.402a3.172,3.172,0,0,1-1.32952.25183,2.38449,2.38449,0,0,1-1.367-.34121"/>
        <g>
          <path class="cls-10" d="M92.167,50.79753a3.15584,3.15584,0,0,1-2.94933-.25088"/>
          <path class="cls-10" d="M92.05085,51.38659a3.15585,3.15585,0,0,1-2.95988-.02443"/>
          <path class="cls-10" d="M92.10956,50.35886a3.15585,3.15585,0,0,1-2.76436-1.05823"/>
        </g>
        <g>
          <path class="cls-11" d="M92.167,48.05172c0,.54892.10394.99391-.445.99391s-1.54283-.445-1.54283-.99391a.99391.99391,0,1,1,1.98782,0Z"/>
          <circle class="cls-1" cx="90.72738" cy="47.62084" r="0.22547"/>
        </g>
      </g>
      <g>
        <rect class="cls-12" x="11.2347" y="43.31141" width="3.09846" height="7.81293" transform="translate(60.00181 34.43394) rotate(90)"/>
        <rect class="cls-7" x="67.64871" y="46.27346" width="1.95042" height="1.95042" transform="translate(115.87259 -21.37525) rotate(90)"/>
        <rect class="cls-13" x="75.1892" y="44.09109" width="6.18714" height="6.18714"/>
        <rect class="cls-14" x="14.47254" y="37.36688" width="3.09963" height="50.96819"/>
        <path class="cls-15" d="M14.35012,44.37079h4.56312a1.38729,1.38729,0,0,1,1.38729,1.38729v2.76046a1.38729,1.38729,0,0,1-1.38729,1.38729H14.35012a.686.686,0,0,1-.686-.686V45.05676A.686.686,0,0,1,14.35012,44.37079Z"/>
        <rect class="cls-16" x="41.77534" y="22.87367" width="3.09846" height="48.68841" transform="translate(90.54244 3.89331) rotate(90)"/>
        <path class="cls-17" d="M14.493,70.0969h3.05865a.789.789,0,0,1,.789.789V94.356a0,0,0,0,1,0,0H13.704a0,0,0,0,1,0,0V70.88593A.789.789,0,0,1,14.493,70.0969Z"/>
        <path class="cls-17" d="M76.43385,47.9774l-6.28071.97768c-.29776.04635-.554-.36759-.554-.89494V46.37565c0-.53375.26221-.94979.56306-.89339L76.43385,46.658Z"/>
      </g>
      <g>
        <rect class="cls-18" x="74.94568" y="84.17097" width="7.38006" height="7.38005"/>
        <rect class="cls-17" x="76.43385" y="71.662" width="4.40371" height="12.19088"/>
        <rect class="cls-17" x="75.57422" y="82.66726" width="5.88916" height="1.53526"/>
      </g>
      <rect class="cls-19" x="45.8602" y="56.10438" width="64.60784" height="6.24587"/>
      <path class="cls-20" d="M66.56992,56.59542h24.1169a0,0,0,0,1,0,0v.43349a.56693.56693,0,0,1-.56693.56693h-22.983a.56693.56693,0,0,1-.56693-.56693v-.43349A0,0,0,0,1,66.56992,56.59542Z"/>
      <rect class="cls-4" x="84.05571" y="40.88843" width="16.26667" height="1.98668"/>
      <path class="cls-21" d="M85.68017,43.11562c.22178,1.04908.551,2.89975-.3298,3.086S82.7121,44.839,82.49033,43.79a1.65513,1.65513,0,1,1,3.18984-.67433Z"/>
      <line class="cls-22" x1="7.14324" y1="94.35603" x2="172.14324" y2="94.35603"/>
      <path class="cls-17" d="M66.63257,83.99406H68.705a3.43384,3.43384,0,0,1,3.43384,3.43384v4.3a0,0,0,0,1,0,0H63.19873a0,0,0,0,1,0,0v-4.3A3.43384,3.43384,0,0,1,66.63257,83.99406Z"/>
      <rect class="cls-7" x="63.87181" y="92.04858" width="7.49034" height="1.79462"/>
      <rect class="cls-7" x="73.05076" y="86.70373" width="1.32224" height="4.14598" transform="translate(0.26667 -0.22074) rotate(0.17189)"/>
      <path class="cls-23" d="M160.07011,34.51411h-6.16088c-.05689.06293-.11609.12387-.17583.18441V93.55459h6.52326V34.73094Q160.1606,34.62452,160.07011,34.51411Z"/>
      <rect class="cls-24" x="152.71132" y="53.16447" width="8.56741" height="3.69003" rx="1.41732"/>
      <g>
        <polygon class="cls-25" points="146.145 72.447 104.676 77.128 104.676 23.402 146.145 28.074 146.145 72.447"/>
        <polygon class="cls-26" points="108.64 76.817 104.676 77.128 104.676 23.402 108.64 23.764 108.64 76.817"/>
      </g>
      <polygon class="cls-17" points="136.017 41.882 126.899 40.876 122.286 48.865 126.899 56.854 136.017 55.767 139.667 48.865 136.017 41.882"/>
      <path class="cls-27" d="M137.02438,51.24942l-4.79524.71006a1.442,1.442,0,0,1-1.40586-1.47552v-2.883a1.442,1.442,0,0,1,1.40586-1.47551l3.02958.56995Z"/>
      <circle class="cls-28" cx="128.22372" cy="43.18353" r="0.61847"/>
      <circle class="cls-28" cx="135.02909" cy="43.802" r="0.46125"/>
      <circle class="cls-28" cx="128.22372" cy="55.149" r="0.61847"/>
      <circle class="cls-28" cx="135.02909" cy="54.06927" r="0.46125"/>
      <circle class="cls-28" cx="125.45709" cy="48.86535" r="0.61847"/>
      <path class="cls-29" d="M132.08774,46.88575h20.51151a.93042.93042,0,0,1,.93042.93042v2.41545a.93042.93042,0,0,1-.93042.93042H132.08774a1.11119,1.11119,0,0,1-1.11119-1.11119v-2.0539A1.11119,1.11119,0,0,1,132.08774,46.88575Z"/>
      <rect class="cls-24" x="151.40761" y="44.48529" width="11.17483" height="8.74347" rx="2.16128"/>
      <path class="cls-4" d="M131.56829,51.618a4.2564,4.2564,0,0,1-.745-1.95161"/>
      <path class="cls-4" d="M130.91928,48.38306a4.25673,4.25673,0,0,1,.553-2.01445"/>
      <rect class="cls-7" x="121.75734" y="11.67082" width="3.09963" height="51.18016"/>
      <rect class="cls-17" x="119.06605" y="19.61469" width="8.07616" height="4.70593" transform="translate(101.13647 145.07178) rotate(-90)"/>
      <rect class="cls-7" x="118.03866" y="3.42644" width="3.09963" height="29.22578" transform="translate(26.91338 95.74484) rotate(-48.55702)"/>
      <rect class="cls-17" x="109.04554" y="9.94289" width="8.07616" height="4.70593" transform="translate(189.71446 96.36016) rotate(-138.55702)"/>
      <rect class="cls-7" x="110.86662" y="4.75742" width="3.09963" height="16.41125" transform="translate(42.09229 -75.69365) rotate(45.00002)"/>
      <rect class="cls-17" x="118.91751" y="18.65936" width="8.07616" height="4.70593" transform="translate(201.21739 118.14463) rotate(-138.55702)"/>
      <rect class="cls-17" x="109.04554" y="9.94289" width="8.07616" height="4.70593" transform="translate(201.7403 -58.97186) rotate(135)"/>
      <g>
        <path class="cls-9" d="M106.96837,21.2606c1.67286-.28168,5.47132.49005,6.642-1.48932,4.79126-8.10046,5.97815-5.308,7.14087-3.54651,2.343,3.54969,8.41492,3.26575,8.28223,7.25641-.11975,3.60138-4.29883,3.59216-7.38416,8.35376-5.22607,8.06561-1.11609,20.25415,2.01392,29.53638.84363,2.502,1.67041,4.51062,2.23755,5.81775"/>
        <path class="cls-30" d="M107.13061,21.75047a.50759.50759,0,1,1,.35766-.62238A.50774.50774,0,0,1,107.13061,21.75047Z"/>
      </g>
      <path class="cls-7" d="M126.38223,62.851h-6.16088c-.05689.03272-.11608.06442-.17583.0959V93.55459h6.52326V62.96374Q126.47274,62.90839,126.38223,62.851Z"/>
      <path class="cls-7" d="M118.50862,90.28038h9.59706a.73652.73652,0,0,1,.73652.73652v2.8805a0,0,0,0,1,0,0H117.7721a0,0,0,0,1,0,0v-2.8805A.73652.73652,0,0,1,118.50862,90.28038Z"/>
      <path class="cls-31" d="M136.55085,67.57971c1.59109,2.48268,3.372,6.17387,2.23984,9.66671-1.113,3.43369-4.16938,3.98625-4.47969,7.07317-.34016,3.38391,2.92382,6.787,5.89432,8.252.68518.33792,2.4699,1.12268,8.95938.82524A72.82428,72.82428,0,0,0,159.30293,92.218"/>
      <path class="cls-3" d="M141.85574,67.81549c1.29445,2.769,2.48365,6.60907,1.41462,10.60978-.88387,3.3078-2.67513,4.344-2.35771,6.83742.545,4.28138,6.52072,6.68448,7.78049,7.19107a18.31965,18.31965,0,0,0,11.67076.47156"/>
      <path class="cls-11" d="M134.74361,67.18906h3.30871a0,0,0,0,1,0,0v1.477a0,0,0,0,1,0,0h-3.30871a.46365.46365,0,0,1-.46365-.46365v-.54968A.46365.46365,0,0,1,134.74361,67.18906Z"/>
      <path class="cls-11" d="M141.09592,67.18906h1.665a0,0,0,0,1,0,0v1.477a0,0,0,0,1,0,0h-1.665a.46365.46365,0,0,1-.46365-.46365v-.54968A.46365.46365,0,0,1,141.09592,67.18906Z"/>
      <path class="cls-7" d="M152.1965,90.28038h9.59706a.73652.73652,0,0,1,.73652.73652v2.8805a0,0,0,0,1,0,0H151.46a0,0,0,0,1,0,0v-2.8805A.73652.73652,0,0,1,152.1965,90.28038Z"/>
    </g>
  </g>
</svg>
