<svg xmlns="http://www.w3.org/2000/svg" xmlns:xlink="http://www.w3.org/1999/xlink" viewBox="0 0 261.36015 157.32742"><defs><style>.cls-1,.cls-19,.cls-2,.cls-20,.cls-23,.cls-28,.cls-31,.cls-8,.cls-9{fill:none;}.cls-1{stroke:#58595b;stroke-dasharray:2;}.cls-1,.cls-10,.cls-11,.cls-12,.cls-13,.cls-14,.cls-15,.cls-16,.cls-17,.cls-18,.cls-19,.cls-2,.cls-20,.cls-21,.cls-23,.cls-25,.cls-26,.cls-28,.cls-30,.cls-31,.cls-33,.cls-34,.cls-4,.cls-5,.cls-6,.cls-8,.cls-9{stroke-miterlimit:10;}.cls-1,.cls-13,.cls-16,.cls-18,.cls-23,.cls-26,.cls-31,.cls-6{stroke-width:0.5px;}.cls-10,.cls-11,.cls-12,.cls-14,.cls-17,.cls-2,.cls-21,.cls-25,.cls-26,.cls-33,.cls-34,.cls-4,.cls-5,.cls-6,.cls-8,.cls-9{stroke:#231f20;}.cls-3{fill:#231f20;}.cls-13,.cls-15,.cls-16,.cls-26,.cls-33,.cls-34,.cls-4,.cls-7{fill:#fff;}.cls-10,.cls-11,.cls-12,.cls-14,.cls-17,.cls-21,.cls-25,.cls-28,.cls-5,.cls-8{stroke-width:0.75px;}.cls-5{fill:url(#radial-gradient);}.cls-18,.cls-22,.cls-6{fill:#302d2f;}.cls-15,.cls-30,.cls-33,.cls-9{stroke-width:0.25px;}.cls-10{fill:url(#radial-gradient-2);}.cls-11{fill:url(#radial-gradient-3);}.cls-12{fill:url(#radial-gradient-4);}.cls-13,.cls-15,.cls-20,.cls-23{stroke:#00a551;}.cls-14{fill:url(#radial-gradient-5);}.cls-16,.cls-18,.cls-19,.cls-28{stroke:#be1e2d;}.cls-17{fill:url(#radial-gradient-6);}.cls-19,.cls-20{stroke-width:0.2px;}.cls-21{fill:url(#radial-gradient-7);}.cls-24{fill:#00a551;}.cls-25{fill:url(#radial-gradient-8);}.cls-27,.cls-30{fill:#404041;}.cls-29{fill:#be1e2d;}.cls-30{stroke:#009345;}.cls-31{stroke:#1b75bb;}.cls-32{fill:#1b75bb;}.cls-34{stroke-width:1.11213px;}</style><radialGradient id="radial-gradient" cx="39.15393" cy="68.78937" r="13.33554" gradientTransform="matrix(-0.99862, -0.05256, 0.03404, -0.64673, 75.91225, 115.33572)" gradientUnits="userSpaceOnUse"><stop offset="0.5" stop-color="#808184"/><stop offset="0.50612" stop-color="#58595b"/></radialGradient><radialGradient id="radial-gradient-2" cx="62.09973" cy="67.1565" r="13.33554" gradientTransform="matrix(-0.99862, -0.05256, 0.03404, -0.64673, 121.82772, 113.85282)" xlink:href="#radial-gradient"/><radialGradient id="radial-gradient-3" cx="86.48263" cy="68.78937" r="13.33554" gradientTransform="matrix(-0.99862, -0.05256, 0.03404, -0.64673, 170.50423, 117.82326)" xlink:href="#radial-gradient"/><radialGradient id="radial-gradient-4" cx="118.86543" cy="62.56191" r="13.33554" gradientTransform="matrix(-0.99862, -0.05256, 0.03404, -0.64673, 235.43703, 109.27029)" xlink:href="#radial-gradient"/><radialGradient id="radial-gradient-5" cx="166.39877" cy="62.60023" r="13.33554" gradientTransform="matrix(-0.99862, -0.05256, 0.03404, -0.64673, 330.43672, 111.83169)" xlink:href="#radial-gradient"/><radialGradient id="radial-gradient-6" cx="214.25238" cy="62.60023" r="13.33554" gradientTransform="matrix(-0.99862, -0.05256, 0.03404, -0.64673, 426.07781, 114.34682)" xlink:href="#radial-gradient"/><radialGradient id="radial-gradient-7" cx="145.42329" cy="15.2431" r="36.67272" gradientTransform="matrix(-0.99862, -0.05256, 0.03404, -0.64673, 290.12672, 32.74462)" gradientUnits="userSpaceOnUse"><stop offset="0.5" stop-color="#323031"/><stop offset="0.5" stop-color="#231f20"/></radialGradient><radialGradient id="radial-gradient-8" cx="205.54172" cy="13.96181" r="36.67272" gradientTransform="matrix(-0.99862, -0.05256, 0.03404, -0.64673, 410.32411, 33.79442)" xlink:href="#radial-gradient-7"/></defs><title>-1Asset 91</title><g id="Layer_2" data-name="Layer 2"><g id="Layer_1-2" data-name="Layer 1"><line class="cls-1" x1="261.36015" y1="112.61415" x2="4.18896" y2="112.61415"/><path class="cls-2" d="M22.2771,124.52731a17.70069,17.70069,0,0,1-6.07825-10.7689,19.42913,19.42913,0,0,1,.26136-7.686"/><polygon class="cls-3" points="18.658 107.548 17.608 102.675 13.911 106.021 18.658 107.548"/><path class="cls-2" d="M218.636,99.22334c.199,2.5439.95361,15.00105-6.41626,24.30026a24.05277,24.05277,0,0,1-4.512,4.38867"/><polygon class="cls-3" points="206.936 125.382 204.671 129.824 209.65 129.564 206.936 125.382"/><rect class="cls-4" x="24.42327" y="53.33591" width="44.83772" height="56.04714"/><rect class="cls-4" x="21.81673" y="49.79224" width="44.83772" height="56.04714"/><rect class="cls-4" x="24.65196" y="46.79281" width="44.83772" height="56.04714"/><rect class="cls-4" x="205.74108" y="46.7301" width="44.83772" height="56.04714"/><rect class="cls-4" x="203.13455" y="43.18643" width="44.83772" height="56.04714"/><rect class="cls-4" x="205.96978" y="40.187" width="44.83772" height="56.04714"/><rect class="cls-4" x="27.78249" y="42.88463" width="44.83772" height="56.04714"/><path class="cls-5" d="M46.34974,70.47732c-.34162,2.686-4.80471,4.27392-8.32155,3.77863S31.93734,71.1817,32.279,68.49567s3.46952-4.462,6.98635-3.96665S46.69136,67.79131,46.34974,70.47732Z"/><circle class="cls-6" cx="41.12972" cy="70.5901" r="1.85949"/><path class="cls-7" d="M40.50565,69.06206a1.24354,1.24354,0,0,0,0,2.48706A1.24354,1.24354,0,0,0,40.50565,69.06206Z"/><path class="cls-2" d="M58.49736,87.72234a15.13864,15.13864,0,0,0,2.73749-9.35184c0-8.74384-8.566-7.59017-13.67289-14.88327-2.33081-3.32871-8.493-10.4167-17.63287-13.08937.00038.09312.00745.18184.00426.27724"/><polyline class="cls-8" points="59.467 72.96 57.582 73.755 59.467 75.821 60.963 75.821"/><path class="cls-8" d="M61.41078,78.16644a6.24706,6.24706,0,0,1-2.61846.496,4.69614,4.69614,0,0,1-2.6923-.672"/><path class="cls-9" d="M53.34675,76.97591a6.21526,6.21526,0,0,1-5.80861-.4941"/><path class="cls-9" d="M53.11806,78.136a6.21529,6.21529,0,0,1-5.82939-.0481"/><path class="cls-9" d="M53.23367,76.112a6.21526,6.21526,0,0,1-5.4443-2.08414"/><rect class="cls-4" x="50.20135" y="41.25176" width="45.36466" height="56.04714"/><path class="cls-10" d="M69.29555,68.84445c-.34163,2.686-4.80471,4.27392-8.32155,3.77863s-6.09086-3.07425-5.74924-5.76028,3.46952-4.462,6.98636-3.96665S69.63716,66.15844,69.29555,68.84445Z"/><circle class="cls-6" cx="63.45145" cy="67.7632" r="2.48091"/><path class="cls-7" d="M63.45145,67.42919a1.24355,1.24355,0,0,0,0,2.48707A1.24355,1.24355,0,0,0,63.45145,67.42919Z"/><path class="cls-2" d="M81.44316,86.08947a15.13858,15.13858,0,0,0,2.7375-9.35184c0-8.74383-8.566-7.59017-13.6729-14.88327C68.177,58.52565,62.01479,51.43766,52.8749,48.765c.00038.09312.00745.18184.00425.27724"/><polyline class="cls-8" points="82.413 71.328 80.528 72.122 82.413 74.188 83.909 74.188"/><path class="cls-8" d="M84.35658,76.53357a6.247,6.247,0,0,1-2.61845.496,4.69618,4.69618,0,0,1-2.69231-.672"/><path class="cls-9" d="M76.29256,75.343a6.21528,6.21528,0,0,1-5.80862-.4941"/><path class="cls-9" d="M76.06386,76.50316a6.21529,6.21529,0,0,1-5.82939-.0481"/><path class="cls-9" d="M76.17948,74.4791A6.21531,6.21531,0,0,1,70.73517,72.395"/><rect class="cls-4" x="75.11119" y="42.88463" width="44.83772" height="56.04714"/><path class="cls-11" d="M93.67844,70.47732c-.34162,2.686-4.80471,4.27392-8.32155,3.77863S79.266,71.1817,79.60766,68.49567s3.46952-4.462,6.98635-3.96665S94.02006,67.79131,93.67844,70.47732Z"/><circle class="cls-6" cx="86.63829" cy="69.39607" r="3.5662"/><path class="cls-7" d="M87.83435,69.06206a1.24354,1.24354,0,0,0,0,2.48706A1.24354,1.24354,0,0,0,87.83435,69.06206Z"/><path class="cls-2" d="M105.82606,87.72234a15.13864,15.13864,0,0,0,2.73749-9.35184c0-8.74384-8.566-7.59017-13.67289-14.88327-2.33081-3.32871-8.493-10.4167-17.63287-13.08937.00038.09312.00745.18184.00426.27724"/><polyline class="cls-8" points="106.796 72.96 104.911 73.755 106.796 75.821 108.292 75.821"/><path class="cls-8" d="M108.73948,78.16644a6.2471,6.2471,0,0,1-2.61846.496,4.69614,4.69614,0,0,1-2.6923-.672"/><path class="cls-9" d="M100.67545,76.97591a6.21526,6.21526,0,0,1-5.80861-.4941"/><path class="cls-9" d="M100.44676,78.136a6.21529,6.21529,0,0,1-5.82939-.0481"/><path class="cls-9" d="M100.56237,76.112a6.21526,6.21526,0,0,1-5.4443-2.08414"/><rect class="cls-4" x="107.49399" y="36.65717" width="44.83772" height="56.04714"/><path class="cls-12" d="M126.06124,64.24986c-.34163,2.686-4.80471,4.27392-8.32155,3.77863s-6.09086-3.07425-5.74924-5.76028,3.46953-4.462,6.98636-3.96665S126.40285,61.56385,126.06124,64.24986Z"/><circle class="cls-6" cx="119.02108" cy="63.16861" r="3.5662"/><path class="cls-7" d="M120.21714,62.8346a1.24354,1.24354,0,0,0,0,2.48706A1.24354,1.24354,0,0,0,120.21714,62.8346Z"/><path class="cls-2" d="M138.20885,81.49488a15.13858,15.13858,0,0,0,2.7375-9.35184c0-8.74384-8.566-7.59017-13.6729-14.88327-2.33081-3.32871-8.493-10.4167-17.63286-13.08937.00038.09312.00745.18184.00425.27724"/><polyline class="cls-8" points="139.178 66.733 137.294 67.528 139.178 69.594 140.675 69.594"/><path class="cls-8" d="M141.12228,71.939a6.24714,6.24714,0,0,1-2.61846.496,4.69612,4.69612,0,0,1-2.6923-.672"/><path class="cls-9" d="M133.05825,70.74845a6.21528,6.21528,0,0,1-5.80862-.4941"/><path class="cls-9" d="M132.82955,71.90857a6.21529,6.21529,0,0,1-5.82939-.0481"/><path class="cls-9" d="M132.94517,69.8845a6.21526,6.21526,0,0,1-5.44431-2.08414"/><line class="cls-13" x1="119.68995" y1="63.1955" x2="121.45522" y2="64.96077"/><line class="cls-13" x1="121.45522" y1="63.1955" x2="119.68995" y2="64.96077"/><rect class="cls-4" x="155.02733" y="36.69549" width="44.83772" height="56.04714"/><path class="cls-14" d="M173.59458,64.28818c-.34162,2.686-4.80471,4.27392-8.32155,3.77863s-6.09086-3.07425-5.74923-5.76028,3.46952-4.462,6.98635-3.96665S173.93619,61.60217,173.59458,64.28818Z"/><circle class="cls-6" cx="166.55442" cy="63.20693" r="3.5662"/><path class="cls-15" d="M167.75048,62.87292a1.24354,1.24354,0,0,0,0,2.48706A1.24354,1.24354,0,0,0,167.75048,62.87292Z"/><path class="cls-2" d="M185.74219,81.5332a15.13858,15.13858,0,0,0,2.7375-9.35184c0-8.74384-8.566-7.59017-13.67289-14.88327-2.33082-3.32871-8.493-10.4167-17.63287-13.08937.00038.09312.00745.18184.00426.27724"/><polyline class="cls-8" points="186.712 66.771 184.827 67.566 186.712 69.632 188.208 69.632"/><path class="cls-8" d="M188.65562,71.9773a6.2471,6.2471,0,0,1-2.61846.496,4.69612,4.69612,0,0,1-2.6923-.672"/><path class="cls-9" d="M180.59159,70.78677a6.21526,6.21526,0,0,1-5.80861-.4941"/><path class="cls-9" d="M180.3629,71.94689a6.21531,6.21531,0,0,1-5.8294-.0481"/><path class="cls-9" d="M180.47851,69.92282a6.21526,6.21526,0,0,1-5.4443-2.08414"/><line class="cls-16" x1="165.14004" y1="61.98833" x2="166.9053" y2="63.75359"/><line class="cls-16" x1="166.9053" y1="61.98833" x2="165.14004" y2="63.75359"/><rect class="cls-4" x="202.88095" y="36.69549" width="44.83772" height="56.04714"/><path class="cls-17" d="M221.4482,64.28818c-.34163,2.686-4.80471,4.27392-8.32155,3.77863s-6.09086-3.07425-5.74924-5.76028,3.46953-4.462,6.98636-3.96665S221.78981,61.60217,221.4482,64.28818Z"/><circle class="cls-18" cx="214.40804" cy="63.20693" r="3.5662"/><path class="cls-15" d="M215.6041,62.87292a1.24354,1.24354,0,0,0,0,2.48706A1.24354,1.24354,0,0,0,215.6041,62.87292Z"/><path class="cls-2" d="M233.59581,81.5332a15.13858,15.13858,0,0,0,2.7375-9.35184c0-8.74384-8.566-7.59017-13.6729-14.88327-2.33081-3.32871-8.493-10.4167-17.63286-13.08937.00038.09312.00745.18184.00425.27724"/><polyline class="cls-8" points="234.565 66.771 232.681 67.566 234.565 69.632 236.062 69.632"/><path class="cls-8" d="M236.50923,71.9773a6.247,6.247,0,0,1-2.61845.496,4.69618,4.69618,0,0,1-2.69231-.672"/><path class="cls-9" d="M228.44521,70.78677a6.21528,6.21528,0,0,1-5.80862-.4941"/><path class="cls-9" d="M228.21651,71.94689a6.21529,6.21529,0,0,1-5.82939-.0481"/><path class="cls-9" d="M228.33213,69.92282a6.21526,6.21526,0,0,1-5.44431-2.08414"/><rect class="cls-19" x="208.90295" y="56.9923" width="10.67837" height="12.63984"/><rect class="cls-20" x="213.20919" y="61.89744" width="4.76505" height="4.55359"/><rect class="cls-4" x="126.40592" y="1.7813" width="38.89086" height="30.71553" rx="5.41346"/><path class="cls-21" d="M165.21177,19.885c-.93946,7.38654-13.213,11.75326-22.88426,10.39121S125.57765,21.822,126.51712,14.43542,136.0583,2.165,145.72959,3.52713,166.15121,12.49843,165.21177,19.885Z"/><circle class="cls-6" cx="145.85134" cy="16.91153" r="9.80704"/><path class="cls-7" d="M149.14051,14.59433c-6.391,0-6.40163,9.63676,0,9.63676C155.53152,24.23109,155.54213,14.59433,149.14051,14.59433Z"/><line class="cls-22" x1="149.14051" y1="18.73519" x2="149.14051" y2="14.59433"/><line class="cls-23" x1="149.1405" y1="18.3305" x2="149.1405" y2="15.67077"/><circle class="cls-7" cx="149.1405" cy="18.30921" r="0.37598"/><path class="cls-24" d="M149.56653,18.30921a.426.426,0,1,0-.426.426.42653.42653,0,0,0,.426-.426Zm-.75195,0a.32593.32593,0,1,1,.32592.326.32622.32622,0,0,1-.32592-.326Z"/><polygon class="cls-24" points="149.888 15.89 149.141 14.594 148.393 15.89 149.888 15.89"/><line class="cls-22" x1="149.14051" y1="24.23109" x2="149.14051" y2="20.09022"/><line class="cls-23" x1="149.1405" y1="23.15465" x2="149.1405" y2="20.49491"/><polygon class="cls-24" points="149.888 22.936 149.141 24.231 148.393 22.936 149.888 22.936"/><circle class="cls-7" cx="149.1405" cy="20.5162" r="0.37598"/><path class="cls-24" d="M149.56653,20.5162a.426.426,0,1,1-.426-.426.42652.42652,0,0,1,.426.426Zm-.75195,0a.32593.32593,0,1,0,.32592-.326.32623.32623,0,0,0-.32592.326Z"/><line class="cls-22" x1="148.5556" y1="19.07502" x2="144.96767" y2="17.00352"/><line class="cls-23" x1="148.2052" y1="18.87268" x2="145.8999" y2="17.54174"/><path class="cls-7" d="M148.37463,18.53642a.376.376,0,1,1-.51355.13762A.37608.37608,0,0,1,148.37463,18.53642Z"/><path class="cls-24" d="M148.39966,18.49312a.426.426,0,1,0,.156.5819.42652.42652,0,0,0-.156-.5819Zm-.376.65121a.326.326,0,1,1,.44531-.11932.32626.32626,0,0,1-.44531.11932C147.868,19.05444,148.17944,19.23423,148.02368,19.14433Z"/><polygon class="cls-24" points="146.463 17.003 144.968 17.004 145.715 18.299 146.463 17.003"/><line class="cls-22" x1="153.31334" y1="21.8219" x2="149.72323" y2="19.74914"/><line class="cls-23" x1="152.3811" y1="21.28368" x2="150.07373" y2="19.95148"/><polygon class="cls-24" points="152.566 20.527 153.313 21.822 151.818 21.822 152.566 20.527"/><path class="cls-7" d="M150.28015,19.63653a.376.376,0,1,0,.13757.51359A.37612.37612,0,0,0,150.28015,19.63653Z"/><path class="cls-24" d="M150.30518,19.59323a.426.426,0,1,1-.58191.15591.4265.4265,0,0,1,.58191-.15591C150.50854,19.71066,150.10168,19.47579,150.30518,19.59323Zm-.376.65121a.326.326,0,1,0-.11939-.44529.32618.32618,0,0,0,.11939.44529C150.08484,20.33433,149.77344,20.15455,149.9292,20.24444Z"/><line class="cls-22" x1="148.55629" y1="19.75001" x2="144.96767" y2="21.8219"/><line class="cls-23" x1="148.20581" y1="19.95235" x2="145.8999" y2="21.28368"/><path class="cls-7" d="M147.99939,19.6374a.376.376,0,1,1-.13757.51358A.37593.37593,0,0,1,147.99939,19.6374Z"/><path class="cls-24" d="M147.97437,19.59409a.426.426,0,1,0,.5819.15592.4265.4265,0,0,0-.5819-.15592C147.771,19.71152,148.17786,19.47666,147.97437,19.59409Zm.376.65122a.326.326,0,1,1,.11939-.4453.32636.32636,0,0,1-.11939.4453C148.1947,20.33519,148.5061,20.15541,148.35034,20.24531Z"/><polygon class="cls-24" points="145.715 20.527 144.968 21.822 146.463 21.822 145.715 20.527"/><line class="cls-22" x1="153.31334" y1="17.00352" x2="149.72541" y2="19.07501"/><line class="cls-23" x1="152.3811" y1="17.54174" x2="150.07593" y2="18.87267"/><polygon class="cls-24" points="151.818 17.003 153.313 17.004 152.566 18.299 151.818 17.003"/><path class="cls-7" d="M149.90637,18.53642a.376.376,0,1,0,.51355.13762A.37608.37608,0,0,0,149.90637,18.53642Z"/><path class="cls-24" d="M149.88135,18.49312a.426.426,0,1,1-.15589.5819.4265.4265,0,0,1,.15589-.5819C150.08472,18.37568,149.678,18.61055,149.88135,18.49312Zm.376.65121a.326.326,0,1,0-.44531-.11932.32627.32627,0,0,0,.44531.11932C150.413,19.05444,150.10156,19.23422,150.25732,19.14433Z"/><path class="cls-2" d="M118.42053,44.11207a17.7044,17.7044,0,0,1,.77478-9.5005,16.00073,16.00073,0,0,1,2.94678-4.94535"/><polygon class="cls-3" points="123.365 32.041 124.812 27.27 119.957 28.401 123.365 32.041"/><path class="cls-2" d="M167.0658,28.518a16.96572,16.96572,0,0,1,4.528,8.24483,16.75909,16.75909,0,0,1,.262,5.94363"/><polygon class="cls-3" points="169.52 41.421 170.986 46.186 174.38 42.534 169.52 41.421"/><path class="cls-2" d="M177.57471,44.11207a17.70419,17.70419,0,0,1,.77478-9.5005,16.0028,16.0028,0,0,1,2.94665-4.94535"/><polygon class="cls-3" points="182.519 32.041 183.966 27.27 179.111 28.401 182.519 32.041"/><path class="cls-2" d="M227.62561,28.518a16.96366,16.96366,0,0,1,4.528,8.24483,16.75912,16.75912,0,0,1,.262,5.94363"/><polygon class="cls-3" points="230.079 41.421 231.546 46.186 234.94 42.534 230.079 41.421"/><path class="cls-3" d="M110.19043,11.14285l2.73926-7.13232h1.0166l2.91894,7.13232H115.79l-.832-2.16016h-2.98242l-.78321,2.16016Zm2.05762-2.92871h2.418l-.74414-1.97559q-.33985-.89942-.50586-1.479a9.12342,9.12342,0,0,1-.38379,1.3623Z"/><path class="cls-3" d="M119.77539,13.97v.49072h-2.749a.90906.90906,0,0,1,.05957-.35449,1.87635,1.87635,0,0,1,.33594-.55322,5.25077,5.25077,0,0,1,.668-.6294,5.6303,5.6303,0,0,0,.916-.88086,1.05342,1.05342,0,0,0,.23828-.61426.6818.6818,0,0,0-.2168-.51171.781.781,0,0,0-.56543-.2085.79667.79667,0,0,0-.58984.22119.83757.83757,0,0,0-.22461.61279l-.52441-.05419a1.29445,1.29445,0,0,1,.40527-.895,1.38446,1.38446,0,0,1,.94434-.30762,1.31708,1.31708,0,0,1,.94726.332,1.08727,1.08727,0,0,1,.34961.82227,1.24254,1.24254,0,0,1-.10254.49072,1.89688,1.89688,0,0,1-.33887.50781,8.24473,8.24473,0,0,1-.7871.73193q-.46.386-.58985.52344a1.67817,1.67817,0,0,0-.21582.27637Z"/><path class="cls-3" d="M172.50391,11.14334,175.24316,4.011h1.01661l2.91894,7.13233h-1.07519l-.832-2.16016h-2.98242l-.7832,2.16016Zm2.05761-2.92871h2.418L176.23535,6.239q-.33984-.89942-.50586-1.479a9.12342,9.12342,0,0,1-.38379,1.3623Z"/><path class="cls-3" d="M179.4082,13.36355l.51075-.06787a1.12488,1.12488,0,0,0,.29882.625.7373.7373,0,0,0,.51465.19141.82362.82362,0,0,0,.6084-.24951.83928.83928,0,0,0,.248-.61817.78294.78294,0,0,0-.22949-.58008.79344.79344,0,0,0-.584-.22851,1.45424,1.45424,0,0,0-.36035.05713l.05664-.44824a.7397.7397,0,0,0,.082.00537,1.05064,1.05064,0,0,0,.58691-.16993.58194.58194,0,0,0,.26172-.5249.621.621,0,0,0-.19043-.46533.67616.67616,0,0,0-.49023-.18408.69775.69775,0,0,0-.49707.187.94476.94476,0,0,0-.25488.56152L179.459,11.364a1.31249,1.31249,0,0,1,.42579-.7959,1.229,1.229,0,0,1,.82519-.28222,1.36508,1.36508,0,0,1,.62695.146,1.06474,1.06474,0,0,1,.43848.39893,1.02661,1.02661,0,0,1,.15137.53564.87563.87563,0,0,1-.14453.49073.98874.98874,0,0,1-.42871.35205.963.963,0,0,1,.57324.353,1.0775,1.0775,0,0,1,.2041.6709,1.2251,1.2251,0,0,1-.39746.92334,1.39488,1.39488,0,0,1-1.00391.37842,1.30873,1.30873,0,0,1-.90918-.32617A1.26431,1.26431,0,0,1,179.4082,13.36355Z"/><path class="cls-3" d="M236.5918,30.44607l2.73925-7.13232h1.01661l2.91894,7.13232h-1.07519l-.832-2.16015H238.377l-.7832,2.16015Zm2.05761-2.92871h2.418l-.74414-1.97558q-.33984-.89941-.50586-1.479a9.12388,9.12388,0,0,1-.38379,1.36231Z"/><path class="cls-3" d="M245.12988,33.76394v-.9956h-1.80371v-.46777l1.89746-2.69483h.417v2.69483h.56153v.46777h-.56153v.9956Zm0-1.46337v-1.875l-1.30176,1.875Z"/><path class="cls-3" d="M209.88867,142.0281l2.73926-7.13232h1.0166l2.91895,7.13232h-1.0752l-.832-2.16015h-2.98242l-.78321,2.16015Zm2.05762-2.92871h2.418l-.74414-1.97558q-.33985-.89941-.50586-1.479a9.12388,9.12388,0,0,1-.38379,1.36231Z"/><path class="cls-3" d="M216.79,144.25662l.53613-.04541a.95827.95827,0,0,0,.27637.58887.75123.75123,0,0,0,.52344.19677.81331.81331,0,0,0,.624-.27783,1.048,1.048,0,0,0,.25488-.7373.94574.94574,0,0,0-.24511-.68946.85653.85653,0,0,0-.64258-.25244.89255.89255,0,0,0-.44531.11231.86336.86336,0,0,0-.31153.29052l-.47949-.0625.40234-2.13574h2.06836v.4878h-1.65918l-.22461,1.11767a1.35558,1.35558,0,0,1,.78614-.26074,1.24622,1.24622,0,0,1,.91894.377,1.32111,1.32111,0,0,1,.374.97022,1.511,1.511,0,0,1-.32911.97558,1.31718,1.31718,0,0,1-1.09179.50489,1.34639,1.34639,0,0,1-.92578-.31739A1.24091,1.24091,0,0,1,216.79,144.25662Z"/><path class="cls-3" d="M7.1582,70.34305H0V65.16726H.84473v4.22852H3.03711v-3.96H3.877v3.96H6.31348V65.00125H7.1582Z"/><path class="cls-3" d="M7.1582,63.805H1.97266v-.791H2.71a1.86492,1.86492,0,0,1-.85449-1.65039,2.18243,2.18243,0,0,1,.168-.86181,1.36127,1.36127,0,0,1,.44238-.58838,1.69632,1.69632,0,0,1,.64941-.27344,5.01576,5.01576,0,0,1,.8545-.04883H7.1582V60.47H4.00391a2.36074,2.36074,0,0,0-.80274.10254.84752.84752,0,0,0-.42578.36377,1.16023,1.16023,0,0,0-.1582.61279,1.42555,1.42555,0,0,0,.35644.96924,1.75728,1.75728,0,0,0,1.35254.40771h2.832Z"/><path class="cls-3" d="M7.58789,58.40457l.12695-.85449a.81368.81368,0,0,0,.57618-.29785,1.46181,1.46181,0,0,0,.24414-.89356,1.567,1.567,0,0,0-.24414-.94238,1.20335,1.20335,0,0,0-.6836-.44922,5.60911,5.60911,0,0,0-1.12793-.06348,1.80921,1.80921,0,0,1,.67871,1.43555,1.95625,1.95625,0,0,1-.77148,1.65527,2.97091,2.97091,0,0,1-1.85059.58594A3.44513,3.44513,0,0,1,3.166,58.3118a2.14717,2.14717,0,0,1-.96875-.77881,2.1058,2.1058,0,0,1-.3418-1.19873,1.85806,1.85806,0,0,1,.74219-1.51368h-.625V54.01H6.45508a4.25331,4.25331,0,0,1,1.7168.24658,1.8083,1.8083,0,0,1,.79785.78125,2.70714,2.70714,0,0,1,.293,1.31592,2.48767,2.48767,0,0,1-.417,1.499A1.41366,1.41366,0,0,1,7.58789,58.40457ZM4.47266,57.677a2.24991,2.24991,0,0,0,1.48925-.40527,1.33736,1.33736,0,0,0,.00293-2.03125A2.179,2.179,0,0,0,4.502,54.83035a2.12554,2.12554,0,0,0-1.43554.42236,1.30652,1.30652,0,0,0-.4834,1.01807,1.27117,1.27117,0,0,0,.47558.99609A2.1174,2.1174,0,0,0,4.47266,57.677Z"/><path class="cls-3" d="M1.01074,52.677H0v-.87891H1.01074Zm6.14746,0H1.97266v-.87891H7.1582Z"/><path class="cls-3" d="M7.1582,50.46023H1.97266v-.791H2.71a1.86492,1.86492,0,0,1-.85449-1.65039,2.18251,2.18251,0,0,1,.168-.86182,1.36127,1.36127,0,0,1,.44238-.58838,1.69632,1.69632,0,0,1,.64941-.27344,5.01605,5.01605,0,0,1,.8545-.04882H7.1582v.8789H4.00391a2.36074,2.36074,0,0,0-.80274.10254.84752.84752,0,0,0-.42578.36377,1.16025,1.16025,0,0,0-.1582.61279,1.42553,1.42553,0,0,0,.35644.96924,1.75728,1.75728,0,0,0,1.35254.40772h2.832Z"/><path class="cls-3" d="M5.48828,41.3489l.11231-.9082a2.217,2.217,0,0,1,1.23535.7959,2.69554,2.69554,0,0,1-.26172,3.28857,2.73658,2.73658,0,0,1-1.96484.66651,2.86535,2.86535,0,0,1-2.03126-.67383,2.2818,2.2818,0,0,1-.72265-1.74805,2.21806,2.21806,0,0,1,.708-1.69922,2.812,2.812,0,0,1,1.99218-.65918c.05176,0,.12989.00147.23438.00489v3.86719a1.99507,1.99507,0,0,0,1.30859-.4834,1.43824,1.43824,0,0,0,.4541-1.084,1.34731,1.34731,0,0,0-.2539-.82519A1.68167,1.68167,0,0,0,5.48828,41.3489Zm-1.4209,2.88575V41.33914a1.756,1.756,0,0,0-.98144.332A1.34609,1.34609,0,0,0,2.57812,42.76,1.39438,1.39438,0,0,0,2.9834,43.7781,1.606,1.606,0,0,0,4.06738,44.23465Z"/><path class="cls-3" d="M7.77637,157.32742H.61816v-1.42578l5.06836-1.69434q.70752-.23437,1.05957-.34179-.39111-.12232-1.14746-.38086L.61816,151.77078v-1.27441H7.77637v.91308H1.78516l5.99121,2.08008v.85449l-6.09375,2.07031H7.77637Z"/><path class="cls-3" d="M5.18359,149.4075a2.67335,2.67335,0,0,1-2.13379-.80078,2.4146,2.4146,0,0,1-.57617-1.63086,2.32478,2.32478,0,0,1,.70117-1.74805,2.66383,2.66383,0,0,1,1.93555-.67871,3.42741,3.42741,0,0,1,1.57422.30029,2.12783,2.12783,0,0,1,.8916.874,2.54017,2.54017,0,0,1,.31738,1.25244,2.3297,2.3297,0,0,1-.69824,1.76025A2.78828,2.78828,0,0,1,5.18359,149.4075Zm0-.90332a2.20757,2.20757,0,0,0,1.49121-.43457,1.4465,1.4465,0,0,0-.00195-2.18262,2.26133,2.26133,0,0,0-1.51855-.43457,2.14362,2.14362,0,0,0-1.458.437,1.44944,1.44944,0,0,0-.00195,2.18018A2.20019,2.20019,0,0,0,5.18359,148.50418Z"/><path class="cls-3" d="M7.77637,140.15457h-.6543a1.61183,1.61183,0,0,1,.77148,1.45019,2.03566,2.03566,0,0,1-.34179,1.14014,2.24332,2.24332,0,0,1-.95508.80567,3.29714,3.29714,0,0,1-1.4082.28564,3.68536,3.68536,0,0,1-1.40821-.25879,2.03889,2.03889,0,0,1-.96972-.77637,2.07638,2.07638,0,0,1-.33692-1.15722,1.726,1.726,0,0,1,.71289-1.43067H.61816v-.874H7.77637Zm-2.58789,2.77832a2.25353,2.25353,0,0,0,1.48925-.41992,1.265,1.265,0,0,0,.49317-.99121,1.24429,1.24429,0,0,0-.4707-.979,2.17449,2.17449,0,0,0-1.43848-.40283,2.43791,2.43791,0,0,0-1.5625.41016,1.26154,1.26154,0,0,0-.49805,1.01074,1.217,1.217,0,0,0,.47852.979A2.362,2.362,0,0,0,5.18848,142.93289Z"/><path class="cls-3" d="M7.77637,134.55887H7.01465a1.89817,1.89817,0,0,1,.8789,1.6455,2.09578,2.09578,0,0,1-.17578.85694,1.41618,1.41618,0,0,1-.4414.59082,1.66721,1.66721,0,0,1-.65235.271,4.48215,4.48215,0,0,1-.82031.05371H2.59082v-.8789h2.876a5.13871,5.13871,0,0,0,.92773-.05371.91019.91019,0,0,0,.544-.35157,1.08345,1.08345,0,0,0,.19824-.66406,1.44874,1.44874,0,0,0-.20215-.74219,1.13039,1.13039,0,0,0-.55273-.49072,2.76235,2.76235,0,0,0-1.0127-.144H2.59082v-.87891H7.77637Z"/><path class="cls-3" d="M7.77637,132.41531H.61816v-.87891H7.77637Z"/><path class="cls-3" d="M6.10645,126.6243l.1123-.90821a2.217,2.217,0,0,1,1.23535.7959,2.69556,2.69556,0,0,1-.26172,3.28858,2.73661,2.73661,0,0,1-1.96484.6665,2.86533,2.86533,0,0,1-2.03125-.67383,2.28177,2.28177,0,0,1-.72266-1.74805,2.218,2.218,0,0,1,.708-1.69921,2.812,2.812,0,0,1,1.99219-.65918c.05176,0,.12988.00146.23437.00488v3.86719a1.99512,1.99512,0,0,0,1.3086-.4834,1.43828,1.43828,0,0,0,.4541-1.084,1.34727,1.34727,0,0,0-.25391-.82519A1.68155,1.68155,0,0,0,6.10645,126.6243ZM4.68555,129.51v-2.89551a1.756,1.756,0,0,0-.98145.332,1.34608,1.34608,0,0,0-.50781,1.08887,1.39437,1.39437,0,0,0,.40527,1.01806A1.60607,1.60607,0,0,0,4.68555,129.51Z"/><path class="cls-3" d="M6.22852,124.96414,6.0918,124.095a1.21332,1.21332,0,0,0,.80078-.40772,1.42135,1.42135,0,0,0,.27832-.93505,1.37533,1.37533,0,0,0-.2461-.89844.73879.73879,0,0,0-.5791-.293.53489.53489,0,0,0-.46875.25879,3.79917,3.79917,0,0,0-.29785.89844,8.31039,8.31039,0,0,1-.42187,1.34033,1.28191,1.28191,0,0,1-1.18946.75927,1.33551,1.33551,0,0,1-.64257-.15869,1.42757,1.42757,0,0,1-.49024-.43213,1.80627,1.80627,0,0,1-.25586-.55908,2.64719,2.64719,0,0,1-.10547-.75927,3.0021,3.0021,0,0,1,.17578-1.07178,1.45146,1.45146,0,0,1,.47657-.68115,1.85274,1.85274,0,0,1,.80273-.30274l.11719.85938a.9406.9406,0,0,0-.625.33935,1.24285,1.24285,0,0,0-.22461.79346,1.434,1.434,0,0,0,.20019.86426.58417.58417,0,0,0,.46875.25879.48293.48293,0,0,0,.30762-.10743.77166.77166,0,0,0,.23438-.33691q.04833-.13183.22461-.77637a10.66413,10.66413,0,0,1,.4082-1.30127,1.3166,1.3166,0,0,1,.46094-.57861,1.28673,1.28673,0,0,1,.75195-.21,1.47941,1.47941,0,0,1,.82812.25635,1.65493,1.65493,0,0,1,.59961.73974,2.67708,2.67708,0,0,1,.21289,1.09375,2.43419,2.43419,0,0,1-.41992,1.54053A1.95518,1.95518,0,0,1,6.22852,124.96414Z"/><path class="cls-3" d="M81.04,138.29275l2.73926-7.13232h1.0166l2.91894,7.13232H86.63965l-.832-2.16015H82.8252l-.78321,2.16015Zm2.05762-2.92871h2.418l-.74414-1.97558q-.33984-.89942-.50586-1.479a9.12383,9.12383,0,0,1-.38378,1.36231Z"/><path class="cls-3" d="M89.86426,141.61062h-.51074v-3.25341a2.65131,2.65131,0,0,1-.4834.35156,3.407,3.407,0,0,1-.53711.26416v-.49365a3.07305,3.07305,0,0,0,.748-.4878,1.91615,1.91615,0,0,0,.45411-.55615h.3291Z"/><rect class="cls-4" x="186.52435" y="0.5" width="38.89086" height="30.71553" rx="5.41346"/><path class="cls-25" d="M225.33021,18.60368c-.93947,7.38654-13.213,11.75325-22.88427,10.39121s-16.74985-8.45418-15.81039-15.84077S196.17674.88374,205.848,2.24583,226.26965,11.21714,225.33021,18.60368Z"/><circle class="cls-26" cx="205.96978" cy="15.63023" r="9.80704"/><line class="cls-27" x1="205.89166" y1="11.04149" x2="205.89166" y2="6.12705"/><line class="cls-28" x1="205.8916" y1="10.43447" x2="205.8916" y2="7.7417"/><path class="cls-7" d="M206.45557,10.40252a.564.564,0,1,1-.564-.564A.564.564,0,0,1,206.45557,10.40252Z"/><path class="cls-29" d="M206.53064,10.40252a.639.639,0,1,0-.639.639.63979.63979,0,0,0,.639-.639Zm-1.12793,0a.489.489,0,1,1,.48889.489.48939.48939,0,0,1-.48889-.489Z"/><polygon class="cls-29" points="207.014 8.07 205.892 6.127 204.77 8.07 207.014 8.07"/><line class="cls-27" x1="205.89166" y1="25.07395" x2="205.89166" y2="14.55734"/><line class="cls-28" x1="205.8916" y1="23.4593" x2="205.8916" y2="15.16436"/><polygon class="cls-29" points="207.014 23.131 205.892 25.074 204.77 23.131 207.014 23.131"/><path class="cls-7" d="M206.45557,15.19631a.564.564,0,1,0-.564.564A.564.564,0,0,0,206.45557,15.19631Z"/><path class="cls-29" d="M206.53064,15.19631a.639.639,0,1,1-.639-.639.63978.63978,0,0,1,.639.639Zm-1.12793,0a.489.489,0,1,0,.48889-.489.48939.48939,0,0,0-.48889.489Z"/><line class="cls-27" x1="204.41561" y1="11.82987" x2="199.22195" y2="8.83131"/><line class="cls-28" x1="203.88989" y1="11.52636" x2="200.62024" y2="9.63864"/><path class="cls-7" d="M204.14429,11.022a.564.564,0,1,1-.77039.20643A.56413.56413,0,0,1,204.14429,11.022Z"/><path class="cls-29" d="M204.18176,10.957a.639.639,0,1,0,.23389.87284.6398.6398,0,0,0-.23389-.87284C203.87659,10.78088,204.48682,11.13318,204.18176,10.957Zm-.564.97681a.48895.48895,0,1,1,.668-.179.48942.48942,0,0,1-.668.179C203.38428,11.799,203.85132,12.06868,203.6178,11.93384Z"/><polygon class="cls-29" points="201.466 8.831 199.222 8.831 200.344 10.774 201.466 8.831"/><line class="cls-27" x1="215.09615" y1="17.99628" x2="207.46105" y2="13.58816"/><line class="cls-28" x1="213.69788" y1="17.18896" x2="207.98669" y2="13.89167"/><polygon class="cls-29" points="213.974 16.053 215.096 17.996 212.853 17.996 213.974 16.053"/><path class="cls-7" d="M208.29639,13.41923a.564.564,0,1,0,.20642.77039A.564.564,0,0,0,208.29639,13.41923Z"/><path class="cls-29" d="M208.33386,13.35428a.639.639,0,1,1-.8728.23388.63965.63965,0,0,1,.8728-.23388C208.639,13.53042,208.02881,13.17813,208.33386,13.35428Zm-.564.97682a.489.489,0,1,0-.179-.66794.48947.48947,0,0,0,.179.66794C208.00354,14.46593,207.53638,14.19626,207.7699,14.3311Z"/><line class="cls-27" x1="204.31962" y1="13.58376" x2="196.79823" y2="17.92623"/><line class="cls-28" x1="203.79395" y1="13.88727" x2="198.19653" y2="17.11891"/><path class="cls-7" d="M203.48425,13.41483a.564.564,0,1,1-.20642.77039A.564.564,0,0,1,203.48425,13.41483Z"/><path class="cls-29" d="M203.44678,13.34988a.639.639,0,1,0,.8728.23388.63976.63976,0,0,0-.8728-.23388Zm.564.97682a.489.489,0,1,1,.179-.66794.4895.4895,0,0,1-.179.66794C203.77722,14.46154,204.24426,14.19185,204.01074,14.3267Z"/><polygon class="cls-29" points="197.92 15.983 196.798 17.926 199.042 17.926 197.92 15.983"/><line class="cls-27" x1="212.5511" y1="8.83131" x2="207.35743" y2="11.82988"/><line class="cls-28" x1="211.15283" y1="9.63864" x2="207.88318" y2="11.52636"/><polygon class="cls-29" points="210.307 8.831 212.551 8.831 211.429 10.774 210.307 8.831"/><path class="cls-7" d="M207.62878,11.022a.564.564,0,1,0,.77039.20642A.56413.56413,0,0,0,207.62878,11.022Z"/><path class="cls-29" d="M207.59131,10.957a.639.639,0,1,1-.23389.87284.63969.63969,0,0,1,.23389-.87284C207.89636,10.78089,207.28625,11.13318,207.59131,10.957Zm.564.97681a.489.489,0,1,0-.668-.179.48941.48941,0,0,0,.668.179C208.38879,11.799,207.92175,12.06869,208.15527,11.93385Z"/><path class="cls-30" d="M210.43279,14.13519a2.12767,2.12767,0,0,0,0,4.2553A2.12767,2.12767,0,0,0,210.43279,14.13519Z"/><line class="cls-27" x1="212.80406" y1="16.67294" x2="208.7487" y2="14.33158"/><line class="cls-31" x1="212.48865" y1="16.49083" x2="209.06409" y2="14.51368"/><path class="cls-7" d="M212.64124,16.18821a.33838.33838,0,1,1-.46228.12385A.33843.33843,0,0,1,212.64124,16.18821Z"/><path class="cls-32" d="M212.6637,16.14924a.38336.38336,0,1,0,.14038.5237.38384.38384,0,0,0-.14038-.5237C212.48071,16.04355,212.8468,16.25493,212.6637,16.14924Zm-.33838.58609a.2934.2934,0,1,1,.40075-.10739.2936.2936,0,0,1-.40075.10739Z"/><path class="cls-7" d="M209.24988,14.23022a.33838.33838,0,1,0,.1239.46224A.33833.33833,0,0,0,209.24988,14.23022Z"/><path class="cls-32" d="M209.27246,14.19125a.38339.38339,0,1,1-.5238.14033.38387.38387,0,0,1,.5238-.14033C209.45544,14.29694,209.08936,14.08556,209.27246,14.19125Zm-.33838.58609a.29337.29337,0,1,0-.10742-.40076.29369.29369,0,0,0,.10742.40076C209.0741,14.85824,208.794,14.69644,208.93408,14.77734Z"/><line class="cls-33" x1="205.00903" y1="11.82988" x2="206.77429" y2="13.59514"/><line class="cls-33" x1="206.77429" y1="11.82988" x2="205.00903" y2="13.59514"/><line class="cls-33" x1="148.25787" y1="18.53008" x2="150.02314" y2="20.29534"/><line class="cls-33" x1="150.02314" y1="18.53008" x2="148.25787" y2="20.29534"/><rect class="cls-4" x="143.24769" y="126.05028" width="56.66023" height="20.07193" rx="5.41346"/><rect class="cls-34" x="24.47294" y="125.1674" width="51.84384" height="20.07193" rx="5.41346"/><path class="cls-3" d="M30.85633,139.17935v-7.874h1.042v7.874Z"/><path class="cls-3" d="M33.61171,139.17935v-5.70411h.86474v.8003a2.03661,2.03661,0,0,1,.71436-.67432,2.00935,2.00935,0,0,1,1.01513-.25488,1.87656,1.87656,0,0,1,1.03907.26318,1.40736,1.40736,0,0,1,.57226.73584,2.04808,2.04808,0,0,1,1.76172-.999,1.73711,1.73711,0,0,1,1.30518.46972,2.00991,2.00991,0,0,1,.45654,1.44776v3.91553h-.96145v-3.59327a2.63786,2.63786,0,0,0-.09421-.83544.80922.80922,0,0,0-.34083-.41065,1.06252,1.06252,0,0,0-.58007-.15576,1.34945,1.34945,0,0,0-.999.40039,1.7605,1.7605,0,0,0-.39746,1.28076v3.314h-.96679v-3.70606a1.62949,1.62949,0,0,0-.23633-.9668.89536.89536,0,0,0-.77344-.32226,1.40883,1.40883,0,0,0-.75488.21484,1.2202,1.2202,0,0,0-.502.62842,3.53462,3.53462,0,0,0-.15576,1.19238v2.95948Z"/><path class="cls-3" d="M42.77479,141.36538v-7.89014h.88086v.74122a2.165,2.165,0,0,1,.70361-.65235,1.92712,1.92712,0,0,1,.95069-.21777,2.256,2.256,0,0,1,1.28906.376,2.30848,2.30848,0,0,1,.84326,1.06055,3.87255,3.87255,0,0,1,.28467,1.50147,3.82407,3.82407,0,0,1-.314,1.57666,2.37694,2.37694,0,0,1-.91308,1.07422,2.34823,2.34823,0,0,1-1.25977.373,1.816,1.816,0,0,1-.86718-.2041,1.97532,1.97532,0,0,1-.63135-.51562v2.77685Zm.87549-5.00586a2.48085,2.48085,0,0,0,.4458,1.62744,1.367,1.367,0,0,0,1.07959.52637,1.39672,1.39672,0,0,0,1.10352-.54492,2.585,2.585,0,0,0,.45947-1.68945,2.51821,2.51821,0,0,0-.44873-1.63282,1.34884,1.34884,0,0,0-1.07129-.54248,1.39066,1.39066,0,0,0-1.09277.57764A2.5797,2.5797,0,0,0,43.65028,136.35952Z"/><path class="cls-3" d="M48.5326,136.3273a2.93955,2.93955,0,0,1,.88086-2.34717,2.655,2.655,0,0,1,1.794-.63379,2.55934,2.55934,0,0,1,1.92285.77051,2.93437,2.93437,0,0,1,.74658,2.12988,3.769,3.769,0,0,1-.33056,1.73242,2.33844,2.33844,0,0,1-.96094.98,2.79918,2.79918,0,0,1-1.37793.34912,2.56473,2.56473,0,0,1-1.93653-.76806A3.0686,3.0686,0,0,1,48.5326,136.3273Zm.99366,0a2.43018,2.43018,0,0,0,.478,1.64111,1.59193,1.59193,0,0,0,2.4009-.00293,2.486,2.486,0,0,0,.478-1.67041,2.35628,2.35628,0,0,0-.48047-1.603,1.59392,1.59392,0,0,0-2.39846-.00293A2.41826,2.41826,0,0,0,49.52626,136.3273Z"/><path class="cls-3" d="M54.9994,139.17935v-5.70411h.87012V134.34a2.36627,2.36627,0,0,1,.61474-.80029,1.07531,1.07531,0,0,1,.62061-.19336,1.8872,1.8872,0,0,1,.99365.31152l-.333.897a1.38334,1.38334,0,0,0-.709-.20947.92151.92151,0,0,0-.56934.19043,1.03493,1.03493,0,0,0-.35986.5293,3.76585,3.76585,0,0,0-.16113,1.12793v2.98633Z"/><path class="cls-3" d="M60.78407,138.3146l.13965.854a3.5964,3.5964,0,0,1-.73047.08594,1.6551,1.6551,0,0,1-.81641-.1665.92978.92978,0,0,1-.4082-.438,3.4637,3.4637,0,0,1-.11817-1.14111V134.2272h-.709v-.752h.709v-1.41259l.96143-.58008v1.99267h.97217v.752H59.8119v3.33545a1.67588,1.67588,0,0,0,.05127.53174.40156.40156,0,0,0,.166.188.64656.64656,0,0,0,.33056.06983A3.17039,3.17039,0,0,0,60.78407,138.3146Z"/><path class="cls-3" d="M65.63417,137.34243l.999.12354a2.438,2.438,0,0,1-.87549,1.35888,2.9667,2.9667,0,0,1-3.61767-.28711,3.015,3.015,0,0,1-.73291-2.1621,3.15189,3.15189,0,0,1,.74121-2.23438,2.50979,2.50979,0,0,1,1.92285-.79492,2.43916,2.43916,0,0,1,1.86914.77881,3.09384,3.09384,0,0,1,.7251,2.1914c0,.05713-.002.14307-.00537.25782H62.40614a2.19059,2.19059,0,0,0,.53174,1.43945,1.58311,1.58311,0,0,0,1.19238.49951,1.48,1.48,0,0,0,.90771-.2793A1.85543,1.85543,0,0,0,65.63417,137.34243Zm-3.17432-1.563h3.18506a1.93016,1.93016,0,0,0-.36524-1.07959,1.48126,1.48126,0,0,0-1.19775-.55859,1.5344,1.5344,0,0,0-1.11963.4458A1.76454,1.76454,0,0,0,62.45985,135.77944Z"/><path class="cls-3" d="M67.83631,139.17935v-5.70411h.87012V134.34a2.36627,2.36627,0,0,1,.61475-.80029,1.07532,1.07532,0,0,1,.6206-.19336,1.88723,1.88723,0,0,1,.99366.31152l-.333.897a1.3834,1.3834,0,0,0-.709-.20947.92149.92149,0,0,0-.56933.19043,1.03489,1.03489,0,0,0-.35987.5293,3.76585,3.76585,0,0,0-.16113,1.12793v2.98633Z"/><path class="cls-3" d="M150.848,139.98843v-7.874h5.69336v.9292H151.891v2.41163h4.35547v.92382H151.891v2.68018h4.834v.9292Z"/><path class="cls-3" d="M157.39491,139.98843l2.084-2.96485-1.92773-2.73925h1.209l.875,1.3374c.165.25439.29688.46728.39746.63916.15723-.23633.30274-.4458.43457-.62842l.96192-1.34814h1.15527l-1.97168,2.68554,2.12207,3.01856h-1.1875l-1.1709-1.77246-.31152-.478-1.49805,2.25049Z"/><path class="cls-3" d="M165.65077,139.12368l.13965.854a3.60083,3.60083,0,0,1-.73047.08593,1.65639,1.65639,0,0,1-.81641-.1665.9322.9322,0,0,1-.4082-.438,3.44984,3.44984,0,0,1-.11817-1.14111v-3.28174h-.709v-.75195h.709v-1.4126l.96094-.58008v1.99268h.97266v.75195h-.97266v3.33545a1.67078,1.67078,0,0,0,.05176.53174.40166.40166,0,0,0,.166.188.64748.64748,0,0,0,.33106.06982A3.17082,3.17082,0,0,0,165.65077,139.12368Z"/><path class="cls-3" d="M166.58631,139.98843v-5.7041h.86915v.86474a2.3724,2.3724,0,0,1,.61523-.80029,1.07463,1.07463,0,0,1,.62109-.19336,1.88827,1.88827,0,0,1,.99317.31152l-.333.897a1.38331,1.38331,0,0,0-.709-.20948.92151.92151,0,0,0-.56934.19043,1.04147,1.04147,0,0,0-.36035.5293,3.7663,3.7663,0,0,0-.16016,1.12793v2.98633Z"/><path class="cls-3" d="M173.98182,139.28481a3.6147,3.6147,0,0,1-1.03418.64454,2.98211,2.98211,0,0,1-1.06543.188,2.07741,2.07741,0,0,1-1.44531-.459,1.51615,1.51615,0,0,1-.50488-1.17383,1.587,1.587,0,0,1,.69043-1.32129,2.35337,2.35337,0,0,1,.69531-.31689,6.848,6.848,0,0,1,.85937-.145,8.86559,8.86559,0,0,0,1.72461-.333c.00293-.13232.00489-.2168.00489-.25244a1.06359,1.06359,0,0,0-.27442-.83252,1.61516,1.61516,0,0,0-1.10058-.32764,1.70757,1.70757,0,0,0-1.00684.23877,1.459,1.459,0,0,0-.48047.84619l-.94531-.1289a2.33392,2.33392,0,0,1,.42383-.98,1.86478,1.86478,0,0,1,.85351-.5752,3.82832,3.82832,0,0,1,1.29493-.20117,3.42513,3.42513,0,0,1,1.1875.17188,1.56825,1.56825,0,0,1,.67089.43261,1.517,1.517,0,0,1,.30079.65772,5.45935,5.45935,0,0,1,.04785.8916v1.28906a13.66171,13.66171,0,0,0,.0625,1.70557,2.13912,2.13912,0,0,0,.24414.68457h-1.00977A2.03665,2.03665,0,0,1,173.98182,139.28481Zm-.08008-2.15917a7.10936,7.10936,0,0,1-1.58007.36523,3.647,3.647,0,0,0-.84278.19336.84355.84355,0,0,0-.38183.314.83151.83151,0,0,0-.13379.45948.82307.82307,0,0,0,.293.64453,1.25908,1.25908,0,0,0,.85644.25781,1.99749,1.99749,0,0,0,.99414-.24463,1.50587,1.50587,0,0,0,.63867-.66846,2.33854,2.33854,0,0,0,.15625-.96679Z"/><path class="cls-3" d="M180.1,137.89907l.95117.12354a2.47174,2.47174,0,0,1-.79785,1.53906,2.32744,2.32744,0,0,1-1.57715.55566,2.44667,2.44667,0,0,1-1.88184-.76562,3.103,3.103,0,0,1-.71191-2.19385,3.95474,3.95474,0,0,1,.30664-1.6167,2.12757,2.12757,0,0,1,.93164-1.03906,2.75936,2.75936,0,0,1,1.36133-.34668,2.36728,2.36728,0,0,1,1.51953.46973,2.15466,2.15466,0,0,1,.75781,1.335l-.93945.145a1.5615,1.5615,0,0,0-.47559-.86475,1.23221,1.23221,0,0,0-.82519-.29,1.50237,1.50237,0,0,0-1.18653.52344,2.48629,2.48629,0,0,0-.45605,1.65723,2.574,2.574,0,0,0,.43945,1.67041,1.43618,1.43618,0,0,0,1.15039.521,1.35328,1.35328,0,0,0,.9502-.34912A1.73653,1.73653,0,0,0,180.1,137.89907Z"/><path class="cls-3" d="M183.98866,139.12368l.13965.854a3.60083,3.60083,0,0,1-.73047.08593,1.65639,1.65639,0,0,1-.81641-.1665.9322.9322,0,0,1-.4082-.438,3.44984,3.44984,0,0,1-.11817-1.14111v-3.28174h-.709v-.75195h.709v-1.4126l.96094-.58008v1.99268h.97266v.75195H183.016v3.33545a1.67078,1.67078,0,0,0,.05176.53174.40163.40163,0,0,0,.166.188.64744.64744,0,0,0,.33105.06982A3.17082,3.17082,0,0,0,183.98866,139.12368Z"/><path class="cls-3" d="M184.57362,137.13638a2.94114,2.94114,0,0,1,.88086-2.34717,2.655,2.655,0,0,1,1.79394-.63379,2.56015,2.56015,0,0,1,1.92286.77051,2.93211,2.93211,0,0,1,.74609,2.12988,3.76949,3.76949,0,0,1-.33008,1.73242,2.33559,2.33559,0,0,1-.96094.98,2.79781,2.79781,0,0,1-1.37793.34912,2.5632,2.5632,0,0,1-1.93652-.76806A3.06854,3.06854,0,0,1,184.57362,137.13638Zm.99414,0a2.43259,2.43259,0,0,0,.47754,1.64111,1.59244,1.59244,0,0,0,2.40137-.00293,2.48861,2.48861,0,0,0,.47754-1.67041,2.35628,2.35628,0,0,0-.48047-1.603,1.5939,1.5939,0,0,0-2.39844-.00293A2.42067,2.42067,0,0,0,185.56776,137.13638Z"/><path class="cls-3" d="M191.04139,139.98843v-5.7041h.86914v.86474a2.37253,2.37253,0,0,1,.61524-.80029,1.07461,1.07461,0,0,1,.62109-.19336,1.88827,1.88827,0,0,1,.99317.31152l-.333.897a1.38332,1.38332,0,0,0-.709-.20948.92151.92151,0,0,0-.56933.19043,1.04147,1.04147,0,0,0-.36035.5293,3.766,3.766,0,0,0-.16016,1.12793v2.98633Z"/></g></g></svg>