<svg xmlns="http://www.w3.org/2000/svg" viewBox="0 0 64.3043 16.59441">
  <defs>
    <style>
      .cls-1, .cls-2 {
        fill: #003f89;
      }

      .cls-2 {
        stroke: #003f89;
        stroke-miterlimit: 10;
        stroke-width: 0.5px;
      }
    </style>
  </defs>
  <title>-1Asset 10</title>
  <g id="Layer_2" data-name="Layer 2">
    <g id="Layer_1-2" data-name="Layer 1">
      <g>
        <path class="cls-1" d="M2.55469,16.46257V13.03289L0,8.37859H1.1875L2.32666,10.61c.312.61133.55176,1.10352.80371,1.667H3.1543c.228-.52832.5039-1.05567.81543-1.667L5.1333,8.37859H6.3208l-2.71045,4.6416v3.44238Z"/>
        <path class="cls-1" d="M11.55273,13.51238a2.83669,2.83669,0,0,1-2.89013,3.082,2.75986,2.75986,0,0,1-2.78272-2.98633,2.83461,2.83461,0,0,1,2.87842-3.082A2.74841,2.74841,0,0,1,11.55273,13.51238ZM6.94727,13.572c0,1.27148.73193,2.23144,1.76318,2.23144,1.00732,0,1.76318-.94824,1.76318-2.25488,0-.9834-.4917-2.23144-1.73925-2.23144C7.4873,11.31707,6.94727,12.46843,6.94727,13.572Z"/>
        <path class="cls-1" d="M12.8877,12.22917c0-.5996-.01172-1.09179-.04786-1.57128h.93555l.05957.959h.02442a2.1338,2.1338,0,0,1,1.91894-1.09082c.80322,0,2.05078.47949,2.05078,2.4707v3.46582H16.77344v-3.3457c0-.93555-.34766-1.71582-1.34326-1.71582a1.49967,1.49967,0,0,0-1.415,1.08008,1.51834,1.51834,0,0,0-.07178.49121v3.49023H12.8877Z"/>
        <path class="cls-1" d="M20.13525,13.75164A1.85968,1.85968,0,0,0,22.126,15.76726a3.81465,3.81465,0,0,0,1.60693-.2998l.18018.75488a4.69973,4.69973,0,0,1-1.93116.36035,2.69593,2.69593,0,0,1-2.85449-2.92676c0-1.751,1.03174-3.12988,2.72266-3.12988A2.45937,2.45937,0,0,1,24.249,13.26042a4.01158,4.01158,0,0,1-.03613.49122Zm3.09424-.75489a1.50341,1.50341,0,0,0-1.46338-1.71582A1.75,1.75,0,0,0,20.147,12.99675Z"/>
        <path class="cls-1" d="M25.55957,7.947h1.05566V11.569h.02393a1.95666,1.95666,0,0,1,.75537-.74317,2.175,2.175,0,0,1,1.07959-.2998c.7793,0,2.02686.47949,2.02686,2.48242v3.4541H29.44531v-3.334c0-.93555-.34765-1.72754-1.34326-1.72754a1.517,1.517,0,0,0-1.415,1.05566,1.27563,1.27563,0,0,0-.07178.50391v3.50195H25.55957Z"/>
        <path class="cls-1" d="M35.43359,16.46257l-.084-.73144h-.03613a2.16063,2.16063,0,0,1-1.77491.86328,1.6535,1.6535,0,0,1-1.7749-1.667c0-1.40332,1.24707-2.1709,3.48975-2.15918V12.6491a1.19653,1.19653,0,0,0-1.31885-1.34375,2.89294,2.89294,0,0,0-1.51123.43164l-.24023-.69532a3.60614,3.60614,0,0,1,1.90722-.51562c1.7749,0,2.20655,1.21094,2.20655,2.374V15.071a8.14089,8.14089,0,0,0,.09619,1.3916Zm-.15625-2.96191c-1.15136-.02441-2.45849.17969-2.45849,1.30664a.93446.93446,0,0,0,.9956,1.00781,1.44422,1.44422,0,0,0,1.40332-.97168,1.10648,1.10648,0,0,0,.05957-.33593Z"/>
        <path class="cls-1" d="M38.00342,12.46843c0-.68359-.01221-1.27051-.04785-1.81054h.92334l.03613,1.13964h.04785a1.7406,1.7406,0,0,1,1.60693-1.27148,1.12764,1.12764,0,0,1,.3003.03613v.99512a1.56659,1.56659,0,0,0-.35987-.03613,1.48068,1.48068,0,0,0-1.41552,1.35547,2.96915,2.96915,0,0,0-.04785.49121v3.09472H38.00342Z"/>
        <path class="cls-1" d="M45.08154,16.46257l-.084-.73144h-.03613a2.16063,2.16063,0,0,1-1.77491.86328,1.6535,1.6535,0,0,1-1.7749-1.667c0-1.40332,1.24707-2.1709,3.48975-2.15918V12.6491A1.19668,1.19668,0,0,0,43.582,11.30535a2.89252,2.89252,0,0,0-1.51074.43164l-.24024-.69532a3.60749,3.60749,0,0,1,1.90723-.51562c1.7749,0,2.20654,1.21094,2.20654,2.374V15.071a8.14082,8.14082,0,0,0,.0962,1.3916Zm-.15576-2.96191c-1.15137-.02441-2.459.17969-2.459,1.30664a.93446.93446,0,0,0,.9956,1.00781,1.44422,1.44422,0,0,0,1.40332-.97168,1.10726,1.10726,0,0,0,.06006-.33593Z"/>
        <path class="cls-1" d="M50.19531,7.947H51.251v8.51562H50.19531Z"/>
        <path class="cls-1" d="M56.24121,16.46257l-.084-.73144h-.03614a2.16061,2.16061,0,0,1-1.7749.86328,1.6535,1.6535,0,0,1-1.7749-1.667c0-1.40332,1.24707-2.1709,3.48975-2.15918V12.6491a1.19653,1.19653,0,0,0-1.31885-1.34375A2.89294,2.89294,0,0,0,53.231,11.737l-.24024-.69532a3.60617,3.60617,0,0,1,1.90723-.51562c1.7749,0,2.20654,1.21094,2.20654,2.374V15.071a8.1419,8.1419,0,0,0,.09619,1.3916ZM56.085,13.50066c-1.15137-.02441-2.4585.17969-2.4585,1.30664a.93447.93447,0,0,0,.99561,1.00781,1.44422,1.44422,0,0,0,1.40332-.97168,1.10648,1.10648,0,0,0,.05957-.33593Z"/>
        <path class="cls-1" d="M58.76318,16.46257c.02393-.3955.04786-.9834.04786-1.499V7.947h1.04345v3.64648h.02393a2.16281,2.16281,0,0,1,1.979-1.06738c1.439,0,2.4585,1.19922,2.44678,2.96191,0,2.0752-1.30762,3.10645-2.60254,3.10645a2.06692,2.06692,0,0,1-1.94287-1.09082h-.03613l-.04786.959Zm1.09131-2.32715a1.96477,1.96477,0,0,0,.04785.38379,1.6277,1.6277,0,0,0,1.583,1.23536c1.10352,0,1.76319-.89942,1.76319-2.23047,0-1.16309-.59961-2.15918-1.72706-2.15918a1.6827,1.6827,0,0,0-1.60693,1.2959,2.08321,2.08321,0,0,0-.06006.43164Z"/>
      </g>
      <line class="cls-2" x1="10.71045" y1="0.25" x2="51.72314" y2="0.25"/>
    </g>
  </g>
</svg>
