<svg xmlns="http://www.w3.org/2000/svg" xmlns:xlink="http://www.w3.org/1999/xlink" viewBox="0 0 96.33504 65.57503">
  <defs>
    <style>
      .cls-1 {
        fill: #535353;
      }

      .cls-1, .cls-16, .cls-4 {
        stroke: #000;
      }

      .cls-1, .cls-10, .cls-11, .cls-12, .cls-13, .cls-14, .cls-15, .cls-16, .cls-4, .cls-5, .cls-6, .cls-8, .cls-9 {
        stroke-miterlimit: 10;
      }

      .cls-2 {
        fill: #ff645e;
      }

      .cls-3 {
        fill: #ffbf49;
      }

      .cls-13, .cls-4, .cls-7 {
        fill: #fff;
      }

      .cls-10, .cls-11, .cls-5, .cls-6, .cls-8, .cls-9 {
        stroke: #231f20;
      }

      .cls-11, .cls-5, .cls-9 {
        stroke-width: 0.75px;
      }

      .cls-5 {
        fill: url(#radial-gradient);
      }

      .cls-12, .cls-6 {
        fill: #302d2f;
        stroke-width: 0.5px;
      }

      .cls-10, .cls-14, .cls-15, .cls-16, .cls-8, .cls-9 {
        fill: none;
      }

      .cls-10, .cls-13 {
        stroke-width: 0.25px;
      }

      .cls-11 {
        fill: url(#radial-gradient-2);
      }

      .cls-12, .cls-14 {
        stroke: #be1e2d;
      }

      .cls-13, .cls-15 {
        stroke: #00a551;
      }

      .cls-14, .cls-15 {
        stroke-width: 0.2px;
      }
    </style>
    <radialGradient id="radial-gradient" cx="11.63542" cy="15.18388" r="13.33554" gradientTransform="matrix(-0.44088, 0.89757, -0.58129, -0.28553, 40.43158, 32.97058)" gradientUnits="userSpaceOnUse">
      <stop offset="0.5" stop-color="#808184"/>
      <stop offset="0.50612" stop-color="#58595b"/>
    </radialGradient>
    <radialGradient id="radial-gradient-2" cx="59.50564" cy="33.19216" r="13.33554" gradientTransform="matrix(-0.99862, -0.05256, 0.03404, -0.64673, 117.79921, 57.78623)" xlink:href="#radial-gradient"/>
  </defs>
  <title>-1Asset 2</title>
  <g id="Layer_2" data-name="Layer 2">
    <g id="Layer_1-2" data-name="Layer 1">
      <g>
        <rect class="cls-1" x="0.5" y="0.5" width="95.33504" height="64.57503"/>
        <ellipse class="cls-2" cx="4.77388" cy="3.92299" rx="1.45739" ry="1.5"/>
        <ellipse class="cls-3" cx="8.98592" cy="3.92299" rx="1.45739" ry="1.5"/>
      </g>
      <g>
        <rect class="cls-4" x="3.26799" y="7.28696" width="44.83772" height="56.04714"/>
        <g>
          <g>
            <path class="cls-5" d="M30.85621,33.12575c2.3355,1.37,2.04116,6.098.2033,9.137s-5.221,4.39207-7.55655,3.02209-2.73892-4.94419-.90105-7.98321S28.52071,31.75579,30.85621,33.12575Z"/>
            <circle class="cls-6" cx="27.09457" cy="39.17414" r="3.5662"/>
            <path class="cls-7" d="M27.25761,37.94306a1.24354,1.24354,0,0,0,2.28685.97765A1.24354,1.24354,0,0,0,27.25761,37.94306Z"/>
          </g>
          <path class="cls-8" d="M51.48813,28.73494a15.1386,15.1386,0,0,0-7.52292-6.19327c-8.03994-3.43714-10.3464,4.8928-19.05986,6.7217-3.977.83468-12.91668,3.71454-18.967,11.06805.08578.03626.17013.06463.2566.10507"/>
          <polyline class="cls-9" points="38.296 22.041 38.285 24.086 40.926 23.165 41.514 21.789"/>
          <path class="cls-9" d="M43.84674,22.29969a6.24721,6.24721,0,0,1-.57325,2.60263,4.696,4.696,0,0,1-1.67623,2.21141"/>
          <g>
            <path class="cls-10" d="M39.58213,29.24656a6.21523,6.21523,0,0,1-2.73765,5.14679"/>
            <path class="cls-10" d="M40.559,29.91288a6.21533,6.21533,0,0,1-2.33573,5.34121"/>
            <path class="cls-10" d="M38.74328,29.01093A6.21528,6.21528,0,0,1,34.6868,33.1977"/>
          </g>
        </g>
      </g>
      <g>
        <rect class="cls-4" x="48.1342" y="7.28742" width="44.83772" height="56.04714"/>
        <g>
          <g>
            <path class="cls-11" d="M66.70145,34.88011c-.34162,2.686-4.80471,4.27392-8.32155,3.77863s-6.09086-3.07425-5.74923-5.76028,3.46952-4.462,6.98635-3.96665S67.04306,32.1941,66.70145,34.88011Z"/>
            <circle class="cls-12" cx="59.66129" cy="33.79886" r="3.5662"/>
            <path class="cls-13" d="M60.85735,33.46485a1.24355,1.24355,0,0,0,0,2.48707A1.24355,1.24355,0,0,0,60.85735,33.46485Z"/>
          </g>
          <path class="cls-8" d="M78.84906,52.12513a15.13858,15.13858,0,0,0,2.7375-9.35184c0-8.74383-8.566-7.59017-13.67289-14.88327-2.33082-3.32871-8.493-10.4167-17.63287-13.08937.00038.09312.00745.18184.00426.27724"/>
          <polyline class="cls-9" points="79.819 37.363 77.934 38.158 79.819 40.224 81.315 40.224"/>
          <path class="cls-9" d="M81.76249,42.56923a6.2471,6.2471,0,0,1-2.61846.496,4.69612,4.69612,0,0,1-2.6923-.672"/>
          <g>
            <path class="cls-10" d="M73.69846,41.3787a6.21526,6.21526,0,0,1-5.80861-.4941"/>
            <path class="cls-10" d="M73.46977,42.53882a6.21531,6.21531,0,0,1-5.8294-.0481"/>
            <path class="cls-10" d="M73.58538,40.51476a6.21531,6.21531,0,0,1-5.4443-2.08415"/>
          </g>
          <rect class="cls-14" x="54.1562" y="27.58423" width="10.67837" height="12.63984"/>
          <rect class="cls-15" x="58.46244" y="32.48938" width="4.76505" height="4.55359"/>
        </g>
      </g>
      <g>
        <path class="cls-16" d="M22.35864,26.0707a12.48476,12.48476,0,0,1,3.96686-9.69665A11.67825,11.67825,0,0,1,32.9187,13.491"/>
        <polygon points="31.881 15.011 37.344 13.73 31.972 12.107 31.881 15.011"/>
      </g>
    </g>
  </g>
</svg>
