<svg xmlns="http://www.w3.org/2000/svg" xmlns:xlink="http://www.w3.org/1999/xlink" viewBox="0 0 190.68692 322.27001">
  <defs>
    <style>
      .cls-1, .cls-4 {
        fill: #535353;
      }

      .cls-1, .cls-17, .cls-18, .cls-19, .cls-4, .cls-5 {
        stroke: #000;
      }

      .cls-1, .cls-10, .cls-11, .cls-12, .cls-13, .cls-14, .cls-15, .cls-17, .cls-18, .cls-19, .cls-20, .cls-22, .cls-24, .cls-25, .cls-26, .cls-27, .cls-28, .cls-4, .cls-5, .cls-6, .cls-7, .cls-8, .cls-9 {
        stroke-miterlimit: 10;
      }

      .cls-1 {
        stroke-width: 0.99214px;
      }

      .cls-2 {
        fill: #ff645e;
      }

      .cls-3 {
        fill: #ffbf49;
      }

      .cls-16, .cls-5, .cls-8 {
        fill: #fff;
      }

      .cls-10, .cls-11, .cls-14, .cls-15, .cls-20, .cls-22, .cls-24, .cls-25, .cls-26, .cls-27, .cls-6, .cls-9 {
        stroke: #231f20;
      }

      .cls-10, .cls-14, .cls-20, .cls-22, .cls-23, .cls-24, .cls-25, .cls-26, .cls-27, .cls-6 {
        stroke-width: 0.75px;
      }

      .cls-6 {
        fill: url(#radial-gradient);
      }

      .cls-15, .cls-21, .cls-7 {
        fill: #302d2f;
      }

      .cls-12, .cls-7 {
        stroke: #be1e2d;
      }

      .cls-15, .cls-18, .cls-19, .cls-7 {
        stroke-width: 0.5px;
      }

      .cls-13, .cls-8 {
        stroke: #00a551;
      }

      .cls-11, .cls-8 {
        stroke-width: 0.25px;
      }

      .cls-10, .cls-11, .cls-12, .cls-13, .cls-18, .cls-19, .cls-9 {
        fill: none;
      }

      .cls-12, .cls-13 {
        stroke-width: 0.2px;
      }

      .cls-14 {
        fill: url(#radial-gradient-2);
      }

      .cls-17 {
        fill: #1a1a1a;
      }

      .cls-18 {
        stroke-dasharray: 2;
      }

      .cls-19 {
        stroke-dasharray: 2.01907 2.01907;
      }

      .cls-20 {
        fill: url(#radial-gradient-3);
      }

      .cls-22 {
        fill: url(#radial-gradient-4);
      }

      .cls-23 {
        fill: #fcee21;
        stroke: #ed1c24;
        stroke-linejoin: round;
      }

      .cls-24 {
        fill: url(#radial-gradient-5);
      }

      .cls-25 {
        fill: url(#radial-gradient-6);
      }

      .cls-26 {
        fill: url(#radial-gradient-7);
      }

      .cls-27 {
        fill: url(#radial-gradient-8);
      }

      .cls-28 {
        stroke: #b3b3b3;
        stroke-width: 0.42159px;
      }
    </style>
    <radialGradient id="radial-gradient" cx="59.50564" cy="45.63574" r="13.33554" gradientTransform="matrix(-0.99862, -0.05256, 0.03404, -0.64673, 117.37565, 78.2775)" gradientUnits="userSpaceOnUse">
      <stop offset="0.5" stop-color="#808184"/>
      <stop offset="0.50612" stop-color="#58595b"/>
    </radialGradient>
    <radialGradient id="radial-gradient-2" cx="14.63943" cy="45.63528" r="13.33554" gradientTransform="matrix(-0.99862, -0.05256, 0.03404, -0.64673, 27.70526, 75.91863)" xlink:href="#radial-gradient"/>
    <radialGradient id="radial-gradient-3" cx="74.07501" cy="192.63516" r="13.33554" gradientTransform="matrix(-0.99862, -0.05256, 0.03404, -0.64673, 141.49059, 321.11227)" xlink:href="#radial-gradient"/>
    <radialGradient id="radial-gradient-4" cx="29.2088" cy="192.6347" r="13.33554" gradientTransform="matrix(-0.99862, -0.05256, 0.03404, -0.64673, 51.8202, 318.7534)" xlink:href="#radial-gradient"/>
    <radialGradient id="radial-gradient-5" cx="76.49006" cy="235.37536" r="13.33554" gradientTransform="matrix(-0.99862, -0.05256, 0.03404, -0.64673, 144.86253, 391.62096)" xlink:href="#radial-gradient"/>
    <radialGradient id="radial-gradient-6" cx="31.62385" cy="235.3749" r="13.33554" gradientTransform="matrix(-0.99862, -0.05256, 0.03404, -0.64673, 55.19215, 389.26209)" xlink:href="#radial-gradient"/>
    <radialGradient id="radial-gradient-7" cx="79.49006" cy="289.88714" r="13.33554" gradientTransform="matrix(-0.99862, -0.05256, 0.03404, -0.64673, 149.00288, 481.54507)" xlink:href="#radial-gradient"/>
    <radialGradient id="radial-gradient-8" cx="34.62385" cy="289.88668" r="13.33554" gradientTransform="matrix(-0.99862, -0.05256, 0.03404, -0.64673, 59.33249, 479.1862)" xlink:href="#radial-gradient"/>
  </defs>
  <title>-1Asset 6</title>
  <g id="Layer_2" data-name="Layer 2">
    <g id="Layer_1-2" data-name="Layer 1">
      <g>
        <rect class="cls-1" x="100.05681" y="12.64544" width="68.69552" height="122.77397"/>
        <circle class="cls-2" cx="104.45566" cy="16.06843" r="1.5"/>
        <circle class="cls-3" cx="108.79084" cy="16.06843" r="1.5"/>
      </g>
      <g>
        <rect class="cls-4" x="0.5" y="12.94358" width="95.33504" height="64.57503"/>
        <ellipse class="cls-2" cx="4.77388" cy="16.36657" rx="1.45739" ry="1.5"/>
        <ellipse class="cls-3" cx="8.98592" cy="16.36657" rx="1.45739" ry="1.5"/>
      </g>
      <g>
        <rect class="cls-5" x="48.1342" y="19.731" width="44.83772" height="56.04714"/>
        <g>
          <g>
            <path class="cls-6" d="M66.70145,47.32369c-.34162,2.686-4.80471,4.27391-8.32155,3.77863S52.289,48.02807,52.63067,45.342s3.46952-4.462,6.98635-3.96665S67.04306,44.63768,66.70145,47.32369Z"/>
            <circle class="cls-7" cx="59.66129" cy="46.24244" r="3.5662"/>
            <path class="cls-8" d="M60.85735,45.90843a1.24354,1.24354,0,0,0,0,2.48706A1.24354,1.24354,0,0,0,60.85735,45.90843Z"/>
          </g>
          <path class="cls-9" d="M78.84906,64.56871a15.13858,15.13858,0,0,0,2.7375-9.35184c0-8.74384-8.566-7.59018-13.67289-14.88327-2.33082-3.32871-8.493-10.4167-17.63287-13.08937.00038.09312.00745.18184.00426.27724"/>
          <polyline class="cls-10" points="79.819 49.807 77.934 50.601 79.819 52.668 81.315 52.668"/>
          <path class="cls-10" d="M81.76249,55.01281a6.2471,6.2471,0,0,1-2.61846.496,4.69612,4.69612,0,0,1-2.6923-.672"/>
          <g>
            <path class="cls-11" d="M73.69846,53.82228a6.21526,6.21526,0,0,1-5.80861-.4941"/>
            <path class="cls-11" d="M73.46977,54.9824a6.21531,6.21531,0,0,1-5.8294-.0481"/>
            <path class="cls-11" d="M73.58538,52.95833a6.21526,6.21526,0,0,1-5.4443-2.08414"/>
          </g>
          <rect class="cls-12" x="54.1562" y="40.02781" width="10.67837" height="12.63984"/>
          <rect class="cls-13" x="58.46244" y="44.93295" width="4.76505" height="4.55359"/>
        </g>
      </g>
      <g>
        <rect class="cls-5" x="3.26799" y="19.73054" width="44.83772" height="56.04714"/>
        <g>
          <g>
            <path class="cls-14" d="M21.83524,47.32323c-.34162,2.686-4.80471,4.27392-8.32155,3.77863s-6.09085-3.07425-5.74923-5.76028,3.46952-4.462,6.98635-3.96665S22.17686,44.63722,21.83524,47.32323Z"/>
            <circle class="cls-15" cx="14.79509" cy="46.24198" r="3.5662"/>
            <path class="cls-16" d="M15.99115,45.908a1.24354,1.24354,0,0,0,0,2.48706A1.24354,1.24354,0,0,0,15.99115,45.908Z"/>
          </g>
          <path class="cls-9" d="M33.98286,64.56825a15.13864,15.13864,0,0,0,2.73749-9.35184c0-8.74384-8.566-7.59017-13.67289-14.88327-2.33081-3.32871-8.493-10.4167-17.63287-13.08937.00038.09312.00745.18184.00426.27724"/>
          <polyline class="cls-10" points="34.952 49.806 33.068 50.601 34.952 52.667 36.449 52.667"/>
          <path class="cls-10" d="M36.89628,55.01235a6.24706,6.24706,0,0,1-2.61846.496,4.69614,4.69614,0,0,1-2.6923-.672"/>
          <g>
            <path class="cls-11" d="M28.83225,53.82182a6.21526,6.21526,0,0,1-5.80861-.4941"/>
            <path class="cls-11" d="M28.60356,54.98194a6.21529,6.21529,0,0,1-5.82939-.0481"/>
            <path class="cls-11" d="M28.71917,52.95787a6.21526,6.21526,0,0,1-5.4443-2.08414"/>
          </g>
        </g>
      </g>
      <rect class="cls-17" x="104.8287" y="19.85061" width="59.24791" height="56.04714"/>
      <rect class="cls-17" x="104.78062" y="75.67845" width="59.24791" height="56.04714"/>
      <g>
        <circle class="cls-16" cx="135.45266" cy="47.87419" r="9"/>
        <path class="cls-18" d="M138.47115,47.03125c-4.16259,0-4.1695,6.27659,0,6.27659C142.63373,53.30784,142.64064,47.03125,138.47115,47.03125Z"/>
      </g>
      <g>
        <circle class="cls-19" cx="134.45268" cy="103.70202" r="9"/>
        <path class="cls-16" d="M137.47115,102.85908c-4.16259,0-4.1695,6.2766,0,6.2766C141.63373,109.13568,141.64064,102.85908,137.47115,102.85908Z"/>
      </g>
      <g>
        <path d="M32.20255,5.72656V0h2.16016a5.198,5.198,0,0,1,.87109.05469,1.7269,1.7269,0,0,1,.707.26758,1.40383,1.40383,0,0,1,.459.55273,1.75634,1.75634,0,0,1,.17383.78125,1.76016,1.76016,0,0,1-.46484,1.23633,2.2291,2.2291,0,0,1-1.67969.50586H32.96036V5.72656Zm.75781-3.0039h1.48047a1.57042,1.57042,0,0,0,1.043-.27344.97481.97481,0,0,0,.30859-.76953,1.03436,1.03436,0,0,0-.18164-.61524.85037.85037,0,0,0-.47851-.33789,3.24764,3.24764,0,0,0-.707-.05078H32.96036Z"/>
        <path d="M37.44083,5.72656V1.57812h.63281V2.207a1.71652,1.71652,0,0,1,.44727-.582.78073.78073,0,0,1,.45117-.14062,1.37292,1.37292,0,0,1,.72266.22656l-.24219.65234a1.00607,1.00607,0,0,0-.51563-.15234.67059.67059,0,0,0-.41406.13867.75048.75048,0,0,0-.26172.38477,2.7389,2.7389,0,0,0-.11718.82031V5.72656Z"/>
        <path d="M42.95255,4.39062l.72656.08985a1.77318,1.77318,0,0,1-.63672.98828,2.15708,2.15708,0,0,1-2.63086-.209,2.19028,2.19028,0,0,1-.5332-1.57227,2.29229,2.29229,0,0,1,.53906-1.625,1.82554,1.82554,0,0,1,1.39844-.57812,1.77412,1.77412,0,0,1,1.35938.5664,2.24994,2.24994,0,0,1,.52734,1.59375c0,.04151-.00147.104-.00391.1875H40.60489a1.59285,1.59285,0,0,0,.38672,1.04688,1.15155,1.15155,0,0,0,.86719.36328,1.07659,1.07659,0,0,0,.66016-.20313A1.34981,1.34981,0,0,0,42.95255,4.39062ZM40.644,3.25391h2.3164a1.40325,1.40325,0,0,0-.26562-.78516,1.07714,1.07714,0,0,0-.8711-.40625,1.11684,1.11684,0,0,0-.81445.32422A1.28306,1.28306,0,0,0,40.644,3.25391Z"/>
        <path d="M45.71427,5.72656,44.13614,1.57812h.74219L45.769,4.0625q.14429.4021.26562.83594.09375-.32812.26172-.78906l.92187-2.53126h.72266L46.37052,5.72656Z"/>
        <path d="M48.56583.80859V0H49.269V.80859Zm0,4.918V1.57812H49.269V5.72656Z"/>
        <path d="M53.17911,4.39062l.72656.08985a1.77322,1.77322,0,0,1-.63671.98828,2.15708,2.15708,0,0,1-2.63086-.209,2.19029,2.19029,0,0,1-.53321-1.57227,2.29225,2.29225,0,0,1,.53907-1.625,1.82551,1.82551,0,0,1,1.39843-.57812,1.7741,1.7741,0,0,1,1.35938.5664,2.24994,2.24994,0,0,1,.52734,1.59375c0,.04151-.00146.104-.0039.1875H50.83146a1.59279,1.59279,0,0,0,.38671,1.04688,1.15155,1.15155,0,0,0,.86719.36328,1.07659,1.07659,0,0,0,.66016-.20313A1.34974,1.34974,0,0,0,53.17911,4.39062ZM50.87052,3.25391h2.3164a1.40317,1.40317,0,0,0-.26562-.78516,1.07713,1.07713,0,0,0-.87109-.40625,1.11687,1.11687,0,0,0-.81446.32422A1.28315,1.28315,0,0,0,50.87052,3.25391Z"/>
        <path d="M55.55411,5.72656,54.28458,1.57812h.72656l.66016,2.39454.24609.89062q.01539-.06664.21485-.85547l.66015-2.42969h.72266l.62109,2.40626.207.793.23829-.80078.71093-2.39844h.6836L58.67911,5.72656h-.73047l-.66015-2.48437-.16016-.707-.83984,3.1914Z"/>
      </g>
      <g>
        <path d="M123.22208,5.72656V0h2.14844a2.66315,2.66315,0,0,1,1.05273.17383,1.35044,1.35044,0,0,1,.6211.53515,1.41279,1.41279,0,0,1,.22461.75586,1.29931,1.29931,0,0,1-.19922.69141,1.41944,1.41944,0,0,1-.60157.52344,1.49656,1.49656,0,0,1,.79883.51953,1.38875,1.38875,0,0,1,.2793.86719,1.67323,1.67323,0,0,1-.16992.748,1.445,1.445,0,0,1-.41992.53321,1.76072,1.76072,0,0,1-.627.2832,3.80525,3.80525,0,0,1-.92383.0957Zm.75781-3.32031h1.23828a2.7539,2.7539,0,0,0,.72266-.06641.80359.80359,0,0,0,.43555-.28515.82114.82114,0,0,0,.14648-.5.92413.92413,0,0,0-.13672-.502.69126.69126,0,0,0-.39062-.29687,3.26944,3.26944,0,0,0-.8711-.08008h-1.14453Zm0,2.64453h1.42578a3.29766,3.29766,0,0,0,.51563-.02734,1.23646,1.23646,0,0,0,.4375-.15625.827.827,0,0,0,.28906-.31836,1.00005,1.00005,0,0,0,.11328-.48242.95224.95224,0,0,0-.16406-.55664.86411.86411,0,0,0-.45508-.332,2.81924,2.81924,0,0,0-.83789-.0957h-1.32422Z"/>
        <path d="M128.50333.80859V0h.70313V.80859Zm0,4.918V1.57812h.70313V5.72656Z"/>
        <path d="M130.27677,5.72656V1.57812h.63281V2.168a1.492,1.492,0,0,1,1.32031-.68359,1.73331,1.73331,0,0,1,.68946.13476,1.08317,1.08317,0,0,1,.4707.35352,1.35687,1.35687,0,0,1,.21875.51953,3.99111,3.99111,0,0,1,.03906.68359V5.72656h-.70312V3.20312a1.89437,1.89437,0,0,0-.082-.64257.67309.67309,0,0,0-.291-.33985.928.928,0,0,0-.49023-.12695,1.13994,1.13994,0,0,0-.7754.28516,1.40519,1.40519,0,0,0-.32617,1.082V5.72656Z"/>
        <path d="M137.433,5.21484a2.62489,2.62489,0,0,1-.752.46875,2.1692,2.1692,0,0,1-.77539.13672,1.50826,1.50826,0,0,1-1.05078-.334,1.10156,1.10156,0,0,1-.36718-.85352,1.13157,1.13157,0,0,1,.13867-.55664,1.15405,1.15405,0,0,1,.36328-.40429,1.70818,1.70818,0,0,1,.50586-.23047,4.96285,4.96285,0,0,1,.625-.10547,6.44933,6.44933,0,0,0,1.2539-.24219c.00293-.09619.00391-.15771.00391-.18359a.77605.77605,0,0,0-.19922-.60547,1.177,1.177,0,0,0-.80078-.23828,1.24159,1.24159,0,0,0-.73242.17382,1.061,1.061,0,0,0-.34961.61524l-.6875-.09375a1.69942,1.69942,0,0,1,.30859-.71289,1.35492,1.35492,0,0,1,.6211-.418,2.77014,2.77014,0,0,1,.9414-.14648,2.48774,2.48774,0,0,1,.86328.125,1.13746,1.13746,0,0,1,.48829.31445,1.106,1.106,0,0,1,.21875.47851,3.9587,3.9587,0,0,1,.03515.64844v.9375a9.8839,9.8839,0,0,0,.04492,1.24024,1.562,1.562,0,0,0,.17774.498h-.73438A1.47747,1.47747,0,0,1,137.433,5.21484Zm-.0586-1.57031a5.1493,5.1493,0,0,1-1.14843.26563,2.64348,2.64348,0,0,0-.61328.14062.61344.61344,0,0,0-.27735.22852.62151.62151,0,0,0,.11524.80273.9154.9154,0,0,0,.623.1875,1.44922,1.44922,0,0,0,.72266-.17773,1.09435,1.09435,0,0,0,.46484-.48633,1.70282,1.70282,0,0,0,.11328-.70313Z"/>
        <path d="M139.16739,5.72656V1.57812h.63282V2.207a1.71038,1.71038,0,0,1,.44726-.582.78073.78073,0,0,1,.45117-.14062,1.37292,1.37292,0,0,1,.72266.22656l-.24219.65234a1.006,1.006,0,0,0-.51562-.15234.6706.6706,0,0,0-.41407.13867.75041.75041,0,0,0-.26171.38477,2.73858,2.73858,0,0,0-.11719.82031V5.72656Z"/>
        <path d="M141.808,7.32422l-.07813-.66016a1.57379,1.57379,0,0,0,.40235.0625.77026.77026,0,0,0,.375-.07812.63764.63764,0,0,0,.23047-.21875,3.44153,3.44153,0,0,0,.21484-.52344c.01269-.03906.03418-.09619.0625-.17187l-1.57422-4.15626h.75781l.86328,2.40235q.16847.457.30079.96094a9.45752,9.45752,0,0,1,.28906-.94532l.88672-2.418h.70312l-1.57812,4.21876a8.23373,8.23373,0,0,1-.39453.9414,1.38908,1.38908,0,0,1-.42969.50977,1.0162,1.0162,0,0,1-.57813.16211A1.41254,1.41254,0,0,1,141.808,7.32422Z"/>
      </g>
      <g>
        <path d="M180.79337,54.25635h-5.72656V52.09619a5.25167,5.25167,0,0,1,.05468-.87109,1.73671,1.73671,0,0,1,.26758-.707,1.41089,1.41089,0,0,1,.55274-.459,1.86386,1.86386,0,0,1,2.01757.291,2.227,2.227,0,0,1,.50586,1.67969v1.46875h2.32813Zm-3.00391-.75781V52.01807a1.56947,1.56947,0,0,0-.27343-1.043.97185.97185,0,0,0-.76954-.3086,1.03651,1.03651,0,0,0-.61523.18164.85111.85111,0,0,0-.33789.47852,3.28318,3.28318,0,0,0-.05078.707v1.46485Z"/>
        <path d="M180.79337,46.2915H180.184a1.51881,1.51881,0,0,1,.70313,1.31641,1.67535,1.67535,0,0,1-.14063.68555,1.12379,1.12379,0,0,1-.35351.47265,1.3303,1.3303,0,0,1-.52149.2168,3.5951,3.5951,0,0,1-.65625.043h-2.57031v-.70313h2.30078a4.12679,4.12679,0,0,0,.74219-.043.72849.72849,0,0,0,.43555-.28125.87208.87208,0,0,0,.1582-.53125,1.1532,1.1532,0,0,0-.16211-.59375.9003.9003,0,0,0-.44141-.39258,2.20431,2.20431,0,0,0-.81054-.11524h-2.22266V45.6626h4.14844Z"/>
        <path d="M182.38321,44.561h-5.73828v-.64063h.53906a1.57921,1.57921,0,0,1-.47461-.51172,1.40787,1.40787,0,0,1-.1582-.6914,1.64267,1.64267,0,0,1,.27344-.9375,1.67987,1.67987,0,0,1,.77148-.61329,2.82408,2.82408,0,0,1,1.0918-.207,2.77187,2.77187,0,0,1,1.14648.22852,1.72279,1.72279,0,0,1,.78125.66406,1.69855,1.69855,0,0,1,.27149.916,1.31661,1.31661,0,0,1-.14844.63086,1.42811,1.42811,0,0,1-.375.459h2.01953Zm-3.64062-.63672a1.80515,1.80515,0,0,0,1.18359-.32422.99138.99138,0,0,0,.38281-.78516,1.01546,1.01546,0,0,0-.39648-.80273,1.87987,1.87987,0,0,0-1.22852-.334,1.83276,1.83276,0,0,0-1.1875.32617.98385.98385,0,0,0-.39453.7793,1.014,1.014,0,0,0,.41992.79492A1.8806,1.8806,0,0,0,178.74259,43.92432Z"/>
        <path d="M175.8754,40.10791h-.80859v-.70312h.80859Zm4.918,0h-4.14844v-.70312h4.14844Z"/>
        <path d="M180.79337,38.3501h-5.72656V37.647h5.72656Z"/>
      </g>
      <g>
        <path d="M178.98575,113.00537l.19141-.75781a2.55322,2.55322,0,0,1,1.42383.85742,2.36069,2.36069,0,0,1,.49023,1.51367,2.72287,2.72287,0,0,1-.37695,1.50586,2.35406,2.35406,0,0,1-1.0918.88281,3.88977,3.88977,0,0,1-1.53516.30274,3.37845,3.37845,0,0,1-1.56054-.3418,2.33645,2.33645,0,0,1-1.01172-.97265,2.84373,2.84373,0,0,1-.3457-1.38868,2.34483,2.34483,0,0,1,.4375-1.44531,2.27265,2.27265,0,0,1,1.23046-.81641l.17579.7461a1.76771,1.76771,0,0,0-.91016.57812,1.53917,1.53917,0,0,0-.28516.95313,1.85136,1.85136,0,0,0,.31641,1.10351,1.6709,1.6709,0,0,0,.84961.623,3.41007,3.41007,0,0,0,1.09961.17969,3.50006,3.50006,0,0,0,1.27539-.21289,1.58276,1.58276,0,0,0,.81445-.66211,1.85856,1.85856,0,0,0,.26953-.97266,1.627,1.627,0,0,0-.36718-1.07812A1.88477,1.88477,0,0,0,178.98575,113.00537Z"/>
        <path d="M178.91935,111.66553a2.13933,2.13933,0,0,1-1.707-.64063,1.92875,1.92875,0,0,1-.46093-1.30469,1.86052,1.86052,0,0,1,.56054-1.39843,2.1312,2.1312,0,0,1,1.54883-.543,2.74264,2.74264,0,0,1,1.25977.24023,1.70258,1.70258,0,0,1,.71289.69922,2.03749,2.03749,0,0,1,.2539,1.00195,1.86593,1.86593,0,0,1-.55859,1.40821A2.22978,2.22978,0,0,1,178.91935,111.66553Zm0-.72266a1.76926,1.76926,0,0,0,1.19336-.34766,1.15757,1.15757,0,0,0-.002-1.74609,1.81118,1.81118,0,0,0-1.21484-.34766,1.7135,1.7135,0,0,0-1.166.34961,1.15918,1.15918,0,0,0-.002,1.74414A1.76013,1.76013,0,0,0,178.91935,110.94287Z"/>
        <path d="M180.99356,106.9624h-4.14843v-.63281h.6289a1.71548,1.71548,0,0,1-.582-.44727.78071.78071,0,0,1-.14062-.45117,1.36852,1.36852,0,0,1,.22656-.72265l.65234.24218a1.00607,1.00607,0,0,0-.15234.51563.66763.66763,0,0,0,.13867.41406.75251.75251,0,0,0,.38477.26172,2.7389,2.7389,0,0,0,.82031.11719h2.17187Z"/>
        <path d="M180.99356,104.29053h-4.14843v-.63282h.58984a1.49089,1.49089,0,0,1-.68359-1.32031,1.73323,1.73323,0,0,1,.13476-.68945,1.087,1.087,0,0,1,.35352-.4707,1.35678,1.35678,0,0,1,.51953-.21875,3.99082,3.99082,0,0,1,.68359-.03907h2.55078v.70313h-2.52343a1.89414,1.89414,0,0,0-.64258.082.677.677,0,0,0-.33984.291.92339.92339,0,0,0-.127.49023,1.13761,1.13761,0,0,0,.28516.77539,1.40592,1.40592,0,0,0,1.082.32617h2.26562Z"/>
        <path d="M179.65763,97.00146l.08984-.72656a1.77154,1.77154,0,0,1,.98828.63672,2.15708,2.15708,0,0,1-.209,2.63086,2.19028,2.19028,0,0,1-1.57227.5332,2.29225,2.29225,0,0,1-1.625-.53906,1.82308,1.82308,0,0,1-.57812-1.39844,1.77239,1.77239,0,0,1,.5664-1.35937,2.25157,2.25157,0,0,1,1.59375-.52735c.042,0,.1045.001.1875.00391v3.09375a1.59685,1.59685,0,0,0,1.04688-.38672,1.15,1.15,0,0,0,.36328-.86719,1.07443,1.07443,0,0,0-.20313-.66015A1.34546,1.34546,0,0,0,179.65763,97.00146Zm-1.13672,2.3086V96.99365a1.40975,1.40975,0,0,0-.78516.26563,1.07855,1.07855,0,0,0-.40625.87109,1.11722,1.11722,0,0,0,.32422.81445A1.28337,1.28337,0,0,0,178.52091,99.31006Z"/>
        <path d="M180.48185,92.68506a2.6039,2.6039,0,0,1,.46875.752,2.18,2.18,0,0,1,.13671.77539,1.50817,1.50817,0,0,1-.334,1.05078,1.10082,1.10082,0,0,1-.85352.36719,1.13167,1.13167,0,0,1-.55664-.13867,1.15424,1.15424,0,0,1-.40429-.36328,1.69627,1.69627,0,0,1-.23047-.50586,5.15187,5.15187,0,0,1-.10547-.625,6.41235,6.41235,0,0,0-.24219-1.25391c-.09668-.00293-.15722-.0039-.18359-.0039a.77676.77676,0,0,0-.60547.19921,1.1745,1.1745,0,0,0-.23828.80079,1.238,1.238,0,0,0,.17383.73242,1.06435,1.06435,0,0,0,.61523.34961l-.09375.6875a1.6993,1.6993,0,0,1-.71289-.3086,1.35858,1.35858,0,0,1-.418-.62109,2.77045,2.77045,0,0,1-.14648-.94141,2.49944,2.49944,0,0,1,.125-.86328,1.13736,1.13736,0,0,1,.31445-.48828,1.10594,1.10594,0,0,1,.47852-.21875,3.9611,3.9611,0,0,1,.64843-.03516h.9375a9.88183,9.88183,0,0,0,1.24024-.04492,1.57015,1.57015,0,0,0,.498-.17773v.73437A1.47422,1.47422,0,0,1,180.48185,92.68506Zm-1.57032.05859a5.149,5.149,0,0,1,.26563,1.14844,2.6965,2.6965,0,0,0,.14062.61328.60727.60727,0,0,0,.22852.27734.62149.62149,0,0,0,.80273-.11523.91541.91541,0,0,0,.1875-.623,1.45434,1.45434,0,0,0-.17773-.72265,1.08949,1.08949,0,0,0-.48633-.46485,1.70607,1.70607,0,0,0-.70312-.11328Z"/>
        <path d="M180.99356,90.9585H175.267v-.70313h5.72656Z"/>
        <path d="M190.59317,119.41162h-4.14843v-.63281h.6289a1.71548,1.71548,0,0,1-.582-.44727.78073.78073,0,0,1-.14062-.45117,1.36858,1.36858,0,0,1,.22656-.72266l.65234.24219a1.00607,1.00607,0,0,0-.15234.51563.66763.66763,0,0,0,.13867.41406.75251.75251,0,0,0,.38477.26172,2.7389,2.7389,0,0,0,.82031.11719h2.17187Z"/>
        <path d="M189.25724,113.8999l.08984-.72656a1.77158,1.77158,0,0,1,.98828.63672,2.15708,2.15708,0,0,1-.209,2.63086,2.19028,2.19028,0,0,1-1.57227.5332,2.29229,2.29229,0,0,1-1.625-.53906,1.82311,1.82311,0,0,1-.57812-1.39844,1.77238,1.77238,0,0,1,.5664-1.35937,2.25153,2.25153,0,0,1,1.59375-.52735c.042,0,.10449.001.1875.00391v3.09375a1.59685,1.59685,0,0,0,1.04688-.38672,1.15,1.15,0,0,0,.36328-.86719,1.07441,1.07441,0,0,0-.20313-.66015A1.34546,1.34546,0,0,0,189.25724,113.8999Zm-1.13672,2.3086v-2.31641a1.4098,1.4098,0,0,0-.78516.26562,1.07857,1.07857,0,0,0-.40625.8711,1.11722,1.11722,0,0,0,.32422.81445A1.28337,1.28337,0,0,0,188.12052,116.2085Z"/>
        <path d="M190.59317,112.12256h-3.60156v.62109h-.54687v-.62109h-.44141a1.92629,1.92629,0,0,1-.62109-.07422.89413.89413,0,0,1-.44336-.35742,1.28812,1.28812,0,0,1-.16992-.7168,3.43594,3.43594,0,0,1,.07031-.65625l.61328.10547a2.32844,2.32844,0,0,0-.03906.41406.61754.61754,0,0,0,.13672.45313.73883.73883,0,0,0,.51171.13281h.38282v-.80859h.54687v.80859h3.60156Z"/>
        <path d="M190.59317,110.0835h-5.72656v-.70313h5.72656Z"/>
        <path d="M189.25724,105.45068l.08984-.72656a1.77158,1.77158,0,0,1,.98828.63672,2.15708,2.15708,0,0,1-.209,2.63086,2.19028,2.19028,0,0,1-1.57227.5332,2.29229,2.29229,0,0,1-1.625-.53906,1.82311,1.82311,0,0,1-.57812-1.39844,1.77238,1.77238,0,0,1,.5664-1.35937,2.25153,2.25153,0,0,1,1.59375-.52735c.042,0,.10449.001.1875.00391v3.09375a1.59685,1.59685,0,0,0,1.04688-.38672,1.15,1.15,0,0,0,.36328-.86719,1.07441,1.07441,0,0,0-.20313-.66015A1.34546,1.34546,0,0,0,189.25724,105.45068Zm-1.13672,2.3086v-2.31641a1.40972,1.40972,0,0,0-.78516.26563,1.07854,1.07854,0,0,0-.40625.87109,1.11722,1.11722,0,0,0,.32422.81445A1.28337,1.28337,0,0,0,188.12052,107.75928Z"/>
        <path d="M189.07364,101.13428l.08985-.69141a1.79007,1.79007,0,0,1,1.11914.58008,1.69047,1.69047,0,0,1,.40429,1.14648,1.7811,1.7811,0,0,1-.55664,1.36914,2.2605,2.2605,0,0,1-1.5957.51758,2.88667,2.88667,0,0,1-1.17578-.22265,1.55088,1.55088,0,0,1-.75586-.67774,2.01261,2.01261,0,0,1-.25195-.99023,1.72326,1.72326,0,0,1,.34179-1.10547,1.5703,1.5703,0,0,1,.97071-.55078l.10547.68359a1.14024,1.14024,0,0,0-.62891.3457.89394.89394,0,0,0-.21094.59961,1.09133,1.09133,0,0,0,.38086.86328,1.80564,1.80564,0,0,0,1.20508.332,1.867,1.867,0,0,0,1.21484-.32032,1.04183,1.04183,0,0,0,.37891-.83593.98554.98554,0,0,0-.25391-.69141A1.26263,1.26263,0,0,0,189.07364,101.13428Z"/>
        <path d="M189.96427,98.30615l.62109-.10156a2.58794,2.58794,0,0,1,.0625.53125,1.2,1.2,0,0,1-.12109.59375.67969.67969,0,0,1-.31836.29687,2.50956,2.50956,0,0,1-.83008.08594h-2.38672v.51563h-.54687V99.7124h-1.02735l-.42187-.69922h1.44922v-.707h.54687v.707h2.42578a1.23834,1.23834,0,0,0,.38672-.03711.29282.29282,0,0,0,.13672-.12109.46284.46284,0,0,0,.05078-.24023A2.23959,2.23959,0,0,0,189.96427,98.30615Z"/>
        <path d="M185.67521,97.61475h-.8086v-.70313h.8086Zm4.918,0h-4.14843v-.70313h4.14843Z"/>
        <path d="M188.519,96.103a2.13933,2.13933,0,0,1-1.707-.64063,1.92875,1.92875,0,0,1-.46093-1.30469,1.86052,1.86052,0,0,1,.56054-1.39843,2.1312,2.1312,0,0,1,1.54883-.543,2.74264,2.74264,0,0,1,1.25977.24023,1.70258,1.70258,0,0,1,.71289.69922,2.03749,2.03749,0,0,1,.2539,1.00195,1.86593,1.86593,0,0,1-.55859,1.40821A2.22978,2.22978,0,0,1,188.519,96.103Zm0-.72266a1.76921,1.76921,0,0,0,1.19335-.34766,1.15756,1.15756,0,0,0-.00195-1.74609,1.81118,1.81118,0,0,0-1.21484-.34766,1.7135,1.7135,0,0,0-1.166.34961,1.15918,1.15918,0,0,0-.00195,1.74414A1.76013,1.76013,0,0,0,188.519,95.38037Z"/>
        <path d="M190.59317,91.39209h-4.14843v-.63281h.58984A1.49092,1.49092,0,0,1,186.351,89.439a1.73323,1.73323,0,0,1,.13476-.68945,1.087,1.087,0,0,1,.35352-.4707,1.35694,1.35694,0,0,1,.51953-.21875,3.99111,3.99111,0,0,1,.68359-.03906h2.55078v.70312h-2.52343a1.89414,1.89414,0,0,0-.64258.082.67705.67705,0,0,0-.33985.291.9235.9235,0,0,0-.12695.49023,1.13759,1.13759,0,0,0,.28516.77539,1.40588,1.40588,0,0,0,1.082.32617h2.26562Z"/>
      </g>
      <g>
        <rect class="cls-4" x="15.06937" y="159.943" width="95.33504" height="64.57503"/>
        <ellipse class="cls-2" cx="19.34325" cy="163.36599" rx="1.45739" ry="1.5"/>
        <ellipse class="cls-3" cx="23.55529" cy="163.36599" rx="1.45739" ry="1.5"/>
      </g>
      <g>
        <rect class="cls-5" x="62.70357" y="166.73042" width="44.83772" height="56.04714"/>
        <g>
          <g>
            <path class="cls-20" d="M81.27082,194.32312c-.34162,2.686-4.80471,4.27391-8.32155,3.77862s-6.09086-3.07425-5.74923-5.76028,3.46952-4.462,6.98635-3.96665S81.61243,191.6371,81.27082,194.32312Z"/>
            <circle class="cls-21" cx="74.23066" cy="193.24186" r="3.5662"/>
            <path class="cls-16" d="M75.42672,192.90785a1.24355,1.24355,0,0,0,0,2.48707A1.24355,1.24355,0,0,0,75.42672,192.90785Z"/>
          </g>
          <path class="cls-9" d="M93.41843,211.56813a15.13858,15.13858,0,0,0,2.7375-9.35184c0-8.74383-8.566-7.59017-13.67289-14.88326-2.33082-3.32872-8.493-10.41671-17.63287-13.08938.00038.09312.00745.18184.00426.27724"/>
          <polyline class="cls-10" points="94.388 196.806 92.503 197.601 94.388 199.667 95.884 199.667"/>
          <path class="cls-10" d="M96.33186,202.01223a6.24714,6.24714,0,0,1-2.61846.496,4.69612,4.69612,0,0,1-2.6923-.672"/>
          <g>
            <path class="cls-11" d="M88.26783,200.8217a6.21526,6.21526,0,0,1-5.80861-.4941"/>
            <path class="cls-11" d="M88.03913,201.98183a6.21533,6.21533,0,0,1-5.82939-.04811"/>
            <path class="cls-11" d="M88.15475,199.95776a6.21533,6.21533,0,0,1-5.44431-2.08415"/>
          </g>
        </g>
      </g>
      <g>
        <rect class="cls-5" x="17.83736" y="166.72996" width="44.83772" height="56.04714"/>
        <g>
          <g>
            <path class="cls-22" d="M36.40461,194.32266c-.34162,2.686-4.80471,4.27391-8.32155,3.77862s-6.09085-3.07425-5.74923-5.76028,3.46952-4.462,6.98635-3.96665S36.74623,191.63664,36.40461,194.32266Z"/>
            <circle class="cls-15" cx="29.36446" cy="193.2414" r="3.5662"/>
            <path class="cls-16" d="M30.56051,192.90739a1.24355,1.24355,0,0,0,0,2.48707A1.24355,1.24355,0,0,0,30.56051,192.90739Z"/>
          </g>
          <path class="cls-9" d="M48.55223,211.56767a15.13864,15.13864,0,0,0,2.73749-9.35184c0-8.74383-8.566-7.59017-13.67289-14.88326-2.33081-3.32872-8.493-10.41671-17.63287-13.08938.00038.09313.00745.18184.00426.27724"/>
          <polyline class="cls-10" points="49.522 196.806 47.637 197.6 49.522 199.667 51.018 199.667"/>
          <path class="cls-10" d="M51.46565,202.01178a6.24729,6.24729,0,0,1-2.61846.496,4.69612,4.69612,0,0,1-2.6923-.672"/>
          <g>
            <path class="cls-11" d="M43.40162,200.82124a6.21529,6.21529,0,0,1-5.80861-.49409"/>
            <path class="cls-11" d="M43.17293,201.98137a6.21535,6.21535,0,0,1-5.8294-.04811"/>
            <path class="cls-11" d="M43.28854,199.9573a6.21531,6.21531,0,0,1-5.4443-2.08415"/>
          </g>
        </g>
      </g>
      <path class="cls-23" d="M75.84177,194.5472v4.52172a3.27806,3.27806,0,0,1,.98965-.48929,3.87689,3.87689,0,0,1,3.01035.48929Q77.84179,196.808,75.84177,194.5472Z"/>
      <g>
        <rect class="cls-4" x="17.48442" y="202.68319" width="95.33504" height="64.57503"/>
        <ellipse class="cls-2" cx="21.7583" cy="206.10618" rx="1.45739" ry="1.5"/>
        <ellipse class="cls-3" cx="25.97034" cy="206.10618" rx="1.45739" ry="1.5"/>
      </g>
      <g>
        <rect class="cls-5" x="65.11862" y="209.47061" width="44.83772" height="56.04714"/>
        <g>
          <g>
            <path class="cls-24" d="M83.68587,237.06331c-.34162,2.686-4.80471,4.27391-8.32155,3.77862s-6.09086-3.07424-5.74923-5.76028,3.46952-4.462,6.98635-3.96665S84.02748,234.37729,83.68587,237.06331Z"/>
            <circle class="cls-21" cx="76.64571" cy="235.98206" r="3.5662"/>
            <path class="cls-8" d="M77.84177,235.64805a1.24354,1.24354,0,0,0,0,2.48706A1.24354,1.24354,0,0,0,77.84177,235.64805Z"/>
          </g>
          <path class="cls-9" d="M95.83348,254.30833a15.13861,15.13861,0,0,0,2.7375-9.35185c0-8.74383-8.566-7.59017-13.67289-14.88326-2.33082-3.32871-8.493-10.41671-17.63287-13.08938.00038.09313.00745.18184.00426.27724"/>
          <polyline class="cls-10" points="96.803 239.546 94.918 240.341 96.803 242.407 98.299 242.407"/>
          <path class="cls-10" d="M98.74691,244.75243a6.24729,6.24729,0,0,1-2.61846.496,4.69614,4.69614,0,0,1-2.6923-.672"/>
          <g>
            <path class="cls-11" d="M90.68288,243.56189a6.21529,6.21529,0,0,1-5.80861-.49409"/>
            <path class="cls-11" d="M90.45419,244.722a6.21535,6.21535,0,0,1-5.8294-.04811"/>
            <path class="cls-11" d="M90.5698,242.698a6.21531,6.21531,0,0,1-5.4443-2.08415"/>
          </g>
        </g>
      </g>
      <g>
        <rect class="cls-5" x="20.25241" y="209.47015" width="44.83772" height="56.04714"/>
        <g>
          <g>
            <path class="cls-25" d="M38.81966,237.06285c-.34162,2.686-4.80471,4.27391-8.32155,3.77862s-6.09085-3.07424-5.74923-5.76028,3.46952-4.462,6.98635-3.96665S39.16128,234.37683,38.81966,237.06285Z"/>
            <circle class="cls-15" cx="31.77951" cy="235.9816" r="3.5662"/>
            <path class="cls-16" d="M32.97557,235.64759a1.24354,1.24354,0,0,0,0,2.48706A1.24354,1.24354,0,0,0,32.97557,235.64759Z"/>
          </g>
          <path class="cls-9" d="M50.96728,254.30787a15.13867,15.13867,0,0,0,2.73749-9.35185c0-8.74383-8.566-7.59017-13.67289-14.88326-2.33081-3.32871-8.493-10.41671-17.63287-13.08938.00038.09313.00745.18184.00426.27725"/>
          <polyline class="cls-10" points="51.937 239.546 50.052 240.341 51.937 242.407 53.433 242.407"/>
          <path class="cls-10" d="M53.8807,244.752a6.24709,6.24709,0,0,1-2.61846.496,4.69616,4.69616,0,0,1-2.6923-.672"/>
          <g>
            <path class="cls-11" d="M45.81667,243.56144a6.21534,6.21534,0,0,1-5.80861-.4941"/>
            <path class="cls-11" d="M45.588,244.72156a6.21526,6.21526,0,0,1-5.82939-.04811"/>
            <path class="cls-11" d="M45.70359,242.69749a6.21531,6.21531,0,0,1-5.4443-2.08415"/>
          </g>
        </g>
      </g>
      <path class="cls-23" d="M75.42672,235.23332v4.52173a3.27788,3.27788,0,0,1,.98964-.4893,3.87689,3.87689,0,0,1,3.01036.4893Q77.42674,237.49416,75.42672,235.23332Z"/>
      <g>
        <rect class="cls-4" x="20.48442" y="257.19498" width="95.33504" height="64.57503"/>
        <ellipse class="cls-2" cx="24.7583" cy="260.61797" rx="1.45739" ry="1.5"/>
        <ellipse class="cls-3" cx="28.97034" cy="260.61797" rx="1.45739" ry="1.5"/>
      </g>
      <g>
        <rect class="cls-5" x="68.11862" y="263.98239" width="44.83772" height="56.04714"/>
        <g>
          <g>
            <path class="cls-26" d="M86.68587,291.57509c-.34162,2.686-4.80471,4.27391-8.32155,3.77862s-6.09086-3.07424-5.74923-5.76027,3.46952-4.462,6.98635-3.96666S87.02748,288.88908,86.68587,291.57509Z"/>
            <circle class="cls-7" cx="79.64571" cy="290.49384" r="3.5662"/>
            <path class="cls-8" d="M80.84177,290.15983a1.24354,1.24354,0,0,0,0,2.48706A1.24354,1.24354,0,0,0,80.84177,290.15983Z"/>
          </g>
          <path class="cls-9" d="M98.83348,308.82011a15.1386,15.1386,0,0,0,2.7375-9.35184c0-8.74384-8.566-7.59018-13.67289-14.88327-2.33082-3.32871-8.493-10.4167-17.63287-13.08937.00038.09312.00745.18183.00426.27724"/>
          <polyline class="cls-10" points="99.803 294.058 97.918 294.853 99.803 296.919 101.299 296.919"/>
          <path class="cls-10" d="M101.74691,299.26421a6.24726,6.24726,0,0,1-2.61846.496,4.6962,4.6962,0,0,1-2.6923-.672"/>
          <g>
            <path class="cls-11" d="M93.68288,298.07368a6.21533,6.21533,0,0,1-5.80861-.4941"/>
            <path class="cls-11" d="M93.45419,299.2338a6.21531,6.21531,0,0,1-5.8294-.0481"/>
            <path class="cls-11" d="M93.5698,297.20973a6.21531,6.21531,0,0,1-5.4443-2.08415"/>
          </g>
          <rect class="cls-12" x="74.14062" y="284.27921" width="10.67837" height="12.63984"/>
          <rect class="cls-13" x="78.44686" y="289.18435" width="4.76505" height="4.55359"/>
        </g>
      </g>
      <g>
        <rect class="cls-5" x="23.25241" y="263.98193" width="44.83772" height="56.04714"/>
        <g>
          <g>
            <path class="cls-27" d="M41.81966,291.57463c-.34162,2.686-4.80471,4.27391-8.32155,3.77862s-6.09085-3.07424-5.74923-5.76027,3.46952-4.462,6.98635-3.96665S42.16128,288.88862,41.81966,291.57463Z"/>
            <circle class="cls-15" cx="34.77951" cy="290.49338" r="3.5662"/>
            <path class="cls-16" d="M35.97557,290.15937a1.24354,1.24354,0,0,0,0,2.48706A1.24354,1.24354,0,0,0,35.97557,290.15937Z"/>
          </g>
          <path class="cls-9" d="M53.96728,308.81965a15.13866,15.13866,0,0,0,2.73749-9.35184c0-8.74384-8.566-7.59018-13.67289-14.88327-2.33081-3.32871-8.493-10.4167-17.63287-13.08937.00038.09312.00745.18183.00426.27724"/>
          <polyline class="cls-10" points="54.937 294.058 53.052 294.852 54.937 296.919 56.433 296.919"/>
          <path class="cls-10" d="M56.8807,299.26375a6.24706,6.24706,0,0,1-2.61846.496,4.69614,4.69614,0,0,1-2.6923-.672"/>
          <g>
            <path class="cls-11" d="M48.81667,298.07322a6.21526,6.21526,0,0,1-5.80861-.4941"/>
            <path class="cls-11" d="M48.588,299.23334a6.21529,6.21529,0,0,1-5.82939-.0481"/>
            <path class="cls-11" d="M48.70359,297.20927a6.21533,6.21533,0,0,1-5.4443-2.08414"/>
          </g>
        </g>
      </g>
      <g>
        <path d="M132.63224,176.17725v-5.72657h.75781v2.35157h2.97656v-2.35157h.75781v5.72657h-.75781V173.478h-2.97656v2.69922Z"/>
        <path d="M138.03458,174.103a2.13929,2.13929,0,0,1,.64063-1.707,1.9287,1.9287,0,0,1,1.30468-.46094,1.86049,1.86049,0,0,1,1.39844.56055,2.1312,2.1312,0,0,1,.543,1.54882,2.74247,2.74247,0,0,1-.24024,1.25977,1.7025,1.7025,0,0,1-.69921.71289,2.0374,2.0374,0,0,1-1.002.25391,1.86593,1.86593,0,0,1-1.4082-.5586A2.22978,2.22978,0,0,1,138.03458,174.103Zm.72266,0a1.76931,1.76931,0,0,0,.34765,1.19336,1.15758,1.15758,0,0,0,1.7461-.002,1.81117,1.81117,0,0,0,.34765-1.21484,1.71345,1.71345,0,0,0-.34961-1.166,1.15918,1.15918,0,0,0-1.74414-.00195A1.7602,1.7602,0,0,0,138.75724,174.103Z"/>
        <path d="M143.89786,176.17725l-1.57812-4.14844h.74218l.89063,2.48437c.09668.26856.18457.54688.26562.83594q.09375-.32812.26172-.78906l.92188-2.53125h.72265l-1.57031,4.14844Z"/>
        <path d="M149.58536,174.84131l.72656.08984a1.77148,1.77148,0,0,1-.63671.98828,2.157,2.157,0,0,1-2.63086-.209,2.19027,2.19027,0,0,1-.53321-1.57227,2.29227,2.29227,0,0,1,.53907-1.625,1.82307,1.82307,0,0,1,1.39843-.57812,1.77244,1.77244,0,0,1,1.35938.5664,2.25157,2.25157,0,0,1,.52734,1.59375c0,.042-.001.1045-.0039.1875h-3.09375a1.59685,1.59685,0,0,0,.38671,1.04688,1.15,1.15,0,0,0,.86719.36328,1.07452,1.07452,0,0,0,.66016-.20312A1.34553,1.34553,0,0,0,149.58536,174.84131Zm-2.30859-1.13672h2.3164a1.40975,1.40975,0,0,0-.26562-.78516,1.07858,1.07858,0,0,0-.87109-.40625,1.11724,1.11724,0,0,0-.81446.32422A1.28343,1.28343,0,0,0,147.27677,173.70459Z"/>
        <path d="M151.18692,176.17725v-4.14844h.63282v.6289a1.71548,1.71548,0,0,1,.44726-.582.78073.78073,0,0,1,.45117-.14062,1.36855,1.36855,0,0,1,.72266.22656l-.24219.65234a1.006,1.006,0,0,0-.51562-.15234.66763.66763,0,0,0-.41406.13867.75247.75247,0,0,0-.26172.38477,2.73862,2.73862,0,0,0-.11719.82031v2.17188Z"/>
        <path d="M155.81974,174.103a2.13929,2.13929,0,0,1,.64062-1.707,1.92873,1.92873,0,0,1,1.30469-.46094,1.86053,1.86053,0,0,1,1.39844.56055,2.1312,2.1312,0,0,1,.543,1.54882,2.74247,2.74247,0,0,1-.24024,1.25977,1.70252,1.70252,0,0,1-.69922.71289,2.03736,2.03736,0,0,1-1.00195.25391,1.8659,1.8659,0,0,1-1.4082-.5586A2.22978,2.22978,0,0,1,155.81974,174.103Zm.72265,0a1.76926,1.76926,0,0,0,.34766,1.19336,1.15757,1.15757,0,0,0,1.74609-.002,1.81111,1.81111,0,0,0,.34766-1.21484,1.71345,1.71345,0,0,0-.34961-1.166,1.15918,1.15918,0,0,0-1.74414-.00195A1.76015,1.76015,0,0,0,156.54239,174.103Z"/>
        <path d="M161.683,176.17725l-1.57813-4.14844h.74219l.89063,2.48437c.09667.26856.18457.54688.26562.83594q.09375-.32812.26172-.78906l.92187-2.53125h.72266l-1.57031,4.14844Z"/>
        <path d="M167.37052,174.84131l.72656.08984a1.77154,1.77154,0,0,1-.63672.98828,2.157,2.157,0,0,1-2.63086-.209,2.19027,2.19027,0,0,1-.5332-1.57227,2.29231,2.29231,0,0,1,.53906-1.625,1.82311,1.82311,0,0,1,1.39844-.57812,1.77241,1.77241,0,0,1,1.35937.5664,2.25153,2.25153,0,0,1,.52735,1.59375c0,.042-.001.1045-.00391.1875h-3.09375a1.59685,1.59685,0,0,0,.38672,1.04688,1.15,1.15,0,0,0,.86719.36328,1.07447,1.07447,0,0,0,.66015-.20312A1.34554,1.34554,0,0,0,167.37052,174.84131Zm-2.3086-1.13672h2.31641a1.40983,1.40983,0,0,0-.26562-.78516,1.0786,1.0786,0,0,0-.8711-.40625,1.11722,1.11722,0,0,0-.81445.32422A1.28339,1.28339,0,0,0,165.06192,173.70459Z"/>
        <path d="M168.97208,176.17725v-4.14844h.63281v.6289a1.7156,1.7156,0,0,1,.44727-.582.78073.78073,0,0,1,.45117-.14062,1.36858,1.36858,0,0,1,.72266.22656l-.24219.65234a1.00607,1.00607,0,0,0-.51563-.15234.66763.66763,0,0,0-.41406.13867.75259.75259,0,0,0-.26172.38477,2.739,2.739,0,0,0-.11718.82031v2.17188Z"/>
        <path d="M122.32755,184.25732l.69141.08985a1.79007,1.79007,0,0,1-.58008,1.11914,1.6905,1.6905,0,0,1-1.14649.4043,1.78114,1.78114,0,0,1-1.36914-.55665,2.26055,2.26055,0,0,1-.51758-1.5957,2.8865,2.8865,0,0,1,.22266-1.17578,1.55087,1.55087,0,0,1,.67773-.75586,2.01265,2.01265,0,0,1,.99024-.25195,1.72336,1.72336,0,0,1,1.10547.34179,1.57035,1.57035,0,0,1,.55078.97071l-.68359.10547a1.14026,1.14026,0,0,0-.34571-.62891.894.894,0,0,0-.59961-.21094,1.09139,1.09139,0,0,0-.86328.38086,1.80566,1.80566,0,0,0-.332,1.20508,1.86705,1.86705,0,0,0,.32031,1.21484,1.04187,1.04187,0,0,0,.83594.37891.98554.98554,0,0,0,.69141-.25391A1.26268,1.26268,0,0,0,122.32755,184.25732Z"/>
        <path d="M123.3588,183.70264a2.13932,2.13932,0,0,1,.64062-1.707,1.92875,1.92875,0,0,1,1.30469-.46094,1.86056,1.86056,0,0,1,1.39844.56054,2.13124,2.13124,0,0,1,.543,1.54883,2.7425,2.7425,0,0,1-.24024,1.25977,1.70246,1.70246,0,0,1-.69922.71289,2.03744,2.03744,0,0,1-1.002.25391,1.86593,1.86593,0,0,1-1.4082-.5586A2.22978,2.22978,0,0,1,123.3588,183.70264Zm.72266,0a1.76931,1.76931,0,0,0,.34765,1.19336,1.15758,1.15758,0,0,0,1.7461-.002,1.81118,1.81118,0,0,0,.34765-1.21484,1.71345,1.71345,0,0,0-.34961-1.166,1.15918,1.15918,0,0,0-1.74414-.00195A1.7602,1.7602,0,0,0,124.08146,183.70264Z"/>
        <path d="M128.06192,185.77686v-4.14844h.63282v.6289a1.71548,1.71548,0,0,1,.44726-.582.78073.78073,0,0,1,.45117-.14062,1.36855,1.36855,0,0,1,.72266.22656l-.24219.65234a1.006,1.006,0,0,0-.51562-.15234.66763.66763,0,0,0-.41406.13867.75247.75247,0,0,0-.26172.38477,2.73862,2.73862,0,0,0-.11719.82031v2.17188Z"/>
        <path d="M130.7338,185.77686v-4.14844h.63281v.58984a1.49092,1.49092,0,0,1,1.32031-.68359,1.73327,1.73327,0,0,1,.68946.13476,1.087,1.087,0,0,1,.4707.35352,1.357,1.357,0,0,1,.21875.51953,3.99111,3.99111,0,0,1,.03906.68359v2.55079h-.70312v-2.52344a1.89444,1.89444,0,0,0-.082-.64258.677.677,0,0,0-.291-.33984.9235.9235,0,0,0-.49023-.127,1.13759,1.13759,0,0,0-.77539.28516,1.40588,1.40588,0,0,0-.32618,1.082v2.26563Z"/>
        <path d="M138.02286,184.44092l.72656.08984a1.77148,1.77148,0,0,1-.63671.98828,2.157,2.157,0,0,1-2.63086-.209,2.19027,2.19027,0,0,1-.53321-1.57227,2.29227,2.29227,0,0,1,.53907-1.625,1.82307,1.82307,0,0,1,1.39843-.57812,1.7724,1.7724,0,0,1,1.35938.5664,2.25157,2.25157,0,0,1,.52734,1.59375c0,.042-.001.1045-.0039.1875h-3.09375a1.59685,1.59685,0,0,0,.38671,1.04688,1.15,1.15,0,0,0,.86719.36328,1.07452,1.07452,0,0,0,.66016-.20312A1.34553,1.34553,0,0,0,138.02286,184.44092Zm-2.30859-1.13672h2.3164a1.40975,1.40975,0,0,0-.26562-.78516,1.07858,1.07858,0,0,0-.87109-.40625,1.11724,1.11724,0,0,0-.81446.32422A1.28341,1.28341,0,0,0,135.71427,183.3042Z"/>
        <path d="M142.33927,185.26514a2.6038,2.6038,0,0,1-.752.46875,2.18,2.18,0,0,1-.77539.13672,1.50821,1.50821,0,0,1-1.05078-.334,1.10082,1.10082,0,0,1-.36718-.85351,1.13158,1.13158,0,0,1,.13867-.55665,1.15414,1.15414,0,0,1,.36328-.40429,1.6964,1.6964,0,0,1,.50586-.23047,5.15151,5.15151,0,0,1,.625-.10547,6.41206,6.41206,0,0,0,1.2539-.24219c.00293-.09668.00391-.15722.00391-.18359a.77676.77676,0,0,0-.19922-.60547,1.17448,1.17448,0,0,0-.80078-.23828,1.238,1.238,0,0,0-.73242.17383,1.06424,1.06424,0,0,0-.34961.61523l-.6875-.09375a1.69948,1.69948,0,0,1,.30859-.71289,1.35867,1.35867,0,0,1,.6211-.418,2.77039,2.77039,0,0,1,.9414-.14648,2.49944,2.49944,0,0,1,.86328.125,1.13755,1.13755,0,0,1,.48829.31445,1.10605,1.10605,0,0,1,.21875.47852,3.9626,3.9626,0,0,1,.03515.64843v.9375a9.8839,9.8839,0,0,0,.04492,1.24024,1.57047,1.57047,0,0,0,.17774.49805h-.73438A1.47456,1.47456,0,0,1,142.33927,185.26514Zm-.0586-1.57032a5.14874,5.14874,0,0,1-1.14843.26563,2.69623,2.69623,0,0,0-.61328.14062.60735.60735,0,0,0-.27735.22852.62151.62151,0,0,0,.11524.80273.9154.9154,0,0,0,.623.1875,1.45438,1.45438,0,0,0,.72266-.17773,1.08936,1.08936,0,0,0,.46484-.48633,1.70591,1.70591,0,0,0,.11328-.70312Z"/>
        <path d="M144.06583,185.77686v-5.72657h.70313v5.72657Z"/>
        <path d="M148.07364,185.77686v-4.14844h.63282v.6289a1.71548,1.71548,0,0,1,.44726-.582.78073.78073,0,0,1,.45117-.14062,1.36855,1.36855,0,0,1,.72266.22656l-.24219.65234a1.006,1.006,0,0,0-.51562-.15234.66765.66765,0,0,0-.41407.13867.75252.75252,0,0,0-.26171.38477,2.73862,2.73862,0,0,0-.11719.82031v2.17188Z"/>
        <path d="M153.58536,184.44092l.72656.08984a1.77148,1.77148,0,0,1-.63671.98828,2.157,2.157,0,0,1-2.63086-.209,2.19027,2.19027,0,0,1-.53321-1.57227,2.29227,2.29227,0,0,1,.53907-1.625,1.82307,1.82307,0,0,1,1.39843-.57812,1.7724,1.7724,0,0,1,1.35938.5664,2.25157,2.25157,0,0,1,.52734,1.59375c0,.042-.001.1045-.0039.1875h-3.09375a1.59685,1.59685,0,0,0,.38671,1.04688,1.15,1.15,0,0,0,.86719.36328,1.07452,1.07452,0,0,0,.66016-.20312A1.34553,1.34553,0,0,0,153.58536,184.44092Zm-2.30859-1.13672h2.3164a1.40975,1.40975,0,0,0-.26562-.78516,1.07858,1.07858,0,0,0-.87109-.40625,1.11724,1.11724,0,0,0-.81446.32422A1.28341,1.28341,0,0,0,151.27677,183.3042Z"/>
        <path d="M155.36271,185.77686v-3.60157h-.6211v-.54687h.6211V181.187a1.92634,1.92634,0,0,1,.07421-.62109.89421.89421,0,0,1,.35743-.44336,1.28808,1.28808,0,0,1,.71679-.16992,3.43594,3.43594,0,0,1,.65625.07031l-.10547.61328a2.32835,2.32835,0,0,0-.41406-.03906.61754.61754,0,0,0-.45312.13672.7388.7388,0,0,0-.13282.51172v.38281h.8086v.54687h-.8086v3.60157Z"/>
        <path d="M157.40177,185.77686v-5.72657h.70312v5.72657Z"/>
        <path d="M162.03458,184.44092l.72656.08984a1.77154,1.77154,0,0,1-.63672.98828,2.157,2.157,0,0,1-2.63086-.209,2.19031,2.19031,0,0,1-.5332-1.57227,2.29231,2.29231,0,0,1,.53906-1.625,1.82311,1.82311,0,0,1,1.39844-.57812,1.77242,1.77242,0,0,1,1.35938.5664,2.25157,2.25157,0,0,1,.52734,1.59375c0,.042-.001.1045-.00391.1875h-3.09375a1.59691,1.59691,0,0,0,.38672,1.04688,1.15,1.15,0,0,0,.86719.36328,1.07452,1.07452,0,0,0,.66016-.20312A1.3456,1.3456,0,0,0,162.03458,184.44092ZM159.726,183.3042h2.3164a1.40975,1.40975,0,0,0-.26562-.78516,1.0786,1.0786,0,0,0-.8711-.40625,1.11723,1.11723,0,0,0-.81445.32422A1.28332,1.28332,0,0,0,159.726,183.3042Z"/>
        <path d="M166.351,184.25732l.6914.08985a1.79,1.79,0,0,1-.58008,1.11914,1.69046,1.69046,0,0,1-1.14648.4043,1.78114,1.78114,0,0,1-1.36914-.55665,2.2605,2.2605,0,0,1-.51758-1.5957,2.8865,2.8865,0,0,1,.22266-1.17578,1.55087,1.55087,0,0,1,.67773-.75586,2.01262,2.01262,0,0,1,.99024-.25195,1.72336,1.72336,0,0,1,1.10547.34179,1.57035,1.57035,0,0,1,.55078.97071l-.6836.10547a1.14025,1.14025,0,0,0-.3457-.62891.894.894,0,0,0-.59961-.21094,1.09139,1.09139,0,0,0-.86328.38086,1.80566,1.80566,0,0,0-.332,1.20508,1.867,1.867,0,0,0,.32031,1.21484,1.04187,1.04187,0,0,0,.83594.37891.98554.98554,0,0,0,.6914-.25391A1.26269,1.26269,0,0,0,166.351,184.25732Z"/>
        <path d="M169.17911,185.148l.10156.62109a2.58724,2.58724,0,0,1-.53125.0625,1.2,1.2,0,0,1-.59375-.12109.6797.6797,0,0,1-.29687-.31836,2.50956,2.50956,0,0,1-.08594-.83008v-2.38672h-.51562v-.54687h.51562v-1.02735l.69922-.42187v1.44922h.707v.54687h-.707v2.42578a1.23862,1.23862,0,0,0,.03711.38672.29282.29282,0,0,0,.12109.13672.46291.46291,0,0,0,.24024.05078A2.23959,2.23959,0,0,0,169.17911,185.148Z"/>
        <path d="M169.87052,180.85889v-.8086h.70312v.8086Zm0,4.918v-4.14844h.70312v4.14844Z"/>
        <path d="M171.38224,183.70264a2.13929,2.13929,0,0,1,.64062-1.707,1.92873,1.92873,0,0,1,1.30469-.46094,1.86056,1.86056,0,0,1,1.39844.56054,2.13124,2.13124,0,0,1,.543,1.54883,2.7425,2.7425,0,0,1-.24024,1.25977,1.70252,1.70252,0,0,1-.69922.71289,2.03747,2.03747,0,0,1-1.00195.25391,1.8659,1.8659,0,0,1-1.4082-.5586A2.22978,2.22978,0,0,1,171.38224,183.70264Zm.72265,0a1.76926,1.76926,0,0,0,.34766,1.19336,1.15757,1.15757,0,0,0,1.74609-.002,1.81113,1.81113,0,0,0,.34766-1.21484,1.71345,1.71345,0,0,0-.34961-1.166,1.15918,1.15918,0,0,0-1.74414-.00195A1.76015,1.76015,0,0,0,172.10489,183.70264Z"/>
        <path d="M176.09317,185.77686v-4.14844h.63282v.58984a1.49089,1.49089,0,0,1,1.32031-.68359,1.73323,1.73323,0,0,1,.68945.13476,1.08707,1.08707,0,0,1,.47071.35352,1.35716,1.35716,0,0,1,.21875.51953,3.99217,3.99217,0,0,1,.03906.68359v2.55079h-.70313v-2.52344a1.89418,1.89418,0,0,0-.082-.64258.677.677,0,0,0-.291-.33984.92354.92354,0,0,0-.49024-.127,1.13761,1.13761,0,0,0-.77539.28516,1.40592,1.40592,0,0,0-.32617,1.082v2.26563Z"/>
        <path d="M180.26114,184.53857l.69532-.10937a.97113.97113,0,0,0,.32617.64062,1.13741,1.13741,0,0,0,.748.22266,1.09647,1.09647,0,0,0,.71875-.19727.59087.59087,0,0,0,.23438-.46289.427.427,0,0,0-.207-.375,3.07153,3.07153,0,0,0-.71875-.23828,6.55814,6.55814,0,0,1-1.07227-.33789,1.03475,1.03475,0,0,1-.45312-.39453,1.04806,1.04806,0,0,1-.1543-.55664,1.06476,1.06476,0,0,1,.12695-.51367,1.151,1.151,0,0,1,.34571-.39258,1.43817,1.43817,0,0,1,.44726-.20508,2.13854,2.13854,0,0,1,.60742-.084,2.40234,2.40234,0,0,1,.85743.14062,1.16626,1.16626,0,0,1,.54492.38086,1.48259,1.48259,0,0,1,.24219.64258l-.6875.09375a.75331.75331,0,0,0-.27149-.5.9904.9904,0,0,0-.63476-.17969,1.15048,1.15048,0,0,0-.69141.16016.46621.46621,0,0,0-.207.375.38753.38753,0,0,0,.08594.24609.62937.62937,0,0,0,.26953.1875q.10547.03956.62109.17969a8.58591,8.58591,0,0,1,1.041.32617,1.06457,1.06457,0,0,1,.46289.36914,1.02808,1.02808,0,0,1,.168.60157,1.18045,1.18045,0,0,1-.20508.6621,1.32545,1.32545,0,0,1-.5918.48047,2.15522,2.15522,0,0,1-.875.16993,1.95063,1.95063,0,0,1-1.23242-.33594A1.562,1.562,0,0,1,180.26114,184.53857Z"/>
        <path d="M184.74161,185.77686v-.80079h.80078v.80079Z"/>
        <path d="M126.15958,195.37744v-5.72656h2.16016a5.25043,5.25043,0,0,1,.87109.05469,1.72285,1.72285,0,0,1,.707.26757,1.404,1.404,0,0,1,.459.55274,1.86394,1.86394,0,0,1-.291,2.01758,2.23111,2.23111,0,0,1-1.67969.50586h-1.46875v2.32812Zm.75781-3.0039h1.48047a1.56947,1.56947,0,0,0,1.043-.27344.97323.97323,0,0,0,.30859-.76953,1.03645,1.03645,0,0,0-.18164-.61524.84646.84646,0,0,0-.47851-.33789,3.21893,3.21893,0,0,0-.707-.05078h-1.46485Z"/>
        <path d="M131.39786,195.37744V191.229h.63281v.62891a1.7155,1.7155,0,0,1,.44727-.582.78074.78074,0,0,1,.45117-.14063,1.36857,1.36857,0,0,1,.72266.22657l-.24219.65234a1.006,1.006,0,0,0-.51562-.15234.66757.66757,0,0,0-.41407.13867.75252.75252,0,0,0-.26172.38476,2.739,2.739,0,0,0-.11718.82032v2.17187Z"/>
        <path d="M136.90958,194.0415l.72656.08985a1.77161,1.77161,0,0,1-.63672.98828,2.15706,2.15706,0,0,1-2.63086-.209,2.1903,2.1903,0,0,1-.5332-1.57226,2.29229,2.29229,0,0,1,.53906-1.625,1.82312,1.82312,0,0,1,1.39844-.57813,1.77242,1.77242,0,0,1,1.35938.56641,2.25157,2.25157,0,0,1,.52734,1.59375c0,.042-.001.10449-.00391.1875h-3.09375a1.59693,1.59693,0,0,0,.38672,1.04688,1.15,1.15,0,0,0,.86719.36328,1.07453,1.07453,0,0,0,.66016-.20313A1.3455,1.3455,0,0,0,136.90958,194.0415Zm-2.30859-1.13671h2.3164a1.40969,1.40969,0,0,0-.26562-.78516,1.07857,1.07857,0,0,0-.8711-.40625,1.11723,1.11723,0,0,0-.81445.32422A1.28332,1.28332,0,0,0,134.601,192.90479Z"/>
        <path d="M138.23771,194.13916l.69531-.10937a.97115.97115,0,0,0,.32617.64062,1.13742,1.13742,0,0,0,.74805.22266,1.09649,1.09649,0,0,0,.71875-.19727.59087.59087,0,0,0,.23437-.46289.427.427,0,0,0-.207-.375,3.07153,3.07153,0,0,0-.71875-.23828,6.55948,6.55948,0,0,1-1.07227-.33789,1.03487,1.03487,0,0,1-.45312-.39453,1.04809,1.04809,0,0,1-.1543-.55664,1.06469,1.06469,0,0,1,.127-.51368,1.151,1.151,0,0,1,.3457-.39257,1.43771,1.43771,0,0,1,.44726-.20508,2.13825,2.13825,0,0,1,.60743-.084,2.40231,2.40231,0,0,1,.85742.14063,1.16619,1.16619,0,0,1,.54492.38086,1.48249,1.48249,0,0,1,.24219.64258l-.6875.09375a.75325.75325,0,0,0-.27149-.5.99038.99038,0,0,0-.63476-.17969,1.15052,1.15052,0,0,0-.69141.16016.46624.46624,0,0,0-.207.375.38753.38753,0,0,0,.08594.24609.62954.62954,0,0,0,.26953.1875q.10547.03955.62109.17969a8.58591,8.58591,0,0,1,1.041.32617,1.06451,1.06451,0,0,1,.46289.36914,1.028,1.028,0,0,1,.168.60156,1.18046,1.18046,0,0,1-.20508.66211,1.32546,1.32546,0,0,1-.5918.48047,2.15522,2.15522,0,0,1-.875.16992,1.95059,1.95059,0,0,1-1.23242-.33594A1.562,1.562,0,0,1,138.23771,194.13916Z"/>
        <path d="M142.23771,194.13916l.69531-.10937a.97115.97115,0,0,0,.32617.64062,1.13742,1.13742,0,0,0,.74805.22266,1.09649,1.09649,0,0,0,.71875-.19727.59087.59087,0,0,0,.23437-.46289.427.427,0,0,0-.207-.375,3.07153,3.07153,0,0,0-.71875-.23828,6.55948,6.55948,0,0,1-1.07227-.33789,1.03487,1.03487,0,0,1-.45312-.39453,1.04809,1.04809,0,0,1-.1543-.55664,1.06469,1.06469,0,0,1,.127-.51368,1.151,1.151,0,0,1,.3457-.39257,1.43771,1.43771,0,0,1,.44726-.20508,2.13825,2.13825,0,0,1,.60743-.084,2.40231,2.40231,0,0,1,.85742.14063,1.16619,1.16619,0,0,1,.54492.38086,1.48249,1.48249,0,0,1,.24219.64258l-.6875.09375a.75325.75325,0,0,0-.27149-.5.99038.99038,0,0,0-.63476-.17969,1.15052,1.15052,0,0,0-.69141.16016.46624.46624,0,0,0-.207.375.38753.38753,0,0,0,.08594.24609.62954.62954,0,0,0,.26953.1875q.10547.03955.62109.17969a8.58591,8.58591,0,0,1,1.041.32617,1.06451,1.06451,0,0,1,.46289.36914,1.028,1.028,0,0,1,.168.60156,1.18046,1.18046,0,0,1-.20508.66211,1.32546,1.32546,0,0,1-.5918.48047,2.15522,2.15522,0,0,1-.875.16992,1.95059,1.95059,0,0,1-1.23242-.33594A1.562,1.562,0,0,1,142.23771,194.13916Z"/>
        <path d="M152.24161,194.70166v.67578h-3.78515a1.25661,1.25661,0,0,1,.082-.48828,2.59687,2.59687,0,0,1,.46289-.76172,7.20737,7.20737,0,0,1,.91992-.86719,7.84078,7.84078,0,0,0,1.26172-1.21289,1.4515,1.4515,0,0,0,.32812-.8457.94016.94016,0,0,0-.29883-.70508,1.07789,1.07789,0,0,0-.77929-.28711,1.09761,1.09761,0,0,0-.8125.30469,1.15419,1.15419,0,0,0-.3086.84375l-.72265-.07422a1.77818,1.77818,0,0,1,.55859-1.23242,1.90819,1.90819,0,0,1,1.30078-.42383,1.81461,1.81461,0,0,1,1.30469.457,1.501,1.501,0,0,1,.48047,1.13282,1.71812,1.71812,0,0,1-.14063.67578,2.61481,2.61481,0,0,1-.46679.69922,11.36913,11.36913,0,0,1-1.084,1.00781q-.63281.53173-.8125.7207a2.26829,2.26829,0,0,0-.29687.38086Z"/>
        <path d="M153.37442,195.37744v-.80078h.80079v.80078a1.418,1.418,0,0,1-.15625.71289,1.01982,1.01982,0,0,1-.4961.41992l-.19531-.30078a.67066.67066,0,0,0,.32812-.28711,1.22126,1.22126,0,0,0,.11719-.54492Z"/>
        <path d="M157.44474,193.86572l.70312-.09375a1.54907,1.54907,0,0,0,.41211.86133,1.01909,1.01909,0,0,0,.709.26367,1.13378,1.13378,0,0,0,.83789-.34375,1.16121,1.16121,0,0,0,.34179-.85156,1.07876,1.07876,0,0,0-.3164-.79883,1.093,1.093,0,0,0-.80469-.31445,2.037,2.037,0,0,0-.49609.07812l.07812-.61718c.04688.00488.085.00781.11328.00781a1.44637,1.44637,0,0,0,.8086-.23438.80328.80328,0,0,0,.35937-.72265.85324.85324,0,0,0-.26172-.64063.93126.93126,0,0,0-.67578-.2539.9581.9581,0,0,0-.68359.25781,1.29056,1.29056,0,0,0-.35157.77344l-.70312-.125a1.80538,1.80538,0,0,1,.58594-1.09571,1.69541,1.69541,0,0,1,1.13672-.38867,1.87574,1.87574,0,0,1,.86328.20117,1.45914,1.45914,0,0,1,.60351.54883,1.40519,1.40519,0,0,1,.209.73828,1.20956,1.20956,0,0,1-.19922.67578,1.36061,1.36061,0,0,1-.58985.48438,1.328,1.328,0,0,1,.78907.48633,1.47955,1.47955,0,0,1,.28125.92383,1.69145,1.69145,0,0,1-.54688,1.27148,1.92232,1.92232,0,0,1-1.38281.52148,1.79689,1.79689,0,0,1-1.25195-.44921A1.73769,1.73769,0,0,1,157.44474,193.86572Z"/>
        <path d="M164.0463,193.30322a2.13935,2.13935,0,0,1,.64062-1.707,1.92875,1.92875,0,0,1,1.30469-.46094,1.86056,1.86056,0,0,1,1.39844.56055,2.13123,2.13123,0,0,1,.543,1.54883,2.74243,2.74243,0,0,1-.24024,1.25976,1.70243,1.70243,0,0,1-.69922.7129,2.03743,2.03743,0,0,1-1.00195.2539,1.86592,1.86592,0,0,1-1.4082-.55859A2.22979,2.22979,0,0,1,164.0463,193.30322Zm.72266,0a1.76931,1.76931,0,0,0,.34765,1.19336,1.15758,1.15758,0,0,0,1.7461-.00195,1.8112,1.8112,0,0,0,.34765-1.21484,1.71345,1.71345,0,0,0-.34961-1.166,1.15918,1.15918,0,0,0-1.74414-.00195A1.76016,1.76016,0,0,0,164.769,193.30322Z"/>
        <path d="M168.74942,195.37744V191.229h.63282v.62891a1.71537,1.71537,0,0,1,.44726-.582.78074.78074,0,0,1,.45117-.14063,1.36857,1.36857,0,0,1,.72266.22657l-.24219.65234a1.006,1.006,0,0,0-.51562-.15234.66756.66756,0,0,0-.41406.13867.7524.7524,0,0,0-.26172.38476,2.73864,2.73864,0,0,0-.11719.82032v2.17187Z"/>
        <path d="M175.70255,195.37744v-1.37109h-2.48438v-.64453l2.61329-3.71094h.57421v3.71094h.77344v.64453h-.77344v1.37109Zm0-2.01562v-2.582l-1.793,2.582Z"/>
        <path d="M178.29239,195.37744v-.80078h.80078v.80078Z"/>
      </g>
      <g>
        <path d="M134.25235,224.51807V218.7915h.75782v2.35157h2.97656V218.7915h.75781v5.72657h-.75781v-2.69922h-2.97656v2.69922Z"/>
        <path d="M139.6547,222.44385a2.13929,2.13929,0,0,1,.64062-1.707,1.92873,1.92873,0,0,1,1.30469-.46094,1.86053,1.86053,0,0,1,1.39844.56055,2.1312,2.1312,0,0,1,.543,1.54882,2.74247,2.74247,0,0,1-.24024,1.25977,1.70246,1.70246,0,0,1-.69922.71289,2.03736,2.03736,0,0,1-1.00195.25391,1.86593,1.86593,0,0,1-1.4082-.5586A2.22978,2.22978,0,0,1,139.6547,222.44385Zm.72265,0a1.76926,1.76926,0,0,0,.34766,1.19336,1.15757,1.15757,0,0,0,1.74609-.002,1.81111,1.81111,0,0,0,.34766-1.21484,1.71345,1.71345,0,0,0-.34961-1.166,1.15918,1.15918,0,0,0-1.74414-.00195A1.76015,1.76015,0,0,0,140.37735,222.44385Z"/>
        <path d="M145.518,224.51807l-1.57813-4.14844h.74219l.89063,2.48437c.09668.26856.18457.54688.26562.83594q.09375-.32812.26172-.78906l.92187-2.53125h.72266l-1.57031,4.14844Z"/>
        <path d="M151.20548,223.18213l.72656.08984a1.77154,1.77154,0,0,1-.63672.98828,2.157,2.157,0,0,1-2.63086-.209,2.19027,2.19027,0,0,1-.5332-1.57227,2.29231,2.29231,0,0,1,.53906-1.625,1.82311,1.82311,0,0,1,1.39844-.57812,1.77239,1.77239,0,0,1,1.35937.56641,2.2515,2.2515,0,0,1,.52735,1.59375c0,.042-.001.10449-.00391.1875h-3.09375a1.5969,1.5969,0,0,0,.38672,1.04687,1.15,1.15,0,0,0,.86719.36328,1.07447,1.07447,0,0,0,.66015-.20312A1.34554,1.34554,0,0,0,151.20548,223.18213Zm-2.3086-1.13672h2.31641a1.40983,1.40983,0,0,0-.26562-.78516,1.0786,1.0786,0,0,0-.8711-.40625,1.11723,1.11723,0,0,0-.81445.32422A1.28339,1.28339,0,0,0,148.89688,222.04541Z"/>
        <path d="M152.807,224.51807v-4.14844h.63281v.62891a1.71556,1.71556,0,0,1,.44727-.582.78073.78073,0,0,1,.45117-.14062,1.36855,1.36855,0,0,1,.72266.22656l-.24219.65235a1.006,1.006,0,0,0-.51563-.15235.66763.66763,0,0,0-.41406.13867.75259.75259,0,0,0-.26172.38477,2.739,2.739,0,0,0-.11718.82031v2.17188Z"/>
        <path d="M157.43985,222.44385a2.13929,2.13929,0,0,1,.64063-1.707,1.92871,1.92871,0,0,1,1.30469-.46094,1.86049,1.86049,0,0,1,1.39843.56055,2.13116,2.13116,0,0,1,.543,1.54882,2.74262,2.74262,0,0,1-.24023,1.25977,1.70258,1.70258,0,0,1-.69922.71289,2.03736,2.03736,0,0,1-1.002.25391,1.86594,1.86594,0,0,1-1.40821-.5586A2.22978,2.22978,0,0,1,157.43985,222.44385Zm.72266,0a1.76926,1.76926,0,0,0,.34766,1.19336,1.15757,1.15757,0,0,0,1.74609-.002,1.81111,1.81111,0,0,0,.34766-1.21484,1.71345,1.71345,0,0,0-.34961-1.166,1.15918,1.15918,0,0,0-1.74414-.00195A1.76015,1.76015,0,0,0,158.16251,222.44385Z"/>
        <path d="M163.30313,224.51807l-1.57812-4.14844h.74219l.89062,2.48437c.09668.26856.18457.54688.26563.83594q.09375-.32812.26172-.78906l.92187-2.53125h.72266l-1.57032,4.14844Z"/>
        <path d="M168.99063,223.18213l.72657.08984a1.77154,1.77154,0,0,1-.63672.98828,2.157,2.157,0,0,1-2.63086-.209,2.19027,2.19027,0,0,1-.5332-1.57227,2.29226,2.29226,0,0,1,.53906-1.625,1.82308,1.82308,0,0,1,1.39844-.57812,1.7724,1.7724,0,0,1,1.35937.56641,2.25154,2.25154,0,0,1,.52734,1.59375c0,.042-.001.10449-.0039.1875H166.643a1.59685,1.59685,0,0,0,.38672,1.04687,1.15,1.15,0,0,0,.86718.36328,1.0745,1.0745,0,0,0,.66016-.20312A1.34546,1.34546,0,0,0,168.99063,223.18213Zm-2.30859-1.13672h2.31641a1.40975,1.40975,0,0,0-.26563-.78516,1.07858,1.07858,0,0,0-.87109-.40625,1.11722,1.11722,0,0,0-.81445.32422A1.28339,1.28339,0,0,0,166.682,222.04541Z"/>
        <path d="M170.5922,224.51807v-4.14844h.63281v.62891a1.71543,1.71543,0,0,1,.44727-.582.78069.78069,0,0,1,.45117-.14062,1.36852,1.36852,0,0,1,.72265.22656l-.24218.65235a1.006,1.006,0,0,0-.51563-.15235.66763.66763,0,0,0-.41406.13867.75259.75259,0,0,0-.26172.38477,2.73862,2.73862,0,0,0-.11719.82031v2.17188Z"/>
        <path d="M145.2504,235.70752v-5.73828h.64063v.53906a1.579,1.579,0,0,1,.51171-.47461,1.40777,1.40777,0,0,1,.69141-.1582,1.63531,1.63531,0,0,1,.9375.27344,1.67973,1.67973,0,0,1,.61328.77148,2.8239,2.8239,0,0,1,.207,1.0918,2.77207,2.77207,0,0,1-.22851,1.14648,1.73716,1.73716,0,0,1-1.58008,1.05274,1.32791,1.32791,0,0,1-.63086-.14844,1.428,1.428,0,0,1-.459-.375v2.01953Zm.63672-3.64063a1.80518,1.80518,0,0,0,.32422,1.1836.9943.9943,0,0,0,.78515.38281,1.01553,1.01553,0,0,0,.80274-.39648,1.88175,1.88175,0,0,0,.334-1.22852,1.83092,1.83092,0,0,0-.32617-1.1875.98384.98384,0,0,0-.7793-.39453,1.01112,1.01112,0,0,0-.79492.41992A1.87874,1.87874,0,0,0,145.88712,232.06689Z"/>
        <path d="M152.41837,234.11768v-.60938a1.5188,1.5188,0,0,1-1.31641.70313,1.6753,1.6753,0,0,1-.68554-.14063,1.13184,1.13184,0,0,1-.47266-.35351,1.33052,1.33052,0,0,1-.2168-.52149,3.5951,3.5951,0,0,1-.043-.65625v-2.57031h.70313V232.27a4.13408,4.13408,0,0,0,.043.74219.73124.73124,0,0,0,.28125.43554.872.872,0,0,0,.53125.15821,1.1532,1.1532,0,0,0,.59375-.16211.90455.90455,0,0,0,.39258-.44141,2.20812,2.20812,0,0,0,.11523-.81055v-2.22265h.70313v4.14844Z"/>
        <path d="M154.14884,235.70752v-5.73828h.64062v.53906a1.5791,1.5791,0,0,1,.51172-.47461,1.40777,1.40777,0,0,1,.69141-.1582,1.63531,1.63531,0,0,1,.9375.27344,1.6798,1.6798,0,0,1,.61328.77148,2.82408,2.82408,0,0,1,.207,1.0918,2.77191,2.77191,0,0,1-.22852,1.14648,1.73713,1.73713,0,0,1-1.58007,1.05274,1.32791,1.32791,0,0,1-.63086-.14844,1.428,1.428,0,0,1-.459-.375v2.01953Zm.63672-3.64063a1.80518,1.80518,0,0,0,.32422,1.1836.99429.99429,0,0,0,.78515.38281,1.01553,1.01553,0,0,0,.80274-.39648,1.88175,1.88175,0,0,0,.334-1.22852,1.83092,1.83092,0,0,0-.32617-1.1875.98384.98384,0,0,0-.7793-.39453,1.01112,1.01112,0,0,0-.79492.41992A1.87874,1.87874,0,0,0,154.78556,232.06689Z"/>
        <path d="M158.602,229.19971v-.8086h.70313v.8086Zm0,4.918v-4.14844h.70313v4.14844Z"/>
        <path d="M160.35978,234.11768v-5.72657h.70312v5.72657Z"/>
        <path d="M162.352,234.11768v-.80079h.80078v.80079Z"/>
        <path d="M140.23087,243.71826V237.9917H142.391a5.25043,5.25043,0,0,1,.87109.05469,1.72285,1.72285,0,0,1,.707.26757,1.40394,1.40394,0,0,1,.459.55274,1.8639,1.8639,0,0,1-.291,2.01758,2.23111,2.23111,0,0,1-1.67969.50586h-1.46875v2.32812Zm.75781-3.0039h1.48047a1.56943,1.56943,0,0,0,1.043-.27344.97323.97323,0,0,0,.30859-.76953,1.03645,1.03645,0,0,0-.18164-.61524.84646.84646,0,0,0-.47851-.33789,3.21893,3.21893,0,0,0-.707-.05078h-1.46485Z"/>
        <path d="M145.46915,243.71826v-4.14844h.63281v.62891a1.7156,1.7156,0,0,1,.44727-.582.78074.78074,0,0,1,.45117-.14063,1.36857,1.36857,0,0,1,.72266.22657l-.24219.65234a1.00607,1.00607,0,0,0-.51563-.15234.66763.66763,0,0,0-.41406.13867.75252.75252,0,0,0-.26172.38476,2.739,2.739,0,0,0-.11718.82032v2.17187Z"/>
        <path d="M150.98087,242.38232l.72656.08985a1.77161,1.77161,0,0,1-.63672.98828,2.15706,2.15706,0,0,1-2.63086-.209,2.19026,2.19026,0,0,1-.5332-1.57226,2.29229,2.29229,0,0,1,.53906-1.625,1.82312,1.82312,0,0,1,1.39844-.57813,1.77242,1.77242,0,0,1,1.35938.56641,2.25157,2.25157,0,0,1,.52734,1.59375c0,.042-.001.10449-.00391.1875h-3.09375a1.59691,1.59691,0,0,0,.38672,1.04688,1.15,1.15,0,0,0,.86719.36328,1.07453,1.07453,0,0,0,.66016-.20313A1.3455,1.3455,0,0,0,150.98087,242.38232Zm-2.30859-1.13671h2.3164a1.40977,1.40977,0,0,0-.26562-.78516,1.07857,1.07857,0,0,0-.8711-.40625,1.11723,1.11723,0,0,0-.81445.32422A1.28332,1.28332,0,0,0,148.67228,241.24561Z"/>
        <path d="M152.309,242.48l.69532-.10937a.97115.97115,0,0,0,.32617.64062,1.13742,1.13742,0,0,0,.74805.22266,1.09649,1.09649,0,0,0,.71875-.19727.59086.59086,0,0,0,.23437-.46289.427.427,0,0,0-.207-.375,3.07153,3.07153,0,0,0-.71875-.23828,6.55814,6.55814,0,0,1-1.07227-.33789,1.03482,1.03482,0,0,1-.45312-.39453,1.04809,1.04809,0,0,1-.1543-.55664,1.0648,1.0648,0,0,1,.127-.51368,1.15115,1.15115,0,0,1,.34571-.39257,1.43771,1.43771,0,0,1,.44726-.20508,2.13825,2.13825,0,0,1,.60743-.084,2.40231,2.40231,0,0,1,.85742.14063,1.16619,1.16619,0,0,1,.54492.38086,1.48249,1.48249,0,0,1,.24219.64258l-.6875.09375a.75325.75325,0,0,0-.27149-.5.9904.9904,0,0,0-.63476-.17969,1.1505,1.1505,0,0,0-.69141.16016.46624.46624,0,0,0-.207.375.38753.38753,0,0,0,.08594.24609.62954.62954,0,0,0,.26953.1875q.10547.03955.62109.17969a8.58591,8.58591,0,0,1,1.041.32617,1.06451,1.06451,0,0,1,.46289.36914,1.028,1.028,0,0,1,.168.60156,1.18046,1.18046,0,0,1-.20508.66211,1.32552,1.32552,0,0,1-.5918.48047,2.15522,2.15522,0,0,1-.875.16992,1.95059,1.95059,0,0,1-1.23242-.33594A1.562,1.562,0,0,1,152.309,242.48Z"/>
        <path d="M156.309,242.48l.69532-.10937a.97115.97115,0,0,0,.32617.64062,1.13742,1.13742,0,0,0,.74805.22266,1.09649,1.09649,0,0,0,.71875-.19727.59086.59086,0,0,0,.23437-.46289.427.427,0,0,0-.207-.375,3.07153,3.07153,0,0,0-.71875-.23828,6.55814,6.55814,0,0,1-1.07227-.33789,1.03482,1.03482,0,0,1-.45312-.39453,1.04809,1.04809,0,0,1-.1543-.55664,1.0648,1.0648,0,0,1,.127-.51368,1.15115,1.15115,0,0,1,.34571-.39257,1.43771,1.43771,0,0,1,.44726-.20508,2.13825,2.13825,0,0,1,.60743-.084,2.40231,2.40231,0,0,1,.85742.14063,1.16619,1.16619,0,0,1,.54492.38086,1.48249,1.48249,0,0,1,.24219.64258l-.6875.09375a.75325.75325,0,0,0-.27149-.5.9904.9904,0,0,0-.63476-.17969,1.1505,1.1505,0,0,0-.69141.16016.46624.46624,0,0,0-.207.375.38753.38753,0,0,0,.08594.24609.62954.62954,0,0,0,.26953.1875q.10547.03955.62109.17969a8.58591,8.58591,0,0,1,1.041.32617,1.06451,1.06451,0,0,1,.46289.36914,1.028,1.028,0,0,1,.168.60156,1.18046,1.18046,0,0,1-.20508.66211,1.32552,1.32552,0,0,1-.5918.48047,2.15522,2.15522,0,0,1-.875.16992,1.95059,1.95059,0,0,1-1.23242-.33594A1.562,1.562,0,0,1,156.309,242.48Z"/>
        <path d="M165.266,243.71826h-.70313v-4.48047a3.6332,3.6332,0,0,1-.666.48438,4.76582,4.76582,0,0,1-.74023.36328v-.67969a4.23372,4.23372,0,0,0,1.03125-.67187,2.6428,2.6428,0,0,0,.625-.76563h.45313Z"/>
        <path d="M167.46134,243.71826v-.80078h.80078v.80078Z"/>
      </g>
      <g>
        <path d="M132.95646,283.30518v-5.05079h-1.88672v-.67578h4.53906v.67578h-1.89453v5.05079Z"/>
        <path d="M135.14786,281.231a2.13929,2.13929,0,0,1,.64063-1.707,1.9287,1.9287,0,0,1,1.30468-.46094,1.86049,1.86049,0,0,1,1.39844.56055,2.13116,2.13116,0,0,1,.543,1.54882,2.74264,2.74264,0,0,1-.24023,1.25977,1.70258,1.70258,0,0,1-.69922.71289,2.03751,2.03751,0,0,1-1.002.25391,1.86593,1.86593,0,0,1-1.4082-.5586A2.22978,2.22978,0,0,1,135.14786,281.231Zm.72266,0a1.76931,1.76931,0,0,0,.34765,1.19336,1.15758,1.15758,0,0,0,1.7461-.002,1.81118,1.81118,0,0,0,.34765-1.21484,1.71345,1.71345,0,0,0-.34961-1.166,1.15918,1.15918,0,0,0-1.74414-.00195A1.7602,1.7602,0,0,0,135.87052,281.231Z"/>
        <path d="M141.80021,282.06689l.69531-.10937a.97113.97113,0,0,0,.32617.64062,1.13742,1.13742,0,0,0,.74805.22266,1.09655,1.09655,0,0,0,.71875-.19726.59089.59089,0,0,0,.23437-.4629.427.427,0,0,0-.207-.375,3.07153,3.07153,0,0,0-.71875-.23828,6.55847,6.55847,0,0,1-1.07227-.33789,1.03481,1.03481,0,0,1-.45312-.39453,1.04806,1.04806,0,0,1-.1543-.55664,1.06465,1.06465,0,0,1,.127-.51367,1.151,1.151,0,0,1,.3457-.39258,1.43817,1.43817,0,0,1,.44726-.20508,2.13861,2.13861,0,0,1,.60743-.084,2.40232,2.40232,0,0,1,.85742.14062,1.16626,1.16626,0,0,1,.54492.38086,1.48259,1.48259,0,0,1,.24219.64258l-.6875.09375a.75327.75327,0,0,0-.27149-.5.99038.99038,0,0,0-.63476-.17969,1.15052,1.15052,0,0,0-.69141.16016.46624.46624,0,0,0-.207.375.38753.38753,0,0,0,.08594.24609.62937.62937,0,0,0,.26953.1875q.10547.03955.62109.17969a8.58591,8.58591,0,0,1,1.041.32617,1.06451,1.06451,0,0,1,.46289.36914,1.02808,1.02808,0,0,1,.168.60157,1.18051,1.18051,0,0,1-.20508.66211,1.32544,1.32544,0,0,1-.5918.48046,2.15505,2.15505,0,0,1-.875.16993,1.95065,1.95065,0,0,1-1.23242-.33594A1.562,1.562,0,0,1,141.80021,282.06689Z"/>
        <path d="M147.61661,282.67627l.10156.62109a2.58724,2.58724,0,0,1-.53125.0625,1.2,1.2,0,0,1-.59375-.12109.6797.6797,0,0,1-.29687-.31836,2.50956,2.50956,0,0,1-.08594-.83008v-2.38672h-.51562v-.54687h.51562v-1.02735l.69922-.42187v1.44922h.707v.54687h-.707v2.42578a1.23862,1.23862,0,0,0,.03711.38672.29282.29282,0,0,0,.12109.13672.46291.46291,0,0,0,.24024.05078A2.23959,2.23959,0,0,0,147.61661,282.67627Z"/>
        <path d="M151.01114,282.79346a2.6039,2.6039,0,0,1-.752.46875,2.18,2.18,0,0,1-.77539.13672,1.50818,1.50818,0,0,1-1.05078-.334,1.10078,1.10078,0,0,1-.36719-.85351,1.13162,1.13162,0,0,1,.13867-.55664,1.15428,1.15428,0,0,1,.36328-.4043,1.69651,1.69651,0,0,1,.50586-.23047,5.15187,5.15187,0,0,1,.625-.10547,6.41219,6.41219,0,0,0,1.25391-.24219c.00293-.09668.00391-.15722.00391-.18359a.77676.77676,0,0,0-.19922-.60547,1.17448,1.17448,0,0,0-.80078-.23828,1.238,1.238,0,0,0-.73243.17383,1.06435,1.06435,0,0,0-.34961.61523l-.6875-.09375a1.69936,1.69936,0,0,1,.3086-.71289,1.35858,1.35858,0,0,1,.62109-.418,2.77045,2.77045,0,0,1,.94141-.14648,2.49944,2.49944,0,0,1,.86328.125,1.13745,1.13745,0,0,1,.48828.31445,1.10594,1.10594,0,0,1,.21875.47852,3.9611,3.9611,0,0,1,.03516.64843v.9375a9.88183,9.88183,0,0,0,.04492,1.24024,1.57045,1.57045,0,0,0,.17773.49805h-.73437A1.47456,1.47456,0,0,1,151.01114,282.79346Zm-.05859-1.57032a5.14885,5.14885,0,0,1-1.14844.26563,2.6965,2.6965,0,0,0-.61328.14062.60732.60732,0,0,0-.27734.22852.62149.62149,0,0,0,.11523.80273.91541.91541,0,0,0,.62305.1875,1.45432,1.45432,0,0,0,.72265-.17773,1.08944,1.08944,0,0,0,.46485-.48633,1.70607,1.70607,0,0,0,.11328-.70312Z"/>
        <path d="M152.74552,283.30518v-4.14844h.63281v.6289a1.71548,1.71548,0,0,1,.44727-.582.78071.78071,0,0,1,.45117-.14062,1.36852,1.36852,0,0,1,.72265.22656l-.24218.65234a1.00607,1.00607,0,0,0-.51563-.15234.66763.66763,0,0,0-.41406.13867.75259.75259,0,0,0-.26172.38477,2.73894,2.73894,0,0,0-.11719.82031v2.17188Z"/>
        <path d="M156.95255,282.67627l.10156.62109a2.58724,2.58724,0,0,1-.53125.0625,1.2,1.2,0,0,1-.59375-.12109.67965.67965,0,0,1-.29687-.31836,2.50956,2.50956,0,0,1-.08594-.83008v-2.38672h-.51563v-.54687h.51563v-1.02735l.69922-.42187v1.44922h.707v.54687h-.707v2.42578a1.2383,1.2383,0,0,0,.03711.38672.29282.29282,0,0,0,.12109.13672.46286.46286,0,0,0,.24024.05078A2.23959,2.23959,0,0,0,156.95255,282.67627Z"/>
        <path d="M161.39786,282.67627l.10156.62109a2.58724,2.58724,0,0,1-.53125.0625,1.2,1.2,0,0,1-.59375-.12109.6797.6797,0,0,1-.29687-.31836,2.50956,2.50956,0,0,1-.08594-.83008v-2.38672H159.476v-.54687h.51562v-1.02735l.69922-.42187v1.44922h.707v.54687h-.707v2.42578a1.23862,1.23862,0,0,0,.03711.38672.29282.29282,0,0,0,.12109.13672.46291.46291,0,0,0,.24024.05078A2.23959,2.23959,0,0,0,161.39786,282.67627Z"/>
        <path d="M162.07755,283.30518v-4.14844h.63281v.6289a1.71548,1.71548,0,0,1,.44727-.582.78073.78073,0,0,1,.45117-.14062,1.36858,1.36858,0,0,1,.72266.22656l-.24219.65234a1.00607,1.00607,0,0,0-.51563-.15234.66763.66763,0,0,0-.41406.13867.75259.75259,0,0,0-.26172.38477,2.73894,2.73894,0,0,0-.11719.82031v2.17188Z"/>
        <path d="M164.75333,278.38721v-.8086h.70313v.8086Zm0,4.918v-4.14844h.70313v4.14844Z"/>
        <path d="M169.2338,282.79346a2.6039,2.6039,0,0,1-.75195.46875,2.18005,2.18005,0,0,1-.77539.13672,1.50822,1.50822,0,0,1-1.05079-.334,1.10081,1.10081,0,0,1-.36718-.85351,1.13151,1.13151,0,0,1,.13867-.55664,1.15418,1.15418,0,0,1,.36328-.4043,1.6964,1.6964,0,0,1,.50586-.23047,5.15151,5.15151,0,0,1,.625-.10547,6.41235,6.41235,0,0,0,1.25391-.24219c.00292-.09668.0039-.15722.0039-.18359a.77673.77673,0,0,0-.19922-.60547,1.17447,1.17447,0,0,0-.80078-.23828,1.238,1.238,0,0,0-.73242.17383,1.0643,1.0643,0,0,0-.34961.61523l-.6875-.09375a1.69948,1.69948,0,0,1,.30859-.71289,1.35867,1.35867,0,0,1,.6211-.418,2.77043,2.77043,0,0,1,.9414-.14648,2.49947,2.49947,0,0,1,.86329.125,1.13757,1.13757,0,0,1,.48828.31445,1.10605,1.10605,0,0,1,.21875.47852,3.9626,3.9626,0,0,1,.03515.64843v.9375a9.8839,9.8839,0,0,0,.04492,1.24024,1.57047,1.57047,0,0,0,.17774.49805h-.73438A1.47456,1.47456,0,0,1,169.2338,282.79346Zm-.05859-1.57032a5.149,5.149,0,0,1-1.14844.26563,2.69636,2.69636,0,0,0-.61328.14062.60735.60735,0,0,0-.27735.22852.62151.62151,0,0,0,.11524.80273.9154.9154,0,0,0,.623.1875,1.45438,1.45438,0,0,0,.72266-.17773,1.08936,1.08936,0,0,0,.46484-.48633,1.70588,1.70588,0,0,0,.11329-.70312Z"/>
        <path d="M170.96036,283.30518v-5.72657h.70313v5.72657Z"/>
        <path d="M172.94864,279.95752v-.80078h.80078v.80078Zm0,3.34766v-.80079h.80078v.80079Z"/>
        <path d="M138.83536,292.90479v-5.72657h2.16016a5.25145,5.25145,0,0,1,.87109.05469,1.72286,1.72286,0,0,1,.707.26758,1.40393,1.40393,0,0,1,.459.55273,1.86388,1.86388,0,0,1-.291,2.01758,2.23111,2.23111,0,0,1-1.67969.50586h-1.46875v2.32813Zm.75781-3.00391h1.48047a1.56941,1.56941,0,0,0,1.043-.27344.97321.97321,0,0,0,.3086-.76953,1.0364,1.0364,0,0,0-.18165-.61523.84642.84642,0,0,0-.47851-.33789,3.21875,3.21875,0,0,0-.707-.05079h-1.46485Z"/>
        <path d="M144.07364,292.90479v-4.14844h.63282v.6289a1.71548,1.71548,0,0,1,.44726-.582.78073.78073,0,0,1,.45117-.14062,1.36855,1.36855,0,0,1,.72266.22656l-.24219.65234a1.006,1.006,0,0,0-.51562-.15234.66765.66765,0,0,0-.41407.13867.75252.75252,0,0,0-.26171.38477,2.73862,2.73862,0,0,0-.11719.82031v2.17188Z"/>
        <path d="M149.58536,291.56885l.72656.08984a1.77148,1.77148,0,0,1-.63671.98828,2.157,2.157,0,0,1-2.63086-.209,2.19029,2.19029,0,0,1-.53321-1.57227,2.29225,2.29225,0,0,1,.53907-1.625,1.82307,1.82307,0,0,1,1.39843-.57812,1.7724,1.7724,0,0,1,1.35938.5664,2.25157,2.25157,0,0,1,.52734,1.59375c0,.042-.001.1045-.0039.1875h-3.09375a1.59685,1.59685,0,0,0,.38671,1.04688,1.15,1.15,0,0,0,.86719.36328,1.07452,1.07452,0,0,0,.66016-.20312A1.34553,1.34553,0,0,0,149.58536,291.56885Zm-2.30859-1.13672h2.3164a1.40975,1.40975,0,0,0-.26562-.78516,1.07855,1.07855,0,0,0-.87109-.40625,1.11724,1.11724,0,0,0-.81446.32422A1.28341,1.28341,0,0,0,147.27677,290.43213Z"/>
        <path d="M150.91349,291.6665l.69531-.10937a.97113.97113,0,0,0,.32617.64062,1.13743,1.13743,0,0,0,.74805.22266,1.09649,1.09649,0,0,0,.71875-.19727.59086.59086,0,0,0,.23437-.46289.427.427,0,0,0-.207-.375,3.07153,3.07153,0,0,0-.71875-.23828,6.55793,6.55793,0,0,1-1.07226-.33789,1.03478,1.03478,0,0,1-.45313-.39453,1.04806,1.04806,0,0,1-.1543-.55664,1.06474,1.06474,0,0,1,.127-.51367,1.151,1.151,0,0,1,.3457-.39258,1.43823,1.43823,0,0,1,.44727-.20508,2.13849,2.13849,0,0,1,.60742-.084,2.40228,2.40228,0,0,1,.85742.14062,1.16626,1.16626,0,0,1,.54492.38086,1.48259,1.48259,0,0,1,.24219.64258l-.6875.09375a.75327.75327,0,0,0-.27149-.5.99038.99038,0,0,0-.63476-.17969,1.15052,1.15052,0,0,0-.69141.16016.46624.46624,0,0,0-.207.375.38753.38753,0,0,0,.08594.24609.62943.62943,0,0,0,.26953.1875q.10547.03955.62109.17969a8.58591,8.58591,0,0,1,1.041.32617,1.06446,1.06446,0,0,1,.46289.36914,1.02808,1.02808,0,0,1,.168.60157,1.18045,1.18045,0,0,1-.20508.6621,1.3254,1.3254,0,0,1-.5918.48047,2.15522,2.15522,0,0,1-.875.16993,1.95065,1.95065,0,0,1-1.23242-.33594A1.56206,1.56206,0,0,1,150.91349,291.6665Z"/>
        <path d="M154.91349,291.6665l.69531-.10937a.97113.97113,0,0,0,.32617.64062,1.13743,1.13743,0,0,0,.74805.22266,1.09649,1.09649,0,0,0,.71875-.19727.59086.59086,0,0,0,.23437-.46289.427.427,0,0,0-.207-.375,3.07153,3.07153,0,0,0-.71875-.23828,6.55793,6.55793,0,0,1-1.07226-.33789,1.03478,1.03478,0,0,1-.45313-.39453,1.04806,1.04806,0,0,1-.1543-.55664,1.06474,1.06474,0,0,1,.127-.51367,1.151,1.151,0,0,1,.3457-.39258,1.43823,1.43823,0,0,1,.44727-.20508,2.13849,2.13849,0,0,1,.60742-.084,2.40228,2.40228,0,0,1,.85742.14062,1.16626,1.16626,0,0,1,.54492.38086,1.48259,1.48259,0,0,1,.24219.64258l-.6875.09375a.75327.75327,0,0,0-.27149-.5.99038.99038,0,0,0-.63476-.17969,1.15052,1.15052,0,0,0-.69141.16016.46624.46624,0,0,0-.207.375.38753.38753,0,0,0,.08594.24609.62943.62943,0,0,0,.26953.1875q.10547.03955.62109.17969a8.58591,8.58591,0,0,1,1.041.32617,1.06446,1.06446,0,0,1,.46289.36914,1.02808,1.02808,0,0,1,.168.60157,1.18045,1.18045,0,0,1-.20508.6621,1.3254,1.3254,0,0,1-.5918.48047,2.15522,2.15522,0,0,1-.875.16993,1.95065,1.95065,0,0,1-1.23242-.33594A1.56206,1.56206,0,0,1,154.91349,291.6665Z"/>
        <path d="M161.0463,292.90479v-.57032l2.64062-3.03125c-.2998.01563-.56347.02344-.793.02344h-1.69141v-.57031h3.39062v.46484l-2.24609,2.63281-.43359.48047c.31543-.02343.61035-.03515.88672-.03515h1.918v.60547Z"/>
        <path d="M165.601,292.90479V292.104h.80078v.80079a1.418,1.418,0,0,1-.15625.71289,1.01983,1.01983,0,0,1-.4961.41992l-.19531-.30078a.67078.67078,0,0,0,.32813-.28711,1.22148,1.22148,0,0,0,.11718-.54492Z"/>
        <path d="M143.017,301.87646l.10156.6211a2.58794,2.58794,0,0,1-.53125.0625,1.1999,1.1999,0,0,1-.59375-.1211.67968.67968,0,0,1-.29687-.31835,2.5096,2.5096,0,0,1-.08594-.83008v-2.38672h-.51562v-.54688h.51562v-1.02734l.69922-.42188v1.44922h.707v.54688h-.707v2.42578a1.23866,1.23866,0,0,0,.03711.38672.29282.29282,0,0,0,.12109.13672.46291.46291,0,0,0,.24024.05078A2.23828,2.23828,0,0,0,143.017,301.87646Z"/>
        <path d="M143.7045,302.50537v-5.72656h.70313v2.05469a1.57175,1.57175,0,0,1,1.24218-.57032,1.67422,1.67422,0,0,1,.80079.18164,1.06506,1.06506,0,0,1,.48632.502,2.31488,2.31488,0,0,1,.14649.92968v2.62891h-.70313v-2.62891a1.08622,1.08622,0,0,0-.22851-.76757.8502.8502,0,0,0-.64649-.24024,1.1377,1.1377,0,0,0-.58789.16211.91853.91853,0,0,0-.39258.43945,2.01853,2.01853,0,0,0-.11718.76563v2.26953Z"/>
        <path d="M150.99356,301.16943l.72657.08985a1.77161,1.77161,0,0,1-.63672.98828,2.15706,2.15706,0,0,1-2.63086-.209,2.19026,2.19026,0,0,1-.5332-1.57226,2.29225,2.29225,0,0,1,.53906-1.625,1.82309,1.82309,0,0,1,1.39844-.57813,1.7724,1.7724,0,0,1,1.35937.56641,2.25157,2.25157,0,0,1,.52734,1.59375c0,.042-.001.10449-.0039.1875h-3.09375a1.59682,1.59682,0,0,0,.38672,1.04687,1.15,1.15,0,0,0,.86718.36329,1.0745,1.0745,0,0,0,.66016-.20313A1.34536,1.34536,0,0,0,150.99356,301.16943Zm-2.30859-1.13672h2.31641a1.40968,1.40968,0,0,0-.26563-.78515,1.07855,1.07855,0,0,0-.87109-.40625,1.11722,1.11722,0,0,0-.81445.32422A1.28337,1.28337,0,0,0,148.685,300.03271Z"/>
        <path d="M152.60294,302.50537v-4.14844h.63281v.58985a1.4909,1.4909,0,0,1,1.32031-.6836,1.73328,1.73328,0,0,1,.68946.13477,1.087,1.087,0,0,1,.4707.35351,1.357,1.357,0,0,1,.21875.51954,3.991,3.991,0,0,1,.03906.68359v2.55078h-.70312v-2.52344a1.89437,1.89437,0,0,0-.082-.64257.677.677,0,0,0-.291-.33985.9235.9235,0,0,0-.49023-.12695,1.13763,1.13763,0,0,0-.77539.28515,1.40591,1.40591,0,0,0-.32618,1.082v2.26562Z"/>
        <path d="M159.24356,304.103l-.07812-.66016a1.55289,1.55289,0,0,0,.40234.0625.77587.77587,0,0,0,.375-.07812.63349.63349,0,0,0,.23047-.21875,3.4654,3.4654,0,0,0,.21485-.52344c.01269-.03906.03418-.09668.0625-.17188l-1.57422-4.15625h.75781l.86328,2.40235q.16846.457.30078.96093a9.46337,9.46337,0,0,1,.28906-.94531l.88672-2.418h.70313l-1.57813,4.21875a8.1926,8.1926,0,0,1-.39453.94141,1.397,1.397,0,0,1-.42969.50977,1.01248,1.01248,0,0,1-.57812.1621A1.39964,1.39964,0,0,1,159.24356,304.103Z"/>
        <path d="M162.88028,302.50537v-.80078h.80078v.80078Z"/>
      </g>
      <path d="M8.308,158.50342H6.73575l-.625-1.626H3.24942l-.59082,1.626H1.1254l2.78809-7.15821H5.44181Zm-2.66114-2.832-.98632-2.65625-.9668,2.65625Z"/>
      <path d="M1.86954,206.45361H4.73087a8.32172,8.32172,0,0,1,1.26709.07032,1.87667,1.87667,0,0,1,.74707.29589,1.82607,1.82607,0,0,1,.54932.59864,1.61545,1.61545,0,0,1,.21972.83691,1.69688,1.69688,0,0,1-1.00586,1.55274,1.88624,1.88624,0,0,1,1.00586.64941,1.72374,1.72374,0,0,1,.35156,1.0791,2.13364,2.13364,0,0,1-.22705.9502,1.91322,1.91322,0,0,1-.62011.73632,2.03807,2.03807,0,0,1-.96924.33985q-.36108.03955-1.74317.04883H1.86954ZM3.31485,207.645v1.65527h.94727q.84448,0,1.0498-.02441a.96015.96015,0,0,0,.5835-.25586.75808.75808,0,0,0,.2124-.55957.78668.78668,0,0,0-.1831-.54.832.832,0,0,0-.54444-.251q-.21459-.0249-1.23535-.02441Zm0,2.84668v1.91406H4.65274a6.53964,6.53964,0,0,0,.99122-.04394.90094.90094,0,0,0,.5249-.28516.88141.88141,0,0,0,.20263-.6084.93425.93425,0,0,0-.15625-.54687.88481.88481,0,0,0-.45166-.32715,4.90787,4.90787,0,0,0-1.28173-.10254Z"/>
      <path d="M6.44474,264.62646l1.40136.44434A3.14152,3.14152,0,0,1,6.77433,266.811a3.05324,3.05324,0,0,1-1.90186.56933,3.08159,3.08159,0,0,1-2.34375-.97363,3.7315,3.7315,0,0,1-.918-2.66406,3.91015,3.91015,0,0,1,.92285-2.77539,3.16154,3.16154,0,0,1,2.42676-.98926,2.97761,2.97761,0,0,1,2.13379.77636,2.81749,2.81749,0,0,1,.73242,1.31836l-1.43066.3418a1.47874,1.47874,0,0,0-1.50879-1.20117,1.62871,1.62871,0,0,0-1.2915.57129A2.80007,2.80007,0,0,0,3.1,263.63525a3.00033,3.00033,0,0,0,.48828,1.9336,1.58655,1.58655,0,0,0,1.26953.57617,1.44774,1.44774,0,0,0,.99121-.36621A2.126,2.126,0,0,0,6.44474,264.62646Z"/>
      <line class="cls-28" x1="34.39901" y1="143.89813" x2="134.30216" y2="143.89813"/>
    </g>
  </g>
</svg>
